<?xml version="1.0" encoding="UTF-8" standalone="no"?>
<!DOCTYPE svg PUBLIC "-//W3C//DTD SVG 1.1//EN" "http://www.w3.org/Graphics/SVG/1.1/DTD/svg11.dtd">
<!-- Created with Vectornator (http://vectornator.io/) -->
<svg height="100%" stroke-miterlimit="10" style="fill-rule:nonzero;clip-rule:evenodd;stroke-linecap:round;stroke-linejoin:round;" version="1.1" viewBox="0 0 255 255" width="100%" xml:space="preserve" xmlns="http://www.w3.org/2000/svg" xmlns:vectornator="http://vectornator.io" xmlns:xlink="http://www.w3.org/1999/xlink">
<defs/>
<clipPath id="ArtboardFrame">
<rect height="255" width="255" x="0" y="0"/>
</clipPath>
<g clip-path="url(#ArtboardFrame)" id="레이어-1" vectornator:layerName="레이어 1">
<path d="M469.489 131.314C471 131.206 472.511 131.098 474.022 130.99" fill="none" fill-rule="evenodd" opacity="1" stroke="#000000" stroke-linecap="round" stroke-linejoin="round" stroke-width="10"/>
<path d="M422.873 153.004C422.873 150.909 423.128 148.672 424.167 146.853" fill="none" fill-rule="evenodd" opacity="1" stroke="#000000" stroke-linecap="round" stroke-linejoin="round" stroke-width="10"/>
<path d="M-0.379624 151.019C-1.51978 147.773 2.3297 151.66 3.10948 152.336C6.01767 154.855 8.63704 157.653 11.5085 160.221C18.8498 166.788 27.2509 172.568 35.4377 178.027C48.8839 186.993 63.786 193.681 77.9164 201.423C89.9015 207.99 102.65 215.885 116.385 218.056C132.172 220.551 147.802 210.94 160.762 203.256C173.57 195.663 186.088 187.225 197.654 177.829C210.94 167.035 222.859 154.792 235.244 143.016C242.853 135.781 250.609 128.681 257.685 120.909C261.428 116.797 265.416 112.721 267.294 107.425" fill="none" fill-rule="evenodd" opacity="1" stroke="#b3724d" stroke-linecap="round" stroke-linejoin="round" stroke-width="10"/>
<path d="M-6.76228 177.655C-3.73346 175.86 0.891209 180.09 3.25505 181.703C7.31501 184.475 11.563 187.073 15.2961 190.307C17.9316 192.59 20.2973 195.099 23.1011 197.19C30.7841 202.92 41.4924 206.272 49.9986 210.866C58.7467 215.59 67.6948 220.024 76.3951 224.838C80.3447 227.024 84.1562 229.667 88.2966 231.493C92.1269 233.183 96.2276 234.395 100.109 236C106.303 238.561 111.982 242.185 118.395 244.287C129.992 248.089 142.994 240.95 152.901 235.678C178.144 222.244 199.598 203.97 221.535 185.845C240.302 170.339 260.971 155.806 273.744 134.578" fill="none" fill-rule="evenodd" opacity="1" stroke="#b3724d" stroke-linecap="round" stroke-linejoin="round" stroke-width="10"/>
<path d="M20.663-18.2015C20.4794-19.3031 20.5025-21.9108 20.0615-23.0135C19.872-23.4871 18.6387-22.5306 17.455-21.61C16.7453-21.058 16.1521-20.3672 15.45-19.8055C12.2182-17.2201 8.98173-14.6776 5.82607-11.986C-3.89195-3.69713-14.0084 4.63838-22.4443 14.2793C-24.7777 16.9461-27.7188 20.6796-28.8602 24.1038C-29.045 24.658-29.4137 26.3921-28.4592 26.7103C-25.8678 27.5741-22.251 25.0212-20.2388 23.9033C-15.3819 21.205-10.5632 18.3385-5.80286 15.4823C14.3621 3.38332 34.8627-8.24898 54.7478-20.808C60.504-24.4435 66.3641-27.9028 72.1912-31.4344C73.0637-31.9632 73.9229-32.5135 74.7977-33.0384C75.1558-33.2533 78.2062-34.6977 78.2062-35.2439C78.2062-35.4688 78.1767-35.4297 76.2012-34.4419C75.2655-33.9741 74.3223-33.521 73.3942-33.0384C70.5277-31.5478 67.7488-29.8665 64.9733-28.2264C55.7145-22.7553 46.4298-17.3435 37.1039-11.986C21.1637-2.82889 5.14409 6.16215-10.8153 15.2818C-14.4096 17.3357-17.8976 19.5713-21.4418 21.6978C-21.7957 21.9101-24.4493 23.4977-24.4493 23.7028C-24.4493 23.9731-23.8273 23.9369-21.8428 23.1013C-19.1671 21.9747-16.5136 20.7859-13.8228 19.6928C-9.0992 17.7738-4.31628 15.987 0.412603 14.0788C17.336 7.25009 34.6323 1.58465 52.1413-3.56507C90.1371-14.7403 128.321-23.0647 167.629-28.0259C181.752-29.8084 196.083-31.6349 210.335-31.6349C210.469-31.6349 210.065-31.6611 209.934-31.6349C209.394-31.5268 208.873-31.3276 208.33-31.2339C206.933-30.993 205.519-30.8594 204.119-30.6324C199.452-29.8755 194.776-29.2858 190.085-28.6274C177.427-26.8509 164.77-24.8859 152.19-22.6125C107.216-14.4845 62.4439-3.74106 18.4575 8.66536C9.61733 11.1587 0.834246 13.5427-7.80785 16.6853C-9.13875 17.1693-10.4743 17.641-11.8178 18.0888C-12.0267 18.1584-13.6535 18.8284-13.6223 18.8908C-13.4275 19.2805-5.97503 19.3342-5.00087 19.2918C1.85602 18.9937 8.66836 17.0767 15.2495 15.2818C46.8088 6.67474 79.9821 2.47931 112.491-0.156591C147.671-3.00895 182.89-3.18176 218.154-3.56507C226.911-3.66025 235.666-3.78743 244.42-3.96607C245.758-3.99338 247.097-4.0454 248.43-4.16657C249.513-4.26507 251.151-3.79496 251.638-4.76807C251.791-5.07374 248.959-5.16906 248.63-5.16906C245.511-5.16906 242.229-3.65033 239.207-2.96358C231.585-1.23129 223.952-0.958586 216.149-0.958586C194.096-0.958586 172.045-0.370641 149.985-0.557588C103.174-0.954287 56.5337 1.41249 9.83605 4.65538C-0.322982 5.36087-10.4825 5.44944-20.6398 6.05888C-22.0471 6.14331-23.4507 6.29022-24.8503 6.45987C-25.4584 6.53358-31.2443 7.23997-31.6672 7.66287C-32.2382 8.23389-30.2679 8.61794-29.4617 8.66536C-26.0419 8.86653-22.444 8.79258-19.0358 8.46486C-10.7259 7.66583-2.48641 6.24904 5.82607 5.45738C28.9588 3.25426 52.1707 2.64533 75.3992 2.85089C121.28 3.25692 167.158 6.87581 212.941 9.46736C227.318 10.2811 241.694 11.3356 256.049 12.4748C261.525 12.9095 266.996 13.2768 272.49 13.2768C272.891 13.2768 273.312 13.4036 273.693 13.2768C273.893 13.21 273.286 13.1576 273.091 13.0763C272.484 12.8232 271.921 12.4505 271.287 12.2743C268.849 11.5972 266.338 11.2192 263.868 10.6704C256.075 8.93849 248.295 7.14401 240.41 5.85838C219.952 2.52285 199.35 1.77075 178.656 1.4474C132.259 0.722445 85.7938 5.56203 39.5099 8.06386C22.6123 8.97725 5.70135 9.77177-11.2163 10.2694C-15.7501 10.4027-20.3133 10.4699-24.8503 10.4699C-25.9196 10.4699-26.9972 10.6025-28.0582 10.4699C-28.2065 10.4513-28.4592 10.1199-28.4592 10.2694C-28.4592 11.3113-24.361 11.6522-24.2488 11.6728C-18.4994 12.7319-12.7991 13.8527-7.00586 14.6803C9.94086 17.1013 27.046 18.2506 44.1214 19.2918C105.477 23.033 166.765 27.4093 228.179 30.1187C240.406 30.6582 252.63 31.0614 264.871 30.9207C266.342 30.9038 267.82 30.8902 269.282 30.7202C270.701 30.5552 272.118 30.3107 273.492 29.9182C274.154 29.7291 275.634 28.8026 275.698 27.9133C275.809 26.36 274.348 25.7048 273.292 25.1063C271.913 24.3252 270.547 23.5016 269.081 22.9008C266.46 21.8267 263.752 20.9774 261.061 20.0938C243.187 14.2247 224.194 12.455 205.523 11.4723C166.957 9.44255 128.923 13.2082 90.8376 19.0913C69.486 22.3895 47.7697 26.0492 27.079 32.3242C16.5009 35.5323 6.97018 39.7669-3.19638 43.9532" fill="none" fill-rule="evenodd" opacity="1" stroke="#b3724d" stroke-linecap="round" stroke-linejoin="round" stroke-width="10"/>
<path d="M20.8635 55.9831C20.2416 55.9054 14.926 55.2586 14.648 54.9806C14.5135 54.846 16.0513 54.9806 16.0515 54.9806C17.0722 55.1507 17.9957 55.1811 19.059 55.1811C21.9793 55.1811 24.7824 54.7201 27.6805 54.3791C33.6771 53.6736 39.7083 53.076 45.7254 52.5746C49.2789 52.2785 52.3364 52.3091 55.7503 51.1711" fill="none" fill-rule="evenodd" opacity="1" stroke="#b3724d" stroke-linecap="round" stroke-linejoin="round" stroke-width="10"/>
<path d="M108.883 40.9457C112.854 40.2237 116.344 38.3644 120.11 36.9357C126.709 34.4329 133.451 32.1007 140.16 29.9182C149.294 26.9471 158.625 24.9932 167.829 22.2993C173.245 20.7142 178.516 18.6703 183.869 16.8858C188.85 15.2255 193.66 13.5488 198.506 11.4723C199.055 11.2369 199.888 11.2254 200.11 10.6704C200.26 10.2929 199.313 10.4883 198.907 10.4699C197.838 10.4213 196.765 10.3918 195.699 10.4699C194.02 10.5927 192.349 10.8155 190.686 11.0713C182.965 12.2592 173.929 13.7841 166.025 15.2818C140.258 20.164 115.284 27.1959 90.6371 36.1337C83.0088 38.9 75.5796 42.1222 67.9807 44.9557C66.2578 45.5981 64.504 46.1545 62.7678 46.7602C61.2905 47.2755 59.9213 48.3641 58.3568 48.3641C58.1158 48.3641 58.7517 48.0871 58.9583 47.9631C59.7544 47.4855 60.5483 47.0026 61.3643 46.5597C62.888 45.7325 64.4305 44.9399 65.9757 44.1537C68.2401 43.0016 70.499 41.8374 72.7927 40.7452C77.5171 38.4955 82.251 36.264 87.0281 34.1287C109.076 24.2741 131.815 16.681 155.398 11.4723C162.093 9.99366 168.92 9.17989 175.649 7.86337C175.919 7.81046 176.726 7.66287 176.451 7.66287C170.448 7.66287 163.382 9.06168 157.604 10.0689C148.913 11.5838 140.298 13.5431 131.739 15.6828C111.996 20.6186 93.0393 27.4437 73.9957 34.5297C62.2496 38.9004 50.5391 43.8155 38.5074 47.3617C36.4075 47.9806 34.2587 48.4555 32.0914 48.7651C31.8529 48.7992 31.3692 48.5727 31.4899 48.3641C33.0738 45.6284 34.1073 44.9493 36.5024 43.5522C42.1663 40.2482 47.7458 36.7883 53.5448 33.7277C75.6908 22.0395 100.41 15.4401 124.321 8.66536C127.457 7.77692 130.578 6.82917 133.744 6.05888C135.999 5.51054 138.241 4.65538 140.561 4.65538C140.984 4.65538 139.758 4.91811 139.358 5.05638C138.02 5.51962 136.699 6.03342 135.348 6.45987C132.888 7.23673 130.41 7.95664 127.93 8.66536C124.328 9.69436 120.7 10.6276 117.103 11.6728C108.029 14.3096 98.9709 17.0205 90.0356 20.0938C67.8108 27.738 46.2886 37.0757 24.4725 45.7577C20.8167 47.2125 17.1531 48.6524 13.445 49.9681C12.9997 50.1262 12.4046 50.4712 12.0415 50.1686C11.3058 49.5555 12.6792 48.3742 14.648 46.9607C16.4097 45.6958 18.2209 44.4987 20.0615 43.3517C22.8338 41.624 25.6575 39.9795 28.4825 38.3392C48.3625 26.7959 69.0555 17.0322 89.6346 6.86087C93.5749 4.91339 97.6691 3.17484 101.264 0.645405C101.845 0.236549 102.821-0.26506 102.667-0.958586C102.536-1.54937 101.463-1.23653 100.863-1.15909C99.3671-0.966127 97.9171-0.511157 96.4516-0.156591C93.7733 0.491391 91.1026 1.17069 88.4316 1.8484C80.9732 3.74084 73.6197 6.06735 66.3767 8.66536C47.5297 15.4257 29.6849 23.7292 12.0415 33.1262C9.34869 34.5605 6.66611 36.0157 4.02158 37.5372C1.78623 38.8233-0.401264 40.1911-2.59488 41.5472C-4.34612 42.6298-9.46801 46.0375-7.60735 45.1562C-6.58056 44.6698-5.61174 44.0689-4.59987 43.5522C-2.47035 42.4648-0.305769 41.4465 1.8161 40.3442C4.8408 38.7729 7.82302 37.121 10.8385 35.5322C14.0386 33.8462 17.2471 32.1762 20.4625 30.5197C28.0889 26.591 35.6851 22.6037 43.3194 18.6903C52.9731 13.7418 62.8101 9.14414 72.3917 4.05389C74.9324 2.70416 77.7759 1.6772 79.8102-0.35709C79.9438-0.490756 79.5982-0.758087 79.4092-0.758087C78.5301-0.758087 77.6659-0.523096 76.8027-0.35709C75.9271-0.188701 75.0508-0.0101418 74.1962 0.244407C71.9073 0.926207 69.6405 1.68149 67.3792 2.4499C62.7564 4.02077 58.1503 5.64074 53.5448 7.26187C35.6187 13.5719 18.4816 21.3978 1.4151 29.7177C-3.20596 31.9705-7.82114 34.2356-12.4193 36.5347C-13.5424 37.0963-14.7047 37.5771-15.8278 38.1387C-16.3097 38.3797-17.6624 39.264-17.2313 38.9407C-9.43937 33.0967 1.20503 28.5334 9.63555 24.1038C19.6969 18.8173 29.7067 13.4591 39.7104 8.06386C42.4474 6.58772 45.1825 5.10788 47.9308 3.65289C49.7273 2.70184 51.5675 1.83304 53.3443 0.845904C53.9631 0.502144 58.3568-2.15615 58.3568-2.36208C58.3568-2.84863 57.4064-2.13838 56.9533-1.96108C55.8664-1.53576 54.8129-1.02932 53.7453-0.557588C51.9391 0.240508 50.1469 1.07053 48.3318 1.8484C43.2421 4.02971 38.1199 6.14036 33.0939 8.46486C19.2589 14.8636 5.41674 22.337-7.20636 30.9207C-10.0913 32.8825-12.903 34.9568-15.6273 37.1362C-16.4525 37.7963-18.179 38.9955-17.4318 39.7427C-16.5228 40.6517-14.8529 39.5132-13.6223 39.1412C-11.6599 38.5479-9.73538 37.8346-7.80785 37.1362C1.82055 33.6477 11.3131 29.8005 20.8635 26.1088C45.8234 16.4604 70.8681 6.68313 96.6521-0.557588C101.85-2.01717 107.064-3.41635 112.291-4.76807C114.818-5.42154 117.362-6.00639 119.91-6.57256C121.573-6.94219 123.244-7.27894 124.922-7.57505C125.518-7.68022 126.16-7.98805 126.727-7.77555C126.985-7.67879 126.73-7.15976 126.526-6.97355C125.884-6.38473 125.109-5.94215 124.321-5.57006C122.694-4.80165 121.001-4.17677 119.308-3.56507C112.272-1.02187 105.16 1.30829 98.0556 3.65289C90.8101 6.04389 83.6012 8.54522 76.4017 11.0713C68.4222 13.8712 60.4546 16.7083 52.5423 19.6928C36.7592 25.6461 21.2084 32.22 5.42508 38.1387C5.08809 38.2651 6.08894 37.8596 6.42757 37.7377C7.76002 37.258 9.09647 36.7892 10.4375 36.3342C12.8392 35.5194 15.2524 34.7389 17.6555 33.9282C24.5342 31.6077 29.9525 29.6762 36.9034 27.5123C50.8729 23.1633 64.9491 19.5411 79.2087 16.2843C124.345 5.97533 170.738-1.08961 217.152-0.758087C222.5-0.719886 227.848-0.564634 233.192-0.35709C238.216-0.161982 243.87-0.115159 248.63 1.6479C249.169 1.84758 249.758 2.14568 250.034 2.65039C250.793 4.0417 247.93 4.97235 247.628 5.05638C244.799 5.84221 241.894 6.32783 239.006 6.86087C234.042 7.7774 228.982 8.06857 223.969 8.66536C207.889 10.5796 191.743 11.8443 175.649 13.6778C130.791 18.7882 85.2351 26.1454 41.9159 39.1412C32.3383 42.0145 22.6805 44.6544 13.2445 47.9631C9.67185 49.2159 6.1517 50.614 2.61809 51.9731C1.33213 52.4677 0.0409514 52.9609-1.19139 53.5771C-1.67333 53.8181-2.72556 53.8564-2.59488 54.3791C-2.46816 54.886 0.581228 53.9863 0.613102 53.9781C2.41852 53.5139 4.23269 53.0816 6.02657 52.5746C15.6456 49.8562 25.2383 47.1307 34.8984 44.5547C59.3876 38.0242 83.806 31.6208 108.883 27.7128C118.808 26.1659 129.486 24.8173 139.559 25.5073C141.158 25.6168 146.707 26.6229 144.17 28.3143" fill="none" fill-rule="evenodd" opacity="1" stroke="#b3724d" stroke-linecap="round" stroke-linejoin="round" stroke-width="10"/>
<g opacity="1">
<path d="M15.8438 44.1562C14.7103 44.2152 13.5649 44.4165 12.4375 44.6875C9.74061 45.3471 8.09045 48.0531 8.75 50.75C9.19648 52.5756 10.6237 53.8688 12.3125 54.3438C9.73864 54.9711 7.16332 55.6183 4.65625 56.4688C0.468428 57.8893-3.9622 59.5235-7.71875 61.9062C-12.5215 64.9526-16.8836 69.9175-16.7188 75.75C-16.6952 76.5832-16.5632 77.4154-16.3438 78.2812C-16.105 79.2234-15.7534 80.1515-15.2812 81C-14.6217 82.1854-13.7632 83.2524-12.7812 84.1875C-10.1849 86.66-6.99042 88.3827-3.6875 89.7188C2.05771 92.0427 8.12447 93.0405 14.2812 93.5C22.4891 94.1126 30.719 93.6713 38.9375 93.7812C46.5785 93.8834 54.22 94.4924 61.8438 94.9688C64.7706 95.15 67.2875 92.9268 67.4688 90C67.65 87.0731 65.4269 84.5563 62.5 84.375C53.5339 83.8247 44.5512 83.1444 35.5625 83.1875C28.7309 83.2203 21.8837 83.4712 15.0625 82.9688C10.863 82.6594 6.67402 82.1158 2.65625 80.8125C0.11922 79.9896-2.46964 78.9783-4.625 77.375C-5.61109 76.6415-6.42175 76.0205-6.15625 74.9688C-5.87826 73.8675-4.96437 72.9212-4.15625 72.1875C-2.21454 70.4247 0.20935 69.385 2.59375 68.375C6.93052 66.538 11.471 65.0641 16.0938 64C15.2473 65.7588 14.5071 67.5712 14.5938 69.5625C14.7788 73.8139 18.2215 76.8755 22.125 77.9062C23.6608 78.3118 25.2329 78.4714 26.8125 78.5938C31.6753 78.9703 36.618 78.3579 41.3125 77.0625C44.2573 76.2499 47.2127 75.1244 49.7188 73.3438C51.0565 72.3932 52.2724 71.2747 53.1875 69.9062C53.9447 68.774 54.5001 67.4989 54.75 66.1562C54.9157 65.2661 54.9609 64.3356 54.8438 63.4375C53.9993 56.9633 46.5661 54.3457 41.125 53.125C36.7943 52.1534 32.379 51.9963 27.9688 52.1562C26.4414 48.4223 23.2458 45.3592 19.25 44.4375C18.1105 44.1747 16.9772 44.0973 15.8438 44.1562ZM32.0312 62.25C35.2025 62.3252 38.407 62.8019 41.4375 63.75C42.373 64.0427 43.2879 64.3907 44.1562 64.8438C44.0593 64.9227 43.9773 65.022 43.875 65.0938C43.3094 65.4908 42.6904 65.8072 42.0625 66.0938C40.046 67.0142 37.86 67.5925 35.6875 68C32.7695 68.5473 29.8631 68.7563 26.9062 68.5C26.3434 68.4512 25.7439 68.2864 25.1562 68.1562C25.167 68.1339 25.1763 68.1167 25.1875 68.0938C25.6358 67.176 26.1689 66.289 26.625 65.375C27.0945 64.4341 27.4192 63.4238 27.7812 62.4375C29.1967 62.3685 30.614 62.2164 32.0312 62.25Z" fill="#b3724d" stroke="none"/>
</g>
<g opacity="1">
<path d="M128.719-0.96875C125.668-0.868822 122.624-0.623369 119.594-0.15625C103.625 2.3053 88.7915 9.54294 75.4375 18.4062C67.7401 23.5151 60.6527 29.4631 54.4688 36.25C47.4268 38.9384 41.0882 43.1849 35.3438 48.0312C21.881 59.3892 11.5802 75.4233 11.25 93.4688C11.182 97.183 11.5456 100.89 12.2812 104.531C14.3072 114.558 19.2331 123.698 26.125 131.219C29.8258 135.257 34.0248 138.829 38.4375 142.062C47.2617 148.528 56.9235 153.99 67.5625 156.781C76.97 159.25 86.8759 159.008 96.5 158.375C103.202 157.934 109.82 157.039 116.344 155.406C142.592 148.837 166.372 132.394 181.75 110.125C189.224 99.3021 194.89 86.9939 197.344 74.0312C198.097 70.0535 198.464 66.0393 198.688 62C198.961 57.0509 198.952 52.0437 198.281 47.125C195.642 27.7779 181.035 11.7027 163.312 4.375C155.301 1.06263 146.486-0.339471 137.875-0.84375C134.818-1.02278 131.77-1.06868 128.719-0.96875ZM127.812 0.75C130.484 0.674221 133.139 0.738993 135.812 0.90625C143.963 1.41614 152.562 2.71814 160.188 5.75C175.094 11.6764 188.389 24.6469 192.625 40.375C194.668 47.9619 194.415 56.0103 193.531 63.75C192.401 73.6475 189.574 82.8955 185.062 91.7812C172.049 117.41 147.591 137.042 120.125 145.188C112.231 147.529 104.149 148.75 95.9375 149.188C87.318 149.647 78.4103 149.934 70 147.656C61.0357 145.229 52.9428 140.689 45.4062 135.344C34.8505 127.857 25.6947 118.438 21.875 105.781C20.8204 102.287 20.1798 98.6793 20.0312 95.0312C19.3453 78.1863 29.1001 63.2019 41.5312 52.6562C42.0669 52.2018 42.6738 51.8494 43.2188 51.4062C42.2182 52.9415 41.1222 54.4104 40.2812 56.0312C38.3576 59.739 36.9902 63.8032 35.9688 67.8438C34.7216 72.7772 33.9747 77.9373 34.0938 83.0625C33.8848 82.5813 33.5961 82.2015 33.4062 81.6875C33.2519 81.2695 33.0959 80.8852 32.9375 80.4688C32.7571 79.9943 32.0662 78.4002 32.375 77.75C32.0695 78.4051 32.577 79.9146 32.7812 80.5C32.8574 80.7184 32.9543 80.9381 33.0312 81.1562C33.1626 81.5286 33.2853 81.9054 33.4062 82.2812C33.5984 82.8782 33.63 83.0058 33.875 83.5938C33.9447 83.7611 34.049 83.9266 34.125 84.0938C34.2004 85.7056 34.3567 87.3161 34.625 88.9062C35.9798 96.935 39.9326 103.967 44.9375 110.281C48.8346 115.198 53.2066 119.584 58.3125 123.25C70.3423 131.888 85.002 136.512 99.625 138.094C105.367 138.715 111.34 139.046 117.094 138.375C122.15 137.786 127.075 136.407 131.875 134.75C133.872 134.061 135.826 133.209 137.781 132.406C135.824 133.21 133.848 133.937 131.844 134.625C127.05 136.271 122.11 137.669 117.062 138.25C111.319 138.911 105.386 138.536 99.6562 137.906C86.0513 136.411 72.4631 132.276 60.9688 124.719C54.8827 120.718 49.7056 115.751 45.2188 110.031C40.7961 104.394 37.2002 98.2097 35.625 91.1562C35.1891 89.2046 34.9127 87.238 34.7812 85.25C35.6089 86.7328 36.6205 88.1505 38 89.0938C39.0219 89.7925 40.212 90.2911 41.3438 90.7812C45.3797 92.5291 49.6142 93.3541 53.8125 93.3125C56.182 94.687 58.7284 95.6998 61.4688 96C69.3486 96.8633 76.4952 92.8093 82.5 88.125C84.3664 86.6691 86.1838 85.1266 87.875 83.4688C97.2136 74.3149 104.92 59.5811 99.4688 46.5C98.6969 44.648 97.6753 42.8831 96.4688 41.2812C95.286 39.7111 93.9273 38.2446 92.375 37.0312C89.0925 34.4654 85.0225 33.1083 80.9375 32.5312C74.4739 31.6182 67.8002 32.4316 61.5 34C59.8015 34.4228 58.1277 34.9712 56.4688 35.5312C62.3178 29.3986 68.9006 23.977 76.0312 19.3125C89.2855 10.6423 103.984 3.58139 119.812 1.40625C122.468 1.04127 125.141 0.825779 127.812 0.75ZM137.781 132.406C138.805 131.986 139.875 131.662 140.875 131.188C144.511 129.462 147.946 127.366 151.156 124.938C151.6 124.602 151.942 124.16 152.375 123.812C149.622 126.024 146.685 128.022 143.531 129.719C141.662 130.724 139.739 131.603 137.781 132.406ZM152.375 123.812C154.3 122.266 156.123 120.607 157.844 118.844C156.129 120.607 154.306 122.264 152.375 123.812ZM157.844 118.844C158.674 117.99 159.47 117.118 160.25 116.219C159.472 117.11 158.67 117.997 157.844 118.844ZM160.25 116.219C160.992 115.368 161.646 114.451 162.344 113.562C161.651 114.451 160.988 115.368 160.25 116.219ZM162.344 113.562C163.975 111.47 165.53 109.335 166.906 107.062C165.522 109.331 163.98 111.478 162.344 113.562ZM166.906 107.062C167.608 105.913 168.209 104.721 168.844 103.531C168.213 104.72 167.603 105.912 166.906 107.062ZM168.844 103.531C169.961 101.424 170.996 99.3012 171.906 97.0938C170.998 99.2936 169.962 101.437 168.844 103.531ZM171.906 97.0938C172.127 96.5589 172.448 96.0714 172.656 95.5312C172.896 94.9086 172.996 94.2525 173.219 93.625C172.803 94.79 172.378 95.9502 171.906 97.0938ZM173.219 93.625C173.669 92.3634 174.271 91.1571 174.656 89.875C175.188 88.1036 175.563 86.2991 175.969 84.5C175.266 87.6012 174.285 90.6162 173.219 93.625ZM141.344 21.8125C146.139 22.1126 150.898 23.1719 155.312 24.9688C150.897 23.1721 146.14 22.1118 141.344 21.8125ZM167.25 32.5625C168.975 34.1964 170.532 36.0345 171.906 38.0312C172.773 39.2914 173.548 40.5963 174.219 41.9375C173.546 40.596 172.806 39.2619 171.938 38C170.563 36.0031 168.975 34.1964 167.25 32.5625ZM174.219 41.9375C174.772 43.0441 175.224 44.1918 175.656 45.3438C175.223 44.1901 174.774 43.0462 174.219 41.9375ZM80.125 38.8125C82.6947 39.1047 85.311 39.7525 87.5625 41.0625C88.9492 41.8693 90.1012 42.9537 91.1562 44.1562C92.1793 45.3224 93.073 46.619 93.7812 48C98.7624 57.7118 93.4042 69.4762 87.0938 77.1875C85.8653 78.6887 84.5647 80.1335 83.1562 81.4688C81.3275 83.2024 79.3956 84.838 77.375 86.3438C72.9596 89.634 67.7949 92.2271 62.1875 91.9062C65.2809 90.8912 68.262 89.3945 70.9375 87.2188C73.4655 85.1629 75.615 82.6762 77.375 79.9375C80.154 75.6131 82.3763 70.2587 80.7812 65.0938C80.4068 63.8812 79.8979 62.7112 79.1875 61.6562C75.6686 56.431 68.6973 55.1662 63.0625 57.375C61.025 58.1737 59.1182 59.2875 57.3438 60.5625C56.0196 61.514 54.7582 62.5778 53.5938 63.7188C47.9654 69.2334 43.1778 78.0443 46.6875 85.9375C47.2256 87.1478 47.9323 88.2969 48.7812 89.3125C49.817 90.5516 51.1076 91.5243 52.4375 92.4375C48.1397 92.3874 43.7967 91.4144 39.7188 89.5C37.2661 88.3486 35.8768 86.482 34.75 84.3438C34.4853 78.4195 35.4062 72.42 37.0312 66.75C38.0432 63.2192 39.3079 59.6888 41.0312 56.4375C42.2458 54.1461 43.7646 52.0296 45.2188 49.875C49.1454 46.8726 53.2371 44.1301 57.875 42.3438C59.9262 41.5537 62.0294 40.8954 64.1562 40.3438C69.3268 39.0027 74.7859 38.2053 80.125 38.8125ZM175.969 46.125C176.921 48.8489 177.54 51.6811 177.938 54.5625C177.539 51.6799 176.923 48.8492 175.969 46.125ZM178 54.9375C178.238 56.7638 178.248 58.6186 178.312 60.4688C178.248 58.6157 178.239 56.7648 178 54.9375ZM178.312 60.4688C178.357 61.7528 178.494 63.0273 178.469 64.3125C178.494 63.026 178.357 61.7555 178.312 60.4688ZM178.469 64.3125C178.421 66.8065 178.212 69.2795 177.969 71.7188C178.214 69.2676 178.42 66.8108 178.469 64.3125ZM69.4062 58.7812C73.949 58.9703 78.0521 61.8421 79.125 66.7812C80.1284 71.4003 77.9257 76.0813 75.4688 79.875C73.9611 82.2029 72.1352 84.3459 70.0312 86.1562C66.9437 88.8129 63.4489 90.5788 59.7812 91.5625C57.7807 91.1039 55.8573 90.3431 54.1562 89.1875C52.9932 88.3974 51.9242 87.4585 51.0625 86.3438C48.2042 82.6459 48.5732 77.7895 50.3125 73.6875C52.356 68.8679 56.1028 64.7017 60.4375 61.8125C61.8035 60.902 63.2651 60.0598 64.8125 59.5C66.3311 58.9506 67.892 58.7182 69.4062 58.7812ZM177.875 72.9688C177.456 76.7647 176.892 80.5383 176.062 84.25C176.774 81.0465 177.349 77.8262 177.75 74.5625C177.814 74.0423 177.817 73.4936 177.875 72.9688ZM32.4375 77.5C32.3943 77.536 32.4045 77.6368 32.375 77.6875C32.464 77.5378 32.7282 77.5565 32.9688 77.5625C32.7938 77.5521 32.5332 77.4203 32.4375 77.5ZM32.9688 77.5625C33.1122 77.571 33.1995 77.5096 33.4062 77.5938C33.3283 77.562 33.2676 77.5209 33.1875 77.5C33.0717 77.4698 33.0588 77.5647 32.9688 77.5625ZM33.4062 77.5938C33.4937 77.6293 33.5729 77.6475 33.6562 77.6875C33.6027 77.6601 33.5548 77.619 33.5 77.5938C33.4529 77.572 33.4503 77.6117 33.4062 77.5938Z" fill="#b3724d" stroke="none"/>
</g>
<g opacity="1">
<path d="M140.312 23.875C132.078 24.1711 123.898 25.0106 115.844 26.7812C107.217 28.6776 98.8047 31.5341 90.625 35.0312C83.1199 36.0849 75.7189 37.6821 68.375 39.5625C65.2704 38.8664 61.7683 39.1051 58.9062 39.5938C58.1988 39.7145 57.513 39.8442 56.8125 40C56.0405 40.1717 54.8599 40.5244 54.0938 40.75C52.8204 41.125 51.5622 41.5216 50.3125 41.9688C38.0472 46.3571 26.509 52.6321 15.5312 59.5938C7.59794 64.6247-0.152075 69.9834-7.59375 75.7188C-7.89904 75.954-8.19579 76.2009-8.5 76.4375C-13.2928 79.7293-18.0418 83.1199-22.5938 86.7188C-24.5381 88.2561-26.444 89.7996-28.0625 91.6875C-28.9471 92.7194-29.7197 93.8167-30.2188 95.0938C-30.6646 96.2347-30.8716 97.4979-30.75 98.7188C-30.6614 99.6088-30.4026 100.485-30 101.281C-27.526 106.175-21.4536 106.56-16.6875 106.969C-15.409 107.078-14.1267 107.133-12.8438 107.156C-11.5852 107.179-10.319 107.2-9.0625 107.125C-3.9531 106.821 1.02004 105.643 6.03125 104.688C9.82706 103.964 13.6761 103.463 17.5 102.844C17.3697 103.419 17.1821 103.984 17.0938 104.562C16.6069 107.751 16.8242 111.315 17.75 114.406C18.5997 117.243 20.3609 119.734 22.4375 121.812C30.6034 129.987 42.8206 130.512 53.5312 128.344C60.13 127.008 66.4402 124.612 72.625 122C75.6846 120.708 78.6903 119.273 81.6875 117.844C90.4738 122.296 101.827 121.251 111.25 119.031C118.224 117.388 124.893 114.907 131.375 111.875C136.633 109.415 141.841 106.8 146.875 103.906C150.837 101.629 154.589 99.0674 158.344 96.4688C160.789 94.7764 163.254 93.1084 165.625 91.3125C167.703 89.7388 169.747 88.1111 171.719 86.4062C175.517 83.1225 179.157 79.1843 182.375 74.9688C183.282 74.9866 184.195 74.8421 185.031 74.3438C187.221 73.0398 187.976 70.3429 187 68.0625C189.515 63.1464 190.982 57.834 190.531 52.1562C190.413 50.6656 190.184 49.1673 189.812 47.7188C189.204 45.3433 188.264 42.9972 187.031 40.875C184.132 35.8848 179.21 32.3118 174.125 29.7812C171.136 28.2939 168.059 27.007 164.844 26.0938C156.896 23.8359 148.519 23.5799 140.312 23.875ZM140.688 34C147.829 33.741 155.139 33.8814 162.062 35.8438C164.677 36.5847 167.195 37.6362 169.625 38.8438C172.781 40.412 176.055 42.5376 178.031 45.5312C178.795 46.6872 179.332 47.9973 179.75 49.3125C180.397 51.3487 180.473 53.386 180.312 55.4062C176.278 47.7701 171.675 40.4615 163.5 36.9375C161.798 36.2037 160.012 35.6684 158.188 35.3438C151.764 34.201 145.244 35.0074 138.906 36.5625C137.949 36.211 137.038 35.7234 136.062 35.4375C134.824 35.0747 133.545 34.8863 132.281 34.625C135.072 34.3699 137.878 34.1019 140.688 34ZM112.094 43.5938C114.365 43.5306 116.669 43.5808 118.969 43.625C104.464 50.006 90.8633 58.7658 80.75 71.0312C73.1289 80.2742 65.8487 93.6595 70.75 105.781C71.415 107.426 72.3945 108.944 73.4062 110.406C69.3308 112.257 65.2362 114.039 61.0312 115.562C53.1968 118.401 43.7002 120.698 35.5 118.094C32.9352 117.279 30.5499 115.755 28.8438 113.656C28.3153 113.006 27.8039 112.281 27.5625 111.469C26.5147 107.943 27.5305 104.37 28.875 101C31.4949 100.604 34.1053 100.12 36.7188 99.7188C39.6172 99.2732 41.6018 96.5859 41.1562 93.6875C40.729 90.9083 38.1986 89.0122 35.4375 89.25C39.6896 83.4887 44.8602 78.2833 50 73.5312C62.4751 61.9971 76.9287 52.2036 92.5625 45.2188C99.043 44.3383 105.577 43.7749 112.094 43.5938ZM153.938 45.0938C154.998 45.162 156.065 45.1414 157.094 45.375C162.656 46.6382 166.292 51.1689 169.125 55.8125C171.437 59.6022 173.391 63.5945 175.438 67.5312C173.672 70.052 171.73 72.4407 169.562 74.625C163.57 80.6628 156.549 85.4846 149.562 90.2812C146.518 92.3712 143.382 94.2976 140.156 96.0938C135.886 98.4712 131.52 100.677 127.094 102.75C121.802 105.228 116.412 107.315 110.75 108.781C108.94 109.25 107.089 109.666 105.25 110C102.343 110.528 99.0285 110.777 95.7188 110.719C96.4245 110.338 97.1402 109.978 97.8438 109.594C112.264 101.718 126.729 93.6207 139.625 83.375C147.78 76.8957 156.976 69.0393 158 57.9375C158.248 55.2528 158.195 52.1885 157.062 49.6875C156.298 47.9999 155.141 46.4912 153.938 45.0938ZM137.875 47.3125C138.697 47.6633 139.568 47.8761 140.375 48.25C141.896 48.9545 143.35 49.75 144.812 50.5625C144.831 50.5945 144.901 50.623 144.938 50.6562C145.041 50.7521 145.119 50.8378 145.219 50.9375C145.502 51.22 145.768 51.4777 146.031 51.7812C146.586 52.4219 147.067 53.1172 147.5 53.8438C147.674 55.4499 147.781 56.9457 147.406 58.5625C146.488 62.5235 143.722 65.7715 140.906 68.5625C137.37 72.0679 133.425 75.1837 129.438 78.1562C119.857 85.2991 109.519 91.2654 99.125 97.125C93.7122 100.177 88.1869 103.113 82.625 105.938C82.1162 105.375 81.5771 104.842 81.1562 104.156C80.5889 103.232 80.0901 102.25 79.75 101.219C78.6924 98.0117 79.3058 94.4398 80.3438 91.3125C82.2767 85.4883 85.9103 80.3146 89.9375 75.75C101.464 62.6854 117.4 54.1613 133.688 48.5312C135.056 48.0581 136.478 47.7295 137.875 47.3125ZM26.6875 83.9688C24.9922 86.3039 23.4587 88.7447 22.0938 91.2812C18.3408 91.8783 14.594 92.4776 10.8438 93.0938C7.48947 93.6448 4.14661 94.2433 0.8125 94.9062C-0.581442 95.1834-2.00553 95.3104-3.40625 95.5625C-2.9283 95.3201-2.44422 95.0918-1.96875 94.8438C1.46674 93.0516 4.85214 91.1629 8.21875 89.25C10.0082 89.3845 11.7798 89.3737 13.3125 89.0625C14.9287 88.7343 16.4507 88.144 18 87.5938C20.9702 86.5388 23.8182 85.2352 26.6875 83.9688Z" fill="#b3724d" stroke="none"/>
</g>
<g opacity="1">
<path d="M138.531 44.25C132.866 44.2348 127.075 45.5413 121.844 47.2812C114.648 49.6743 107.783 53.0413 101.219 56.8125C89.3836 63.6115 78.5298 72.1727 69.3125 82.25C65.6413 86.2637 62.2424 90.5579 59.0625 94.9688C51.7735 105.079 45.9093 119.393 52.7812 131.219C53.6374 132.692 54.6874 134.061 55.8438 135.312C57.6736 137.293 59.7782 139.038 62.0625 140.469C75.1355 148.654 91.5624 144.94 105.031 139.844C110.871 137.634 116.585 135.067 122.125 132.188C126.798 129.759 131.352 127.069 135.719 124.125C138.766 122.07 141.716 119.855 144.562 117.531C150.197 112.932 155.387 107.826 159.875 102.094C162.183 99.1455 164.374 96.0478 166.156 92.75C169.194 87.1298 171.042 80.8513 171.469 74.4688C170.987 80.819 169.022 87.0513 165.906 92.5938C163.829 96.2878 161.248 99.7195 158.5 102.938C153.811 108.429 148.405 113.285 142.594 117.562C139.669 119.715 136.623 121.712 133.5 123.562C129.484 125.943 125.34 128.092 121.094 130.031C115.978 132.367 110.697 134.375 105.344 136.094C92.8671 140.098 76.9272 143.61 65.25 135.594C63.9547 134.705 62.7316 133.709 61.625 132.594C60.3142 131.273 59.1601 129.801 58.2812 128.156C53.4512 119.116 58.6054 108.006 63.9375 100.469C64.8394 99.1938 65.7964 97.9553 66.75 96.7188C72.097 89.7848 78.0572 83.2932 84.6875 77.5625C90.9464 72.1528 97.7846 67.3497 104.906 63.1562C111.025 59.5535 117.397 56.265 124.094 53.875C132.38 50.9179 143.129 48.6285 150.969 53.9688C152.501 55.0122 153.789 56.2966 154.969 57.7188C160.04 63.8324 156.809 73.0261 153.25 79.0312C152.51 80.2804 151.713 81.5023 150.875 82.6875C146.017 89.5579 139.994 95.7657 133.188 100.719C129.18 103.635 124.81 106.147 120.094 107.719C113.556 109.898 105.805 110.171 99.8125 106.281C92.4298 101.489 93.409 91.9467 95.5 84.5312C95.8804 83.1824 96.3183 81.8539 96.7812 80.5312C97.3262 78.9744 97.9264 77.4407 98.5312 75.9062C99.1767 74.2689 99.8949 72.6716 100.531 71.0312C101.101 69.5625 101.495 68.0022 102.281 66.625C102.784 65.7433 103.57 64.5994 104.625 64.3438C106.001 64.0103 107.519 64.8277 108.875 65C108.978 65.0112 109.051 64.9155 109.062 64.8125C109.074 64.7095 109.009 64.6362 108.906 64.625C107.51 64.5005 105.962 63.7594 104.562 64.1562C103.262 64.5249 102.413 66.0463 101.906 67.1875C101.355 68.4303 100.998 69.7367 100.5 71C99.8548 72.6368 99.1243 74.2418 98.4688 75.875C97.8538 77.407 97.2183 78.9477 96.6562 80.5C93.9098 88.0862 91.0282 99.007 97.7188 105.438C98.4383 106.129 99.2443 106.727 100.094 107.25C107.029 111.522 115.713 110.893 123.094 108.25C130.701 105.527 137.588 100.83 143.656 95.5625C148.522 91.339 153.074 86.5805 156.719 81.25C161.29 74.5641 164.519 65.9024 161.469 57.9375C160.792 56.1701 159.722 54.5531 158.531 53.0938C157.327 51.6178 155.963 50.2668 154.438 49.125C149.722 45.5953 144.197 44.2652 138.531 44.25ZM167.844 55.7812C168.622 57.3144 169.266 58.8872 169.812 60.5C169.259 58.8918 168.624 57.3067 167.844 55.7812ZM169.938 60.9375C170.349 62.2102 170.65 63.5187 170.906 64.8438C170.85 64.5545 170.876 64.2566 170.812 63.9688C170.583 62.9337 170.265 61.935 169.938 60.9375ZM170.906 64.8438C171.237 66.5425 171.48 68.2403 171.562 69.9688C171.498 68.5261 171.362 67.08 171.125 65.6562C171.079 65.3769 170.96 65.1207 170.906 64.8438ZM171.562 70.0312C171.618 71.3172 171.577 72.5909 171.5 73.875C171.553 72.8568 171.682 71.8337 171.656 70.8125C171.65 70.549 171.575 70.2945 171.562 70.0312Z" fill="#b3724d" stroke="none"/>
</g>
<g opacity="1">
<path d="M75.0312 62.0938C73.4483 62.3569 71.8251 63.0804 70.5312 63.6562C70.1097 63.8439 69.6953 64.0464 69.2812 64.25C68.4612 64.6532 67.7762 65.0554 66.9688 65.5C66.1306 65.9615 65.2721 66.4072 64.4375 66.875C63.1772 67.5814 61.9333 68.2994 60.6875 69.0312C56.3798 71.5618 52.2211 74.3437 48.0938 77.1562C35.9177 85.4537 24.4891 94.6914 13.7812 104.812C12.3625 106.154 10.9498 107.501 9.5625 108.875C8.64644 109.782 7.722 110.68 6.8125 111.594C5.89843 112.512 4.97092 113.451 4.0625 114.375C3.60508 114.84 3.17123 115.311 2.71875 115.781C2.41173 116.1 2.04647 116.327 1.71875 116.625C0.788993 117.47 0.158622 118.572 0.46875 119.844C0.516933 120.041 0.581905 120.451 0.75 120.594C1.22374 120.997 1.67756 121.456 2.1875 121.812C2.39865 121.96 3.13862 122.023 3.34375 122.031C4.22809 122.066 5.16213 121.819 5.96875 121.469C9.16767 120.08 11.9311 117.438 14.5625 115.219C14.7208 115.085 14.8734 114.947 15.0312 114.812C15.05 114.851 15.0404 114.9 15.0625 114.938C15.0705 114.951 15.086 114.949 15.0938 114.969C15.0677 114.988 15.4095 115.293 15.4375 115.312C15.7198 115.506 16.0401 115.577 16.375 115.562C17.5154 115.515 18.049 114.62 18.75 113.875C19.0571 113.549 19.4578 113.305 19.8125 113.031C22.6984 110.803 25.5117 108.49 28.3125 106.156C39.4594 96.8673 50.9307 88.0244 62.875 79.7812C66.0418 77.5958 69.1982 75.3798 72.3438 73.1562C75.0345 71.5232 77.7252 69.9092 80.4375 68.3125C83.2906 66.6329 86.1735 65.0149 89.125 63.5625C85.8475 65.1498 82.6459 66.8981 79.4688 68.7188C78.0371 69.5392 76.6181 70.3653 75.1875 71.1875C75.4632 70.9822 75.7575 70.8016 76.0312 70.5938C77.3085 69.6243 79.1184 68.7612 79.8125 67.25C80.2064 66.3925 80.2987 65.4321 80 64.5312C79.9745 64.4544 79.625 63.6948 79.5312 63.625C79.5492 63.6124 79.5181 63.5502 79.5 63.5625C79.4948 63.4904 79.3787 63.3862 79.3125 63.3125C78.1458 62.0154 76.6142 61.8306 75.0312 62.0938ZM63.75 69.5625C63.5911 69.6529 63.4315 69.7372 63.2812 69.8438C63.4368 69.7453 63.5858 69.6433 63.75 69.5625Z" fill="#b3724d" stroke="none"/>
</g>
<path d="M101.665 82.2485C99.7609 79.393 98.848 74.5333 95.4491 73.226C92.455 72.0744 89.0924 77.4384 87.8301 79.0405C86.854 80.2794 85.8907 81.5326 85.0231 82.85C79.7551 90.8496 71.5821 106.892 75.8002 116.734C78.5815 123.224 87.7182 124.401 93.8451 123.952C107.54 122.95 123.53 110.701 130.336 99.0904C134.047 92.7603 134.271 84.5332 128.331 79.4415C126.757 78.0922 119.108 75.2119 119.108 74.2285" fill="none" fill-rule="evenodd" opacity="1" stroke="#b3724d" stroke-linecap="round" stroke-linejoin="round" stroke-width="12.2246"/>
<path d="M-0.360153 97.3117C-1.44889 100.53 2.12995 105.898 3.8092 108.442C9.041 116.365 15.4864 121.807 22.6182 127.896C29.1345 133.46 38.3876 135.809 45.558 140.417C52.6481 144.973 59.4031 150.038 66.5895 154.474C70.8422 157.099 75.488 159.149 79.8078 161.722C83.6592 164.017 87.2402 166.661 91.0054 169.08C95.6294 172.052 101.097 173.52 106.37 174.675C112.501 176.017 117.469 180.699 123.994 180.041C126.633 179.775 129.255 178.308 131.554 177.045C145.914 169.15 156.51 154.697 167.654 143.039C174.684 135.683 181.739 128.25 188.964 121.089C203.166 107.012 219.066 94.5524 234.534 81.9554C243.834 74.3822 253.045 66.9992 263.328 60.7516C263.619 60.5749 270.148 56.6037 270.471 57.8124C270.68 58.592 265.056 64.7148 264.556 65.3324C258.839 72.3887 252.531 77.4485 245.049 82.5368C240.136 85.8779 235.815 90.0045 231.45 94.0038C225.169 99.7596 218.124 104.772 211.651 110.316C206.41 114.803 201.693 119.843 196.555 124.45C188.4 131.762 179.916 138.626 170.973 144.955C162.302 151.09 153.352 156.134 145.637 163.559C143.021 166.077 140.395 168.632 137.878 171.25C137.175 171.98 136.398 172.752 135.729 173.498C135.645 173.591 135.49 173.814 135.608 173.854C136.416 174.127 141.361 169.099 141.692 168.771C145.709 164.789 149.877 161.006 154.398 157.597C175.401 141.756 197.458 127.328 220.249 114.216C236.756 104.719 251.82 93.857 265.675 80.7865C268.664 77.9668 271.298 74.8583 274.211 71.9709C274.921 71.2671 276.629 70.2845 275.293 69.3612C273.743 68.2907 266.679 70.6442 264.767 71.1565C255.06 73.7577 245.599 76.8188 236.322 80.7749C233.834 81.8359 231.353 82.9139 228.88 84.0099C217.438 89.0816 206.323 94.7406 194.705 99.426C184.179 103.671 173.444 107.367 162.862 111.466C145.739 118.098 128.515 125.202 110.67 129.713C100.328 132.328 89.6924 134.434 79.0916 135.693C77.7367 135.854 73.3098 136.721 72.1394 135.722C71.5658 135.232 73.4084 134.89 74.1052 134.601C76.0322 133.803 77.9482 132.978 79.8796 132.191C84.1643 130.444 88.506 128.838 92.855 127.257C104.938 122.866 118.045 119.728 130.977 119.524C133.57 119.483 138.259 119.542 140.895 120.697C153.352 126.155 139.34 139.828 133.542 144.194C132.25 145.167 130.937 146.109 129.607 147.029C128.005 148.138 125.698 149.703 123.828 150.628C121.657 151.701 118.587 153.204 116.035 152.554C113.552 151.922 111.809 150.303 109.693 149.02C107.137 147.471 104.609 146.419 101.746 145.539C97.9848 144.382 94.1613 143.788 90.3494 142.874C81.9966 140.869 73.3024 137.188 66.0929 132.486C58.7961 127.728 52.6483 120.333 46.7447 114.04C41.5106 108.46 35.6268 103.167 32.6237 95.9727C31.8565 94.135 31.7295 91.7945 31.5219 89.8476C31.4774 89.4298 31.3492 88.5991 31.3492 88.5991C31.3492 88.5991 31.0125 91.5282 30.8543 92.9939C30.5492 95.8207 30.6001 96.0622 31.0635 99.4122C32.6264 110.711 43.7328 106.191 50.5379 102.826C53.2798 101.47 55.9569 99.9801 58.5792 98.4054C73.8112 89.2587 88.1618 79.0784 97.1789 63.4599C100.371 57.9301 101.196 51.6541 96.1822 47.0557C93.7893 44.8608 89.1854 43.916 86.2723 44.1001C80.9627 44.4357 75.9285 46.1 71.2788 48.5494C68.4898 50.0185 65.755 51.6004 63.1171 53.3261C49.8435 62.0096 29.2883 88.5342 49.1166 101.75C58.385 107.928 69.3393 105.394 78.8285 101.288C95.2239 94.1933 105.469 79.8806 107.168 62.0782C107.92 54.1917 107.007 45.3171 102.876 38.4102C102.346 37.5252 100.568 36.3248 99.6771 36.138C96.8384 35.5426 94.1673 37.5452 91.9997 38.8966C87.1111 41.9444 82.5574 47.4029 79.6993 52.3896C70.3058 68.7792 63.5291 88.7025 72.6247 106.727C73.9919 109.437 77.1048 113.246 79.9561 114.96C90.293 121.17 102.077 118.5 112.464 113.856C136.605 103.062 148.639 80.0792 162.204 58.8764C165.684 53.4381 169.135 47.9816 172.675 42.5825C176.962 36.0445 181.506 29.6341 186.13 23.3309C186.915 22.2607 187.839 21.2935 188.58 20.1925C189.214 19.2515 190.261 18.2175 190.02 17.1091C189.846 16.3111 188.347 17.2829 187.641 17.6927C184.158 19.7133 180.899 22.4311 177.686 24.8383C170.06 30.5513 162.506 36.405 155.088 42.3855C140.169 54.4126 125.742 67.096 111.899 80.341C107.694 84.3652 103.349 88.36 100.018 93.1823C99.8627 93.407 98.6355 96.0674 98.7534 96.9201C98.8763 97.8084 100.651 97.0808 101.429 96.6349C102.68 95.918 103.761 94.9377 104.886 94.0358C107.3 92.1006 109.66 90.0987 112.043 88.1256C119.676 81.8056 127.258 75.5342 135.18 69.5707C152.639 56.4283 169.84 42.9218 187.585 30.1706C192.943 26.3205 198.354 22.5841 203.738 18.7744C204.976 17.8986 206.064 16.5864 207.552 16.2957C207.86 16.2357 207.44 16.936 207.251 17.1857C206.829 17.744 206.247 18.1625 205.759 18.6645C204.118 20.3517 202.503 22.0635 200.864 23.7529C195.095 29.7009 191.358 33.4023 185.582 39.6094C174.077 51.9735 162.759 65.2559 153.971 79.6961C151.861 83.1644 146.366 92.6671 149.916 96.3749C151.34 97.8621 154.771 96.6634 155.918 96.2233C157.82 95.494 159.654 94.57 161.397 93.5144C163.657 92.1447 165.764 90.5335 167.894 88.9679C171.309 86.4574 174.706 83.92 178.029 81.2884C185.527 75.3501 192.614 68.8623 199.682 62.4298C210.512 52.5736 221.287 42.8293 230.895 31.7296C232.334 30.0668 233.708 28.3448 235.018 26.5785C236.989 23.921 241.265 18.8389 241.664 15.14C241.737 14.4664 240.522 15.89 240.054 16.3807C239.107 17.3755 238.184 18.3926 237.248 19.3986C235.378 21.4106 233.486 23.4031 231.636 25.4345C228.707 28.6514 225.833 31.9186 222.977 35.2002C212.627 47.0902 201.763 58.5825 191.565 70.5936C190.398 71.9683 189.207 73.3293 188.159 74.7973C187.432 75.8169 186.087 77.5551 186.714 79.069C187.143 80.1042 189.033 79.0923 190.044 78.6085C192.404 77.4786 194.641 76.1071 196.894 74.7766C202.734 71.3279 206.226 68.91 211.911 64.9797C224.556 56.2393 237.227 47.0489 248.639 36.7403C250.657 34.9175 252.652 33.0696 254.665 31.241C256.149 29.8929 258.487 28.1511 259.144 26.2103C259.216 25.9964 258.668 26.2478 258.489 26.3856C257.579 27.0875 256.764 27.9061 255.924 28.6916C254.635 29.8973 253.351 31.1088 252.105 32.3586C248.13 36.3459 246.316 38.142 243.09 42.004C236.595 49.7797 230.675 58.1924 223.792 65.6267C221.813 67.7645 221.074 68.4879 219.374 70.4794C219.245 70.6301 219.193 70.8654 219.015 70.9532C218.903 71.0087 219.095 70.7159 219.136 70.5972C219.356 69.9446 219.498 69.2595 219.798 68.6393C220.162 67.8871 220.635 67.1906 221.115 66.5061C222.171 64.9972 223.276 63.522 224.402 62.0642C228.71 56.4886 233.077 51.1768 237.014 45.3045C243.913 35.0157 250.232 24.0007 254.511 12.3449C256.106 8.00207 258.135 3.39631 256.949-1.31074C255.469-7.18612 248.559-5.2085 244.777-3.44449C242.689-2.47017 240.682-1.32358 238.702-0.143985C236.29 1.29288 233.955 2.85573 231.611 4.39982C230.041 5.43331 228.508 6.51988 226.962 7.58783C224.467 9.31132 221.908 10.9423 219.334 12.5452C218.462 13.0882 217.612 13.6669 216.771 14.257C216.657 14.3374 216.334 14.5719 216.473 14.5527C218.313 14.2982 221.643 12.2472 223.2 11.6711C229.781 9.23673 236.548 7.35503 243.136 4.92637C244.82 4.30547 246.733 3.9851 246.892 2.0315" fill="none" fill-rule="evenodd" opacity="1" stroke="#b3724d" stroke-linecap="round" stroke-linejoin="round" stroke-width="32.18"/>
<path d="M-0.558145 162.693C-4.54603 160.264-0.688536 165.18-0.0776 166.02C2.39371 169.416 6.17076 171.366 8.77561 174.446C13.0488 179.498 17.0905 180.438 22.9225 183.061C27.4885 185.114 32.1388 187.151 36.5426 189.508C44.491 193.763 51.8313 199.058 59.7568 203.382C68.3239 208.055 77.3982 211.762 85.9131 216.54C91.663 219.766 96.7387 223.991 102.637 226.989C108.545 229.991 114.852 231.797 121.204 233.546C123.8 234.261 127.913 235.769 130.682 235.096" fill="none" fill-rule="evenodd" opacity="1" stroke="#b3724d" stroke-linecap="round" stroke-linejoin="round" stroke-width="22.7363"/>
<path d="M124.042 226.007C123.817 226.007 123.142 226.007 123.367 226.007C125.726 226.007 128.133 224.594 130.25 223.712C134.548 221.921 138.652 219.745 142.936 217.909C156.264 212.197 169.86 206.379 181.805 198.07C185.443 195.539 188.848 192.67 192.467 190.107C193.745 189.201 195.029 188.084 196.381 187.273C196.745 187.054 197.101 186.823 197.461 186.598C197.581 186.523 197.929 186.336 197.865 186.463C197.667 186.86 196.322 187.789 196.111 187.948" fill="none" fill-rule="evenodd" opacity="1" stroke="#b3724d" stroke-linecap="round" stroke-linejoin="round" stroke-width="22.7363"/>
<path d="M134.839 235.724C136.111 233.179 142.95 229.819 145.366 228.301C154.9 222.308 164.642 216.512 173.977 210.216C183.448 203.829 192.873 197.276 201.779 190.107C219.178 176.103 235.127 160.39 251.175 144.895C256.563 139.693 262.193 134.596 268.045 129.914C269.022 129.133 270.032 128.394 271.014 127.62C272.567 126.397 275.903 124.861 276.818 123.031" fill="none" fill-rule="evenodd" opacity="1" stroke="#b3724d" stroke-linecap="round" stroke-linejoin="round" stroke-width="22.7363"/>
<path d="M-13.0336 127.703C-13.4549 130.265-8.10365 133.027-6.52538 134.355C0.200822 140.014 6.74408 145.745 13.7806 151.023C22.3641 157.461 31.4525 163.518 41.0503 168.355C50.7513 173.243 61.2034 176.893 70.6698 182.224C77.9691 186.334 84.5466 191.76 91.9368 195.682C98.6404 199.238 105.783 203.357 113.164 205.284C114.914 205.74 117.538 206.677 119.254 205.996" fill="none" fill-rule="evenodd" opacity="1" stroke="#ffffff" stroke-linecap="round" stroke-linejoin="round" stroke-width="36.0917"/>
<path d="M114.211 210.682C111.548 210.682 119.253 209.213 119.648 209.129C124.374 208.116 129.066 207.235 133.434 205.051C146.483 198.527 158.076 189.985 169.937 181.557C194.943 163.789 220.721 147.467 246.633 131.074C257.846 123.979 268.768 116.398 280.224 109.715" fill="none" fill-rule="evenodd" opacity="1" stroke="#ffffff" stroke-linecap="round" stroke-linejoin="round" stroke-width="36.0917"/>
<path d="M315.493 77.4027C315.265 76.7193 315.305 77.0365 315.305 76.4619" fill="none" fill-rule="evenodd" opacity="1" stroke="#ebb500" stroke-linecap="round" stroke-linejoin="round" stroke-width="12.2827"/>
<path d="M-3.59591 108.46C-4.43061 106.996-0.330837 110.467 0.136675 110.792C3.07847 112.839 5.58846 115.199 8.37679 117.417C13.5211 121.508 18.8721 125.536 24.2912 129.273C27.4274 131.435 30.3293 133.922 33.6405 135.837C42.006 140.675 49.8022 146.617 57.9695 151.816C67.4854 157.872 77.4993 162.977 87.2399 168.636C89.8529 170.155 92.2832 171.979 94.8528 173.56C99.0961 176.169 103.634 178.28 107.973 180.718C110.632 182.212 113.367 184.225 116.153 185.432" fill="none" fill-rule="evenodd" opacity="1" stroke="#ebb500" stroke-linecap="round" stroke-linejoin="round" stroke-width="12.2827"/>
<path d="M111.776 181.334C111.654 180.906 112.755 181.855 112.892 181.956C113.805 182.625 114.164 183.347 114.909 184.162C115.214 184.495 115.837 184.565 116.223 184.821C117.976 185.983 119.709 186.694 121.771 187.357C122.38 187.552 123.831 187.718 124.349 187.243" fill="none" fill-rule="evenodd" opacity="1" stroke="#ebb500" stroke-linecap="round" stroke-linejoin="round" stroke-width="12.2827"/>
<path d="M127.251 190.334C129.22 189.678 131.132 187.379 132.682 186.11C136.233 183.206 139.877 180.413 143.544 177.662C156.7 167.795 170.521 158.528 184.428 149.753C202.423 138.398 220.572 127.21 239.341 117.167C255.098 108.736 271.823 102.033 287.315 93.1801" fill="none" fill-rule="evenodd" opacity="1" stroke="#ebb500" stroke-linecap="round" stroke-linejoin="round" stroke-width="12.2827"/>
<path d="M123.405 193.543C123.45 193.544 123.533 193.597 123.539 193.553C123.55 193.476 123.399 193.487 123.327 193.459C122.717 193.223 122.104 192.992 121.509 192.72C120.188 192.117 118.708 191.565 117.48 190.78C117.425 190.745 117.597 190.841 117.657 190.869C117.825 190.946 117.969 191.004 118.142 191.074C118.436 191.192 118.721 191.332 119.007 191.468C120.245 192.059 121.45 192.726 122.627 193.431C123.121 193.727 123.609 194.041 124.093 194.354C124.254 194.458 124.338 194.511 124.469 194.625C124.476 194.63 124.492 194.649 124.485 194.645C123.257 194.031 121.977 193.459 120.7 192.948C120.279 192.779 119.861 192.6 119.436 192.442C119.257 192.375 119.062 192.299 118.88 192.227C118.877 192.225 118.72 192.16 118.726 192.168C118.994 192.526 119.959 192.627 120.402 192.824C121.497 193.311 122.557 193.867 123.587 194.48C123.797 194.605 124.041 194.756 124.249 194.9C124.332 194.957 124.541 195.005 124.484 195.087C124.419 195.183 124.265 195.013 124.158 194.969C123.761 194.802 123.371 194.587 122.985 194.394C122.024 193.913 121.07 193.41 120.094 192.96C119.994 192.914 119.434 192.624 119.267 192.679" fill="none" fill-rule="evenodd" opacity="1" stroke="#ebb500" stroke-linecap="round" stroke-linejoin="round" stroke-width="0.1"/>
<path d="M125.869 196.088C125.806 196.005 125.301 195.92 125.183 195.873C124.719 195.688 124.245 195.41 123.802 195.177C122.077 194.272 120.31 193.385 118.517 192.619C117.395 192.14 116.305 191.581 115.178 191.111C114.895 190.993 114.576 190.877 114.278 190.809C114.232 190.798 114.163 190.722 114.142 190.765C114.132 190.785 114.174 190.81 114.181 190.815C114.507 191.059 114.955 191.096 115.279 191.363C115.326 191.402 115.466 191.447 115.417 191.485C115.377 191.515 115.329 191.438 115.285 191.415C114.95 191.241 114.608 191.109 114.265 190.955C114.204 190.928 114.091 190.813 114.082 190.879C114.069 190.976 115.141 191.333 115.239 191.37C116.523 191.86 117.798 192.369 119.064 192.906C120.295 193.427 121.566 193.893 122.76 194.495C123.268 194.751 123.775 195.011 124.286 195.262C124.313 195.275 124.67 195.46 124.69 195.42C124.7 195.399 123.958 194.975 123.928 194.956C123.008 194.356 122.085 193.76 121.129 193.218C120.819 193.041 120.506 192.873 120.202 192.686C120.103 192.625 119.806 192.465 119.921 192.481C120.656 192.58 122.051 193.567 122.646 193.958C122.853 194.094 123.158 194.242 123.309 194.44C123.368 194.518 123.136 194.345 123.051 194.296C122.975 194.251 122.899 194.208 122.824 194.162C122.639 194.049 122.463 193.925 122.271 193.823" fill="none" fill-rule="evenodd" opacity="1" stroke="#ebb500" stroke-linecap="round" stroke-linejoin="round" stroke-width="0.596725"/>
<path d="M51.0029 16.1558C47.525 17.2391 44.6348 17.6753 41.8531 20.1957C34.9595 26.4418 34.507 37.738 37.4444 45.8548C44.6977 65.8972 58.1001 83.8154 77.2779 93.56C83.7301 96.8386 92.9132 99.2943 99.3937 94.7857C104.514 91.2233 101.957 85.0696 100.016 80.3988C97.3861 74.0685 92.7932 66.7847 87.8479 61.9532C83.1054 57.3197 76.433 54.2037 70.5404 51.4021C57.6636 45.2798 34.5768 34.9566 20.2344 40.2194C15.3849 41.9989 9.21399 45.2878 7.04515 50.392C2.73627 60.5326 5.8702 71.2784 9.77177 81.0542C15.3524 95.0371 23.6578 109.22 34.8188 119.444C38.6579 122.961 43.6588 124.971 48.2911 127.348C52.6356 129.577 60.3243 130.058 64.6152 130.277C65.4607 130.32 68.0914 129.188 68.8202 128.681C70.1426 127.761 68.092 125.494 67.2918 124.096C64.4231 119.084 60.5652 114.438 56.652 110.235C48.0713 101.02 36.1607 96.7582 24.8891 91.8C16.4056 88.0683 7.68004 84.7706-1.17901 82.028C-2.69035 81.5601-13.0081 80.0831-13.1129 83.0213C-13.2968 88.1749-3.48012 94.9964-0.107699 97.8944C12.1084 108.392 23.8558 119.054 39.1604 124.73C41.5728 125.625 43.7242 127.312 46.2567 127.767C46.7784 127.86 45.2863 127.339 44.8063 127.114C43.295 126.406 41.788 125.689 40.2993 124.934C38.1956 123.868 36.1282 122.732 34.0305 121.654C29.6186 119.387 25.2678 116.992 21.0255 114.422C10.7008 108.167 2.67524 101.903-5.72442 93.1639C-9.3715 89.3695-12.2746 85.9779-15.7022 82.1648C-16.1922 81.6197-16.6957 81.0865-17.1721 80.5295C-17.2903 80.3913-17.5875 79.9325-17.4836 80.0817C-14.2497 84.7302-8.9432 88.8372-5.12091 93.0763C5.08611 104.396 15.5951 116.135 27.8981 125.256C33.4876 129.4 39.8283 132.968 46.6171 134.493C48.3777 134.888 50.2075 134.86 52 135.067C52.7053 135.149 54.3224 135.933 54.122 135.252C53.6083 133.505 52.0379 132.249 50.7831 130.93C47.9075 127.907 44.7573 125.159 41.7593 122.257C38.4142 119.02 35.2823 114.422 30.9737 112.485C30.7391 112.379 30.7794 112.993 30.8374 113.244C30.9449 113.709 31.8879 114.443 32.1515 114.655C34.3711 116.439 36.5825 118.233 38.839 119.97C42.8966 123.093 46.8373 126.364 50.8317 129.567C59.14 136.229 67.5349 143.401 76.4914 149.258C79.622 151.306 82.7504 153.511 86.284 154.738C86.4808 154.807 89.1511 155.459 89.1653 155.059C89.1833 154.556 84.3603 150.467 83.461 149.725C75.8843 143.473 68.308 137.139 60.5464 131.115C57.6242 128.846 54.2866 127.067 50.9776 125.479C50.9348 125.458 47.3393 124.547 48.3397 125.985C50.5117 129.107 54.2956 132.024 56.9838 134.59C64.148 141.426 71.5368 148.132 79.3144 154.271C84.2344 158.155 89.4786 161.609 94.5876 165.241C102.404 170.797 110.103 176.782 120.023 177.447C121.826 177.567 123.216 176.867 124.919 176.366C129.409 175.045 133.935 173.72 137.982 171.265C141.706 169.005 145.026 166.085 148.728 163.789C155.412 159.642 162.611 156.553 169.228 152.185C175.033 148.353 180.285 143.918 185.775 139.676C195.831 131.907 206.45 124.722 217.43 118.319C224.344 114.286 231.323 110.278 238.065 105.956C248.793 99.0777 258.81 91.2179 269.72 84.5979C274.712 81.5685 279.631 78.4965 284.515 75.3014C286.571 73.9568 288.699 72.7226 290.716 71.3199C291.313 70.9046 292.507 70.0739 292.507 70.0739C292.507 70.0739 290.654 71.2501 289.664 71.719C288.907 72.0781 288.113 72.3551 287.338 72.6731" fill="none" fill-rule="evenodd" opacity="1" stroke="#ebb500" stroke-linecap="round" stroke-linejoin="round" stroke-width="17.1407"/>
<path d="M116.051 167.917C114.818 168.775 113.463 169.803 111.934 170.117C111.43 170.221 110.425 170.359 110.415 169.845C110.383 168.208 114.892 167.981 115.672 167.849C121.828 166.805 127.046 164.53 132.492 161.463C145.293 154.254 156.869 144.836 168.916 136.455C182.059 127.311 195.976 119.301 209.564 110.833C231.726 97.0236 253.915 83.2068 275.998 69.2665C285.543 63.241 295.352 57.6186 304.849 51.5203C307.301 49.9454 309.729 48.3101 312.324 46.984C313.63 46.3171 314.937 45.653 316.218 44.9397C316.456 44.807 316.89 44.4725 316.89 44.4725C316.89 44.4725 316.442 44.784 316.218 44.9397" fill="none" fill-rule="evenodd" opacity="1" stroke="#ebb500" stroke-linecap="round" stroke-linejoin="round" stroke-width="17.1407"/>
<path d="M101.615 161.016C101.12 161.026 96.0031 161.409 95.8528 160.374C95.8013 160.019 100.631 158.352 100.73 158.31C104.881 156.553 108.857 154.436 112.79 152.245C128.401 143.55 143.157 133.514 158.383 124.181C173.883 114.679 189.87 106.127 205.583 96.9916C230.387 82.5705 255.106 67.5212 278.664 51.1319C288.739 44.123 298.813 37.1142 308.888 30.1053C312.804 27.3806 316.778 24.9394 320.841 22.4539C321.123 22.2814 323.776 20.5979 323.751 20.4291C323.686 19.9793 322.888 20.1436 322.457 20.0009" fill="none" fill-rule="evenodd" opacity="1" stroke="#ebb500" stroke-linecap="round" stroke-linejoin="round" stroke-width="17.1407"/>
<path d="M113.199 149.968C124.06 145.241 135.558 142.111 146.304 136.903C160.526 130.011 174.129 121.399 187.595 113.161C196.216 107.885 204.463 102.089 212.757 96.3197C215.667 94.2949 218.577 92.2701 221.488 90.2454C221.936 89.9339 222.383 89.6223 222.831 89.3108C223.055 89.1551 223.771 88.8918 223.503 88.8436C219.729 88.1663 214.912 91.706 211.871 93.6137C203.198 99.0541 194.616 104.871 186.572 111.214C174.319 120.877 161.883 130.051 149.068 138.967C141.551 144.197 133.957 149.387 125.279 152.527C121.81 153.782 118.427 154.863 114.902 155.759C114.357 155.898 112.489 156.589 111.953 155.818C110.974 154.411 111.23 152.609 110.648 151.077C109.113 147.033 105.842 143.205 101.469 142.181C101.089 142.092 98.4404 141.587 98.2954 142.395C98.2236 142.795 99.0093 142.784 99.3662 142.979C100.022 143.337 100.505 143.916 100.836 144.614C101.427 145.861 100.444 147.519 99.931 148.566C99.3653 149.72 98.1996 151.899 96.7481 152.11C96.0855 152.206 93.268 151.451 93.7596 150.202C95.2328 146.459 103.285 141.858 106.345 140.117C117.309 133.881 129.171 129.909 141.173 126.186C153.513 122.359 165.908 118.514 177.763 113.356C203.034 102.359 227.055 89.006 251.867 77.0838C267.276 69.6802 283.088 62.7177 299.048 56.5531C303.215 54.9434 307.34 53.2189 311.507 51.5396C313.214 50.8515 315.174 50.0874 316.831 49.1643C317.07 49.0316 317.768 48.7629 317.503 48.697C310.6 46.9774 302.348 49.8235 295.689 51.2481C286.575 53.1979 277.724 55.4518 268.901 58.5885C242.76 67.8824 217.459 78.6527 192.996 91.7941C182.469 97.4492 172.58 104.238 161.955 109.735C148.531 116.68 135.01 123.341 121.189 129.458C118.049 130.848 111.607 134.431 107.864 132.748C107.122 132.415 108.387 131.102 109.032 130.607C110.113 129.776 111.27 129.049 112.39 128.27C116.971 125.084 121.662 122.221 126.514 119.441C139.879 111.783 153.15 103.969 166.218 95.8055C184.028 84.68 201.165 72.3638 219.491 62.0653C230.924 55.6409 242.516 49.5478 254.309 43.8225C263.019 39.5939 271.557 35.4814 280.552 31.8779C282.674 31.0279 287.528 28.6337 290.325 28.7334C290.87 28.7529 289.469 29.4229 288.982 29.668C288.074 30.1246 287.12 30.4866 286.207 30.9335C284.972 31.5383 283.775 32.2201 282.538 32.822C276.509 35.7552 270.534 38.7535 264.637 41.9532C248.736 50.5821 233.03 59.5655 217.194 68.3147C205.98 74.5106 194.808 80.7084 183.515 86.7619C173.681 92.0333 163.962 97.4939 154.177 102.853C147.739 106.38 141.112 109.553 134.554 112.851C121.717 119.306 108.406 125.325 94.9562 130.432C88.6932 132.81 80.9034 135.835 74.0768 134.326C68.2173 133.031 64.5697 125.927 60.8186 121.955C59.3293 120.378 53.7712 115.722 53.2452 113.934C53.1727 113.688 53.7604 113.99 54.0045 114.071C54.6269 114.276 55.259 114.477 55.8345 114.791C56.6941 115.26 57.4818 115.85 58.2875 116.407C60.6781 118.057 63.1045 119.659 65.4228 121.41C74.3977 128.185 82.4452 136.223 91.0533 143.447C92.3746 144.555 93.7196 145.657 95.2001 146.542C96.3912 147.254 97.6985 147.77 99.016 148.206C99.427 148.342 102.023 148.232 102.189 147.992C102.685 147.274 100.604 144.577 100.145 144.098C97.6464 141.493 94.8073 139.38 91.9876 137.149C89.98 135.56 88.0048 133.931 85.9912 132.35C69.9441 119.751 53.5402 109.884 35.1394 101.281C28.1448 98.0101 21.1635 94.6187 14.2109 91.2553C12.9299 90.6356 11.7483 89.8223 10.4632 89.2113C9.87113 88.9298 8.07705 88.1439 8.63315 88.491C14.2723 92.0113 20.4333 94.7096 26.0769 98.2829C40.938 107.692 55.4888 117.643 70.8156 126.296C81.6431 132.409 90.6082 136.045 102.325 139.591C105.056 140.418 105.1 140.672 107.416 140.701C107.619 140.704 108.049 140.815 108.02 140.613C107.781 138.972 105.874 138.043 104.544 137.051C102.975 135.879 101.25 134.932 99.6384 133.819C97.414 132.284 95.2822 130.616 93.0386 129.108C87.5876 125.446 82.0245 121.953 76.5584 118.314C61.3919 108.215 45.8516 99.0653 29.8535 90.3397C19.6388 84.7686 9.66539 79.0639-1.31553 75.146C-3.0136 74.5401-6.4628 73.3595-8.39226 73.0924C-8.91733 73.0197-10.0146 72.6706-9.9789 73.1995C-9.92426 74.0088-5.63686 76.184-4.53744 76.723C0.852944 79.3659 6.41245 81.666 12.0204 83.8088C32.6701 91.6993 53.4659 98.6645 74.6306 105.037C83.603 107.738 92.6815 110.09 101.643 112.823C103.139 113.279 104.577 113.908 106.062 114.4C106.306 114.48 107.054 114.645 106.821 114.536C75.2811 99.8069 43.7833 85.6755 13.6747 68.0396C5.25637 63.1087-3.15094 58.6273-11.868 54.2473C-12.813 53.7725-15.0773 52.4689-15.7714 51.9795C-15.92 51.8747-16.2286 51.4229-16.0829 51.5317C-7.33882 58.0585 2.69833 63.8098 11.8155 69.6653C31.15 82.0826 50.749 93.971 71.2139 104.423C80.9964 109.42 90.6617 114.68 100.709 119.121C104.516 120.804 108.359 122.407 112.156 124.114C112.754 124.383 114.36 125.372 113.986 124.834C112.963 123.364 110.913 122.995 109.392 122.05C105.863 119.859 102.309 117.706 98.8201 115.451C94.0566 112.372 89.3536 109.2 84.6373 106.049C65.1912 93.056 45.7594 80.0802 26.144 67.3383C16.3619 60.984 6.66814 54.4902-3.13675 48.173C-7.05439 45.6489-10.8551 42.9458-14.6427 40.2304C-15.0406 39.9452-16.2711 39.7021-15.8692 39.4225C-15.742 39.334-12.2251 41.2014-11.2065 41.8267C-9.53762 42.8511-7.93805 43.9845-6.30043 45.0582C0.320694 49.3995 6.88519 53.8265 13.4796 58.2082C42.1061 77.2291 71.7657 94.6502 101.108 112.531C108.029 116.749 114.535 120.687 121.335 125.369C124.248 127.375 127.012 129.59 129.785 131.784C130.218 132.127 131.496 132.991 130.943 132.971C130.576 132.958 125.914 130.369 125.745 130.275C123.011 128.749 120.246 127.277 117.559 125.671C106.296 118.943 94.8195 112.465 84.3063 104.618C60.3018 86.7002 38.1021 67.697 16.9543 46.4883C11.3506 40.8685 5.62637 35.3636 0.201373 29.5711C-6.52585 22.3882-12.2277 13.8365-20.202 7.88435C-20.4323 7.71239-19.7412 8.22827-19.5108 8.40023C-18.5893 9.08807-17.6123 9.70726-16.7463 10.4637C-13.9391 12.9158-11.2861 15.5397-8.50128 18.0171C-4.02051 22.0033 0.482548 25.9654 5.04894 29.8532C26.7869 48.3608 49.146 65.7929 72.9555 81.6165C81.2668 87.1401 89.8027 92.3197 98.3133 97.5308C101.573 99.5269 104.973 101.287 108.262 103.235C109.846 104.173 111.265 105.365 112.788 106.398C112.956 106.512 113.465 106.836 113.324 106.69C109.694 102.969 102.586 99.972 98.5372 97.375C92.9099 93.7656 87.1765 90.3142 81.6774 86.5124C61.6968 72.6989 43.9851 56.9764 25.7731 41.0174C19.7203 35.7134 14.0649 29.93 7.67697 25.0348C4.99836 22.9821 1.72383 21.8543-1.2688 20.2946C-4.08332 18.8277-7.57467 17.3608-10.3508 16.3137C-11.4401 15.9028-12.5645 15.5808-13.6994 15.3209C-13.8975 15.2756-14.3321 15.2074-14.3029 15.4086C-14.0416 17.2079-12.3748 18.5089-11.1878 19.8861C-7.47751 24.1909-3.73832 28.4817 0.259882 32.5205C4.8385 37.1456 9.56537 41.6367 14.5207 45.8557C36.1373 64.2599 60.1725 80.0281 84.559 94.4748C94.9848 100.651 106.141 106.674 117.062 112.063C120.683 113.85 124.326 115.631 128.129 116.988C128.695 117.19 132.026 117.705 131.838 117.066C130.766 113.421 126.072 111.56 123.525 109.892C120.868 108.153 118.089 106.607 115.407 104.909C106.363 99.1825 97.3152 93.4018 88.8709 86.8237C62.3084 66.1317 37.9874 42.8762 12.2908 21.1604C2.49637 12.8834-6.7519 4.4468-15.0921-5.30548C-16.8735-7.3885-19.129-9.14551-20.4363-11.5546C-20.5332-11.7332-20.0242-11.7105-19.8328-11.6422C-19.2584-11.4372-18.7473-11.0836-18.2266-10.7662C-15.862-9.32464-13.4755-7.91442-11.179-6.36663C-6.21845-3.02328-1.74155 0.988811 2.88709 4.77837C14.3562 14.1683 25.6365 23.7894 37.1909 33.074C61.917 52.943 87.1392 73.2562 114.715 89.1103C120.688 92.5445 127.015 95.821 133.434 98.3472C133.975 98.5604 134.526 98.8551 135.108 98.8436C135.841 98.829 134.648 97.3671 134.086 96.8968C132.189 95.3099 130.192 93.8469 128.245 92.322C122.789 88.048 117.355 83.7445 111.95 79.4055C99.5246 69.4308 87.1554 59.3814 74.5897 49.5817C50.544 30.8288 27.9494 11.1185 5.9236-9.9591C-0.954171-16.5408-7.66553-23.6719-15.2681-29.4362C-15.9515-29.9544-16.7764-30.4179-17.6335-30.4484C-18.243-30.4702-17.7189-29.1385-17.3707-28.6379C-16.3842-27.22-15.4805-25.7408-14.4114-24.3842C-9.89234-18.6505-5.31188-12.9507-0.383984-7.5643C13.4189 7.5229 27.8645 21.5347 42.8367 35.4587C65.8969 56.9042 90.0045 77.0937 113.752 97.7541C119.54 102.791 125.197 107.978 131.001 112.997C133.486 115.146 135.698 117.663 138.467 119.431C138.709 119.586 138.388 118.84 138.224 118.604C137.959 118.223 137.577 117.937 137.221 117.64C136.78 117.271 136.284 116.972 135.839 116.608C133.72 114.879 131.556 113.2 129.531 111.362C125.544 107.743 121.706 103.963 117.811 100.246C110.704 93.4639 103.638 86.6386 96.5995 79.7857C77.7087 61.3931 57.3639 43.7037 40.0329 23.7877C32.9991 15.7047 26.8104 7.16947 20.6905-1.62727C19.2703-3.66861 17.6117-8.8299 15.541-5.68619" fill="none" fill-rule="evenodd" opacity="1" stroke="#ebb500" stroke-linecap="round" stroke-linejoin="round" stroke-width="17.1407"/>
<path d="M44.188-14.6523C42.8731-12.546 40.9444-10.6949 40.3043-8.29579C39.6109-5.6963 41.9246-0.211665 42.6214 1.72047C43.736 4.81096 44.9529 7.86403 46.0578 10.958C47.927 16.1916 49.7458 21.4434 51.6652 26.6588C52.8785 29.9553 54.3075 33.1876 56.0167 36.2564C57.0838 38.1725 61.6404 44.0567 63.7164 39.2056C65.797 34.3436 63.7213 27.1633 62.8495 22.2002C60.5374 9.03785 56.1451-4.41832 49.5319-16.0444C48.386-18.059 43.9977-26.232 41.0045-26.3914C35.8334-26.6668 35.4316-18.3183 35.2521-15.0802C35.1363-12.9906 35.228-10.8934 35.301-8.80179C35.8964 8.26583 39.7072 27.8997 44.5989 44.1998C45.4862 47.1563 46.7263 51.5895 50.498 51.724C55.4208 51.8997 55.4424 41.9011 55.6956 39.1377C57.0434 24.4243 57.0849 9.91442 56.3364-4.83104C56.1278-8.94183 55.7759-13.0447 55.4113-17.1446C55.2455-19.0092 55.0348-20.8695 54.8465-22.7319C54.8261-22.9342 54.7015-23.5304 54.7589-23.3354C56.9278-15.9619 56.6511-7.19089 57.349 0.444785C58.7067 15.3005 59.3418 31.4733 63.4733 46.0194C64.3229 49.0107 65.3575 51.9578 66.5982 54.8091C67.3185 56.4643 68.6323 58.7069 70.9689 57.7487C72.0682 57.2979 73.9338 54.6507 74.2881 53.4461C75.9074 47.9405 77.4244 42.3978 78.6484 36.791C80.3622 28.9403 81.6288 20.9986 83.096 13.0981C87.5469-10.8684 92.6369-34.4656 99.9237-57.7469C101.103-61.5137 102.175-65.313 103.33-69.0872C104.054-71.4519 104.403-74.0306 105.763-76.0958C106.366-77.01 105.237-73.9706 104.995-72.903C103.984-68.448 103-63.9871 102.007-59.5283C100.637-53.3781 99.4986-47.1783 98.2889-40.9945C94.2518-20.3572 90.7427 0.368426 86.5811 20.9729C85.9702 23.9974 85.6396 27.0774 84.9461 30.084C84.7533 30.9197 84.7566 32.2074 83.9338 32.4494C83.2989 32.6362 83.3305 31.2314 83.2913 30.5708C83.1015 27.3739 83.0934 24.1619 83.252 20.9633C83.4181 17.6148 83.8157 14.2791 84.264 10.9566C85.7425-0.00142903 87.7603-10.9116 90.5024-21.6235C96.0441-43.2724 104.553-64.8596 114.212-84.9638C116.999-90.7632 120.655-96.1272 124.403-101.356C125.1-102.328 126.021-103.146 127.002-103.829C127.901-104.454 128.56-102.078 128.647-100.987C128.781-99.3156 128.387-97.6414 128.141-95.9833C127.585-92.2322 126.728-87.8501 125.806-84.059C123.121-73.0266 119.79-62.0832 116.394-51.2646C110.155-31.3871 103.539-11.5569 96.5385 8.06516C95.6574 10.5349 94.6179 12.9452 93.6575 15.3853C92.6488 17.9482 91.4691 23.2203 89.4527 24.623C89.2859 24.7391 89.3608 24.2228 89.3651 24.0195C89.3868 22.9832 89.4206 21.945 89.5305 20.9144C89.7886 18.4942 90.8958 15.2419 91.4965 13.2341C92.5912 9.57512 93.7102 5.92337 94.8349 2.27346C97.8146-7.39626 101.185-17.053 105.619-26.1601C116.298-48.0921 127.422-69.2085 141.594-89.0628C145.05-93.9043 148.306-99.0564 151.357-104.161C152.129-105.452 152.389-107.205 153.625-108.064C154.163-108.439 153.89-106.713 153.664-106.098C153.045-104.415 152.185-102.831 151.415-101.211C150.611-99.5207 149.756-97.855 148.943-96.1689C145.017-88.0272 141.66-79.6453 138.392-71.2202C131.245-52.7913 124.358-34.2324 118.011-15.5115C116.319-10.5213 115.25-5.19246 113.32-0.28725C113.226-0.0479844 113.411-0.793424 113.456-1.04651C113.592-1.80577 113.706-2.56951 113.865-3.32429C114.144-4.64667 114.478-5.95674 114.77-7.27635C115.619-11.1189 116.421-14.7819 117.573-18.529C121.447-31.1353 125.546-43.2593 130.839-55.3339C132.4-58.8941 133.937-62.4587 135.316-66.0902C136.042-68.0001 136.953-69.8351 137.701-71.7361C137.795-71.9753 138.048-72.6422 137.837-72.4953C137.623-72.3464 136.607-69.9867 136.601-69.9742" fill="none" fill-rule="evenodd" opacity="1" stroke="#ebb500" stroke-linecap="round" stroke-linejoin="round" stroke-width="17.1407"/>
<path d="M74.8112-19.3452C71.9845-18.6515 68.3287-17.3724 67.4913-14.585C66.7732-12.1942 67.5069-9.58702 67.7155-7.09947C68.0689-2.88431 68.3706 1.35349 69.176 5.50607C73.3077 26.8092 83.2438 43.9912 96.2289 61.106C97.995 63.4337 99.9613 65.6033 101.885 67.8029C105.349 71.7644 111.886 78.227 117.859 75.9594C130.906 71.0058 127.145 53.8037 124.408 43.8271C118.715 23.0732 107.071 0.40561 93.7051-16.5424C87.7513-24.0919 73.665-36.171 67.5787-21.6227C62.8749-10.3792 66.0539 4.13808 70.4223 14.9383C81.2097 41.6083 100.116 64.9396 124.011 80.982C134.082 87.7437 148.38 91.3421 159.988 86.8503C161.178 86.3899 162.36 85.7799 163.278 84.8937C173.551 74.9773 162.37 61.1758 156.064 53.0344C144.664 38.3177 130.853 23.4895 115.471 12.8342C107.183 7.09249 99.7311 1.12204 89.4423 5.02839C88.2494 5.48129 86.9985 6.03009 86.1523 6.98505C79.4622 14.5344 84.2505 25.7122 88.1097 33.1988C90.4898 37.816 93.2132 42.259 96.0921 46.5828C101.449 54.6284 109.913 63.3223 116.671 69.4766C131.823 83.2762 150.613 91.9949 169.858 80.9804C173.039 79.16 176.593 77 178.034 73.6309C179.673 69.8027 180.992 65.8336 182.113 61.8233C182.46 60.5789 182.621 59.2343 182.414 57.9589C181.436 51.9258 180.317 45.8882 178.578 40.0289C173.189 21.87 163.047 5.89472 149.423-7.13157C147-9.44842 144.746-11.9872 142.025-13.9451C139.385-15.8446 136.389-17.2053 133.459-18.6172C127.598-21.4414 119.84-24.9359 113.446-20.6412C110.254-18.4973 107.34-15.8855 104.821-12.9802C98.7435-5.96937 97.9014 12.1767 99.5857 20.5636C104.57 45.3803 119.87 72.7937 146.944 77.6521C151.466 78.4636 156.213 77.1552 160.601 75.7924C168.879 73.221 174.985 64.9474 178.55 57.6573C183.214 48.1184 185.508 35.1834 185.46 24.6099C185.429 17.9418 184.842 10.858 180.689 5.33665C178.873 2.92154 177.084 0.367603 174.654-1.4283C162.453-10.4437 143.693-7.23053 131.552-0.346299C107.805 13.1175 93.9663 41.6134 91.6736 67.9298C90.9374 76.3809 92.9376 86.7161 98.683 93.2867C110.74 107.076 132.175 98.6287 144.783 90.7834C149.498 87.8502 154.258 84.9896 158.907 81.9542C186.391 64.009 208.929 40.2596 230.528 15.8477C236.717 8.85256 245.784 0.103147 250.326-8.22535C250.413-8.38497 250.05-7.97395 249.879-7.91385C248.44-7.41011 246.924-7.12746 245.518-6.54119C243.738-5.79928 242.018-4.90808 240.349-3.94201C232.795 0.43015 225.932 5.91463 219.013 11.2341C199.479 26.2515 180.667 43.1321 163.481 60.8311C156.76 67.7536 147.759 76.865 141.182 84.6511C139.4 86.7598 137.76 88.9842 136.091 91.1828C135.621 91.8015 135.194 92.4518 134.767 93.1005C134.655 93.2703 134.278 93.686 134.475 93.6359C141.025 91.9698 147.278 86.804 152.804 83.2101C159.67 78.7451 166.582 74.3498 173.576 70.0878C196.451 56.1478 220.808 45.1408 244.244 32.2199C255.069 26.2518 265.4 19.2996 275.782 12.6046C278.915 10.584 282.056 8.57189 285.116 6.44264C285.639 6.07921 287.319 5.37506 286.683 5.35237C285.648 5.31541 284.742 6.0828 283.754 6.39401C281.834 6.99822 279.853 7.41047 277.962 8.09768C269.333 11.2328 261.202 15.8144 253.238 20.3148C234.598 30.8479 216.732 42.6003 198.913 54.454C189.539 60.6897 180.124 66.9443 170.997 73.5435C168.933 75.0359 166.975 76.6738 164.884 78.1285C164.735 78.2323 164.275 78.5245 164.436 78.44C177.19 71.7436 188.72 62.5369 200.344 54.123C216.107 42.714 231.97 31.4564 247.942 20.3442C257.14 13.9456 266.267 7.52777 275.012 0.514956C278.711-2.45121 282.392-5.4404 286.031-8.4797C287.156-9.41937 288.252-10.3959 289.301-11.4195C289.447-11.5614 289.793-11.9932 289.593-11.9549C281.227-10.3491 272.872-5.68325 265.59-1.5678C257.413 3.05278 249.304 7.79632 241.284 12.6837C218.081 26.8237 195.457 42.0418 173.566 58.1344C164.153 65.0538 155.354 73.1301 145.776 79.7937C145.627 79.8975 146.074 79.586 146.224 79.4822C147.045 78.9111 147.904 78.3916 148.686 77.7689C150.116 76.6309 151.42 75.3411 152.852 74.2061C154.848 72.6239 156.967 71.2003 158.965 69.6211C168.365 62.1931 177.679 54.9326 187.359 47.8742C207.59 33.1215 227.982 18.7077 247.523 3.02731C252.287-0.795295 257.102-4.55777 261.744-8.52751C262.927-9.53889 264.308-10.376 265.239-11.6231C265.532-12.0154 264.271-11.4505 263.808-11.2921C262.389-10.8069 260.998-10.2434 259.603-9.69552C257.345-8.80908 255.039-8.02834 252.847-6.98922C244.837-3.19175 237.203 1.3646 229.574 5.88003C199.795 23.5059 170.908 42.5916 141.074 60.1408C134.859 63.7963 128.688 67.5407 122.297 70.8781C120.018 72.0683 117.738 73.261 115.405 74.3437C114.386 74.8171 113.344 75.273 112.252 75.5411C112.054 75.5895 111.619 75.4275 111.716 75.2491C114.188 70.7181 121.815 65.8346 125.918 62.7111C129.827 59.7355 133.74 56.7661 137.696 53.8527C157.173 39.5064 177.414 26.2412 196.936 11.9747C203.79 6.96546 211.03 1.70036 217.581-3.71733C220.119-5.81584 222.553-8.03645 225.018-10.2199C226.047-11.1322 227.102-12.0209 228.064-13.004C228.467-13.4149 229.662-14.2847 229.096-14.3863C224.965-15.1276 218.497-13.5377 214.768-12.0593C210.043-10.1864 205.456-7.97627 200.897-5.73168C178.83 5.13182 157.628 19.0194 137.199 32.6033C124.958 40.7419 112.886 48.8923 101.621 58.3511C99.9276 59.7735 98.1462 61.177 96.8714 62.9847C96.5893 63.3848 95.6843 63.9016 96.0636 64.2112C96.6693 64.7058 97.632 64.325 98.4095 64.2403C99.9054 64.0774 101.411 63.8845 102.858 63.4712C104.936 62.8777 106.977 62.1329 108.942 61.2321C114.458 58.7026 119.921 56.0483 125.275 53.1912C147.922 41.1058 168.2 24.0805 188.701 8.73355C197.898 1.84868 206.643-5.27379 214.972-13.1982C217.416-15.5231 219.512-17.4516 220.802-20.5768C220.912-20.8425 220.811-21.2666 220.559-21.4042C218.135-22.7263 213.394-21.7674 210.883-20.9853C206.734-19.693 202.6-18.3339 198.56-16.7311C192.959-14.5085 187.505-11.9316 181.983-9.51756C156.373 1.67998 131.864 15.2482 112.679 36.0403C109.637 39.3365 107.041 43.0278 104.493 46.7188C100.698 52.2158 97.3042 58.5828 99.1882 65.3597C100.069 68.5295 108.351 66.9501 110.334 66.5761C116.757 65.3645 123.315 59.7947 128.127 55.8582C146.945 40.4661 163.007 20.3079 177.039 0.567092C178.673-1.7311 180.331-4.01702 181.818-6.41239C183.69-9.42609 188.293-17.5345 185.906-21.549C184.316-24.223 180.251-24.1566 177.846-23.5831C174.433-22.7691 171.004-21.8204 167.849-20.2829C163.511-18.1686 159.535-15.3717 155.516-12.6997C135.956 0.306192 119.409 19.9151 106.77 39.4863C104.542 42.9373 102.497 46.5081 100.55 50.1259C99.1616 52.7077 97.8964 55.3607 96.7739 58.069C92.2923 68.8818 100.839 63.1535 104.97 59.3439C110.983 53.7992 115.616 47.3578 120.953 41.2477" fill="none" fill-rule="evenodd" opacity="1" stroke="#ebb500" stroke-linecap="round" stroke-linejoin="round" stroke-width="17.1407"/>
<path d="M154.733 222.959C154.401 222.744 153.764 222.361 153.586 222.058C153.327 221.62 153.759 221.801 156.6 220.076C158.385 218.993 160.116 217.941 161.795 216.672C163.35 215.497 164.803 214.19 166.363 213.02C174.991 206.553 184.406 201.297 193.612 195.728C219.91 179.822 246.018 163.847 273.39 149.814C281.649 145.58 289.824 141.284 297.911 136.735C299.164 136.031 300.426 135.341 301.656 134.597C304.218 133.047 306.736 130.835 301.84 131.883" fill="none" fill-rule="evenodd" opacity="1" stroke="#ebb500" stroke-linecap="round" stroke-linejoin="round" stroke-width="17.1407"/>
<path d="M279.917 139.247C279.839 138.882 279.95 138.412 279.683 138.151C279.063 137.548 278.425 139.341 277.764 139.899C276.585 140.893 275.212 141.726 273.953 142.625C268.325 146.64 262.433 150.19 256.439 153.631C240.131 162.994 224.581 173.181 208.987 183.651C203.06 187.63 196.967 191.345 191.042 195.323C189.858 196.118 188.713 196.947 187.557 197.788C187.151 198.083 185.936 198.736 186.435 198.792C188.739 199.049 192.37 195.391 193.887 194.332C198.282 191.265 202.672 188.206 206.99 185.034C222.184 173.871 237.739 163.022 254.169 153.735C261.47 149.607 268.688 145.169 276.172 141.386C278.923 139.995 281.691 138.653 284.471 137.318C285.22 136.958 285.983 136.627 286.729 136.262C286.906 136.175 287.431 135.921 287.238 135.962C283.331 136.798 279.274 140.643 276.08 142.743C271.37 145.84 266.671 148.978 262.063 152.237C250.188 160.637 238.001 168.549 226.343 177.264C219.321 182.512 212.845 188.375 206.008 193.841C197.544 200.607 188.394 206.48 179.737 213.025C176.719 215.306 173.621 217.541 170.444 219.598C169.716 220.069 169.012 220.579 168.265 221.019C167.925 221.219 166.885 221.776 167.247 221.619C170.42 220.247 173.931 216.542 176.422 214.498C179.907 211.638 183.471 208.859 187.046 206.112C202.696 194.087 218.857 182.664 235.282 171.721C243.001 166.58 250.998 162.044 258.943 157.299C262.345 155.266 265.669 153.129 269.083 151.117C269.881 150.647 270.623 150.082 271.445 149.657C271.728 149.511 272.627 149.358 272.32 149.279C271.12 148.969 268.555 151.086 267.661 151.613C266.694 152.183 265.747 152.786 264.79 153.373C263.833 153.96 262.864 154.528 261.919 155.134C254.433 159.926 246.789 164.444 239.354 169.322C220.395 181.761 202.477 195.429 184.448 209.151C181.123 211.683 178.456 214.823 175.364 217.59C170.564 221.885 165.202 225.881 159.729 229.341C155.249 232.173 151.3 236.021 146.586 238.457C144.732 239.416 142.531 239.895 140.531 240.517C138.408 241.177 136.471 242.405 134.411 243.163C130.974 244.428 126.719 246.146 123.386 243.42C119.386 240.151 130.742 236.712 131.934 236.051C132.623 235.669 133.277 235.225 133.97 234.852C134.648 234.486 135.374 234.213 136.045 233.834C144.765 228.915 153.605 224.06 162.303 219.047C165.134 217.416 168.004 215.824 170.811 214.17C171.869 213.547 172.914 212.905 174.087 212.514C174.264 212.455 174.635 212.397 174.635 212.397C174.635 212.397 174.014 212.485 173.722 212.592C172.292 213.118 173.361 212.82 171.829 213.57C170.18 214.379 168.47 215.179 166.844 216.165C162.769 218.638 158.79 221.055 155.19 224.199C154.871 224.477 152.31 226.325 152.149 226.951C152.085 227.196 153.033 226.953 153.101 226.938C154.685 226.599 156.095 226.094 157.551 225.413C159.836 224.344 162.011 223.057 164.246 221.879C172.455 217.554 180.034 212.324 187.906 207.456C198.502 200.905 208.239 192.988 218.433 185.833C222.509 182.972 226.744 180.432 231.079 177.97C232.203 177.331 233.362 176.697 234.498 176.092C234.725 175.972 235.405 175.893 235.19 175.753C234.226 175.129 233.047 176.604 232.058 177.187C228.365 179.364 224.781 181.521 221.004 183.564C207.68 190.772 195.189 199.567 183.496 209.164C178.952 212.893 174.439 216.674 169.57 219.976C167.905 221.105 166.217 222.202 164.558 223.341C164.122 223.64 163.654 223.906 163.214 224.201C163.051 224.311 162.513 224.543 162.705 224.501C165.217 223.964 167.42 221.286 169.531 219.793C175.35 215.677 180.922 211.196 186.654 206.96C200.927 196.413 215.383 185.865 230.062 175.895C238.127 170.417 246.462 165.007 254.989 160.246C258.14 158.486 261.291 156.642 264.294 154.626C264.918 154.206 265.507 153.736 266.108 153.282C266.441 153.03 267.484 152.372 267.087 152.5C264.162 153.438 261.629 155.167 259.008 156.711C251.729 161.001 244.725 165.643 237.644 170.261C223.685 179.365 209.797 188.384 196.208 198.039C187.285 204.378 178.55 211.012 169.832 217.628C167.794 219.174 165.773 220.765 163.776 222.362C163.515 222.571 160.974 224.83 161.466 224.958C162.683 225.272 164.461 223.794 165.289 223.184C166.501 222.292 167.703 221.387 168.917 220.498C175.198 215.898 180.956 210.68 186.968 205.747C202.264 193.194 218.775 182.378 235.504 171.865C241.974 167.799 248.576 163.952 255.132 160.024C256.494 159.208 257.787 158.365 259.204 157.625C259.485 157.478 260.078 157.247 260.078 157.247C260.078 157.247 258.017 158.405 257.024 159.046C254.574 160.629 252.079 162.134 249.612 163.689C244.354 167.001 239.208 170.469 234.029 173.9C230.838 176.014 227.643 178.124 224.515 180.329C215.921 186.389 207.425 192.557 199.078 198.953C191.074 205.087 183.339 211.555 175.403 217.773C173.471 219.287 170.246 221.064 168.473 222.885C168.294 223.069 168.943 222.677 169.165 222.546C169.623 222.276 170.067 221.982 170.509 221.686C171.181 221.234 171.858 220.789 172.506 220.303C174.734 218.633 176.818 216.777 179.031 215.086C186.294 209.538 193.739 204.214 201.166 198.888C214.648 189.222 228.415 179.982 242.12 170.641C247.443 167.013 252.902 163.672 258.472 160.456C260.569 159.245 262.345 158.3 262.14 157.952C261.602 157.04 259.998 158.179 259.034 158.616C257.85 159.154 256.75 159.86 255.615 160.494C251.508 162.787 247.495 165.44 243.699 168.201C224.171 182.409 203.599 195.122 184.122 209.412C179.251 212.986 174.717 217.008 169.909 220.668C169.495 220.983 167.423 222.718 166.346 222.767C165.706 222.796 166.713 221.539 166.908 220.928" fill="none" fill-rule="evenodd" opacity="1" stroke="#ebb500" stroke-linecap="round" stroke-linejoin="round" stroke-width="17.1407"/>
<path d="M126.495 235.371C124.916 235.541 123.393 234.444 122.027 233.801C119.64 232.677 117.184 231.734 114.769 230.68C104.255 226.092 93.7997 221.393 83.5898 216.152C57.3891 202.702 33.875 185.266 10.7025 167.229C-3.5578 156.128-16.9439 143.639-32.8698 135.033" fill="none" fill-rule="evenodd" opacity="1" stroke="#ebb500" stroke-linecap="round" stroke-linejoin="round" stroke-width="17.1407"/>
<path d="M116.214 241.124C111.483 241.236 106.92 238.261 102.692 236.475C92.5321 232.183 82.4986 227.635 72.7242 222.517C46.6747 208.877 21.7925 191.77-0.254169 172.278C-6.30117 166.932-12.305 161.525-17.9492 155.754C-22.2274 151.38-26.865 145.572-31.5796 141.468" fill="none" fill-rule="evenodd" opacity="1" stroke="#ebb500" stroke-linecap="round" stroke-linejoin="round" stroke-width="17.1407"/>
<path d="M81.4867 227.099C76.659 226.259 72.2098 224.144 67.7113 222.291C61.2618 219.634 54.9818 216.667 48.7085 213.626C30.1501 204.628 11.9124 193.757-4.0717 180.657C-8.42463 177.089-12.7503 173.34-16.7161 169.343C-19.0567 166.984-21.0047 164.23-23.4061 161.947" fill="none" fill-rule="evenodd" opacity="1" stroke="#ebb500" stroke-linecap="round" stroke-linejoin="round" stroke-width="17.1407"/>
<path d="M100.707 230.086C104.062 234.64 112.933 232.625 117.583 232.216C129.005 231.212 139.779 227.415 149.773 221.875C153.556 219.778 157.314 217.575 160.967 215.262C163.005 213.972 165.056 212.451 167.264 211.482" fill="none" fill-rule="evenodd" opacity="1" stroke="#ebb500" stroke-linecap="round" stroke-linejoin="round" stroke-width="17.1407"/>
<path d="M107.098 241.426C107.606 241.906 108.386 242.045 109.014 242.321C109.617 242.587 110.183 242.932 110.783 243.204C114.001 244.664 117.222 245.979 120.583 247.077C121.829 247.484 123.063 247.924 124.317 248.311C124.564 248.387 125.122 248.445 125.19 248.728C125.251 248.982 123.907 248.914 123.835 248.914C122.277 248.922 120.7 248.684 119.188 248.302C118.345 248.09 117.231 247.753 116.384 247.478C113.974 246.694 111.609 245.574 109.46 244.237C108.922 243.902 108.411 243.568 107.898 243.198C107.852 243.165 107.806 243.08 107.754 243.104C107.678 243.14 107.868 243.23 107.936 243.28C108.147 243.437 108.359 243.593 108.572 243.747C108.822 243.927 109.086 244.086 109.345 244.25C110.292 244.848 111.273 245.39 112.271 245.899C115.492 247.541 119.057 248.441 122.595 249.088C123.828 249.314 125.065 249.524 126.288 249.801C126.375 249.821 127.462 250.156 127.124 250.355C126.111 250.953 124.018 250.72 123.02 250.613C119.271 250.21 115.497 248.849 112.194 247.075C110.848 246.352 109.581 245.474 108.352 244.569C108.253 244.496 107.393 243.652 107.223 243.73C107.044 243.814 107.516 243.998 107.667 244.126C107.961 244.375 108.259 244.612 108.563 244.852C109.554 245.631 110.644 246.273 111.745 246.883C114.982 248.674 119.093 249.595 122.773 249.906C124.043 250.014 125.319 250.122 126.594 250.16C126.998 250.172 127.399 250.23 127.802 250.262C127.861 250.266 128.568 250.256 128.543 250.219C128.399 250.008 126.814 250.036 126.509 250.019C124.674 249.92 122.827 249.603 121.01 249.341C115.162 248.496 109.791 246.618 105.125 242.96" fill="none" fill-rule="evenodd" opacity="1" stroke="#ebb500" stroke-linecap="round" stroke-linejoin="round" stroke-width="5.00642"/>
<path d="M86.2217 30.3108C88.09 23.7718 88.187 32.8342 88.187 34.0229C88.187 38.3488 87.1211 42.5363 86.0034 46.6879C83.4143 56.3045 80.6413 65.8193 78.3607 75.5115C78.2529 75.9699 76.5234 83.6743 78.1424 83.8093C81.6908 84.105 85.3366 78.9201 87.9686 77.0401C90.8606 74.9744 93.7286 72.8708 96.7031 70.9259C110.85 61.6759 137.521 59.1264 152.385 66.5587C157.394 69.0633 164.183 74.8033 164.395 80.7522C164.877 94.2603 149.811 103.259 140.157 109.794C132.791 114.78 123.793 119.585 115.7 123.114C104.15 128.152 91.7037 130.943 79.4525 127.045" fill="none" fill-rule="evenodd" opacity="1" stroke="#ffffff" stroke-linecap="round" stroke-linejoin="round" stroke-width="12.2827"/>
<path d="M90.1522 29.6557C89.1253 29.1422 87.9565 28.5639 87.9686 28.5639C99.9019 28.5639 111.826 29.3873 123.78 29.219C137.661 29.0235 151.621 28.2116 165.487 27.4721C171.394 27.1571 177.308 26.944 183.174 26.1619" fill="none" fill-rule="evenodd" opacity="1" stroke="#ffffff" stroke-linecap="round" stroke-linejoin="round" stroke-width="12.2827"/>
</g>
</svg>
