<?xml version="1.0" encoding="UTF-8" standalone="no"?>
<!DOCTYPE svg PUBLIC "-//W3C//DTD SVG 1.1//EN" "http://www.w3.org/Graphics/SVG/1.1/DTD/svg11.dtd">
<!-- Created with Vectornator (http://vectornator.io/) -->
<svg height="100%" stroke-miterlimit="10" style="fill-rule:nonzero;clip-rule:evenodd;stroke-linecap:round;stroke-linejoin:round;" version="1.1" viewBox="0 0 255 255" width="100%" xml:space="preserve" xmlns="http://www.w3.org/2000/svg" xmlns:vectornator="http://vectornator.io" xmlns:xlink="http://www.w3.org/1999/xlink">
<defs/>
<clipPath id="ArtboardFrame">
<rect height="255" width="255" x="0" y="0"/>
</clipPath>
<g clip-path="url(#ArtboardFrame)" id="레이어-1" vectornator:layerName="레이어 1">
<path d="M469.489 131.314C471 131.206 472.511 131.098 474.022 130.99" fill="none" fill-rule="evenodd" opacity="1" stroke="#000000" stroke-linecap="round" stroke-linejoin="round" stroke-width="10"/>
<path d="M422.873 153.004C422.873 150.909 423.128 148.672 424.167 146.853" fill="none" fill-rule="evenodd" opacity="1" stroke="#000000" stroke-linecap="round" stroke-linejoin="round" stroke-width="10"/>
<path d="M-0.379624 151.019C-1.51978 147.773 2.3297 151.66 3.10948 152.336C6.01767 154.855 8.63704 157.653 11.5085 160.221C18.8498 166.788 27.2509 172.568 35.4377 178.027C48.8839 186.993 63.786 193.681 77.9164 201.423C89.9015 207.99 102.65 215.885 116.385 218.056C132.172 220.551 147.802 210.94 160.762 203.256C173.57 195.663 186.088 187.225 197.654 177.829C210.94 167.035 222.859 154.792 235.244 143.016C242.853 135.781 250.609 128.681 257.685 120.909C261.428 116.797 265.416 112.721 267.294 107.425" fill="none" fill-rule="evenodd" opacity="1" stroke="#b3724d" stroke-linecap="round" stroke-linejoin="round" stroke-width="10"/>
<path d="M-6.76228 177.655C-3.73346 175.86 0.891209 180.09 3.25505 181.703C7.31501 184.475 11.563 187.073 15.2961 190.307C17.9316 192.59 20.2973 195.099 23.1011 197.19C30.7841 202.92 41.4924 206.272 49.9986 210.866C58.7467 215.59 67.6948 220.024 76.3951 224.838C80.3447 227.024 84.1562 229.667 88.2966 231.493C92.1269 233.183 96.2276 234.395 100.109 236C106.303 238.561 111.982 242.185 118.395 244.287C129.992 248.089 142.994 240.95 152.901 235.678C178.144 222.244 199.598 203.97 221.535 185.845C240.302 170.339 260.971 155.806 273.744 134.578" fill="none" fill-rule="evenodd" opacity="1" stroke="#b3724d" stroke-linecap="round" stroke-linejoin="round" stroke-width="10"/>
<path d="M20.663-18.2015C20.4794-19.3031 20.5025-21.9108 20.0615-23.0135C19.872-23.4871 18.6387-22.5306 17.455-21.61C16.7453-21.058 16.1521-20.3672 15.45-19.8055C12.2182-17.2201 8.98173-14.6776 5.82607-11.986C-3.89195-3.69713-14.0084 4.63838-22.4443 14.2793C-24.7777 16.9461-27.7188 20.6796-28.8602 24.1038C-29.045 24.658-29.4137 26.3921-28.4592 26.7103C-25.8678 27.5741-22.251 25.0212-20.2388 23.9033C-15.3819 21.205-10.5632 18.3385-5.80286 15.4823C14.3621 3.38332 34.8627-8.24898 54.7478-20.808C60.504-24.4435 66.3641-27.9028 72.1912-31.4344C73.0637-31.9632 73.9229-32.5135 74.7977-33.0384C75.1558-33.2533 78.2062-34.6977 78.2062-35.2439C78.2062-35.4688 78.1767-35.4297 76.2012-34.4419C75.2655-33.9741 74.3223-33.521 73.3942-33.0384C70.5277-31.5478 67.7488-29.8665 64.9733-28.2264C55.7145-22.7553 46.4298-17.3435 37.1039-11.986C21.1637-2.82889 5.14409 6.16215-10.8153 15.2818C-14.4096 17.3357-17.8976 19.5713-21.4418 21.6978C-21.7957 21.9101-24.4493 23.4977-24.4493 23.7028C-24.4493 23.9731-23.8273 23.9369-21.8428 23.1013C-19.1671 21.9747-16.5136 20.7859-13.8228 19.6928C-9.0992 17.7738-4.31628 15.987 0.412603 14.0788C17.336 7.25009 34.6323 1.58465 52.1413-3.56507C90.1371-14.7403 128.321-23.0647 167.629-28.0259C181.752-29.8084 196.083-31.6349 210.335-31.6349C210.469-31.6349 210.065-31.6611 209.934-31.6349C209.394-31.5268 208.873-31.3276 208.33-31.2339C206.933-30.993 205.519-30.8594 204.119-30.6324C199.452-29.8755 194.776-29.2858 190.085-28.6274C177.427-26.8509 164.77-24.8859 152.19-22.6125C107.216-14.4845 62.4439-3.74106 18.4575 8.66536C9.61733 11.1587 0.834246 13.5427-7.80785 16.6853C-9.13875 17.1693-10.4743 17.641-11.8178 18.0888C-12.0267 18.1584-13.6535 18.8284-13.6223 18.8908C-13.4275 19.2805-5.97503 19.3342-5.00087 19.2918C1.85602 18.9937 8.66836 17.0767 15.2495 15.2818C46.8088 6.67474 79.9821 2.47931 112.491-0.156591C147.671-3.00895 182.89-3.18176 218.154-3.56507C226.911-3.66025 235.666-3.78743 244.42-3.96607C245.758-3.99338 247.097-4.0454 248.43-4.16657C249.513-4.26507 251.151-3.79496 251.638-4.76807C251.791-5.07374 248.959-5.16906 248.63-5.16906C245.511-5.16906 242.229-3.65033 239.207-2.96358C231.585-1.23129 223.952-0.958586 216.149-0.958586C194.096-0.958586 172.045-0.370641 149.985-0.557588C103.174-0.954287 56.5337 1.41249 9.83605 4.65538C-0.322982 5.36087-10.4825 5.44944-20.6398 6.05888C-22.0471 6.14331-23.4507 6.29022-24.8503 6.45987C-25.4584 6.53358-31.2443 7.23997-31.6672 7.66287C-32.2382 8.23389-30.2679 8.61794-29.4617 8.66536C-26.0419 8.86653-22.444 8.79258-19.0358 8.46486C-10.7259 7.66583-2.48641 6.24904 5.82607 5.45738C28.9588 3.25426 52.1707 2.64533 75.3992 2.85089C121.28 3.25692 167.158 6.87581 212.941 9.46736C227.318 10.2811 241.694 11.3356 256.049 12.4748C261.525 12.9095 266.996 13.2768 272.49 13.2768C272.891 13.2768 273.312 13.4036 273.693 13.2768C273.893 13.21 273.286 13.1576 273.091 13.0763C272.484 12.8232 271.921 12.4505 271.287 12.2743C268.849 11.5972 266.338 11.2192 263.868 10.6704C256.075 8.93849 248.295 7.14401 240.41 5.85838C219.952 2.52285 199.35 1.77075 178.656 1.4474C132.259 0.722445 85.7938 5.56203 39.5099 8.06386C22.6123 8.97725 5.70135 9.77177-11.2163 10.2694C-15.7501 10.4027-20.3133 10.4699-24.8503 10.4699C-25.9196 10.4699-26.9972 10.6025-28.0582 10.4699C-28.2065 10.4513-28.4592 10.1199-28.4592 10.2694C-28.4592 11.3113-24.361 11.6522-24.2488 11.6728C-18.4994 12.7319-12.7991 13.8527-7.00586 14.6803C9.94086 17.1013 27.046 18.2506 44.1214 19.2918C105.477 23.033 166.765 27.4093 228.179 30.1187C240.406 30.6582 252.63 31.0614 264.871 30.9207C266.342 30.9038 267.82 30.8902 269.282 30.7202C270.701 30.5552 272.118 30.3107 273.492 29.9182C274.154 29.7291 275.634 28.8026 275.698 27.9133C275.809 26.36 274.348 25.7048 273.292 25.1063C271.913 24.3252 270.547 23.5016 269.081 22.9008C266.46 21.8267 263.752 20.9774 261.061 20.0938C243.187 14.2247 224.194 12.455 205.523 11.4723C166.957 9.44255 128.923 13.2082 90.8376 19.0913C69.486 22.3895 47.7697 26.0492 27.079 32.3242C16.5009 35.5323 6.97018 39.7669-3.19638 43.9532" fill="none" fill-rule="evenodd" opacity="1" stroke="#b3724d" stroke-linecap="round" stroke-linejoin="round" stroke-width="10"/>
<path d="M20.8635 55.9831C20.2416 55.9054 14.926 55.2586 14.648 54.9806C14.5135 54.846 16.0513 54.9806 16.0515 54.9806C17.0722 55.1507 17.9957 55.1811 19.059 55.1811C21.9793 55.1811 24.7824 54.7201 27.6805 54.3791C33.6771 53.6736 39.7083 53.076 45.7254 52.5746C49.2789 52.2785 52.3364 52.3091 55.7503 51.1711" fill="none" fill-rule="evenodd" opacity="1" stroke="#b3724d" stroke-linecap="round" stroke-linejoin="round" stroke-width="10"/>
<path d="M108.883 40.9457C112.854 40.2237 116.344 38.3644 120.11 36.9357C126.709 34.4329 133.451 32.1007 140.16 29.9182C149.294 26.9471 158.625 24.9932 167.829 22.2993C173.245 20.7142 178.516 18.6703 183.869 16.8858C188.85 15.2255 193.66 13.5488 198.506 11.4723C199.055 11.2369 199.888 11.2254 200.11 10.6704C200.26 10.2929 199.313 10.4883 198.907 10.4699C197.838 10.4213 196.765 10.3918 195.699 10.4699C194.02 10.5927 192.349 10.8155 190.686 11.0713C182.965 12.2592 173.929 13.7841 166.025 15.2818C140.258 20.164 115.284 27.1959 90.6371 36.1337C83.0088 38.9 75.5796 42.1222 67.9807 44.9557C66.2578 45.5981 64.504 46.1545 62.7678 46.7602C61.2905 47.2755 59.9213 48.3641 58.3568 48.3641C58.1158 48.3641 58.7517 48.0871 58.9583 47.9631C59.7544 47.4855 60.5483 47.0026 61.3643 46.5597C62.888 45.7325 64.4305 44.9399 65.9757 44.1537C68.2401 43.0016 70.499 41.8374 72.7927 40.7452C77.5171 38.4955 82.251 36.264 87.0281 34.1287C109.076 24.2741 131.815 16.681 155.398 11.4723C162.093 9.99366 168.92 9.17989 175.649 7.86337C175.919 7.81046 176.726 7.66287 176.451 7.66287C170.448 7.66287 163.382 9.06168 157.604 10.0689C148.913 11.5838 140.298 13.5431 131.739 15.6828C111.996 20.6186 93.0393 27.4437 73.9957 34.5297C62.2496 38.9004 50.5391 43.8155 38.5074 47.3617C36.4075 47.9806 34.2587 48.4555 32.0914 48.7651C31.8529 48.7992 31.3692 48.5727 31.4899 48.3641C33.0738 45.6284 34.1073 44.9493 36.5024 43.5522C42.1663 40.2482 47.7458 36.7883 53.5448 33.7277C75.6908 22.0395 100.41 15.4401 124.321 8.66536C127.457 7.77692 130.578 6.82917 133.744 6.05888C135.999 5.51054 138.241 4.65538 140.561 4.65538C140.984 4.65538 139.758 4.91811 139.358 5.05638C138.02 5.51962 136.699 6.03342 135.348 6.45987C132.888 7.23673 130.41 7.95664 127.93 8.66536C124.328 9.69436 120.7 10.6276 117.103 11.6728C108.029 14.3096 98.9709 17.0205 90.0356 20.0938C67.8108 27.738 46.2886 37.0757 24.4725 45.7577C20.8167 47.2125 17.1531 48.6524 13.445 49.9681C12.9997 50.1262 12.4046 50.4712 12.0415 50.1686C11.3058 49.5555 12.6792 48.3742 14.648 46.9607C16.4097 45.6958 18.2209 44.4987 20.0615 43.3517C22.8338 41.624 25.6575 39.9795 28.4825 38.3392C48.3625 26.7959 69.0555 17.0322 89.6346 6.86087C93.5749 4.91339 97.6691 3.17484 101.264 0.645405C101.845 0.236549 102.821-0.26506 102.667-0.958586C102.536-1.54937 101.463-1.23653 100.863-1.15909C99.3671-0.966127 97.9171-0.511157 96.4516-0.156591C93.7733 0.491391 91.1026 1.17069 88.4316 1.8484C80.9732 3.74084 73.6197 6.06735 66.3767 8.66536C47.5297 15.4257 29.6849 23.7292 12.0415 33.1262C9.34869 34.5605 6.66611 36.0157 4.02158 37.5372C1.78623 38.8233-0.401264 40.1911-2.59488 41.5472C-4.34612 42.6298-9.46801 46.0375-7.60735 45.1562C-6.58056 44.6698-5.61174 44.0689-4.59987 43.5522C-2.47035 42.4648-0.305769 41.4465 1.8161 40.3442C4.8408 38.7729 7.82302 37.121 10.8385 35.5322C14.0386 33.8462 17.2471 32.1762 20.4625 30.5197C28.0889 26.591 35.6851 22.6037 43.3194 18.6903C52.9731 13.7418 62.8101 9.14414 72.3917 4.05389C74.9324 2.70416 77.7759 1.6772 79.8102-0.35709C79.9438-0.490756 79.5982-0.758087 79.4092-0.758087C78.5301-0.758087 77.6659-0.523096 76.8027-0.35709C75.9271-0.188701 75.0508-0.0101418 74.1962 0.244407C71.9073 0.926207 69.6405 1.68149 67.3792 2.4499C62.7564 4.02077 58.1503 5.64074 53.5448 7.26187C35.6187 13.5719 18.4816 21.3978 1.4151 29.7177C-3.20596 31.9705-7.82114 34.2356-12.4193 36.5347C-13.5424 37.0963-14.7047 37.5771-15.8278 38.1387C-16.3097 38.3797-17.6624 39.264-17.2313 38.9407C-9.43937 33.0967 1.20503 28.5334 9.63555 24.1038C19.6969 18.8173 29.7067 13.4591 39.7104 8.06386C42.4474 6.58772 45.1825 5.10788 47.9308 3.65289C49.7273 2.70184 51.5675 1.83304 53.3443 0.845904C53.9631 0.502144 58.3568-2.15615 58.3568-2.36208C58.3568-2.84863 57.4064-2.13838 56.9533-1.96108C55.8664-1.53576 54.8129-1.02932 53.7453-0.557588C51.9391 0.240508 50.1469 1.07053 48.3318 1.8484C43.2421 4.02971 38.1199 6.14036 33.0939 8.46486C19.2589 14.8636 5.41674 22.337-7.20636 30.9207C-10.0913 32.8825-12.903 34.9568-15.6273 37.1362C-16.4525 37.7963-18.179 38.9955-17.4318 39.7427C-16.5228 40.6517-14.8529 39.5132-13.6223 39.1412C-11.6599 38.5479-9.73538 37.8346-7.80785 37.1362C1.82055 33.6477 11.3131 29.8005 20.8635 26.1088C45.8234 16.4604 70.8681 6.68313 96.6521-0.557588C101.85-2.01717 107.064-3.41635 112.291-4.76807C114.818-5.42154 117.362-6.00639 119.91-6.57256C121.573-6.94219 123.244-7.27894 124.922-7.57505C125.518-7.68022 126.16-7.98805 126.727-7.77555C126.985-7.67879 126.73-7.15976 126.526-6.97355C125.884-6.38473 125.109-5.94215 124.321-5.57006C122.694-4.80165 121.001-4.17677 119.308-3.56507C112.272-1.02187 105.16 1.30829 98.0556 3.65289C90.8101 6.04389 83.6012 8.54522 76.4017 11.0713C68.4222 13.8712 60.4546 16.7083 52.5423 19.6928C36.7592 25.6461 21.2084 32.22 5.42508 38.1387C5.08809 38.2651 6.08894 37.8596 6.42757 37.7377C7.76002 37.258 9.09647 36.7892 10.4375 36.3342C12.8392 35.5194 15.2524 34.7389 17.6555 33.9282C24.5342 31.6077 29.9525 29.6762 36.9034 27.5123C50.8729 23.1633 64.9491 19.5411 79.2087 16.2843C124.345 5.97533 170.738-1.08961 217.152-0.758087C222.5-0.719886 227.848-0.564634 233.192-0.35709C238.216-0.161982 243.87-0.115159 248.63 1.6479C249.169 1.84758 249.758 2.14568 250.034 2.65039C250.793 4.0417 247.93 4.97235 247.628 5.05638C244.799 5.84221 241.894 6.32783 239.006 6.86087C234.042 7.7774 228.982 8.06857 223.969 8.66536C207.889 10.5796 191.743 11.8443 175.649 13.6778C130.791 18.7882 85.2351 26.1454 41.9159 39.1412C32.3383 42.0145 22.6805 44.6544 13.2445 47.9631C9.67185 49.2159 6.1517 50.614 2.61809 51.9731C1.33213 52.4677 0.0409514 52.9609-1.19139 53.5771C-1.67333 53.8181-2.72556 53.8564-2.59488 54.3791C-2.46816 54.886 0.581228 53.9863 0.613102 53.9781C2.41852 53.5139 4.23269 53.0816 6.02657 52.5746C15.6456 49.8562 25.2383 47.1307 34.8984 44.5547C59.3876 38.0242 83.806 31.6208 108.883 27.7128C118.808 26.1659 129.486 24.8173 139.559 25.5073C141.158 25.6168 146.707 26.6229 144.17 28.3143" fill="none" fill-rule="evenodd" opacity="1" stroke="#b3724d" stroke-linecap="round" stroke-linejoin="round" stroke-width="10"/>
<g opacity="1">
<path d="M15.8438 44.1562C14.7103 44.2152 13.5649 44.4165 12.4375 44.6875C9.74061 45.3471 8.09045 48.0531 8.75 50.75C9.19648 52.5756 10.6237 53.8688 12.3125 54.3438C9.73864 54.9711 7.16332 55.6183 4.65625 56.4688C0.468428 57.8893-3.9622 59.5235-7.71875 61.9062C-12.5215 64.9526-16.8836 69.9175-16.7188 75.75C-16.6952 76.5832-16.5632 77.4154-16.3438 78.2812C-16.105 79.2234-15.7534 80.1515-15.2812 81C-14.6217 82.1854-13.7632 83.2524-12.7812 84.1875C-10.1849 86.66-6.99042 88.3827-3.6875 89.7188C2.05771 92.0427 8.12447 93.0405 14.2812 93.5C22.4891 94.1126 30.719 93.6713 38.9375 93.7812C46.5785 93.8834 54.22 94.4924 61.8438 94.9688C64.7706 95.15 67.2875 92.9268 67.4688 90C67.65 87.0731 65.4269 84.5563 62.5 84.375C53.5339 83.8247 44.5512 83.1444 35.5625 83.1875C28.7309 83.2203 21.8837 83.4712 15.0625 82.9688C10.863 82.6594 6.67402 82.1158 2.65625 80.8125C0.11922 79.9896-2.46964 78.9783-4.625 77.375C-5.61109 76.6415-6.42175 76.0205-6.15625 74.9688C-5.87826 73.8675-4.96437 72.9212-4.15625 72.1875C-2.21454 70.4247 0.20935 69.385 2.59375 68.375C6.93052 66.538 11.471 65.0641 16.0938 64C15.2473 65.7588 14.5071 67.5712 14.5938 69.5625C14.7788 73.8139 18.2215 76.8755 22.125 77.9062C23.6608 78.3118 25.2329 78.4714 26.8125 78.5938C31.6753 78.9703 36.618 78.3579 41.3125 77.0625C44.2573 76.2499 47.2127 75.1244 49.7188 73.3438C51.0565 72.3932 52.2724 71.2747 53.1875 69.9062C53.9447 68.774 54.5001 67.4989 54.75 66.1562C54.9157 65.2661 54.9609 64.3356 54.8438 63.4375C53.9993 56.9633 46.5661 54.3457 41.125 53.125C36.7943 52.1534 32.379 51.9963 27.9688 52.1562C26.4414 48.4223 23.2458 45.3592 19.25 44.4375C18.1105 44.1747 16.9772 44.0973 15.8438 44.1562ZM32.0312 62.25C35.2025 62.3252 38.407 62.8019 41.4375 63.75C42.373 64.0427 43.2879 64.3907 44.1562 64.8438C44.0593 64.9227 43.9773 65.022 43.875 65.0938C43.3094 65.4908 42.6904 65.8072 42.0625 66.0938C40.046 67.0142 37.86 67.5925 35.6875 68C32.7695 68.5473 29.8631 68.7563 26.9062 68.5C26.3434 68.4512 25.7439 68.2864 25.1562 68.1562C25.167 68.1339 25.1763 68.1167 25.1875 68.0938C25.6358 67.176 26.1689 66.289 26.625 65.375C27.0945 64.4341 27.4192 63.4238 27.7812 62.4375C29.1967 62.3685 30.614 62.2164 32.0312 62.25Z" fill="#b3724d" stroke="none"/>
</g>
<g opacity="1">
<path d="M128.719-0.96875C125.668-0.868822 122.624-0.623369 119.594-0.15625C103.625 2.3053 88.7915 9.54294 75.4375 18.4062C67.7401 23.5151 60.6527 29.4631 54.4688 36.25C47.4268 38.9384 41.0882 43.1849 35.3438 48.0312C21.881 59.3892 11.5802 75.4233 11.25 93.4688C11.182 97.183 11.5456 100.89 12.2812 104.531C14.3072 114.558 19.2331 123.698 26.125 131.219C29.8258 135.257 34.0248 138.829 38.4375 142.062C47.2617 148.528 56.9235 153.99 67.5625 156.781C76.97 159.25 86.8759 159.008 96.5 158.375C103.202 157.934 109.82 157.039 116.344 155.406C142.592 148.837 166.372 132.394 181.75 110.125C189.224 99.3021 194.89 86.9939 197.344 74.0312C198.097 70.0535 198.464 66.0393 198.688 62C198.961 57.0509 198.952 52.0437 198.281 47.125C195.642 27.7779 181.035 11.7027 163.312 4.375C155.301 1.06263 146.486-0.339471 137.875-0.84375C134.818-1.02278 131.77-1.06868 128.719-0.96875ZM127.812 0.75C130.484 0.674221 133.139 0.738993 135.812 0.90625C143.963 1.41614 152.562 2.71814 160.188 5.75C175.094 11.6764 188.389 24.6469 192.625 40.375C194.668 47.9619 194.415 56.0103 193.531 63.75C192.401 73.6475 189.574 82.8955 185.062 91.7812C172.049 117.41 147.591 137.042 120.125 145.188C112.231 147.529 104.149 148.75 95.9375 149.188C87.318 149.647 78.4103 149.934 70 147.656C61.0357 145.229 52.9428 140.689 45.4062 135.344C34.8505 127.857 25.6947 118.438 21.875 105.781C20.8204 102.287 20.1798 98.6793 20.0312 95.0312C19.3453 78.1863 29.1001 63.2019 41.5312 52.6562C42.0669 52.2018 42.6738 51.8494 43.2188 51.4062C42.2182 52.9415 41.1222 54.4104 40.2812 56.0312C38.3576 59.739 36.9902 63.8032 35.9688 67.8438C34.7216 72.7772 33.9747 77.9373 34.0938 83.0625C33.8848 82.5813 33.5961 82.2015 33.4062 81.6875C33.2519 81.2695 33.0959 80.8852 32.9375 80.4688C32.7571 79.9943 32.0662 78.4002 32.375 77.75C32.0695 78.4051 32.577 79.9146 32.7812 80.5C32.8574 80.7184 32.9543 80.9381 33.0312 81.1562C33.1626 81.5286 33.2853 81.9054 33.4062 82.2812C33.5984 82.8782 33.63 83.0058 33.875 83.5938C33.9447 83.7611 34.049 83.9266 34.125 84.0938C34.2004 85.7056 34.3567 87.3161 34.625 88.9062C35.9798 96.935 39.9326 103.967 44.9375 110.281C48.8346 115.198 53.2066 119.584 58.3125 123.25C70.3423 131.888 85.002 136.512 99.625 138.094C105.367 138.715 111.34 139.046 117.094 138.375C122.15 137.786 127.075 136.407 131.875 134.75C133.872 134.061 135.826 133.209 137.781 132.406C135.824 133.21 133.848 133.937 131.844 134.625C127.05 136.271 122.11 137.669 117.062 138.25C111.319 138.911 105.386 138.536 99.6562 137.906C86.0513 136.411 72.4631 132.276 60.9688 124.719C54.8827 120.718 49.7056 115.751 45.2188 110.031C40.7961 104.394 37.2002 98.2097 35.625 91.1562C35.1891 89.2046 34.9127 87.238 34.7812 85.25C35.6089 86.7328 36.6205 88.1505 38 89.0938C39.0219 89.7925 40.212 90.2911 41.3438 90.7812C45.3797 92.5291 49.6142 93.3541 53.8125 93.3125C56.182 94.687 58.7284 95.6998 61.4688 96C69.3486 96.8633 76.4952 92.8093 82.5 88.125C84.3664 86.6691 86.1838 85.1266 87.875 83.4688C97.2136 74.3149 104.92 59.5811 99.4688 46.5C98.6969 44.648 97.6753 42.8831 96.4688 41.2812C95.286 39.7111 93.9273 38.2446 92.375 37.0312C89.0925 34.4654 85.0225 33.1083 80.9375 32.5312C74.4739 31.6182 67.8002 32.4316 61.5 34C59.8015 34.4228 58.1277 34.9712 56.4688 35.5312C62.3178 29.3986 68.9006 23.977 76.0312 19.3125C89.2855 10.6423 103.984 3.58139 119.812 1.40625C122.468 1.04127 125.141 0.825779 127.812 0.75ZM137.781 132.406C138.805 131.986 139.875 131.662 140.875 131.188C144.511 129.462 147.946 127.366 151.156 124.938C151.6 124.602 151.942 124.16 152.375 123.812C149.622 126.024 146.685 128.022 143.531 129.719C141.662 130.724 139.739 131.603 137.781 132.406ZM152.375 123.812C154.3 122.266 156.123 120.607 157.844 118.844C156.129 120.607 154.306 122.264 152.375 123.812ZM157.844 118.844C158.674 117.99 159.47 117.118 160.25 116.219C159.472 117.11 158.67 117.997 157.844 118.844ZM160.25 116.219C160.992 115.368 161.646 114.451 162.344 113.562C161.651 114.451 160.988 115.368 160.25 116.219ZM162.344 113.562C163.975 111.47 165.53 109.335 166.906 107.062C165.522 109.331 163.98 111.478 162.344 113.562ZM166.906 107.062C167.608 105.913 168.209 104.721 168.844 103.531C168.213 104.72 167.603 105.912 166.906 107.062ZM168.844 103.531C169.961 101.424 170.996 99.3012 171.906 97.0938C170.998 99.2936 169.962 101.437 168.844 103.531ZM171.906 97.0938C172.127 96.5589 172.448 96.0714 172.656 95.5312C172.896 94.9086 172.996 94.2525 173.219 93.625C172.803 94.79 172.378 95.9502 171.906 97.0938ZM173.219 93.625C173.669 92.3634 174.271 91.1571 174.656 89.875C175.188 88.1036 175.563 86.2991 175.969 84.5C175.266 87.6012 174.285 90.6162 173.219 93.625ZM141.344 21.8125C146.139 22.1126 150.898 23.1719 155.312 24.9688C150.897 23.1721 146.14 22.1118 141.344 21.8125ZM167.25 32.5625C168.975 34.1964 170.532 36.0345 171.906 38.0312C172.773 39.2914 173.548 40.5963 174.219 41.9375C173.546 40.596 172.806 39.2619 171.938 38C170.563 36.0031 168.975 34.1964 167.25 32.5625ZM174.219 41.9375C174.772 43.0441 175.224 44.1918 175.656 45.3438C175.223 44.1901 174.774 43.0462 174.219 41.9375ZM80.125 38.8125C82.6947 39.1047 85.311 39.7525 87.5625 41.0625C88.9492 41.8693 90.1012 42.9537 91.1562 44.1562C92.1793 45.3224 93.073 46.619 93.7812 48C98.7624 57.7118 93.4042 69.4762 87.0938 77.1875C85.8653 78.6887 84.5647 80.1335 83.1562 81.4688C81.3275 83.2024 79.3956 84.838 77.375 86.3438C72.9596 89.634 67.7949 92.2271 62.1875 91.9062C65.2809 90.8912 68.262 89.3945 70.9375 87.2188C73.4655 85.1629 75.615 82.6762 77.375 79.9375C80.154 75.6131 82.3763 70.2587 80.7812 65.0938C80.4068 63.8812 79.8979 62.7112 79.1875 61.6562C75.6686 56.431 68.6973 55.1662 63.0625 57.375C61.025 58.1737 59.1182 59.2875 57.3438 60.5625C56.0196 61.514 54.7582 62.5778 53.5938 63.7188C47.9654 69.2334 43.1778 78.0443 46.6875 85.9375C47.2256 87.1478 47.9323 88.2969 48.7812 89.3125C49.817 90.5516 51.1076 91.5243 52.4375 92.4375C48.1397 92.3874 43.7967 91.4144 39.7188 89.5C37.2661 88.3486 35.8768 86.482 34.75 84.3438C34.4853 78.4195 35.4062 72.42 37.0312 66.75C38.0432 63.2192 39.3079 59.6888 41.0312 56.4375C42.2458 54.1461 43.7646 52.0296 45.2188 49.875C49.1454 46.8726 53.2371 44.1301 57.875 42.3438C59.9262 41.5537 62.0294 40.8954 64.1562 40.3438C69.3268 39.0027 74.7859 38.2053 80.125 38.8125ZM175.969 46.125C176.921 48.8489 177.54 51.6811 177.938 54.5625C177.539 51.6799 176.923 48.8492 175.969 46.125ZM178 54.9375C178.238 56.7638 178.248 58.6186 178.312 60.4688C178.248 58.6157 178.239 56.7648 178 54.9375ZM178.312 60.4688C178.357 61.7528 178.494 63.0273 178.469 64.3125C178.494 63.026 178.357 61.7555 178.312 60.4688ZM178.469 64.3125C178.421 66.8065 178.212 69.2795 177.969 71.7188C178.214 69.2676 178.42 66.8108 178.469 64.3125ZM69.4062 58.7812C73.949 58.9703 78.0521 61.8421 79.125 66.7812C80.1284 71.4003 77.9257 76.0813 75.4688 79.875C73.9611 82.2029 72.1352 84.3459 70.0312 86.1562C66.9437 88.8129 63.4489 90.5788 59.7812 91.5625C57.7807 91.1039 55.8573 90.3431 54.1562 89.1875C52.9932 88.3974 51.9242 87.4585 51.0625 86.3438C48.2042 82.6459 48.5732 77.7895 50.3125 73.6875C52.356 68.8679 56.1028 64.7017 60.4375 61.8125C61.8035 60.902 63.2651 60.0598 64.8125 59.5C66.3311 58.9506 67.892 58.7182 69.4062 58.7812ZM177.875 72.9688C177.456 76.7647 176.892 80.5383 176.062 84.25C176.774 81.0465 177.349 77.8262 177.75 74.5625C177.814 74.0423 177.817 73.4936 177.875 72.9688ZM32.4375 77.5C32.3943 77.536 32.4045 77.6368 32.375 77.6875C32.464 77.5378 32.7282 77.5565 32.9688 77.5625C32.7938 77.5521 32.5332 77.4203 32.4375 77.5ZM32.9688 77.5625C33.1122 77.571 33.1995 77.5096 33.4062 77.5938C33.3283 77.562 33.2676 77.5209 33.1875 77.5C33.0717 77.4698 33.0588 77.5647 32.9688 77.5625ZM33.4062 77.5938C33.4937 77.6293 33.5729 77.6475 33.6562 77.6875C33.6027 77.6601 33.5548 77.619 33.5 77.5938C33.4529 77.572 33.4503 77.6117 33.4062 77.5938Z" fill="#b3724d" stroke="none"/>
</g>
<g opacity="1">
<path d="M140.312 23.875C132.078 24.1711 123.898 25.0106 115.844 26.7812C107.217 28.6776 98.8047 31.5341 90.625 35.0312C83.1199 36.0849 75.7189 37.6821 68.375 39.5625C65.2704 38.8664 61.7683 39.1051 58.9062 39.5938C58.1988 39.7145 57.513 39.8442 56.8125 40C56.0405 40.1717 54.8599 40.5244 54.0938 40.75C52.8204 41.125 51.5622 41.5216 50.3125 41.9688C38.0472 46.3571 26.509 52.6321 15.5312 59.5938C7.59794 64.6247-0.152075 69.9834-7.59375 75.7188C-7.89904 75.954-8.19579 76.2009-8.5 76.4375C-13.2928 79.7293-18.0418 83.1199-22.5938 86.7188C-24.5381 88.2561-26.444 89.7996-28.0625 91.6875C-28.9471 92.7194-29.7197 93.8167-30.2188 95.0938C-30.6646 96.2347-30.8716 97.4979-30.75 98.7188C-30.6614 99.6088-30.4026 100.485-30 101.281C-27.526 106.175-21.4536 106.56-16.6875 106.969C-15.409 107.078-14.1267 107.133-12.8438 107.156C-11.5852 107.179-10.319 107.2-9.0625 107.125C-3.9531 106.821 1.02004 105.643 6.03125 104.688C9.82706 103.964 13.6761 103.463 17.5 102.844C17.3697 103.419 17.1821 103.984 17.0938 104.562C16.6069 107.751 16.8242 111.315 17.75 114.406C18.5997 117.243 20.3609 119.734 22.4375 121.812C30.6034 129.987 42.8206 130.512 53.5312 128.344C60.13 127.008 66.4402 124.612 72.625 122C75.6846 120.708 78.6903 119.273 81.6875 117.844C90.4738 122.296 101.827 121.251 111.25 119.031C118.224 117.388 124.893 114.907 131.375 111.875C136.633 109.415 141.841 106.8 146.875 103.906C150.837 101.629 154.589 99.0674 158.344 96.4688C160.789 94.7764 163.254 93.1084 165.625 91.3125C167.703 89.7388 169.747 88.1111 171.719 86.4062C175.517 83.1225 179.157 79.1843 182.375 74.9688C183.282 74.9866 184.195 74.8421 185.031 74.3438C187.221 73.0398 187.976 70.3429 187 68.0625C189.515 63.1464 190.982 57.834 190.531 52.1562C190.413 50.6656 190.184 49.1673 189.812 47.7188C189.204 45.3433 188.264 42.9972 187.031 40.875C184.132 35.8848 179.21 32.3118 174.125 29.7812C171.136 28.2939 168.059 27.007 164.844 26.0938C156.896 23.8359 148.519 23.5799 140.312 23.875ZM140.688 34C147.829 33.741 155.139 33.8814 162.062 35.8438C164.677 36.5847 167.195 37.6362 169.625 38.8438C172.781 40.412 176.055 42.5376 178.031 45.5312C178.795 46.6872 179.332 47.9973 179.75 49.3125C180.397 51.3487 180.473 53.386 180.312 55.4062C176.278 47.7701 171.675 40.4615 163.5 36.9375C161.798 36.2037 160.012 35.6684 158.188 35.3438C151.764 34.201 145.244 35.0074 138.906 36.5625C137.949 36.211 137.038 35.7234 136.062 35.4375C134.824 35.0747 133.545 34.8863 132.281 34.625C135.072 34.3699 137.878 34.1019 140.688 34ZM112.094 43.5938C114.365 43.5306 116.669 43.5808 118.969 43.625C104.464 50.006 90.8633 58.7658 80.75 71.0312C73.1289 80.2742 65.8487 93.6595 70.75 105.781C71.415 107.426 72.3945 108.944 73.4062 110.406C69.3308 112.257 65.2362 114.039 61.0312 115.562C53.1968 118.401 43.7002 120.698 35.5 118.094C32.9352 117.279 30.5499 115.755 28.8438 113.656C28.3153 113.006 27.8039 112.281 27.5625 111.469C26.5147 107.943 27.5305 104.37 28.875 101C31.4949 100.604 34.1053 100.12 36.7188 99.7188C39.6172 99.2732 41.6018 96.5859 41.1562 93.6875C40.729 90.9083 38.1986 89.0122 35.4375 89.25C39.6896 83.4887 44.8602 78.2833 50 73.5312C62.4751 61.9971 76.9287 52.2036 92.5625 45.2188C99.043 44.3383 105.577 43.7749 112.094 43.5938ZM153.938 45.0938C154.998 45.162 156.065 45.1414 157.094 45.375C162.656 46.6382 166.292 51.1689 169.125 55.8125C171.437 59.6022 173.391 63.5945 175.438 67.5312C173.672 70.052 171.73 72.4407 169.562 74.625C163.57 80.6628 156.549 85.4846 149.562 90.2812C146.518 92.3712 143.382 94.2976 140.156 96.0938C135.886 98.4712 131.52 100.677 127.094 102.75C121.802 105.228 116.412 107.315 110.75 108.781C108.94 109.25 107.089 109.666 105.25 110C102.343 110.528 99.0285 110.777 95.7188 110.719C96.4245 110.338 97.1402 109.978 97.8438 109.594C112.264 101.718 126.729 93.6207 139.625 83.375C147.78 76.8957 156.976 69.0393 158 57.9375C158.248 55.2528 158.195 52.1885 157.062 49.6875C156.298 47.9999 155.141 46.4912 153.938 45.0938ZM137.875 47.3125C138.697 47.6633 139.568 47.8761 140.375 48.25C141.896 48.9545 143.35 49.75 144.812 50.5625C144.831 50.5945 144.901 50.623 144.938 50.6562C145.041 50.7521 145.119 50.8378 145.219 50.9375C145.502 51.22 145.768 51.4777 146.031 51.7812C146.586 52.4219 147.067 53.1172 147.5 53.8438C147.674 55.4499 147.781 56.9457 147.406 58.5625C146.488 62.5235 143.722 65.7715 140.906 68.5625C137.37 72.0679 133.425 75.1837 129.438 78.1562C119.857 85.2991 109.519 91.2654 99.125 97.125C93.7122 100.177 88.1869 103.113 82.625 105.938C82.1162 105.375 81.5771 104.842 81.1562 104.156C80.5889 103.232 80.0901 102.25 79.75 101.219C78.6924 98.0117 79.3058 94.4398 80.3438 91.3125C82.2767 85.4883 85.9103 80.3146 89.9375 75.75C101.464 62.6854 117.4 54.1613 133.688 48.5312C135.056 48.0581 136.478 47.7295 137.875 47.3125ZM26.6875 83.9688C24.9922 86.3039 23.4587 88.7447 22.0938 91.2812C18.3408 91.8783 14.594 92.4776 10.8438 93.0938C7.48947 93.6448 4.14661 94.2433 0.8125 94.9062C-0.581442 95.1834-2.00553 95.3104-3.40625 95.5625C-2.9283 95.3201-2.44422 95.0918-1.96875 94.8438C1.46674 93.0516 4.85214 91.1629 8.21875 89.25C10.0082 89.3845 11.7798 89.3737 13.3125 89.0625C14.9287 88.7343 16.4507 88.144 18 87.5938C20.9702 86.5388 23.8182 85.2352 26.6875 83.9688Z" fill="#b3724d" stroke="none"/>
</g>
<g opacity="1">
<path d="M138.531 44.25C132.866 44.2348 127.075 45.5413 121.844 47.2812C114.648 49.6743 107.783 53.0413 101.219 56.8125C89.3836 63.6115 78.5298 72.1727 69.3125 82.25C65.6413 86.2637 62.2424 90.5579 59.0625 94.9688C51.7735 105.079 45.9093 119.393 52.7812 131.219C53.6374 132.692 54.6874 134.061 55.8438 135.312C57.6736 137.293 59.7782 139.038 62.0625 140.469C75.1355 148.654 91.5624 144.94 105.031 139.844C110.871 137.634 116.585 135.067 122.125 132.188C126.798 129.759 131.352 127.069 135.719 124.125C138.766 122.07 141.716 119.855 144.562 117.531C150.197 112.932 155.387 107.826 159.875 102.094C162.183 99.1455 164.374 96.0478 166.156 92.75C169.194 87.1298 171.042 80.8513 171.469 74.4688C170.987 80.819 169.022 87.0513 165.906 92.5938C163.829 96.2878 161.248 99.7195 158.5 102.938C153.811 108.429 148.405 113.285 142.594 117.562C139.669 119.715 136.623 121.712 133.5 123.562C129.484 125.943 125.34 128.092 121.094 130.031C115.978 132.367 110.697 134.375 105.344 136.094C92.8671 140.098 76.9272 143.61 65.25 135.594C63.9547 134.705 62.7316 133.709 61.625 132.594C60.3142 131.273 59.1601 129.801 58.2812 128.156C53.4512 119.116 58.6054 108.006 63.9375 100.469C64.8394 99.1938 65.7964 97.9553 66.75 96.7188C72.097 89.7848 78.0572 83.2932 84.6875 77.5625C90.9464 72.1528 97.7846 67.3497 104.906 63.1562C111.025 59.5535 117.397 56.265 124.094 53.875C132.38 50.9179 143.129 48.6285 150.969 53.9688C152.501 55.0122 153.789 56.2966 154.969 57.7188C160.04 63.8324 156.809 73.0261 153.25 79.0312C152.51 80.2804 151.713 81.5023 150.875 82.6875C146.017 89.5579 139.994 95.7657 133.188 100.719C129.18 103.635 124.81 106.147 120.094 107.719C113.556 109.898 105.805 110.171 99.8125 106.281C92.4298 101.489 93.409 91.9467 95.5 84.5312C95.8804 83.1824 96.3183 81.8539 96.7812 80.5312C97.3262 78.9744 97.9264 77.4407 98.5312 75.9062C99.1767 74.2689 99.8949 72.6716 100.531 71.0312C101.101 69.5625 101.495 68.0022 102.281 66.625C102.784 65.7433 103.57 64.5994 104.625 64.3438C106.001 64.0103 107.519 64.8277 108.875 65C108.978 65.0112 109.051 64.9155 109.062 64.8125C109.074 64.7095 109.009 64.6362 108.906 64.625C107.51 64.5005 105.962 63.7594 104.562 64.1562C103.262 64.5249 102.413 66.0463 101.906 67.1875C101.355 68.4303 100.998 69.7367 100.5 71C99.8548 72.6368 99.1243 74.2418 98.4688 75.875C97.8538 77.407 97.2183 78.9477 96.6562 80.5C93.9098 88.0862 91.0282 99.007 97.7188 105.438C98.4383 106.129 99.2443 106.727 100.094 107.25C107.029 111.522 115.713 110.893 123.094 108.25C130.701 105.527 137.588 100.83 143.656 95.5625C148.522 91.339 153.074 86.5805 156.719 81.25C161.29 74.5641 164.519 65.9024 161.469 57.9375C160.792 56.1701 159.722 54.5531 158.531 53.0938C157.327 51.6178 155.963 50.2668 154.438 49.125C149.722 45.5953 144.197 44.2652 138.531 44.25ZM167.844 55.7812C168.622 57.3144 169.266 58.8872 169.812 60.5C169.259 58.8918 168.624 57.3067 167.844 55.7812ZM169.938 60.9375C170.349 62.2102 170.65 63.5187 170.906 64.8438C170.85 64.5545 170.876 64.2566 170.812 63.9688C170.583 62.9337 170.265 61.935 169.938 60.9375ZM170.906 64.8438C171.237 66.5425 171.48 68.2403 171.562 69.9688C171.498 68.5261 171.362 67.08 171.125 65.6562C171.079 65.3769 170.96 65.1207 170.906 64.8438ZM171.562 70.0312C171.618 71.3172 171.577 72.5909 171.5 73.875C171.553 72.8568 171.682 71.8337 171.656 70.8125C171.65 70.549 171.575 70.2945 171.562 70.0312Z" fill="#b3724d" stroke="none"/>
</g>
<g opacity="1">
<path d="M75.0312 62.0938C73.4483 62.3569 71.8251 63.0804 70.5312 63.6562C70.1097 63.8439 69.6953 64.0464 69.2812 64.25C68.4612 64.6532 67.7762 65.0554 66.9688 65.5C66.1306 65.9615 65.2721 66.4072 64.4375 66.875C63.1772 67.5814 61.9333 68.2994 60.6875 69.0312C56.3798 71.5618 52.2211 74.3437 48.0938 77.1562C35.9177 85.4537 24.4891 94.6914 13.7812 104.812C12.3625 106.154 10.9498 107.501 9.5625 108.875C8.64644 109.782 7.722 110.68 6.8125 111.594C5.89843 112.512 4.97092 113.451 4.0625 114.375C3.60508 114.84 3.17123 115.311 2.71875 115.781C2.41173 116.1 2.04647 116.327 1.71875 116.625C0.788993 117.47 0.158622 118.572 0.46875 119.844C0.516933 120.041 0.581905 120.451 0.75 120.594C1.22374 120.997 1.67756 121.456 2.1875 121.812C2.39865 121.96 3.13862 122.023 3.34375 122.031C4.22809 122.066 5.16213 121.819 5.96875 121.469C9.16767 120.08 11.9311 117.438 14.5625 115.219C14.7208 115.085 14.8734 114.947 15.0312 114.812C15.05 114.851 15.0404 114.9 15.0625 114.938C15.0705 114.951 15.086 114.949 15.0938 114.969C15.0677 114.988 15.4095 115.293 15.4375 115.312C15.7198 115.506 16.0401 115.577 16.375 115.562C17.5154 115.515 18.049 114.62 18.75 113.875C19.0571 113.549 19.4578 113.305 19.8125 113.031C22.6984 110.803 25.5117 108.49 28.3125 106.156C39.4594 96.8673 50.9307 88.0244 62.875 79.7812C66.0418 77.5958 69.1982 75.3798 72.3438 73.1562C75.0345 71.5232 77.7252 69.9092 80.4375 68.3125C83.2906 66.6329 86.1735 65.0149 89.125 63.5625C85.8475 65.1498 82.6459 66.8981 79.4688 68.7188C78.0371 69.5392 76.6181 70.3653 75.1875 71.1875C75.4632 70.9822 75.7575 70.8016 76.0312 70.5938C77.3085 69.6243 79.1184 68.7612 79.8125 67.25C80.2064 66.3925 80.2987 65.4321 80 64.5312C79.9745 64.4544 79.625 63.6948 79.5312 63.625C79.5492 63.6124 79.5181 63.5502 79.5 63.5625C79.4948 63.4904 79.3787 63.3862 79.3125 63.3125C78.1458 62.0154 76.6142 61.8306 75.0312 62.0938ZM63.75 69.5625C63.5911 69.6529 63.4315 69.7372 63.2812 69.8438C63.4368 69.7453 63.5858 69.6433 63.75 69.5625Z" fill="#b3724d" stroke="none"/>
</g>
<path d="M101.665 82.2485C99.7609 79.393 98.848 74.5333 95.4491 73.226C92.455 72.0744 89.0924 77.4384 87.8301 79.0405C86.854 80.2794 85.8907 81.5326 85.0231 82.85C79.7551 90.8496 71.5821 106.892 75.8002 116.734C78.5815 123.224 87.7182 124.401 93.8451 123.952C107.54 122.95 123.53 110.701 130.336 99.0904C134.047 92.7603 134.271 84.5332 128.331 79.4415C126.757 78.0922 119.108 75.2119 119.108 74.2285" fill="none" fill-rule="evenodd" opacity="1" stroke="#b3724d" stroke-linecap="round" stroke-linejoin="round" stroke-width="12.2246"/>
<path d="M-0.360153 97.3117C-1.44889 100.53 2.12995 105.898 3.8092 108.442C9.041 116.365 15.4864 121.807 22.6182 127.896C29.1345 133.46 38.3876 135.809 45.558 140.417C52.6481 144.973 59.4031 150.038 66.5895 154.474C70.8422 157.099 75.488 159.149 79.8078 161.722C83.6592 164.017 87.2402 166.661 91.0054 169.08C95.6294 172.052 101.097 173.52 106.37 174.675C112.501 176.017 117.469 180.699 123.994 180.041C126.633 179.775 129.255 178.308 131.554 177.045C145.914 169.15 156.51 154.697 167.654 143.039C174.684 135.683 181.739 128.25 188.964 121.089C203.166 107.012 219.066 94.5524 234.534 81.9554C243.834 74.3822 253.045 66.9992 263.328 60.7516C263.619 60.5749 270.148 56.6037 270.471 57.8124C270.68 58.592 265.056 64.7148 264.556 65.3324C258.839 72.3887 252.531 77.4485 245.049 82.5368C240.136 85.8779 235.815 90.0045 231.45 94.0038C225.169 99.7596 218.124 104.772 211.651 110.316C206.41 114.803 201.693 119.843 196.555 124.45C188.4 131.762 179.916 138.626 170.973 144.955C162.302 151.09 153.352 156.134 145.637 163.559C143.021 166.077 140.395 168.632 137.878 171.25C137.175 171.98 136.398 172.752 135.729 173.498C135.645 173.591 135.49 173.814 135.608 173.854C136.416 174.127 141.361 169.099 141.692 168.771C145.709 164.789 149.877 161.006 154.398 157.597C175.401 141.756 197.458 127.328 220.249 114.216C236.756 104.719 251.82 93.857 265.675 80.7865C268.664 77.9668 271.298 74.8583 274.211 71.9709C274.921 71.2671 276.629 70.2845 275.293 69.3612C273.743 68.2907 266.679 70.6442 264.767 71.1565C255.06 73.7577 245.599 76.8188 236.322 80.7749C233.834 81.8359 231.353 82.9139 228.88 84.0099C217.438 89.0816 206.323 94.7406 194.705 99.426C184.179 103.671 173.444 107.367 162.862 111.466C145.739 118.098 128.515 125.202 110.67 129.713C100.328 132.328 89.6924 134.434 79.0916 135.693C77.7367 135.854 73.3098 136.721 72.1394 135.722C71.5658 135.232 73.4084 134.89 74.1052 134.601C76.0322 133.803 77.9482 132.978 79.8796 132.191C84.1643 130.444 88.506 128.838 92.855 127.257C104.938 122.866 118.045 119.728 130.977 119.524C133.57 119.483 138.259 119.542 140.895 120.697C153.352 126.155 139.34 139.828 133.542 144.194C132.25 145.167 130.937 146.109 129.607 147.029C128.005 148.138 125.698 149.703 123.828 150.628C121.657 151.701 118.587 153.204 116.035 152.554C113.552 151.922 111.809 150.303 109.693 149.02C107.137 147.471 104.609 146.419 101.746 145.539C97.9848 144.382 94.1613 143.788 90.3494 142.874C81.9966 140.869 73.3024 137.188 66.0929 132.486C58.7961 127.728 52.6483 120.333 46.7447 114.04C41.5106 108.46 35.6268 103.167 32.6237 95.9727C31.8565 94.135 31.7295 91.7945 31.5219 89.8476C31.4774 89.4298 31.3492 88.5991 31.3492 88.5991C31.3492 88.5991 31.0125 91.5282 30.8543 92.9939C30.5492 95.8207 30.6001 96.0622 31.0635 99.4122C32.6264 110.711 43.7328 106.191 50.5379 102.826C53.2798 101.47 55.9569 99.9801 58.5792 98.4054C73.8112 89.2587 88.1618 79.0784 97.1789 63.4599C100.371 57.9301 101.196 51.6541 96.1822 47.0557C93.7893 44.8608 89.1854 43.916 86.2723 44.1001C80.9627 44.4357 75.9285 46.1 71.2788 48.5494C68.4898 50.0185 65.755 51.6004 63.1171 53.3261C49.8435 62.0096 29.2883 88.5342 49.1166 101.75C58.385 107.928 69.3393 105.394 78.8285 101.288C95.2239 94.1933 105.469 79.8806 107.168 62.0782C107.92 54.1917 107.007 45.3171 102.876 38.4102C102.346 37.5252 100.568 36.3248 99.6771 36.138C96.8384 35.5426 94.1673 37.5452 91.9997 38.8966C87.1111 41.9444 82.5574 47.4029 79.6993 52.3896C70.3058 68.7792 63.5291 88.7025 72.6247 106.727C73.9919 109.437 77.1048 113.246 79.9561 114.96C90.293 121.17 102.077 118.5 112.464 113.856C136.605 103.062 148.639 80.0792 162.204 58.8764C165.684 53.4381 169.135 47.9816 172.675 42.5825C176.962 36.0445 181.506 29.6341 186.13 23.3309C186.915 22.2607 187.839 21.2935 188.58 20.1925C189.214 19.2515 190.261 18.2175 190.02 17.1091C189.846 16.3111 188.347 17.2829 187.641 17.6927C184.158 19.7133 180.899 22.4311 177.686 24.8383C170.06 30.5513 162.506 36.405 155.088 42.3855C140.169 54.4126 125.742 67.096 111.899 80.341C107.694 84.3652 103.349 88.36 100.018 93.1823C99.8627 93.407 98.6355 96.0674 98.7534 96.9201C98.8763 97.8084 100.651 97.0808 101.429 96.6349C102.68 95.918 103.761 94.9377 104.886 94.0358C107.3 92.1006 109.66 90.0987 112.043 88.1256C119.676 81.8056 127.258 75.5342 135.18 69.5707C152.639 56.4283 169.84 42.9218 187.585 30.1706C192.943 26.3205 198.354 22.5841 203.738 18.7744C204.976 17.8986 206.064 16.5864 207.552 16.2957C207.86 16.2357 207.44 16.936 207.251 17.1857C206.829 17.744 206.247 18.1625 205.759 18.6645C204.118 20.3517 202.503 22.0635 200.864 23.7529C195.095 29.7009 191.358 33.4023 185.582 39.6094C174.077 51.9735 162.759 65.2559 153.971 79.6961C151.861 83.1644 146.366 92.6671 149.916 96.3749C151.34 97.8621 154.771 96.6634 155.918 96.2233C157.82 95.494 159.654 94.57 161.397 93.5144C163.657 92.1447 165.764 90.5335 167.894 88.9679C171.309 86.4574 174.706 83.92 178.029 81.2884C185.527 75.3501 192.614 68.8623 199.682 62.4298C210.512 52.5736 221.287 42.8293 230.895 31.7296C232.334 30.0668 233.708 28.3448 235.018 26.5785C236.989 23.921 241.265 18.8389 241.664 15.14C241.737 14.4664 240.522 15.89 240.054 16.3807C239.107 17.3755 238.184 18.3926 237.248 19.3986C235.378 21.4106 233.486 23.4031 231.636 25.4345C228.707 28.6514 225.833 31.9186 222.977 35.2002C212.627 47.0902 201.763 58.5825 191.565 70.5936C190.398 71.9683 189.207 73.3293 188.159 74.7973C187.432 75.8169 186.087 77.5551 186.714 79.069C187.143 80.1042 189.033 79.0923 190.044 78.6085C192.404 77.4786 194.641 76.1071 196.894 74.7766C202.734 71.3279 206.226 68.91 211.911 64.9797C224.556 56.2393 237.227 47.0489 248.639 36.7403C250.657 34.9175 252.652 33.0696 254.665 31.241C256.149 29.8929 258.487 28.1511 259.144 26.2103C259.216 25.9964 258.668 26.2478 258.489 26.3856C257.579 27.0875 256.764 27.9061 255.924 28.6916C254.635 29.8973 253.351 31.1088 252.105 32.3586C248.13 36.3459 246.316 38.142 243.09 42.004C236.595 49.7797 230.675 58.1924 223.792 65.6267C221.813 67.7645 221.074 68.4879 219.374 70.4794C219.245 70.6301 219.193 70.8654 219.015 70.9532C218.903 71.0087 219.095 70.7159 219.136 70.5972C219.356 69.9446 219.498 69.2595 219.798 68.6393C220.162 67.8871 220.635 67.1906 221.115 66.5061C222.171 64.9972 223.276 63.522 224.402 62.0642C228.71 56.4886 233.077 51.1768 237.014 45.3045C243.913 35.0157 250.232 24.0007 254.511 12.3449C256.106 8.00207 258.135 3.39631 256.949-1.31074C255.469-7.18612 248.559-5.2085 244.777-3.44449C242.689-2.47017 240.682-1.32358 238.702-0.143985C236.29 1.29288 233.955 2.85573 231.611 4.39982C230.041 5.43331 228.508 6.51988 226.962 7.58783C224.467 9.31132 221.908 10.9423 219.334 12.5452C218.462 13.0882 217.612 13.6669 216.771 14.257C216.657 14.3374 216.334 14.5719 216.473 14.5527C218.313 14.2982 221.643 12.2472 223.2 11.6711C229.781 9.23673 236.548 7.35503 243.136 4.92637C244.82 4.30547 246.733 3.9851 246.892 2.0315" fill="none" fill-rule="evenodd" opacity="1" stroke="#b3724d" stroke-linecap="round" stroke-linejoin="round" stroke-width="32.18"/>
<path d="M-0.558145 162.693C-4.54603 160.264-0.688536 165.18-0.0776 166.02C2.39371 169.416 6.17076 171.366 8.77561 174.446C13.0488 179.498 17.0905 180.438 22.9225 183.061C27.4885 185.114 32.1388 187.151 36.5426 189.508C44.491 193.763 51.8313 199.058 59.7568 203.382C68.3239 208.055 77.3982 211.762 85.9131 216.54C91.663 219.766 96.7387 223.991 102.637 226.989C108.545 229.991 114.852 231.797 121.204 233.546C123.8 234.261 127.913 235.769 130.682 235.096" fill="none" fill-rule="evenodd" opacity="1" stroke="#b3724d" stroke-linecap="round" stroke-linejoin="round" stroke-width="22.7363"/>
<path d="M124.042 226.007C123.817 226.007 123.142 226.007 123.367 226.007C125.726 226.007 128.133 224.594 130.25 223.712C134.548 221.921 138.652 219.745 142.936 217.909C156.264 212.197 169.86 206.379 181.805 198.07C185.443 195.539 188.848 192.67 192.467 190.107C193.745 189.201 195.029 188.084 196.381 187.273C196.745 187.054 197.101 186.823 197.461 186.598C197.581 186.523 197.929 186.336 197.865 186.463C197.667 186.86 196.322 187.789 196.111 187.948" fill="none" fill-rule="evenodd" opacity="1" stroke="#b3724d" stroke-linecap="round" stroke-linejoin="round" stroke-width="22.7363"/>
<path d="M134.839 235.724C136.111 233.179 142.95 229.819 145.366 228.301C154.9 222.308 164.642 216.512 173.977 210.216C183.448 203.829 192.873 197.276 201.779 190.107C219.178 176.103 235.127 160.39 251.175 144.895C256.563 139.693 262.193 134.596 268.045 129.914C269.022 129.133 270.032 128.394 271.014 127.62C272.567 126.397 275.903 124.861 276.818 123.031" fill="none" fill-rule="evenodd" opacity="1" stroke="#b3724d" stroke-linecap="round" stroke-linejoin="round" stroke-width="22.7363"/>
<path d="M-13.0336 127.703C-13.4549 130.265-8.10365 133.027-6.52538 134.355C0.200822 140.014 6.74408 145.745 13.7806 151.023C22.3641 157.461 31.4525 163.518 41.0503 168.355C50.7513 173.243 61.2034 176.893 70.6698 182.224C77.9691 186.334 84.5466 191.76 91.9368 195.682C98.6404 199.238 105.783 203.357 113.164 205.284C114.914 205.74 117.538 206.677 119.254 205.996" fill="none" fill-rule="evenodd" opacity="1" stroke="#ffffff" stroke-linecap="round" stroke-linejoin="round" stroke-width="36.0917"/>
<path d="M114.211 210.682C111.548 210.682 119.253 209.213 119.648 209.129C124.374 208.116 129.066 207.235 133.434 205.051C146.483 198.527 158.076 189.985 169.937 181.557C194.943 163.789 220.721 147.467 246.633 131.074C257.846 123.979 268.768 116.398 280.224 109.715" fill="none" fill-rule="evenodd" opacity="1" stroke="#ffffff" stroke-linecap="round" stroke-linejoin="round" stroke-width="36.0917"/>
<path d="M288.483 61.0991L288.483 60.1488L288.483 59.4361L289.195 59.4361L290.621 59.4361L292.284 60.1488L292.284 60.1488" fill="none" fill-rule="evenodd" opacity="1" stroke="#34ff97" stroke-linecap="round" stroke-linejoin="round" stroke-width="12.2827"/>
<path d="M303.687 51.1215C304.363 49.4305 304.74 47.4546 306.062 46.1327" fill="none" fill-rule="evenodd" opacity="1" stroke="#34ff97" stroke-linecap="round" stroke-linejoin="round" stroke-width="12.2827"/>
<path d="M146.658-13.4952C134.498-17.1432 120.193-13.6375 107.936-11.5947C82.8885-7.42014 58.2501 0.0400508 33.5792 5.98483C22.4883 8.65733 11.4664 11.6301 0.320637 14.0619C-3.74863 14.9498-7.91819 15.8046-12.0326 16.4375C-12.1183 16.4507-13.7659 16.4199-13.6955 16.4375C-10.7211 17.1811-7.46143 16.9547-4.43059 17.1502C1.02977 17.5025 6.49514 17.7067 11.9611 17.8629C29.5214 18.3646 46.9398 17.6744 64.4622 16.4375C99.397 13.9715 134.694 12.8336 169.702 14.0619C194.496 14.9319 219.262 16.5792 244.059 17.3878C250.74 17.6056 257.819 17.7957 264.489 17.1502C264.742 17.1257 268.862 17.2383 269.24 15.7248C269.279 15.5712 269.352 15.3617 269.24 15.2497C267.504 13.5134 263.808 12.8579 261.638 12.399C258.797 11.798 255.94 11.2713 253.086 10.7361C241.551 8.57326 229.872 7.55124 218.164 6.93507C179.81 4.9164 141.354 4.61326 102.947 4.79702C88.9765 4.86387 74.6748 4.9209 60.6612 5.50971C42.5867 6.26914 24.5587 7.87776 6.49723 8.83557C0.0698847 9.17641-8.06817 9.64313-14.8833 9.31069C-16.473 9.23314-18.0738 9.14771-19.6345 8.83557C-20.5401 8.65446-22.6631 8.06319-22.0101 7.4102C-20.2448 5.64484-9.47202 5.90008-6.56864 5.74727C5.69897 5.1016 17.9768 4.28917 30.2534 3.84678C81.4063 2.00343 132.588 1.71654 183.718 4.3219C201.064 5.20576 218.394 6.37492 235.744 7.17264C242.791 7.49665 249.835 7.4102 256.887 7.4102C258.339 7.4102 260.591 7.52388 262.113 7.17264C262.304 7.1287 263.467 6.82714 263.064 6.22239C261.836 4.38114 257.501 4.00956 255.699 3.60921C254.123 3.25885 252.542 2.91979 250.948 2.65897C241.064 1.04153 231.015-0.272899 221.015-0.904452C173.588-3.89984 125.533-1.594 78.2408 2.42141C60.732 3.908 43.1838 5.77089 25.7397 7.88532C20.3486 8.53879 14.9976 9.13194 9.58553 9.54825C6.09013 9.81713 5.18857 9.91063 1.74601 9.54825C1.74293 9.54793 0.489504 9.37938 1.03332 8.83557C2.59792 7.27096 7.05301 7.03275 8.87285 6.69751C10.5377 6.39084 12.1881 6.00194 13.8616 5.74727C15.8328 5.4473 17.8194 5.25887 19.8007 5.03458C35.2817 3.28201 50.7986 2.1553 66.3627 1.47116C104.203-0.192144 142.046-0.191768 179.917-0.191768C196.83-0.191768 213.85 0.189152 230.755-0.429329C247.706-1.04947 264.425-2.42188 281.118-5.41812C286.297-6.34769 292.665-7.44009 297.035-10.6445C297.629-11.0799 299.311-12.6821 298.698-13.7328C296.46-17.5686 289.742-18.842 285.869-19.6718C275.83-21.8231 264.965-22.0474 254.749-22.0474C237.033-22.0474 219.574-19.7978 202.01-17.7713C175.032-14.6584 148.001-11.7439 121.002-8.74398C101.178-6.5413 81.4969-6.34064 61.6115-7.31861C60.1067-7.39262 58.6019-7.4677 57.0978-7.55617C50.1797-7.96312 43.2981-8.54092 36.43-9.45666C35.909-9.52613 32.3211-10.7586 32.629-9.2191C32.8704-8.01189 35.8303-7.1333 36.6675-6.84349C40.1314-5.64445 43.7374-4.61695 47.3578-3.99275C62.1596-1.44072 77.5288-1.72761 92.4945-1.37957C135.669-0.375526 179.134-0.293787 222.203 2.89653C231.729 3.60218 241.219 4.17693 250.71 5.27214C253.056 5.54279 259.394 5.16577 260.688 6.45995C260.856 6.62793 260.213 6.45995 259.975 6.45995C259.5 6.45995 259.024 6.48255 258.55 6.45995C257.361 6.40333 256.176 6.26997 254.986 6.22239C253.402 6.15901 251.819 6.05371 250.235 5.98483C244.945 5.75482 239.615 5.74727 234.319 5.74727C218.875 5.74727 203.424 5.57947 187.994 6.22239C138.423 8.28784 88.8593 9.7088 39.2807 11.2112C27.1088 11.58 14.8818 11.9239 2.69625 11.9239C1.68342 11.9239-7.00688 12.0877-7.04377 12.1614C-7.46777 13.0094-2.03347 14.205-1.57985 14.2995C2.86138 15.2247 7.43591 15.7038 11.9611 15.9624C30.3885 17.0154 48.657 16.5256 67.0754 15.7248C113.85 13.6911 160.679 11.0221 207.474 9.54825C222.062 9.08878 236.595 8.83557 251.185 8.83557C254.67 8.83557 258.159 8.65244 261.638 8.83557C263.385 8.92751 265.119 9.19433 266.865 9.31069C267.181 9.33176 267.815 9.31069 267.815 9.31069C267.815 9.31069 265.596 9.36103 264.489 9.31069C263.536 9.26739 262.591 9.09889 261.638 9.07313C259.659 9.01964 257.679 9.07313 255.699 9.07313C250.79 9.07313 245.88 9.07313 240.97 9.07313C225.935 9.07313 210.774 11.2469 195.834 12.8741C147.034 18.1889 98.7327 26.2372 50.2085 33.542C26.8432 37.0593 3.33965 41.8277-20.3472 42.3317C-25.7704 42.4471-31.7753 42.7937-36.7389 40.1937C-37.681 39.7002-38.4019 39.129-38.4019 38.0556C-38.4019 35.1376-31.6812 33.322-29.6121 32.5917C-28.1243 32.0666-26.6097 31.6197-25.0984 31.1663C-10.8213 26.8832 3.82475 25.4761 18.6129 24.2771C46.8082 21.9909 75.146 21.9341 103.422 22.139C142.368 22.4212 181.526 24.6574 220.303 28.3156C238.868 30.0671 257.371 32.3634 275.892 34.4922C280.977 35.0767 287.81 36.0276 293.234 36.6303C297.088 37.0585 298.293 37.1653 302.024 37.3429C302.34 37.358 302.974 37.6597 302.974 37.3429C302.974 37.229 300.581 36.2298 299.41 35.9176C294.041 34.4858 288.479 33.3722 283.019 32.3541C261.014 28.2515 238.827 25.0575 216.502 23.3268C157.671 18.7663 97.8383 18.5726 39.2807 26.4151C14.1121 29.7859-10.7311 35.1504-35.5511 40.4312C-40.4282 41.4689-45.3568 42.2532-50.2799 43.0444C-53.6394 43.5843-57.8372 44.7477-61.4453 44.2322C-61.845 44.1751-60.6561 44.0595-60.2575 43.9947C-57.2507 43.5052-54.2433 43.0181-51.2302 42.5693C-50.5209 42.4637-49.8029 42.4265-49.0921 42.3317C-39.268 41.0218-29.4358 39.5471-19.6345 38.0556C5.43646 34.2405 30.8368 33.3467 56.1476 32.3541C108.219 30.3121 160.441 31.6524 212.463 34.0171C239.247 35.2345 265.841 36.6614 292.521 39.2434" fill="none" fill-rule="evenodd" opacity="1" stroke="#34ff97" stroke-linecap="round" stroke-linejoin="round" stroke-width="12.2827"/>
<path d="M-15.8335 100.297C-12.2701 97.9211-7.33063 97.5939-3.24278 96.7333C2.04354 95.6204 7.37068 94.674 12.6738 93.645C35.7353 89.1704 58.7807 84.8843 82.0418 81.5294C138.76 73.3489 195.913 70.2501 253.086 67.0381C273.032 65.9176 293.07 65.4628 312.951 63.4747" fill="none" fill-rule="evenodd" opacity="1" stroke="#34ff97" stroke-linecap="round" stroke-linejoin="round" stroke-width="12.2827"/>
<path d="M-0.481526 115.33C-0.943299 114.533 0.451091 116.362 0.60316 116.509C1.36644 117.245 2.62894 118.065 3.46106 118.669C6.22431 120.673 9.13394 122.495 11.987 124.373C21.4804 130.62 31.172 136.343 40.9527 142.133C57.0014 151.632 73.3063 160.76 89.9536 169.171C95.4359 171.94 101.074 174.589 106.64 177.175C111.681 179.517 116.794 181.253 121.404 184.286" fill="none" fill-rule="evenodd" opacity="1" stroke="#34ff97" stroke-linecap="round" stroke-linejoin="round" stroke-width="12.2827"/>
<path d="M122.705 185.613C123.697 184.596 125.521 183.945 126.792 183.312C129.124 182.151 131.331 180.838 133.56 179.485C141.484 174.674 149.255 169.463 157.061 164.451C183.798 147.284 211.382 131.23 238.693 114.985C246.69 110.228 254.632 105.284 262.728 100.701C266.389 98.6287 270.243 96.7195 273.676 94.2812" fill="none" fill-rule="evenodd" opacity="1" stroke="#34ff97" stroke-linecap="round" stroke-linejoin="round" stroke-width="12.2827"/>
<path d="M220.16 56.2312C216.903 57.8592 213.409 57.3424 209.94 56.8462C209.516 56.7855 206.32 56.5578 206.064 55.7883C205.827 55.078 207.523 55.4409 208.266 55.3482C210.49 55.0706 212.724 54.8501 214.962 54.7326C217.077 54.6217 219.192 54.512 221.305 54.3813C232.506 53.6886 243.62 52.3649 254.784 51.3035C255.872 51.2001 256.958 51.0773 258.044 50.9517C259.262 50.8107 263.207 50.7584 263.418 50.3359C263.436 50.2999 261.959 49.4039 259.983 49.2781C258.81 49.2034 257.632 49.2267 256.459 49.2775C248.752 49.6112 241.067 50.3742 233.376 50.9474C216.948 52.172 200.495 52.8772 184.127 54.7274C182.75 54.883 181.361 54.9075 179.986 55.0791C179.009 55.2011 178.03 55.3513 177.079 55.6072C177.062 55.6117 174.403 56.4279 174.523 57.1926C175.369 62.5525 186.664 64.2997 190.645 65.0363C206.502 67.9707 224.153 67.3159 239.629 62.6659C242.253 61.8775 244.814 60.8912 247.382 59.9361C249.503 59.1477 255.576 57.332 255.577 54.1229C255.577 52.279 252.262 50.338 251.261 49.9814C247.181 48.5292 241.564 48.1084 237.253 48.0408C224.11 47.8348 209.91 48.7553 197.078 51.7342C194.283 52.3831 189.229 52.8944 187.739 55.8733C186.975 57.3997 189.627 59.5665 190.469 60.1026C194.155 62.449 198.759 63.7478 202.979 64.5979C220.539 68.1351 239.25 68.6676 256.632 63.9023C258.155 63.4848 259.663 62.9997 261.126 62.4053C262.514 61.8412 267.87 59.5343 268.087 57.2966C268.903 48.8794 253.3 46.5792 247.649 45.7519C243.519 45.1473 239.374 44.6401 235.227 44.164C202.166 40.3687 168.065 40.6965 134.88 43.0896C130.735 43.3886 126.595 43.747 122.458 44.1447C117.526 44.619 114.011 44.9044 109.331 46.6093C108.279 46.9925 105.832 47.9358 105.63 49.6041C105.486 50.7905 106.234 52.4024 107.215 53.0403C109.583 54.58 112.077 55.9662 114.703 57.0061C119.257 58.8097 126.531 60.3434 131.529 61.2379C157.12 65.8172 183.182 64.3165 208.618 59.489C216.197 58.0506 224.853 55.8534 231.79 52.3568C233.184 51.6542 235.911 50.0001 234.874 48.8333C231.628 45.1809 223.891 46.5014 219.897 46.6282C216.812 46.7261 213.729 46.894 210.646 47.0671C203.303 47.4796 195.964 47.9681 188.621 48.3849C164.048 49.7796 139.373 49.7434 114.792 48.4604C86.8144 47.0001 58.9957 43.5933 31.3625 39.1074C24.4197 37.9803 17.4626 36.8159 10.4831 35.9322C9.98697 35.8694 9.27962 35.4395 8.98541 35.8439C8.85508 36.023 10.0141 37.3503 11.0995 37.7824C13.4983 38.7375 15.9422 39.5841 18.4114 40.3386C25.2088 42.4157 32.261 43.9323 39.2024 45.452C69.3885 52.0606 100.333 55.7513 131.266 55.1588C139.85 54.9945 148.447 54.7586 156.992 53.9298C159.621 53.6748 162.221 53.1772 164.833 52.7859C165.292 52.7171 166.301 52.7861 166.155 52.3456C166.069 52.0887 165.8 51.8864 165.538 51.8169C163.89 51.3789 162.212 51.0257 160.516 50.8469C159.406 50.7298 158.285 50.9182 157.169 50.9344C154.291 50.9763 151.413 50.9955 148.535 51.0211C144.923 51.0531 141.31 51.119 137.698 51.1073C107.429 51.0096 77.6201 49.5195 47.4838 46.0701C37.6835 44.9484 27.9135 43.5726 18.1468 42.1887C4.68508 40.2811-6.99034 38.1385-20.4403 35.6626C-22.3209 35.3164-24.1856 34.8752-26.0785 34.6044C-26.2239 34.5837-26.6622 34.5717-26.5191 34.6044C17.3967 44.6365 63.084 46.6435 107.921 46.3448C120.989 46.2577 134.108 45.2316 147.126 44.1489C149.124 43.9828 151.115 43.7187 153.117 43.6214C153.264 43.6142 153.705 43.6215 153.558 43.6214C146.99 43.6203 140.604 44.9368 134.087 45.5563C125.869 46.3376 117.648 47.0968 109.418 47.7546C95.9494 48.8313 82.4038 48.631 68.8918 48.6287C60.0769 48.6272 51.2606 48.2753 42.4617 47.7432C22.1463 46.5147 1.89267 43.8217-18.1504 40.3324C-26.685 38.8466-35.4238 36.9333-43.875 34.9538C-46.5588 34.3252-49.1671 33.3429-51.8918 32.9261C-52.5442 32.8263-50.8326 33.743-50.2181 33.9836C-48.7906 34.5425-47.2957 34.9155-45.8133 35.3059C-41.7151 36.3851-37.6033 37.4141-33.4797 38.3915C-23.0656 40.8599-12.6663 43.4638-2.11692 45.2688C41.9576 52.8099 86.5789 56.0125 131.267 52.9563C139.864 52.3684 148.461 51.6202 156.992 50.4058C161.054 49.8276 165.023 48.6914 168.975 47.5886C169.571 47.4221 170.917 47.1265 170.561 46.6198C169.88 45.6515 168.476 45.3547 167.301 45.2096C164.124 44.8173 160.899 44.9904 157.698 45.0318C149.911 45.1324 142.137 45.7381 134.351 45.9088C111.729 46.4046 89.1 46.8415 66.5137 45.0162C52.0192 43.8448 37.5792 42.027 23.1689 40.0751C10.3084 38.3331-2.43672 35.5895-15.1538 33.0205C-20.4615 31.9483-25.7312 30.6947-31.0113 29.4938C-31.7414 29.3277-33.8834 28.7179-33.2138 29.0529C-30.5353 30.3927-27.3541 30.3006-24.404 30.8164C-17.731 31.9831-11.0778 33.2605-4.40569 34.432C1.81409 35.524 8.02849 36.6543 14.2712 37.6068C44.338 42.1944 74.9884 43.4322 105.367 42.6441C119.812 42.2694 134.298 41.7111 148.625 39.8323C155.149 38.9766 161.625 37.773 168.096 36.5758C169.559 36.305 171.014 35.942 172.413 35.4313C172.598 35.3637 172.862 34.9719 172.677 34.9027C168.561 33.3583 163.067 34.271 159.198 34.548C155.872 34.786 152.563 35.2141 149.242 35.5154C138.127 36.5239 126.999 37.4461 115.851 37.9765C82.6399 39.5568 49.7331 40.1405 16.5617 37.8715C0.664206 36.784-15.1217 34.6479-31.012 33.4583C-33.5659 33.2671-36.1175 33.0236-38.6767 32.9284C-39.2958 32.9053-40.0539 32.7042-40.5268 33.1043C-40.7968 33.3326-40.1309 33.7249-39.8222 33.8973C-38.8458 34.4425-37.8199 34.9331-36.7389 35.2193C-31.2575 36.6706-25.7174 37.8946-20.1766 39.0986C-16.1131 39.9816-12.0171 40.7082-7.93093 41.4794C4.64678 43.8532 17.1804 46.5436 29.8632 48.2697C61.2206 52.5373 92.809 52.7243 124.395 53.0433C131.354 53.1135 138.315 53.0872 145.275 53.1349C147.957 53.1533 151.103 52.2901 153.292 53.8411C153.56 54.0309 153.164 54.6237 152.851 54.722C150.532 55.4497 148.106 55.7841 145.715 56.2185C140.998 57.0753 136.273 57.8959 131.53 58.5948C122.142 59.9783 112.699 60.9857 103.249 61.8497C62.8871 65.54 22.3909 63.0754-17.0956 54.0763C-22.9984 52.731-28.8919 51.3246-34.715 49.6682C-36.4936 49.1623-38.1888 48.3984-39.9126 47.7291C-40.1575 47.6341-40.7349 47.6115-40.6174 47.3766C-40.486 47.114-40.0284 47.346-39.7364 47.3767C-38.3526 47.5226-36.9716 47.6987-35.5957 47.9061C-31.5091 48.522-27.4229 49.1451-23.35 49.8464C-12.5763 51.7015-1.86679 53.9136 8.89389 55.8427C52.1829 63.6036 97.6051 66.9344 141.572 64.4993C141.704 64.492 141.351 64.3373 141.22 64.323C139.462 64.1305 137.702 63.8944 135.934 63.8816C133.523 63.8642 131.12 64.1698 128.71 64.2328C116.29 64.5575 103.866 64.8633 91.4429 64.755C58.3401 64.4665 25.6833 61.575-6.87615 55.6639C-14.9968 54.1896-23.0761 52.4946-31.1912 50.9903C-32.0694 50.8276-34.2335 49.7505-33.8342 50.5494C-33.3342 51.5497-31.8196 51.5424-30.7508 51.8714C-28.7563 52.4855-26.7217 52.9772-24.6721 53.3702C-10.4949 56.0885 3.70181 58.8923 18.0556 60.4256C44.9677 63.3002 71.8717 63.249 98.844 61.4085C110.754 60.5957 122.633 59.3703 134.525 58.331C138.932 57.946 144.746 56.9204 149.326 57.3645C149.889 57.419 148.211 57.5444 147.653 57.6285C146.067 57.8671 144.478 58.078 142.895 58.3325C136.813 59.3102 130.748 60.4021 124.658 61.3248C118.354 62.2796 112.041 63.1749 105.715 63.9646C76.996 67.5495 48.5544 69.0681 19.6402 67.3858C9.02486 66.7682-1.56734 65.7984-12.1638 64.9135C-14.9223 64.6832-17.6801 64.4265-20.4452 64.2954C-21.4136 64.2495-23.5258 63.4291-23.3525 64.383C-23.1292 65.6123-21.2712 65.8177-20.0931 66.2337C-18.2459 66.886-16.2959 67.2154-14.3668 67.5562C-11.2994 68.098-8.2018 68.4522-5.11639 68.8793C0.931162 69.7165 6.95674 70.7449 13.032 71.3492C46.9916 74.7274 81.6011 75.1485 115.494 70.3976C119.213 69.8762 122.906 69.1688 126.595 68.4613C129.485 67.9069 132.403 67.4363 135.229 66.6126C135.964 66.3983 136.717 65.9988 137.167 65.3796C137.261 65.2505 135.824 63.582 133.82 62.8241C132.419 62.2943 130.9 62.1304 129.415 61.9423C124.082 61.2671 118.668 61.5425 113.292 61.5871C97.7223 61.7164 82.1634 62.4631 66.5988 62.9007C58.4053 63.131 50.2149 63.5293 42.0185 63.6013C25.8075 63.7436 9.57904 62.2516-6.61288 61.7429C-11.1927 61.599-15.7786 61.2826-20.3566 61.4762C-22.5911 61.5707-26.2074 61.9042-26.5241 64.1182C-26.6041 64.6774-26.1914 65.2881-25.7314 65.616C-23.3734 67.2973-20.934 68.9505-18.2436 70.0224C-14.3912 71.5571-10.3089 72.4652-6.26247 73.3722C-0.990249 74.554 4.34447 75.4518 9.6833 76.2823C39.6 80.9362 66.5038 80.4153 96.5507 77.0019C101.458 76.4445 106.32 75.5273 111.176 74.6257C112.962 74.2942 114.728 73.8453 116.462 73.3051C117.001 73.1371 118.376 72.8942 117.96 72.5125C115.445 70.2063 108.636 71.4618 105.538 71.8055C102.75 72.1148 99.9596 72.4075 97.1681 72.6851C92.001 73.199 86.8341 73.7169 81.6621 74.1802C67.865 75.416 54.057 76.5282 40.2541 77.6971C32.7132 78.3358 25.1782 79.2108 17.6119 79.3672C11.4165 79.4952 5.21781 79.407-0.977464 79.5402C-5.61972 79.6401-10.2603 79.8285-14.8975 80.0664C-18.2492 80.2384-21.6251 80.2527-24.9411 80.7695C-25.8236 80.9071-26.7482 81.3165-27.3201 82.0025C-28.8897 83.8854-22.3348 85.8507-20.8013 86.1444C-16.9033 86.891-13.0181 87.7349-9.08424 88.2608C-1.79385 89.2354 5.51641 90.1126 12.8525 90.6433C34.0932 92.1798 55.2855 90.6552 76.4616 88.9802C83.1237 88.4533 86.8983 87.9251 93.3773 87.3092C93.9043 87.2591 95.4918 87.2498 94.9631 87.2214C82.1185 86.5311 68.9027 88.5311 56.1103 89.153C37.2798 90.0683 18.6443 89.9339-0.186242 89.4076C-5.23846 89.2664-10.2904 89.1029-15.3395 88.8765C-20.5683 88.642-25.7881 87.9915-31.0213 88.0809C-33.3257 88.1202-37.2261 87.7935-36.3076 89.4015C-35.0955 91.5235-31.8017 91.3439-29.4362 91.9576C-27.3396 92.5015-25.2243 92.9812-23.0932 93.3683C-17.6162 94.3631-12.113 95.208-6.61875 96.1022C9.86402 98.7848 26.4954 100.651 43.1573 101.837C45.4451 102 47.7414 102.026 50.0291 102.191C52.0113 102.334 52.539 102.516 54.1698 102.72C54.9324 102.816 55.9169 102.441 56.4603 102.985C56.8983 103.423 55.2249 103.084 54.6102 103.161C53.8148 103.26 53.0309 103.455 52.2314 103.513C50.5901 103.631 48.9423 103.632 47.2977 103.688C44.6841 103.778 42.0716 103.92 39.4567 103.951C29.9304 104.064 20.4269 103.019 11.0887 101.215C8.38772 100.693 2.82898 98.443 0.60468 101.037C0.18485 101.527 0.973351 102.144 1.13301 102.623C2.63537 107.133 6.59453 107.205 10.8231 108.792C13.5555 109.817 16.6408 110.851 19.1039 112.493C22.434 114.714 25.2336 118.193 28.4412 120.688C30.9055 122.606 33.9667 123.846 36.6338 125.447C38.9409 126.832 46.2867 129.127 47.5573 131.352C47.572 131.378 46.115 131.071 45.9715 130.999C45.5017 130.764 45.0474 130.495 44.562 130.294C43.5288 129.866 42.5038 129.419 41.4787 128.972C37.2881 127.145 32.9909 125.357 28.9694 123.155C19.7559 118.112 10.5217 112.956 1.66082 107.292C1.28592 107.053-5.03446 102.623-4.76966 102.093C-4.53281 101.62-3.89586 102.692-3.44829 102.975C-2.50292 103.572-1.51369 104.097-0.541249 104.649C1.97037 106.075 4.60661 107.27 7.12284 108.703C13.0739 112.093 18.9651 115.508 25.0937 118.573C33.3247 122.691 41.9806 125.882 50.1124 130.207C62.696 136.9 74.9295 144.32 87.3755 151.269C92.588 154.18 98.1756 156.415 103.408 159.289C108.542 162.109 112.73 166.323 116.798 170.392C117.957 171.552 119.504 174.367 121.29 174.622C121.777 174.692 122.299 174.139 122.7 174.006C124.192 173.509 125.843 174.241 127.37 173.478C129.438 172.444 127.062 165.412 126.755 163.258C126.192 159.318 126.828 155.401 126.492 151.452C125.871 144.142 124.279 137.061 122.972 129.867C119.495 110.728 117.097 91.4405 114.612 72.1595C113.816 65.9775 112.478 59.915 111.708 53.7459C111.498 52.0643 111.256 50.3841 110.916 48.724C110.773 48.0282 110.652 46.6095 110.652 46.6095C110.652 46.6095 110.828 48.6065 110.916 49.605C111.119 51.9074 111.574 54.1889 111.884 56.477C112.83 63.4661 113.867 70.185 114.259 77.2693C115.423 98.291 115.915 119.465 116.098 140.526C116.146 146.041 116.277 151.583 115.743 157.089C115.238 162.301 113.195 167.212 112.304 172.33C111.871 174.819 111.278 180.172 115.122 180.347C120.185 180.578 118.99 170.723 117.591 168.366C112.592 159.944 102.891 156.595 93.4534 157.614C90.6725 157.914 85.4851 159.012 84.0258 161.929C82.7661 164.448 89.7822 165.816 90.9851 166.071C96.0983 167.154 101.482 167.2 106.667 166.867C107.691 166.801 110.644 167.146 111.336 166.339C111.596 166.036 110.725 165.813 110.367 165.634C108.261 164.58 105.946 164.523 103.672 164.047C99.5652 163.187 95.4389 162.314 91.3383 161.402C90.7481 161.27 88.8155 160.791 88.519 161.754C88.0043 163.426 91.3915 165.261 92.2186 165.807C96.0272 168.32 100.245 170.393 104.375 172.328C106.227 173.196 108.157 173.898 110.102 174.532C110.694 174.725 111.863 175.413 111.952 174.797C112.044 174.149 109.676 172.149 109.573 172.065C108.487 171.176 107.342 170.361 106.226 169.51C102.138 166.389 98.023 163.322 93.8934 160.257C79.1676 149.327 65.3199 137.594 48.791 129.326C47.2054 128.533 45.6197 127.739 44.034 126.946C42.4742 126.166 38.3895 123.406 36.3698 123.773C35.9566 123.848 36.2451 124.564 37.6908 126.417C38.216 127.09 38.7913 127.722 39.3644 128.355C41.7025 130.936 45.1748 133.351 47.9971 135.316C56.349 141.132 65.3817 145.869 73.7198 151.708C76.6029 153.727 79.6449 155.539 82.3526 157.788C82.9439 158.279 83.3948 158.919 83.9382 159.462C84.2318 159.756 85.2343 160.343 84.819 160.343C84.1572 160.343 83.8051 159.5 83.4096 159.198C82.568 158.555 81.644 158.029 80.7669 157.435C79.5591 156.619 78.3661 155.78 77.1552 154.968C68.9928 149.493 60.7353 144.27 52.8421 138.401C48.7222 135.337 44.7833 132.198 40.862 128.884C39.6968 127.899 38.4671 126.731 37.4267 125.624C37.0843 125.259 36.7756 124.864 36.4577 124.478C36.3644 124.365 36.0467 124.126 36.1935 124.126C38.0369 124.126 39.3584 126.017 40.9505 126.946C45.0824 129.357 49.4401 131.413 53.724 133.555C65.5989 139.495 77.9174 144.942 90.7238 148.539C96.3194 150.111 102.078 151.1 107.903 150.744C109.561 150.643 111.288 150.486 112.308 148.983C113.485 147.25 110.482 145.156 109.666 144.578C108.376 143.663 107.007 142.858 105.614 142.11C103.011 140.712 100.328 139.466 97.6856 138.144C84.248 131.423 69.6737 126.226 55.5762 121.045C51.0347 119.377 46.4232 117.905 41.8333 116.374C40.0996 115.795 37.7355 114.878 37.6928 114.963C37.237 115.875 43.3048 119.092 44.0353 119.458C48.0876 121.485 52.0428 123.719 56.1922 125.539C69.9788 131.586 84.2912 136.124 99.095 138.849C101.526 139.297 103.948 139.838 106.407 140.084C109.684 140.412 115.284 140.849 115.218 138.323C115.156 135.977 113.126 134.774 111.43 133.565C105.993 129.688 99.3342 126.271 93.283 123.607C77.5392 116.676 61.1538 111.034 44.5661 106.507C41.6863 105.721 31.4812 102.031 28.356 103.685C25.5654 105.162 30.1524 109.176 30.8218 109.764C31.8192 110.641 33.0032 111.28 34.0811 112.055C39.1354 115.692 44.5778 118.556 50.1139 121.397C63.1947 128.11 76.7684 133.048 91.0783 136.381C92.8622 136.796 94.6325 137.319 96.4522 137.527C100.712 138.014 108.452 139.093 111.782 135.063C115.388 130.7 110.061 125.753 106.851 123.345C104.844 121.839 102.711 120.493 100.508 119.291C97.8558 117.844 95.1377 116.492 92.3153 115.413C74.329 108.541 54.2419 103.942 34.9637 102.805C31.9175 102.625 23.1547 101.771 22.541 106.063C22.3343 107.508 25.1844 109.525 25.5357 109.763C27.058 110.797 28.7109 111.635 30.3808 112.407C35.4076 114.731 40.0299 116.212 45.4452 117.52C55.5311 119.956 66.2284 120.299 76.5443 120.52C87.3127 120.751 98.5857 119.374 108.878 116.209C114.03 114.625 119.155 113.034 122.447 108.458C122.832 107.923 123.122 107.268 123.152 106.608C123.28 103.815 120.502 101.634 118.219 100.617C116.057 99.6526 113.932 98.589 111.7 97.7963C109.868 97.1453 107.966 96.6964 106.062 96.2977C90.9967 93.1417 74.6581 91.4249 59.2814 92.5013C55.0587 92.7969 45.8413 92.7516 45.008 98.5779C44.6801 100.87 48.7607 103.174 50.205 104.041C54.8112 106.806 58.2965 108.088 63.6835 109.682C79.7726 114.441 98.164 114.508 114.605 111.805C118.001 111.247 128.808 108.802 128.439 103.526C128.191 99.9831 123.187 97.3518 120.335 96.3882C117.04 95.2752 113.674 94.3732 110.292 93.5673C98.9713 90.8699 86.5644 90.0088 74.9636 91.0944C71.1022 91.4557 61.7205 92.5079 62.0115 98.4927C62.1095 100.509 64.835 102.385 66.5038 103.163C68.1747 103.941 69.8633 104.699 71.6133 105.278C73.7773 105.994 75.9662 106.704 78.2206 107.041C94.0124 109.405 112.531 107.994 127.558 102.645C130.232 101.693 135.679 99.6497 135.929 96.0385C136.019 94.7332 134.24 93.9663 133.11 93.3069C131.836 92.5633 129.757 92.1979 128.264 91.9845C125.859 91.6405 123.461 91.2221 121.04 91.0142C107.083 89.8154 91.1278 91.1335 77.694 95.3237C75.4294 96.0301 73.1754 96.8425 71.0859 97.9656C69.2842 98.9341 67.0183 100.943 67.561 103.251C68.0891 105.497 71.2351 106.184 73.1989 106.512C75.2471 106.853 77.291 107.309 79.3658 107.394C83.0634 107.545 86.7725 107.442 90.4666 107.22C104.579 106.37 119.505 102.649 132.404 96.9189C134.589 95.9485 136.863 95.0978 138.836 93.7483C140.067 92.9068 143.016 90.5649 142.89 88.2868C142.775 86.2086 139.104 84.7695 137.957 84.4976C135.892 84.0083 133.733 84.0616 131.614 83.9679C129.061 83.8551 126.503 83.7974 123.949 83.8785C110.684 84.2996 95.5348 86.6819 83.2449 92.153C81.2319 93.0492 75.6138 95.7958 75.4027 99.0236C75.1401 103.039 82.2868 103.992 84.4762 104.223C86.7572 104.464 89.0546 104.542 91.348 104.577C107.602 104.822 124.844 100.749 140.069 95.2463C142.231 94.4651 144.583 93.7599 146.237 92.1638C146.914 91.5108 148.49 90.7639 147.999 89.9616C145.623 86.0715 137.641 88.5662 134.432 88.902C131.642 89.1941 128.843 89.4125 126.062 89.7816C113.217 91.4867 99.7364 95.089 87.9128 100.435C85.5957 101.483 81.0039 103.299 80.2471 106.072C79.9181 107.278 82.4357 107.493 83.6827 107.571C85.5038 107.684 87.3279 107.383 89.145 107.219C93.9061 106.79 96.9853 106.484 101.479 105.459C120.514 101.12 139.011 95.0809 157.162 87.9368C162.475 85.846 168.714 84.1214 173.374 80.6272C173.492 80.5391 173.158 80.8369 173.022 80.8914C172.418 81.1328 171.776 81.2702 171.171 81.5078C168.526 82.5465 165.931 83.7094 163.33 84.8543C157.997 87.2017 152.65 89.5173 147.294 91.8116C132.737 98.0474 117.477 103.655 103.945 111.979C102.443 112.904 91.8854 119.8 95.2213 122.814C96.3348 123.82 98.4272 123.732 99.7144 123.52C102.113 123.124 104.49 122.601 106.851 122.023C112.267 120.697 115.228 119.527 120.595 117.444C127.383 114.811 133.902 111.572 140.596 108.726C157.679 101.462 174.811 94.4257 191.698 86.7093C200.016 82.9086 208.354 78.7716 216.809 75.2605C218.396 74.6013 220.014 74.0104 221.655 73.4993C222.412 73.2633 224.242 72.8223 224.033 73.5878C223.11 76.9696 219.668 78.9405 217.248 80.9871C211.167 86.1309 204.681 90.914 198.392 95.7848C185.181 106.018 171.566 115.635 159.094 126.79C154.033 131.316 148.924 135.734 144.995 141.324C140.398 147.864 137.17 154.765 133.627 161.849C133.01 163.083 132.393 164.316 131.776 165.549C131.481 166.14 131.107 166.689 130.718 167.223C130.641 167.329 130.425 167.517 130.542 167.575C130.782 167.696 132.189 166.207 132.393 166.078C133.053 165.658 134.988 165.428 135.652 165.286C143.143 163.682 149.947 160.437 156.446 156.303C179.901 141.383 203.4 126.66 227.286 112.441C234.055 108.412 240.928 104.385 247.904 100.727C250.036 99.6089 252.253 98.4323 254.424 97.3802C254.886 97.1566 255.672 96.2772 255.834 96.7638C256.035 97.3685 250.172 100.824 249.402 101.256C248.083 101.995 246.789 102.782 245.437 103.458C240.299 106.025 234.995 108.243 229.754 110.591C203.306 122.442 176.214 132.831 149.84 144.849C141.745 148.538 133.347 152.003 126.051 157.179C124.658 158.167 123.392 159.329 122.174 160.526C121.47 161.218 120.161 162.238 120.676 163.081C121.479 164.396 123.287 163.858 124.376 163.61C125.871 163.27 127.327 162.774 128.781 162.289C137.316 159.446 145.726 155.127 153.627 150.928C178.27 137.834 202.566 123.615 223.235 104.687C224.783 103.27 226.283 101.803 227.817 100.371C230.002 98.3328 235.29 93.1908 234.867 89.8002C234.653 88.0857 231.741 89.0178 231.167 89.271C229.533 89.9922 227.937 90.8121 226.409 91.737C221.241 94.8649 216.025 98.6499 211.078 102.13C192.303 115.337 174.747 130.254 156.007 143.528C149.4 148.208 142.676 152.679 135.83 157.004C134.906 157.588 133.937 158.099 133.011 158.678C132.761 158.833 132.063 159.372 132.306 159.206C138.533 154.947 145.622 152.272 152.394 148.99C159.262 145.662 166.127 142.329 173.012 139.038C194.892 128.578 216.747 117.385 236.891 103.809C244.399 98.7485 252.091 93.3738 258.39 86.8088C259.144 86.0237 263.245 82.4283 262.708 80.8187C262.243 79.4216 259.276 80.2961 258.391 80.6417C256.308 81.4555 254.257 82.3509 252.224 83.2837C238.981 89.3611 226.205 96.3799 212.928 102.395C188.863 113.297 164.727 124.04 139.887 133.042C132.256 135.807 124.591 138.149 116.803 140.438C113.722 141.344 112.347 142.068 109.49 142.287C109.071 142.319 110.321 142.144 110.724 142.023C111.88 141.674 113.006 141.234 114.16 140.878C116.913 140.03 119.691 139.266 122.442 138.413C126.035 137.299 129.606 136.118 133.191 134.979C141.112 132.461 149.006 129.845 156.803 126.965C173.818 120.681 190.555 113.302 206.936 105.566C224.361 97.3363 241.597 88.5524 257.863 78.1748C262.914 74.9525 267.691 71.2685 272.137 67.2527C272.662 66.7791 275.907 64.0553 275.134 63.0244C273.852 61.3154 269.454 63.8927 267.38 64.8732C264.282 66.3385 261.246 67.9351 258.217 69.541C253.051 72.2804 247.946 75.1337 242.798 77.9079C222.682 88.7493 202.433 99.4018 181.563 108.733C169.013 114.344 156.394 119.804 143.676 125.025C138.51 127.146 133.324 129.216 128.17 131.366C126.881 131.903 125.587 132.426 124.293 132.951C123.56 133.248 122.812 133.508 122.09 133.831C121.956 133.891 121.634 133.992 121.738 134.096C122.516 134.874 127.244 133.108 128.346 132.775C136.021 130.455 143.65 127.821 151.165 125.026C185.104 112.404 218.072 96.3495 247.996 75.8825C251.972 73.1631 255.85 70.3011 259.715 67.4268C263.95 64.2776 267.77 61.0804 271.699 57.5616C271.795 57.4754 273.549 55.6221 273.461 55.3593C273.34 54.9961 272.663 55.2869 272.316 55.4472C270.728 56.1797 269.231 57.0981 267.734 58.0014C265.969 59.0661 264.248 60.2012 262.535 61.3483C257.433 64.7671 252.443 68.3524 247.38 71.8298C236.759 79.1246 226.027 86.2648 215.132 93.1447C191.444 108.103 167.037 121.703 142.882 135.861C138.18 138.617 132.879 141.344 128.696 144.845C127.676 145.699 125.899 146.251 125.788 147.576C125.695 148.694 128.075 148.295 129.136 147.929C132.18 146.877 135.069 145.411 137.947 143.966C151.034 137.393 163.061 129.401 174.336 120.097C186.54 110.026 198.172 98.6718 209.494 87.6815C221.058 76.4569 232.321 64.7354 242.45 52.1824C244.545 49.5861 246.566 46.925 248.442 44.1663C249.626 42.4252 250.629 40.5651 251.615 38.7045C251.954 38.0636 252.712 37.337 252.408 36.6784C251.598 34.9231 248.016 38.0041 245.8 39.7608C243.057 41.9356 240.433 44.2575 237.782 46.5432C227.092 55.7574 216.764 65.3636 205.972 74.4657C188.548 89.1624 170.43 103.075 151.431 115.688C143.212 121.144 134.881 126.433 126.496 131.63C122.389 134.174 117.86 136.171 114.248 139.38C113.832 139.751 115.325 139.078 115.834 138.852C117.119 138.284 118.364 137.626 119.623 137.003C121.682 135.982 123.755 134.988 125.79 133.92C137.573 127.738 146.294 123.061 157.686 116.393C182.057 102.129 205.202 85.6574 227.646 68.5667C231.832 65.3795 236.118 62.2766 239.894 58.6133C241.191 57.3552 242.493 56.103 243.771 54.8257C243.963 54.6342 244.348 54.4754 244.3 54.209C244.155 53.414 242.038 54.0572 239.63 55.1774C237.913 55.9762 236.32 57.0204 234.696 57.9957C229.917 60.8667 225.194 63.8313 220.422 66.7153C209.607 73.2522 199.052 79.2428 187.734 84.9466C167.517 95.1348 146.538 103.611 125.53 111.983C121.513 113.584 117.502 115.202 113.459 116.738C111.706 117.405 108.39 118.675 108.437 119.292C108.475 119.791 109.439 119.445 109.935 119.381C114 118.857 118.071 118.326 122.093 117.533C139.913 114.017 157.674 108.971 174.868 103.181C201.779 94.1192 227.956 82.7024 253.019 69.3639C256.862 67.3189 260.622 65.1217 264.385 62.9345C266.937 61.4515 269.455 59.9105 271.963 58.3545C273.161 57.6112 275.028 57.2485 275.399 55.8883C275.649 54.9746 273.478 55.9409 272.58 56.2402C271.918 56.4608 271.289 56.7708 270.642 57.0328C267.882 58.1504 265.095 59.2029 262.359 60.3792C254.808 63.6265 247.471 66.7369 239.804 69.8021C210.761 81.4137 181.049 90.4264 150.465 96.922C142.741 98.5623 134.953 99.9045 127.118 100.883C124.684 101.186 121.863 101.545 121.92 101.146C121.968 100.807 125.893 99.7973 126.149 99.737C129.014 99.0634 131.91 98.5264 134.783 97.8884C142.753 96.1187 150.73 94.3742 158.659 92.4302C181.976 86.7139 204.907 79.684 227.205 70.7691C232.132 68.7995 237.326 66.7241 242.096 64.3403C243.741 63.5178 246.033 63.298 246.942 61.6981C247.445 60.8116 244.964 61.0314 243.946 61.0809C242.502 61.1511 241.124 61.7157 239.717 62.0492C236.543 62.8016 233.374 63.5762 230.202 64.3382C220.768 66.6047 211.316 68.8052 201.832 70.8529C180.939 75.3637 159.839 78.1497 138.662 80.8856C133.386 81.5673 128.127 82.3988 122.892 83.3497C121.613 83.5821 119.03 83.2924 119.191 84.5825C119.403 86.2779 122.174 86.4206 123.86 86.6977C126.447 87.1229 129.082 87.201 131.701 87.3158C136.485 87.5254 141.274 87.5926 146.062 87.6706C164.939 87.9783 184.023 87.1398 202.799 85.2135C207.529 84.7283 212.259 84.2522 216.983 83.7182C220.644 83.3044 224.922 83.1291 228.437 81.9581C228.562 81.9166 228.215 81.7928 228.085 81.7819C227.499 81.733 226.909 81.7472 226.323 81.7816C224.411 81.8937 222.504 82.0604 220.596 82.2211C217.981 82.4414 215.367 82.6731 212.755 82.9246C205.132 83.6584 197.5 84.3684 189.848 84.6827C173.266 85.3636 156.653 84.8623 140.071 85.5552C137.809 85.6497 135.548 85.786 133.287 85.9064C131.701 85.9909 130.11 86.0102 128.53 86.1699C127.785 86.2452 126.815 86.0416 126.327 86.61C126.025 86.9625 127.033 87.2534 127.472 87.4031C128.437 87.7318 129.456 87.8937 130.468 88.0204C134.457 88.5198 138.91 88.2659 142.89 88.2868C153.942 88.3448 164.881 88.2502 175.84 86.7066" fill="none" fill-rule="evenodd" opacity="1" stroke="#34ff97" stroke-linecap="round" stroke-linejoin="round" stroke-width="12.2827"/>
<path d="M-24.3845 154.157C-23.2812 156.168-15.7127 157.86-13.5987 158.818C-5.55171 162.465 2.2122 167.454 9.67373 172.186C21.5034 179.689 32.7603 188.022 45.0592 194.776C56.846 201.25 69.2346 206.923 80.3771 214.534C90.2436 221.273 100.329 227.445 111.263 232.263C114.996 233.908 119.297 236.288 123.482 236.449" fill="none" fill-rule="evenodd" opacity="1" stroke="#34ff97" stroke-linecap="round" stroke-linejoin="round" stroke-width="12.2827"/>
<path d="M125.468 246.873C125.562 246.785 126.095 246.451 125.756 246.265C125.388 246.062 124.231 246.245 123.729 246.098C120.832 245.254 117.89 243.728 115.205 242.409C108.676 239.2 102.239 235.95 95.5828 232.985C88.9808 230.043 82.6136 226.638 76.1441 223.391C63.6578 217.123 50.8872 211.482 38.5675 204.872C24.8827 197.53 11.4188 189.59-1.54534 181.038C-6.00805 178.094-10.3741 175.048-14.7248 171.952C-16.0427 171.013-17.3856 170.11-18.6844 169.146C-19.0712 168.858-19.7915 168.044-19.8153 168.66" fill="none" fill-rule="evenodd" opacity="1" stroke="#34ff97" stroke-linecap="round" stroke-linejoin="round" stroke-width="12.2827"/>
<path d="M-3.05669 181.245C9.59289 187.254 21.7016 194.723 33.5415 202.202C45.7825 209.934 58.5887 217.075 71.3486 223.913C79.4769 228.269 87.417 233.153 95.7791 237.06C98.6115 238.383 101.602 239.672 104.571 240.672C105.901 241.119 107.662 241.435 108.657 242.509" fill="none" fill-rule="evenodd" opacity="1" stroke="#34ff97" stroke-linecap="round" stroke-linejoin="round" stroke-width="12.2827"/>
<path d="M118.573 246.783C119.285 246.811 117.242 246.342 116.828 246.185C115.76 245.783 114.651 245.361 113.605 244.911C109.968 243.349 106.474 241.483 103.023 239.551C92.4884 233.653 82.4197 226.981 71.9026 221.016C56.0883 212.047 40.108 203.326 25.1439 192.946C17.4933 187.639 10.1869 181.857 2.89088 176.081C-2.0864 172.14-7.05595 168.055-12.2206 164.355C-13.4873 163.447-16.0978 162.374-17.1413 161.246C-17.2679 161.11-16.7764 161.345-16.6183 161.443C-16.3684 161.599-16.161 161.815-15.9324 162C-15.4751 162.372-15.0197 162.746-14.5605 163.115C-12.7394 164.578-10.744 165.863-8.79086 167.14C-4.99886 169.619-1.16319 172.014 2.69075 174.393C15.7326 182.443 28.755 190.42 42.0123 198.107" fill="none" fill-rule="evenodd" opacity="1" stroke="#34ff97" stroke-linecap="round" stroke-linejoin="round" stroke-width="12.2827"/>
<path d="M110.536 236.077C110.598 236.154 110.96 236.704 111.187 236.712C112.33 236.753 114.332 235.456 115.225 235.081C117.18 234.261 119.216 233.692 121.237 233.031C131.704 229.61 141.403 223.19 150.869 217.715C159.097 212.955 167.364 208.256 174.985 202.537C182.158 197.154 188.862 191.141 196.24 186.032C210.195 176.37 225.158 168.327 238.46 157.727C249.861 148.642 259.78 137.852 269.944 127.445" fill="none" fill-rule="evenodd" opacity="1" stroke="#34ff97" stroke-linecap="round" stroke-linejoin="round" stroke-width="12.2827"/>
<path d="M262.054 148.592C259.46 149.143 254.591 155.396 252.778 157.138C246.004 163.645 239.409 170.365 232.248 176.454C222.024 185.149 211.566 193.942 200.229 201.176C186.607 209.867 171.906 216.8 157.728 224.512C148.737 229.401 140.354 235.369 130.785 239.129C128.291 240.108 124.991 241.935 122.199 241.209" fill="none" fill-rule="evenodd" opacity="1" stroke="#34ff97" stroke-linecap="round" stroke-linejoin="round" stroke-width="12.2827"/>
<path d="M117.645 241.015C120.956 241.39 127.198 237.191 130.201 235.771C139.097 231.564 147.939 227.455 156.568 222.694C183.925 207.603 209.939 189.988 233.803 169.806C238.416 165.904 243.159 161.959 247.491 157.744C251.67 153.679 255.486 149.232 259.813 145.328" fill="none" fill-rule="evenodd" opacity="1" stroke="#34ff97" stroke-linecap="round" stroke-linejoin="round" stroke-width="12.2827"/>
<path d="M263.117 154.814C263.247 155.429 261.585 156.162 261.157 156.52C259.363 158.019 257.851 159.614 256.241 161.303C248.802 169.105 240.638 176.201 232.025 182.692C227.257 186.285 222.173 189.532 217.503 193.253C212.307 197.394 207.08 201.503 201.437 205.046C191.912 211.026 182.161 216.664 172.7 222.752C164.658 227.925 156.79 234.067 148.318 238.502C143.282 241.137 137.711 242.732 132.229 244.109C128.773 244.978 124.584 245.356 121.352 246.934" fill="none" fill-rule="evenodd" opacity="1" stroke="#34ff97" stroke-linecap="round" stroke-linejoin="round" stroke-width="12.2827"/>
<path d="M153.668 108.515C154.124 105.815 155.224 103.252 156.284 100.728C156.392 100.472 156.994 99.8811 156.78 100.058C154.835 101.661 152.636 104.063 150.941 105.524C142.244 113.023 133.105 120.447 125.29 128.892C123.233 131.116 121.197 133.36 119.186 135.625C118.63 136.252 117.588 137.659 117.619 138.489C117.645 139.215 120.311 138.754 120.321 138.749C123.11 137.494 125.798 135.53 128.265 133.773C135.374 128.708 141.958 122.663 147.895 116.284C149.842 114.192 151.778 112.09 153.673 109.951C153.904 109.69 155.131 108.015 154.759 107.615C154.406 107.234 152.73 107.882 152.273 108.093C150.76 108.791 149.236 109.47 147.759 110.242C140.799 113.879 134.141 118.217 127.127 121.748C125.201 122.718 123.292 123.749 121.265 124.485C120.514 124.757 118.844 125.771 118.921 124.977C118.931 124.871 119.122 124.906 119.219 124.862C120.522 124.275 121.802 123.632 123.122 123.085C124.146 122.661 125.209 122.339 126.246 121.95C134.147 118.989 141.812 117.33 150.083 115.921" fill="none" fill-rule="evenodd" opacity="1" stroke="#34ff97" stroke-linecap="round" stroke-linejoin="round" stroke-width="12.2827"/>
<path d="M99.4914 28.0932C99.0037 27.4836 97.7722 25.3354 97.1014 25.3354C96.7683 25.3354 96.6009 28.2038 96.366 29.7479C95.8248 33.3039 95.2723 36.8583 94.7113 40.4113C93.9995 44.9193 93.5136 47.6208 92.8728 52.1778C91.7826 59.93 87.5667 76.8662 97.4691 80.6748C100.338 81.7783 103.588 81.4102 106.662 81.4102C110.247 81.4102 115.691 80.6876 119.164 80.3071C128.342 79.3013 137.548 78.7528 146.741 77.917C151.997 77.4392 157.456 76.9485 162.736 77.3654C165.449 77.5796 168.154 77.9502 170.826 78.4686C173.9 79.0651 182.985 82.4194 183.144 86.558C183.411 93.4923 177.062 98.2685 172.297 102.369C169.742 104.568 166.935 106.456 164.207 108.436C151.332 117.782 135.428 127.254 120.634 132.705C115.814 134.481 110.63 136.437 105.375 136.382C102.272 136.349 99.0633 136.063 96.1821 134.911C93.996 134.037 92.5051 131.969 90.6666 130.499" fill="none" fill-rule="evenodd" opacity="1" stroke="#ffffff" stroke-linecap="round" stroke-linejoin="round" stroke-width="12.2827"/>
<path d="M103.352 18.5329C113.969 17.2058 125.417 19.3495 136.078 19.8199C155.514 20.6774 174.297 18.27 193.623 17.0621" fill="none" fill-rule="evenodd" opacity="1" stroke="#ffffff" stroke-linecap="round" stroke-linejoin="round" stroke-width="12.2827"/>
</g>
</svg>
