<?xml version="1.0" encoding="UTF-8" standalone="no"?>
<!DOCTYPE svg PUBLIC "-//W3C//DTD SVG 1.1//EN" "http://www.w3.org/Graphics/SVG/1.1/DTD/svg11.dtd">
<!-- Created with Vectornator (http://vectornator.io/) -->
<svg height="100%" stroke-miterlimit="10" style="fill-rule:nonzero;clip-rule:evenodd;stroke-linecap:round;stroke-linejoin:round;" version="1.1" viewBox="0 0 255 255" width="100%" xml:space="preserve" xmlns="http://www.w3.org/2000/svg" xmlns:vectornator="http://vectornator.io" xmlns:xlink="http://www.w3.org/1999/xlink">
<defs/>
<clipPath id="ArtboardFrame">
<rect height="255" width="255" x="0" y="0"/>
</clipPath>
<g clip-path="url(#ArtboardFrame)" id="레이어-1" vectornator:layerName="레이어 1">
<path d="M469.489 131.314C471 131.206 472.511 131.098 474.022 130.99" fill="none" fill-rule="evenodd" opacity="1" stroke="#000000" stroke-linecap="round" stroke-linejoin="round" stroke-width="10"/>
<path d="M422.873 153.004C422.873 150.909 423.128 148.672 424.167 146.853" fill="none" fill-rule="evenodd" opacity="1" stroke="#000000" stroke-linecap="round" stroke-linejoin="round" stroke-width="10"/>
<path d="M-0.379624 151.019C-1.51978 147.773 2.3297 151.66 3.10948 152.336C6.01767 154.855 8.63704 157.653 11.5085 160.221C18.8498 166.788 27.2509 172.568 35.4377 178.027C48.8839 186.993 63.786 193.681 77.9164 201.423C89.9015 207.99 102.65 215.885 116.385 218.056C132.172 220.551 147.802 210.94 160.762 203.256C173.57 195.663 186.088 187.225 197.654 177.829C210.94 167.035 222.859 154.792 235.244 143.016C242.853 135.781 250.609 128.681 257.685 120.909C261.428 116.797 265.416 112.721 267.294 107.425" fill="none" fill-rule="evenodd" opacity="1" stroke="#b3724d" stroke-linecap="round" stroke-linejoin="round" stroke-width="10"/>
<path d="M-6.76228 177.655C-3.73346 175.86 0.891209 180.09 3.25505 181.703C7.31501 184.475 11.563 187.073 15.2961 190.307C17.9316 192.59 20.2973 195.099 23.1011 197.19C30.7841 202.92 41.4924 206.272 49.9986 210.866C58.7467 215.59 67.6948 220.024 76.3951 224.838C80.3447 227.024 84.1562 229.667 88.2966 231.493C92.1269 233.183 96.2276 234.395 100.109 236C106.303 238.561 111.982 242.185 118.395 244.287C129.992 248.089 142.994 240.95 152.901 235.678C178.144 222.244 199.598 203.97 221.535 185.845C240.302 170.339 260.971 155.806 273.744 134.578" fill="none" fill-rule="evenodd" opacity="1" stroke="#b3724d" stroke-linecap="round" stroke-linejoin="round" stroke-width="10"/>
<path d="M20.663-18.2015C20.4794-19.3031 20.5025-21.9108 20.0615-23.0135C19.872-23.4871 18.6387-22.5306 17.455-21.61C16.7453-21.058 16.1521-20.3672 15.45-19.8055C12.2182-17.2201 8.98173-14.6776 5.82607-11.986C-3.89195-3.69713-14.0084 4.63838-22.4443 14.2793C-24.7777 16.9461-27.7188 20.6796-28.8602 24.1038C-29.045 24.658-29.4137 26.3921-28.4592 26.7103C-25.8678 27.5741-22.251 25.0212-20.2388 23.9033C-15.3819 21.205-10.5632 18.3385-5.80286 15.4823C14.3621 3.38332 34.8627-8.24898 54.7478-20.808C60.504-24.4435 66.3641-27.9028 72.1912-31.4344C73.0637-31.9632 73.9229-32.5135 74.7977-33.0384C75.1558-33.2533 78.2062-34.6977 78.2062-35.2439C78.2062-35.4688 78.1767-35.4297 76.2012-34.4419C75.2655-33.9741 74.3223-33.521 73.3942-33.0384C70.5277-31.5478 67.7488-29.8665 64.9733-28.2264C55.7145-22.7553 46.4298-17.3435 37.1039-11.986C21.1637-2.82889 5.14409 6.16215-10.8153 15.2818C-14.4096 17.3357-17.8976 19.5713-21.4418 21.6978C-21.7957 21.9101-24.4493 23.4977-24.4493 23.7028C-24.4493 23.9731-23.8273 23.9369-21.8428 23.1013C-19.1671 21.9747-16.5136 20.7859-13.8228 19.6928C-9.0992 17.7738-4.31628 15.987 0.412603 14.0788C17.336 7.25009 34.6323 1.58465 52.1413-3.56507C90.1371-14.7403 128.321-23.0647 167.629-28.0259C181.752-29.8084 196.083-31.6349 210.335-31.6349C210.469-31.6349 210.065-31.6611 209.934-31.6349C209.394-31.5268 208.873-31.3276 208.33-31.2339C206.933-30.993 205.519-30.8594 204.119-30.6324C199.452-29.8755 194.776-29.2858 190.085-28.6274C177.427-26.8509 164.77-24.8859 152.19-22.6125C107.216-14.4845 62.4439-3.74106 18.4575 8.66536C9.61733 11.1587 0.834246 13.5427-7.80785 16.6853C-9.13875 17.1693-10.4743 17.641-11.8178 18.0888C-12.0267 18.1584-13.6535 18.8284-13.6223 18.8908C-13.4275 19.2805-5.97503 19.3342-5.00087 19.2918C1.85602 18.9937 8.66836 17.0767 15.2495 15.2818C46.8088 6.67474 79.9821 2.47931 112.491-0.156591C147.671-3.00895 182.89-3.18176 218.154-3.56507C226.911-3.66025 235.666-3.78743 244.42-3.96607C245.758-3.99338 247.097-4.0454 248.43-4.16657C249.513-4.26507 251.151-3.79496 251.638-4.76807C251.791-5.07374 248.959-5.16906 248.63-5.16906C245.511-5.16906 242.229-3.65033 239.207-2.96358C231.585-1.23129 223.952-0.958586 216.149-0.958586C194.096-0.958586 172.045-0.370641 149.985-0.557588C103.174-0.954287 56.5337 1.41249 9.83605 4.65538C-0.322982 5.36087-10.4825 5.44944-20.6398 6.05888C-22.0471 6.14331-23.4507 6.29022-24.8503 6.45987C-25.4584 6.53358-31.2443 7.23997-31.6672 7.66287C-32.2382 8.23389-30.2679 8.61794-29.4617 8.66536C-26.0419 8.86653-22.444 8.79258-19.0358 8.46486C-10.7259 7.66583-2.48641 6.24904 5.82607 5.45738C28.9588 3.25426 52.1707 2.64533 75.3992 2.85089C121.28 3.25692 167.158 6.87581 212.941 9.46736C227.318 10.2811 241.694 11.3356 256.049 12.4748C261.525 12.9095 266.996 13.2768 272.49 13.2768C272.891 13.2768 273.312 13.4036 273.693 13.2768C273.893 13.21 273.286 13.1576 273.091 13.0763C272.484 12.8232 271.921 12.4505 271.287 12.2743C268.849 11.5972 266.338 11.2192 263.868 10.6704C256.075 8.93849 248.295 7.14401 240.41 5.85838C219.952 2.52285 199.35 1.77075 178.656 1.4474C132.259 0.722445 85.7938 5.56203 39.5099 8.06386C22.6123 8.97725 5.70135 9.77177-11.2163 10.2694C-15.7501 10.4027-20.3133 10.4699-24.8503 10.4699C-25.9196 10.4699-26.9972 10.6025-28.0582 10.4699C-28.2065 10.4513-28.4592 10.1199-28.4592 10.2694C-28.4592 11.3113-24.361 11.6522-24.2488 11.6728C-18.4994 12.7319-12.7991 13.8527-7.00586 14.6803C9.94086 17.1013 27.046 18.2506 44.1214 19.2918C105.477 23.033 166.765 27.4093 228.179 30.1187C240.406 30.6582 252.63 31.0614 264.871 30.9207C266.342 30.9038 267.82 30.8902 269.282 30.7202C270.701 30.5552 272.118 30.3107 273.492 29.9182C274.154 29.7291 275.634 28.8026 275.698 27.9133C275.809 26.36 274.348 25.7048 273.292 25.1063C271.913 24.3252 270.547 23.5016 269.081 22.9008C266.46 21.8267 263.752 20.9774 261.061 20.0938C243.187 14.2247 224.194 12.455 205.523 11.4723C166.957 9.44255 128.923 13.2082 90.8376 19.0913C69.486 22.3895 47.7697 26.0492 27.079 32.3242C16.5009 35.5323 6.97018 39.7669-3.19638 43.9532" fill="none" fill-rule="evenodd" opacity="1" stroke="#b3724d" stroke-linecap="round" stroke-linejoin="round" stroke-width="10"/>
<path d="M20.8635 55.9831C20.2416 55.9054 14.926 55.2586 14.648 54.9806C14.5135 54.846 16.0513 54.9806 16.0515 54.9806C17.0722 55.1507 17.9957 55.1811 19.059 55.1811C21.9793 55.1811 24.7824 54.7201 27.6805 54.3791C33.6771 53.6736 39.7083 53.076 45.7254 52.5746C49.2789 52.2785 52.3364 52.3091 55.7503 51.1711" fill="none" fill-rule="evenodd" opacity="1" stroke="#b3724d" stroke-linecap="round" stroke-linejoin="round" stroke-width="10"/>
<path d="M108.883 40.9457C112.854 40.2237 116.344 38.3644 120.11 36.9357C126.709 34.4329 133.451 32.1007 140.16 29.9182C149.294 26.9471 158.625 24.9932 167.829 22.2993C173.245 20.7142 178.516 18.6703 183.869 16.8858C188.85 15.2255 193.66 13.5488 198.506 11.4723C199.055 11.2369 199.888 11.2254 200.11 10.6704C200.26 10.2929 199.313 10.4883 198.907 10.4699C197.838 10.4213 196.765 10.3918 195.699 10.4699C194.02 10.5927 192.349 10.8155 190.686 11.0713C182.965 12.2592 173.929 13.7841 166.025 15.2818C140.258 20.164 115.284 27.1959 90.6371 36.1337C83.0088 38.9 75.5796 42.1222 67.9807 44.9557C66.2578 45.5981 64.504 46.1545 62.7678 46.7602C61.2905 47.2755 59.9213 48.3641 58.3568 48.3641C58.1158 48.3641 58.7517 48.0871 58.9583 47.9631C59.7544 47.4855 60.5483 47.0026 61.3643 46.5597C62.888 45.7325 64.4305 44.9399 65.9757 44.1537C68.2401 43.0016 70.499 41.8374 72.7927 40.7452C77.5171 38.4955 82.251 36.264 87.0281 34.1287C109.076 24.2741 131.815 16.681 155.398 11.4723C162.093 9.99366 168.92 9.17989 175.649 7.86337C175.919 7.81046 176.726 7.66287 176.451 7.66287C170.448 7.66287 163.382 9.06168 157.604 10.0689C148.913 11.5838 140.298 13.5431 131.739 15.6828C111.996 20.6186 93.0393 27.4437 73.9957 34.5297C62.2496 38.9004 50.5391 43.8155 38.5074 47.3617C36.4075 47.9806 34.2587 48.4555 32.0914 48.7651C31.8529 48.7992 31.3692 48.5727 31.4899 48.3641C33.0738 45.6284 34.1073 44.9493 36.5024 43.5522C42.1663 40.2482 47.7458 36.7883 53.5448 33.7277C75.6908 22.0395 100.41 15.4401 124.321 8.66536C127.457 7.77692 130.578 6.82917 133.744 6.05888C135.999 5.51054 138.241 4.65538 140.561 4.65538C140.984 4.65538 139.758 4.91811 139.358 5.05638C138.02 5.51962 136.699 6.03342 135.348 6.45987C132.888 7.23673 130.41 7.95664 127.93 8.66536C124.328 9.69436 120.7 10.6276 117.103 11.6728C108.029 14.3096 98.9709 17.0205 90.0356 20.0938C67.8108 27.738 46.2886 37.0757 24.4725 45.7577C20.8167 47.2125 17.1531 48.6524 13.445 49.9681C12.9997 50.1262 12.4046 50.4712 12.0415 50.1686C11.3058 49.5555 12.6792 48.3742 14.648 46.9607C16.4097 45.6958 18.2209 44.4987 20.0615 43.3517C22.8338 41.624 25.6575 39.9795 28.4825 38.3392C48.3625 26.7959 69.0555 17.0322 89.6346 6.86087C93.5749 4.91339 97.6691 3.17484 101.264 0.645405C101.845 0.236549 102.821-0.26506 102.667-0.958586C102.536-1.54937 101.463-1.23653 100.863-1.15909C99.3671-0.966127 97.9171-0.511157 96.4516-0.156591C93.7733 0.491391 91.1026 1.17069 88.4316 1.8484C80.9732 3.74084 73.6197 6.06735 66.3767 8.66536C47.5297 15.4257 29.6849 23.7292 12.0415 33.1262C9.34869 34.5605 6.66611 36.0157 4.02158 37.5372C1.78623 38.8233-0.401264 40.1911-2.59488 41.5472C-4.34612 42.6298-9.46801 46.0375-7.60735 45.1562C-6.58056 44.6698-5.61174 44.0689-4.59987 43.5522C-2.47035 42.4648-0.305769 41.4465 1.8161 40.3442C4.8408 38.7729 7.82302 37.121 10.8385 35.5322C14.0386 33.8462 17.2471 32.1762 20.4625 30.5197C28.0889 26.591 35.6851 22.6037 43.3194 18.6903C52.9731 13.7418 62.8101 9.14414 72.3917 4.05389C74.9324 2.70416 77.7759 1.6772 79.8102-0.35709C79.9438-0.490756 79.5982-0.758087 79.4092-0.758087C78.5301-0.758087 77.6659-0.523096 76.8027-0.35709C75.9271-0.188701 75.0508-0.0101418 74.1962 0.244407C71.9073 0.926207 69.6405 1.68149 67.3792 2.4499C62.7564 4.02077 58.1503 5.64074 53.5448 7.26187C35.6187 13.5719 18.4816 21.3978 1.4151 29.7177C-3.20596 31.9705-7.82114 34.2356-12.4193 36.5347C-13.5424 37.0963-14.7047 37.5771-15.8278 38.1387C-16.3097 38.3797-17.6624 39.264-17.2313 38.9407C-9.43937 33.0967 1.20503 28.5334 9.63555 24.1038C19.6969 18.8173 29.7067 13.4591 39.7104 8.06386C42.4474 6.58772 45.1825 5.10788 47.9308 3.65289C49.7273 2.70184 51.5675 1.83304 53.3443 0.845904C53.9631 0.502144 58.3568-2.15615 58.3568-2.36208C58.3568-2.84863 57.4064-2.13838 56.9533-1.96108C55.8664-1.53576 54.8129-1.02932 53.7453-0.557588C51.9391 0.240508 50.1469 1.07053 48.3318 1.8484C43.2421 4.02971 38.1199 6.14036 33.0939 8.46486C19.2589 14.8636 5.41674 22.337-7.20636 30.9207C-10.0913 32.8825-12.903 34.9568-15.6273 37.1362C-16.4525 37.7963-18.179 38.9955-17.4318 39.7427C-16.5228 40.6517-14.8529 39.5132-13.6223 39.1412C-11.6599 38.5479-9.73538 37.8346-7.80785 37.1362C1.82055 33.6477 11.3131 29.8005 20.8635 26.1088C45.8234 16.4604 70.8681 6.68313 96.6521-0.557588C101.85-2.01717 107.064-3.41635 112.291-4.76807C114.818-5.42154 117.362-6.00639 119.91-6.57256C121.573-6.94219 123.244-7.27894 124.922-7.57505C125.518-7.68022 126.16-7.98805 126.727-7.77555C126.985-7.67879 126.73-7.15976 126.526-6.97355C125.884-6.38473 125.109-5.94215 124.321-5.57006C122.694-4.80165 121.001-4.17677 119.308-3.56507C112.272-1.02187 105.16 1.30829 98.0556 3.65289C90.8101 6.04389 83.6012 8.54522 76.4017 11.0713C68.4222 13.8712 60.4546 16.7083 52.5423 19.6928C36.7592 25.6461 21.2084 32.22 5.42508 38.1387C5.08809 38.2651 6.08894 37.8596 6.42757 37.7377C7.76002 37.258 9.09647 36.7892 10.4375 36.3342C12.8392 35.5194 15.2524 34.7389 17.6555 33.9282C24.5342 31.6077 29.9525 29.6762 36.9034 27.5123C50.8729 23.1633 64.9491 19.5411 79.2087 16.2843C124.345 5.97533 170.738-1.08961 217.152-0.758087C222.5-0.719886 227.848-0.564634 233.192-0.35709C238.216-0.161982 243.87-0.115159 248.63 1.6479C249.169 1.84758 249.758 2.14568 250.034 2.65039C250.793 4.0417 247.93 4.97235 247.628 5.05638C244.799 5.84221 241.894 6.32783 239.006 6.86087C234.042 7.7774 228.982 8.06857 223.969 8.66536C207.889 10.5796 191.743 11.8443 175.649 13.6778C130.791 18.7882 85.2351 26.1454 41.9159 39.1412C32.3383 42.0145 22.6805 44.6544 13.2445 47.9631C9.67185 49.2159 6.1517 50.614 2.61809 51.9731C1.33213 52.4677 0.0409514 52.9609-1.19139 53.5771C-1.67333 53.8181-2.72556 53.8564-2.59488 54.3791C-2.46816 54.886 0.581228 53.9863 0.613102 53.9781C2.41852 53.5139 4.23269 53.0816 6.02657 52.5746C15.6456 49.8562 25.2383 47.1307 34.8984 44.5547C59.3876 38.0242 83.806 31.6208 108.883 27.7128C118.808 26.1659 129.486 24.8173 139.559 25.5073C141.158 25.6168 146.707 26.6229 144.17 28.3143" fill="none" fill-rule="evenodd" opacity="1" stroke="#4da7b3" stroke-linecap="round" stroke-linejoin="round" stroke-width="10"/>
<g opacity="1">
<path d="M15.8438 44.1562C14.7103 44.2152 13.5649 44.4165 12.4375 44.6875C9.74061 45.3471 8.09045 48.0531 8.75 50.75C9.19648 52.5756 10.6237 53.8688 12.3125 54.3438C9.73864 54.9711 7.16332 55.6183 4.65625 56.4688C0.468428 57.8893-3.9622 59.5235-7.71875 61.9062C-12.5215 64.9526-16.8836 69.9175-16.7188 75.75C-16.6952 76.5832-16.5632 77.4154-16.3438 78.2812C-16.105 79.2234-15.7534 80.1515-15.2812 81C-14.6217 82.1854-13.7632 83.2524-12.7812 84.1875C-10.1849 86.66-6.99042 88.3827-3.6875 89.7188C2.05771 92.0427 8.12447 93.0405 14.2812 93.5C22.4891 94.1126 30.719 93.6713 38.9375 93.7812C46.5785 93.8834 54.22 94.4924 61.8438 94.9688C64.7706 95.15 67.2875 92.9268 67.4688 90C67.65 87.0731 65.4269 84.5563 62.5 84.375C53.5339 83.8247 44.5512 83.1444 35.5625 83.1875C28.7309 83.2203 21.8837 83.4712 15.0625 82.9688C10.863 82.6594 6.67402 82.1158 2.65625 80.8125C0.11922 79.9896-2.46964 78.9783-4.625 77.375C-5.61109 76.6415-6.42175 76.0205-6.15625 74.9688C-5.87826 73.8675-4.96437 72.9212-4.15625 72.1875C-2.21454 70.4247 0.20935 69.385 2.59375 68.375C6.93052 66.538 11.471 65.0641 16.0938 64C15.2473 65.7588 14.5071 67.5712 14.5938 69.5625C14.7788 73.8139 18.2215 76.8755 22.125 77.9062C23.6608 78.3118 25.2329 78.4714 26.8125 78.5938C31.6753 78.9703 36.618 78.3579 41.3125 77.0625C44.2573 76.2499 47.2127 75.1244 49.7188 73.3438C51.0565 72.3932 52.2724 71.2747 53.1875 69.9062C53.9447 68.774 54.5001 67.4989 54.75 66.1562C54.9157 65.2661 54.9609 64.3356 54.8438 63.4375C53.9993 56.9633 46.5661 54.3457 41.125 53.125C36.7943 52.1534 32.379 51.9963 27.9688 52.1562C26.4414 48.4223 23.2458 45.3592 19.25 44.4375C18.1105 44.1747 16.9772 44.0973 15.8438 44.1562ZM32.0312 62.25C35.2025 62.3252 38.407 62.8019 41.4375 63.75C42.373 64.0427 43.2879 64.3907 44.1562 64.8438C44.0593 64.9227 43.9773 65.022 43.875 65.0938C43.3094 65.4908 42.6904 65.8072 42.0625 66.0938C40.046 67.0142 37.86 67.5925 35.6875 68C32.7695 68.5473 29.8631 68.7563 26.9062 68.5C26.3434 68.4512 25.7439 68.2864 25.1562 68.1562C25.167 68.1339 25.1763 68.1167 25.1875 68.0938C25.6358 67.176 26.1689 66.289 26.625 65.375C27.0945 64.4341 27.4192 63.4238 27.7812 62.4375C29.1967 62.3685 30.614 62.2164 32.0312 62.25Z" fill="#b3724d" stroke="none"/>
</g>
<g opacity="1">
<path d="M128.719-0.96875C125.668-0.868822 122.624-0.623369 119.594-0.15625C103.625 2.3053 88.7915 9.54294 75.4375 18.4062C67.7401 23.5151 60.6527 29.4631 54.4688 36.25C47.4268 38.9384 41.0882 43.1849 35.3438 48.0312C21.881 59.3892 11.5802 75.4233 11.25 93.4688C11.182 97.183 11.5456 100.89 12.2812 104.531C14.3072 114.558 19.2331 123.698 26.125 131.219C29.8258 135.257 34.0248 138.829 38.4375 142.062C47.2617 148.528 56.9235 153.99 67.5625 156.781C76.97 159.25 86.8759 159.008 96.5 158.375C103.202 157.934 109.82 157.039 116.344 155.406C142.592 148.837 166.372 132.394 181.75 110.125C189.224 99.3021 194.89 86.9939 197.344 74.0312C198.097 70.0535 198.464 66.0393 198.688 62C198.961 57.0509 198.952 52.0437 198.281 47.125C195.642 27.7779 181.035 11.7027 163.312 4.375C155.301 1.06263 146.486-0.339471 137.875-0.84375C134.818-1.02278 131.77-1.06868 128.719-0.96875ZM127.812 0.75C130.484 0.674221 133.139 0.738993 135.812 0.90625C143.963 1.41614 152.562 2.71814 160.188 5.75C175.094 11.6764 188.389 24.6469 192.625 40.375C194.668 47.9619 194.415 56.0103 193.531 63.75C192.401 73.6475 189.574 82.8955 185.062 91.7812C172.049 117.41 147.591 137.042 120.125 145.188C112.231 147.529 104.149 148.75 95.9375 149.188C87.318 149.647 78.4103 149.934 70 147.656C61.0357 145.229 52.9428 140.689 45.4062 135.344C34.8505 127.857 25.6947 118.438 21.875 105.781C20.8204 102.287 20.1798 98.6793 20.0312 95.0312C19.3453 78.1863 29.1001 63.2019 41.5312 52.6562C42.0669 52.2018 42.6738 51.8494 43.2188 51.4062C42.2182 52.9415 41.1222 54.4104 40.2812 56.0312C38.3576 59.739 36.9902 63.8032 35.9688 67.8438C34.7216 72.7772 33.9747 77.9373 34.0938 83.0625C33.8848 82.5813 33.5961 82.2015 33.4062 81.6875C33.2519 81.2695 33.0959 80.8852 32.9375 80.4688C32.7571 79.9943 32.0662 78.4002 32.375 77.75C32.0695 78.4051 32.577 79.9146 32.7812 80.5C32.8574 80.7184 32.9543 80.9381 33.0312 81.1562C33.1626 81.5286 33.2853 81.9054 33.4062 82.2812C33.5984 82.8782 33.63 83.0058 33.875 83.5938C33.9447 83.7611 34.049 83.9266 34.125 84.0938C34.2004 85.7056 34.3567 87.3161 34.625 88.9062C35.9798 96.935 39.9326 103.967 44.9375 110.281C48.8346 115.198 53.2066 119.584 58.3125 123.25C70.3423 131.888 85.002 136.512 99.625 138.094C105.367 138.715 111.34 139.046 117.094 138.375C122.15 137.786 127.075 136.407 131.875 134.75C133.872 134.061 135.826 133.209 137.781 132.406C135.824 133.21 133.848 133.937 131.844 134.625C127.05 136.271 122.11 137.669 117.062 138.25C111.319 138.911 105.386 138.536 99.6562 137.906C86.0513 136.411 72.4631 132.276 60.9688 124.719C54.8827 120.718 49.7056 115.751 45.2188 110.031C40.7961 104.394 37.2002 98.2097 35.625 91.1562C35.1891 89.2046 34.9127 87.238 34.7812 85.25C35.6089 86.7328 36.6205 88.1505 38 89.0938C39.0219 89.7925 40.212 90.2911 41.3438 90.7812C45.3797 92.5291 49.6142 93.3541 53.8125 93.3125C56.182 94.687 58.7284 95.6998 61.4688 96C69.3486 96.8633 76.4952 92.8093 82.5 88.125C84.3664 86.6691 86.1838 85.1266 87.875 83.4688C97.2136 74.3149 104.92 59.5811 99.4688 46.5C98.6969 44.648 97.6753 42.8831 96.4688 41.2812C95.286 39.7111 93.9273 38.2446 92.375 37.0312C89.0925 34.4654 85.0225 33.1083 80.9375 32.5312C74.4739 31.6182 67.8002 32.4316 61.5 34C59.8015 34.4228 58.1277 34.9712 56.4688 35.5312C62.3178 29.3986 68.9006 23.977 76.0312 19.3125C89.2855 10.6423 103.984 3.58139 119.812 1.40625C122.468 1.04127 125.141 0.825779 127.812 0.75ZM137.781 132.406C138.805 131.986 139.875 131.662 140.875 131.188C144.511 129.462 147.946 127.366 151.156 124.938C151.6 124.602 151.942 124.16 152.375 123.812C149.622 126.024 146.685 128.022 143.531 129.719C141.662 130.724 139.739 131.603 137.781 132.406ZM152.375 123.812C154.3 122.266 156.123 120.607 157.844 118.844C156.129 120.607 154.306 122.264 152.375 123.812ZM157.844 118.844C158.674 117.99 159.47 117.118 160.25 116.219C159.472 117.11 158.67 117.997 157.844 118.844ZM160.25 116.219C160.992 115.368 161.646 114.451 162.344 113.562C161.651 114.451 160.988 115.368 160.25 116.219ZM162.344 113.562C163.975 111.47 165.53 109.335 166.906 107.062C165.522 109.331 163.98 111.478 162.344 113.562ZM166.906 107.062C167.608 105.913 168.209 104.721 168.844 103.531C168.213 104.72 167.603 105.912 166.906 107.062ZM168.844 103.531C169.961 101.424 170.996 99.3012 171.906 97.0938C170.998 99.2936 169.962 101.437 168.844 103.531ZM171.906 97.0938C172.127 96.5589 172.448 96.0714 172.656 95.5312C172.896 94.9086 172.996 94.2525 173.219 93.625C172.803 94.79 172.378 95.9502 171.906 97.0938ZM173.219 93.625C173.669 92.3634 174.271 91.1571 174.656 89.875C175.188 88.1036 175.563 86.2991 175.969 84.5C175.266 87.6012 174.285 90.6162 173.219 93.625ZM141.344 21.8125C146.139 22.1126 150.898 23.1719 155.312 24.9688C150.897 23.1721 146.14 22.1118 141.344 21.8125ZM167.25 32.5625C168.975 34.1964 170.532 36.0345 171.906 38.0312C172.773 39.2914 173.548 40.5963 174.219 41.9375C173.546 40.596 172.806 39.2619 171.938 38C170.563 36.0031 168.975 34.1964 167.25 32.5625ZM174.219 41.9375C174.772 43.0441 175.224 44.1918 175.656 45.3438C175.223 44.1901 174.774 43.0462 174.219 41.9375ZM80.125 38.8125C82.6947 39.1047 85.311 39.7525 87.5625 41.0625C88.9492 41.8693 90.1012 42.9537 91.1562 44.1562C92.1793 45.3224 93.073 46.619 93.7812 48C98.7624 57.7118 93.4042 69.4762 87.0938 77.1875C85.8653 78.6887 84.5647 80.1335 83.1562 81.4688C81.3275 83.2024 79.3956 84.838 77.375 86.3438C72.9596 89.634 67.7949 92.2271 62.1875 91.9062C65.2809 90.8912 68.262 89.3945 70.9375 87.2188C73.4655 85.1629 75.615 82.6762 77.375 79.9375C80.154 75.6131 82.3763 70.2587 80.7812 65.0938C80.4068 63.8812 79.8979 62.7112 79.1875 61.6562C75.6686 56.431 68.6973 55.1662 63.0625 57.375C61.025 58.1737 59.1182 59.2875 57.3438 60.5625C56.0196 61.514 54.7582 62.5778 53.5938 63.7188C47.9654 69.2334 43.1778 78.0443 46.6875 85.9375C47.2256 87.1478 47.9323 88.2969 48.7812 89.3125C49.817 90.5516 51.1076 91.5243 52.4375 92.4375C48.1397 92.3874 43.7967 91.4144 39.7188 89.5C37.2661 88.3486 35.8768 86.482 34.75 84.3438C34.4853 78.4195 35.4062 72.42 37.0312 66.75C38.0432 63.2192 39.3079 59.6888 41.0312 56.4375C42.2458 54.1461 43.7646 52.0296 45.2188 49.875C49.1454 46.8726 53.2371 44.1301 57.875 42.3438C59.9262 41.5537 62.0294 40.8954 64.1562 40.3438C69.3268 39.0027 74.7859 38.2053 80.125 38.8125ZM175.969 46.125C176.921 48.8489 177.54 51.6811 177.938 54.5625C177.539 51.6799 176.923 48.8492 175.969 46.125ZM178 54.9375C178.238 56.7638 178.248 58.6186 178.312 60.4688C178.248 58.6157 178.239 56.7648 178 54.9375ZM178.312 60.4688C178.357 61.7528 178.494 63.0273 178.469 64.3125C178.494 63.026 178.357 61.7555 178.312 60.4688ZM178.469 64.3125C178.421 66.8065 178.212 69.2795 177.969 71.7188C178.214 69.2676 178.42 66.8108 178.469 64.3125ZM69.4062 58.7812C73.949 58.9703 78.0521 61.8421 79.125 66.7812C80.1284 71.4003 77.9257 76.0813 75.4688 79.875C73.9611 82.2029 72.1352 84.3459 70.0312 86.1562C66.9437 88.8129 63.4489 90.5788 59.7812 91.5625C57.7807 91.1039 55.8573 90.3431 54.1562 89.1875C52.9932 88.3974 51.9242 87.4585 51.0625 86.3438C48.2042 82.6459 48.5732 77.7895 50.3125 73.6875C52.356 68.8679 56.1028 64.7017 60.4375 61.8125C61.8035 60.902 63.2651 60.0598 64.8125 59.5C66.3311 58.9506 67.892 58.7182 69.4062 58.7812ZM177.875 72.9688C177.456 76.7647 176.892 80.5383 176.062 84.25C176.774 81.0465 177.349 77.8262 177.75 74.5625C177.814 74.0423 177.817 73.4936 177.875 72.9688ZM32.4375 77.5C32.3943 77.536 32.4045 77.6368 32.375 77.6875C32.464 77.5378 32.7282 77.5565 32.9688 77.5625C32.7938 77.5521 32.5332 77.4203 32.4375 77.5ZM32.9688 77.5625C33.1122 77.571 33.1995 77.5096 33.4062 77.5938C33.3283 77.562 33.2676 77.5209 33.1875 77.5C33.0717 77.4698 33.0588 77.5647 32.9688 77.5625ZM33.4062 77.5938C33.4937 77.6293 33.5729 77.6475 33.6562 77.6875C33.6027 77.6601 33.5548 77.619 33.5 77.5938C33.4529 77.572 33.4503 77.6117 33.4062 77.5938Z" fill="#b3724d" stroke="none"/>
</g>
<g opacity="1">
<path d="M152.438 6.75C144.203 7.0461 136.023 7.88561 127.969 9.65625C119.342 11.5526 110.93 14.4091 102.75 17.9062C95.2558 18.9594 87.8333 20.5287 80.5 22.4062C77.403 21.7198 73.9147 21.9505 71.0625 22.4375C70.3551 22.5583 69.638 22.7192 68.9375 22.875C68.1655 23.0466 66.9849 23.3681 66.2188 23.5938C64.9454 23.9688 63.6872 24.3966 62.4375 24.8438C50.1722 29.2321 38.634 35.5071 27.6562 42.4688C19.7229 47.4997 11.9729 52.8584 4.53125 58.5938C4.28479 58.7837 4.05825 58.9967 3.8125 59.1875C-1.04051 62.516-5.83042 65.92-10.4375 69.5625C-12.3819 71.0998-14.319 72.6745-15.9375 74.5625C-16.8221 75.5944-17.5947 76.6917-18.0938 77.9688C-18.5396 79.1097-18.7466 80.3729-18.625 81.5938C-18.5364 82.4838-18.2464 83.3598-17.8438 84.1562C-15.3698 89.0505-9.32856 89.4348-4.5625 89.8438C-3.284 89.9534-2.00174 90.0083-0.71875 90.0312C0.539821 90.0538 1.80595 90.0748 3.0625 90C8.1719 89.6957 13.145 88.5182 18.1562 87.5625C21.9521 86.8386 25.8011 86.3377 29.625 85.7188C29.4962 86.289 29.3063 86.864 29.2188 87.4375C28.7319 90.6259 28.9492 94.1592 29.875 97.25C30.7247 100.087 32.4859 102.609 34.5625 104.688C42.7284 112.862 54.9456 113.387 65.6562 111.219C72.255 109.883 78.5652 107.487 84.75 104.875C87.8223 103.577 90.8343 102.123 93.8438 100.688C102.627 105.126 113.96 104.124 123.375 101.906C130.349 100.263 137.018 97.7825 143.5 94.75C148.758 92.29 153.966 89.6438 159 86.75C162.962 84.4725 166.714 81.9424 170.469 79.3438C172.914 77.6514 175.379 75.9834 177.75 74.1875C179.828 72.6138 181.872 70.9861 183.844 69.2812C187.653 65.9885 191.308 62.0421 194.531 57.8125C195.432 57.8271 196.325 57.7138 197.156 57.2188C199.343 55.9165 200.095 53.216 199.125 50.9375C201.64 46.0214 203.138 40.6777 202.688 35C202.569 33.5093 202.309 32.0423 201.938 30.5938C201.329 28.2183 200.42 25.8722 199.188 23.75C196.288 18.7598 191.335 15.1868 186.25 12.6562C183.261 11.1689 180.184 9.88204 176.969 8.96875C169.021 6.71093 160.644 6.4549 152.438 6.75ZM152.812 16.875C159.954 16.616 167.296 16.7564 174.219 18.7188C176.833 19.4597 179.32 20.5112 181.75 21.7188C184.906 23.287 188.18 25.3813 190.156 28.375C190.92 29.5309 191.457 30.8723 191.875 32.1875C192.519 34.2132 192.593 36.2399 192.438 38.25C188.403 30.6138 183.831 23.3052 175.656 19.7812C173.954 19.0475 172.169 18.5122 170.344 18.1875C163.92 17.0448 157.369 17.8824 151.031 19.4375C150.08 19.0886 149.188 18.5966 148.219 18.3125C146.954 17.9421 145.635 17.7335 144.344 17.4688C147.155 17.2105 149.982 16.9776 152.812 16.875ZM124.219 26.4688C126.49 26.4056 128.794 26.4558 131.094 26.5C116.589 32.881 102.988 41.6408 92.875 53.9062C85.2539 63.1492 77.9737 76.5345 82.875 88.6562C83.5427 90.3076 84.514 91.8137 85.5312 93.2812C81.4558 95.1324 77.3612 96.8829 73.1562 98.4062C65.3218 101.244 55.8252 103.573 47.625 100.969C45.0602 100.154 42.6749 98.6303 40.9688 96.5312C40.4403 95.8811 39.9289 95.1561 39.6875 94.3438C38.6397 90.8182 39.6555 87.2454 41 83.875C43.6199 83.4794 46.2303 82.9953 48.8438 82.5938C51.7422 82.1482 53.7268 79.4297 53.2812 76.5312C52.8537 73.7503 50.3256 71.8844 47.5625 72.125C51.8146 66.3637 56.9852 61.1271 62.125 56.375C74.5924 44.848 89.0336 35.0778 104.656 28.0938C111.156 27.2086 117.682 26.6505 124.219 26.4688ZM166.062 27.9688C167.123 28.037 168.19 28.0164 169.219 28.25C174.781 29.5132 178.417 34.0439 181.25 38.6875C183.562 42.4772 185.516 46.4695 187.562 50.4062C185.798 52.9247 183.854 55.3174 181.688 57.5C175.695 63.5378 168.705 68.3596 161.719 73.1562C158.675 75.2462 155.507 77.1414 152.281 78.9375C148.011 81.315 143.645 83.5211 139.219 85.5938C133.927 88.072 128.537 90.1896 122.875 91.6562C121.065 92.125 119.246 92.5407 117.406 92.875C114.5 93.4033 111.153 93.6522 107.844 93.5938C108.549 93.2131 109.265 92.853 109.969 92.4688C124.389 84.5932 138.854 76.4957 151.75 66.25C159.905 59.7707 169.101 51.9143 170.125 40.8125C170.373 38.1278 170.32 35.0635 169.188 32.5625C168.423 30.8749 167.266 29.3662 166.062 27.9688ZM150.031 30.1875C150.843 30.5344 151.703 30.7557 152.5 31.125C154.063 31.8492 155.558 32.6635 157.062 33.5C157.166 33.5958 157.275 33.7128 157.375 33.8125C157.658 34.095 157.893 34.3527 158.156 34.6562C158.711 35.2969 159.192 35.9922 159.625 36.7188C159.797 38.315 159.904 39.8295 159.531 41.4375C158.613 45.3985 155.847 48.6465 153.031 51.4375C149.495 54.9429 145.55 58.0587 141.562 61.0312C131.982 68.1741 121.644 74.1404 111.25 80C105.837 83.0516 100.312 85.9877 94.75 88.8125C94.2412 88.25 93.7021 87.7167 93.2812 87.0312C92.7139 86.107 92.2464 85.0937 91.9062 84.0625C90.8486 80.8555 91.4308 77.3148 92.4688 74.1875C94.4017 68.3633 98.0353 63.1896 102.062 58.625C113.589 45.5604 129.525 37.0363 145.812 31.4062C147.186 30.9314 148.629 30.6058 150.031 30.1875ZM38.8438 66.8438C37.1425 69.1859 35.5876 71.6115 34.2188 74.1562C30.4667 74.7532 26.7181 75.3215 22.9688 75.9375C19.6145 76.4886 16.2716 77.1183 12.9375 77.7812C11.5436 78.0584 10.1195 78.1854 8.71875 78.4375C9.20065 78.1931 9.67689 77.9688 10.1562 77.7188C13.5844 75.9304 16.9841 74.0336 20.3438 72.125C22.1332 72.2595 23.9048 72.2487 25.4375 71.9375C27.0537 71.6093 28.5757 71.019 30.125 70.4688C33.0953 69.4138 35.9744 68.1103 38.8438 66.8438Z" fill="#4da7b3" stroke="none"/>
</g>
<g opacity="1">
<path d="M138.531 44.25C132.866 44.2348 127.075 45.5413 121.844 47.2812C114.648 49.6743 107.783 53.0413 101.219 56.8125C89.3836 63.6115 78.5298 72.1727 69.3125 82.25C65.6413 86.2637 62.2424 90.5579 59.0625 94.9688C51.7735 105.079 45.9093 119.393 52.7812 131.219C53.6374 132.692 54.6874 134.061 55.8438 135.312C57.6736 137.293 59.7782 139.038 62.0625 140.469C75.1355 148.654 91.5624 144.94 105.031 139.844C110.871 137.634 116.585 135.067 122.125 132.188C126.798 129.759 131.352 127.069 135.719 124.125C138.766 122.07 141.716 119.855 144.562 117.531C150.197 112.932 155.387 107.826 159.875 102.094C162.183 99.1455 164.374 96.0478 166.156 92.75C169.194 87.1298 171.042 80.8513 171.469 74.4688C170.987 80.819 169.022 87.0513 165.906 92.5938C163.829 96.2878 161.248 99.7195 158.5 102.938C153.811 108.429 148.405 113.285 142.594 117.562C139.669 119.715 136.623 121.712 133.5 123.562C129.484 125.943 125.34 128.092 121.094 130.031C115.978 132.367 110.697 134.375 105.344 136.094C92.8671 140.098 76.9272 143.61 65.25 135.594C63.9547 134.705 62.7316 133.709 61.625 132.594C60.3142 131.273 59.1601 129.801 58.2812 128.156C53.4512 119.116 58.6054 108.006 63.9375 100.469C64.8394 99.1938 65.7964 97.9553 66.75 96.7188C72.097 89.7848 78.0572 83.2932 84.6875 77.5625C90.9464 72.1528 97.7846 67.3497 104.906 63.1562C111.025 59.5535 117.397 56.265 124.094 53.875C132.38 50.9179 143.129 48.6285 150.969 53.9688C152.501 55.0122 153.789 56.2966 154.969 57.7188C160.04 63.8324 156.809 73.0261 153.25 79.0312C152.51 80.2804 151.713 81.5023 150.875 82.6875C146.017 89.5579 139.994 95.7657 133.188 100.719C129.18 103.635 124.81 106.147 120.094 107.719C113.556 109.898 105.805 110.171 99.8125 106.281C92.4298 101.489 93.409 91.9467 95.5 84.5312C95.8804 83.1824 96.3183 81.8539 96.7812 80.5312C97.3262 78.9744 97.9264 77.4407 98.5312 75.9062C99.1767 74.2689 99.8949 72.6716 100.531 71.0312C101.101 69.5625 101.495 68.0022 102.281 66.625C102.784 65.7433 103.57 64.5994 104.625 64.3438C106.001 64.0103 107.519 64.8277 108.875 65C108.978 65.0112 109.051 64.9155 109.062 64.8125C109.074 64.7095 109.009 64.6362 108.906 64.625C107.51 64.5005 105.962 63.7594 104.562 64.1562C103.262 64.5249 102.413 66.0463 101.906 67.1875C101.355 68.4303 100.998 69.7367 100.5 71C99.8548 72.6368 99.1243 74.2418 98.4688 75.875C97.8538 77.407 97.2183 78.9477 96.6562 80.5C93.9098 88.0862 91.0282 99.007 97.7188 105.438C98.4383 106.129 99.2443 106.727 100.094 107.25C107.029 111.522 115.713 110.893 123.094 108.25C130.701 105.527 137.588 100.83 143.656 95.5625C148.522 91.339 153.074 86.5805 156.719 81.25C161.29 74.5641 164.519 65.9024 161.469 57.9375C160.792 56.1701 159.722 54.5531 158.531 53.0938C157.327 51.6178 155.963 50.2668 154.438 49.125C149.722 45.5953 144.197 44.2652 138.531 44.25ZM167.844 55.7812C168.622 57.3144 169.266 58.8872 169.812 60.5C169.259 58.8918 168.624 57.3067 167.844 55.7812ZM169.938 60.9375C170.349 62.2102 170.65 63.5187 170.906 64.8438C170.85 64.5545 170.876 64.2566 170.812 63.9688C170.583 62.9337 170.265 61.935 169.938 60.9375ZM170.906 64.8438C171.237 66.5425 171.48 68.2403 171.562 69.9688C171.498 68.5261 171.362 67.08 171.125 65.6562C171.079 65.3769 170.96 65.1207 170.906 64.8438ZM171.562 70.0312C171.618 71.3172 171.577 72.5909 171.5 73.875C171.553 72.8568 171.682 71.8337 171.656 70.8125C171.65 70.549 171.575 70.2945 171.562 70.0312Z" fill="#b3724d" stroke="none"/>
</g>
<g opacity="1">
<path d="M75.0312 62.0938C73.4483 62.3569 71.8251 63.0804 70.5312 63.6562C70.1097 63.8439 69.6953 64.0464 69.2812 64.25C68.4612 64.6532 67.7762 65.0554 66.9688 65.5C66.1306 65.9615 65.2721 66.4072 64.4375 66.875C63.1772 67.5814 61.9333 68.2994 60.6875 69.0312C56.3798 71.5618 52.2211 74.3437 48.0938 77.1562C35.9177 85.4537 24.4891 94.6914 13.7812 104.812C12.3625 106.154 10.9498 107.501 9.5625 108.875C8.64644 109.782 7.722 110.68 6.8125 111.594C5.89843 112.512 4.97092 113.451 4.0625 114.375C3.60508 114.84 3.17123 115.311 2.71875 115.781C2.41173 116.1 2.04647 116.327 1.71875 116.625C0.788993 117.47 0.158622 118.572 0.46875 119.844C0.516933 120.041 0.581905 120.451 0.75 120.594C1.22374 120.997 1.67756 121.456 2.1875 121.812C2.39865 121.96 3.13862 122.023 3.34375 122.031C4.22809 122.066 5.16213 121.819 5.96875 121.469C9.16767 120.08 11.9311 117.438 14.5625 115.219C14.7208 115.085 14.8734 114.947 15.0312 114.812C15.05 114.851 15.0404 114.9 15.0625 114.938C15.0705 114.951 15.086 114.949 15.0938 114.969C15.0677 114.988 15.4095 115.293 15.4375 115.312C15.7198 115.506 16.0401 115.577 16.375 115.562C17.5154 115.515 18.049 114.62 18.75 113.875C19.0571 113.549 19.4578 113.305 19.8125 113.031C22.6984 110.803 25.5117 108.49 28.3125 106.156C39.4594 96.8673 50.9307 88.0244 62.875 79.7812C66.0418 77.5958 69.1982 75.3798 72.3438 73.1562C75.0345 71.5232 77.7252 69.9092 80.4375 68.3125C83.2906 66.6329 86.1735 65.0149 89.125 63.5625C85.8475 65.1498 82.6459 66.8981 79.4688 68.7188C78.0371 69.5392 76.6181 70.3653 75.1875 71.1875C75.4632 70.9822 75.7575 70.8016 76.0312 70.5938C77.3085 69.6243 79.1184 68.7612 79.8125 67.25C80.2064 66.3925 80.2987 65.4321 80 64.5312C79.9745 64.4544 79.625 63.6948 79.5312 63.625C79.5492 63.6124 79.5181 63.5502 79.5 63.5625C79.4948 63.4904 79.3787 63.3862 79.3125 63.3125C78.1458 62.0154 76.6142 61.8306 75.0312 62.0938ZM63.75 69.5625C63.5911 69.6529 63.4315 69.7372 63.2812 69.8438C63.4368 69.7453 63.5858 69.6433 63.75 69.5625Z" fill="#b3724d" stroke="none"/>
</g>
<path d="M101.665 82.2485C99.7609 79.393 98.848 74.5333 95.4491 73.226C92.455 72.0744 89.0924 77.4384 87.8301 79.0405C86.854 80.2794 85.8907 81.5326 85.0231 82.85C79.7551 90.8496 71.5821 106.892 75.8002 116.734C78.5815 123.224 87.7182 124.401 93.8451 123.952C107.54 122.95 123.53 110.701 130.336 99.0904C134.047 92.7603 134.271 84.5332 128.331 79.4415C126.757 78.0922 119.108 75.2119 119.108 74.2285" fill="none" fill-rule="evenodd" opacity="1" stroke="#b3724d" stroke-linecap="round" stroke-linejoin="round" stroke-width="12.2246"/>
<path d="M-0.360153 97.3117C-1.44889 100.53 2.12995 105.898 3.8092 108.442C9.041 116.365 15.4864 121.807 22.6182 127.896C29.1345 133.46 38.3876 135.809 45.558 140.417C52.6481 144.973 59.4031 150.038 66.5895 154.474C70.8422 157.099 75.488 159.149 79.8078 161.722C83.6592 164.017 87.2402 166.661 91.0054 169.08C95.6294 172.052 101.097 173.52 106.37 174.675C112.501 176.017 117.469 180.699 123.994 180.041C126.633 179.775 129.255 178.308 131.554 177.045C145.914 169.15 156.51 154.697 167.654 143.039C174.684 135.683 181.739 128.25 188.964 121.089C203.166 107.012 219.066 94.5524 234.534 81.9554C243.834 74.3822 253.045 66.9992 263.328 60.7516C263.619 60.5749 270.148 56.6037 270.471 57.8124C270.68 58.592 265.056 64.7148 264.556 65.3324C258.839 72.3887 252.531 77.4485 245.049 82.5368C240.136 85.8779 235.815 90.0045 231.45 94.0038C225.169 99.7596 218.124 104.772 211.651 110.316C206.41 114.803 201.693 119.843 196.555 124.45C188.4 131.762 179.916 138.626 170.973 144.955C162.302 151.09 153.352 156.134 145.637 163.559C143.021 166.077 140.395 168.632 137.878 171.25C137.175 171.98 136.398 172.752 135.729 173.498C135.645 173.591 135.49 173.814 135.608 173.854C136.416 174.127 141.361 169.099 141.692 168.771C145.709 164.789 149.877 161.006 154.398 157.597C175.401 141.756 197.458 127.328 220.249 114.216C236.756 104.719 251.82 93.857 265.675 80.7865C268.664 77.9668 271.298 74.8583 274.211 71.9709C274.921 71.2671 276.629 70.2845 275.293 69.3612C273.743 68.2907 266.679 70.6442 264.767 71.1565C255.06 73.7577 245.599 76.8188 236.322 80.7749C233.834 81.8359 231.353 82.9139 228.88 84.0099C217.438 89.0816 206.323 94.7406 194.705 99.426C184.179 103.671 173.444 107.367 162.862 111.466C145.739 118.098 128.515 125.202 110.67 129.713C100.328 132.328 89.6924 134.434 79.0916 135.693C77.7367 135.854 73.3098 136.721 72.1394 135.722C71.5658 135.232 73.4084 134.89 74.1052 134.601C76.0322 133.803 77.9482 132.978 79.8796 132.191C84.1643 130.444 88.506 128.838 92.855 127.257C104.938 122.866 118.045 119.728 130.977 119.524C133.57 119.483 138.259 119.542 140.895 120.697C153.352 126.155 139.34 139.828 133.542 144.194C132.25 145.167 130.937 146.109 129.607 147.029C128.005 148.138 125.698 149.703 123.828 150.628C121.657 151.701 118.587 153.204 116.035 152.554C113.552 151.922 111.809 150.303 109.693 149.02C107.137 147.471 104.609 146.419 101.746 145.539C97.9848 144.382 94.1613 143.788 90.3494 142.874C81.9966 140.869 73.3024 137.188 66.0929 132.486C58.7961 127.728 52.6483 120.333 46.7447 114.04C41.5106 108.46 35.6268 103.167 32.6237 95.9727C31.8565 94.135 31.7295 91.7945 31.5219 89.8476C31.4774 89.4298 31.3492 88.5991 31.3492 88.5991C31.3492 88.5991 31.0125 91.5282 30.8543 92.9939C30.5492 95.8207 30.6001 96.0622 31.0635 99.4122C32.6264 110.711 43.7328 106.191 50.5379 102.826C53.2798 101.47 55.9569 99.9801 58.5792 98.4054C73.8112 89.2587 88.1618 79.0784 97.1789 63.4599C100.371 57.9301 101.196 51.6541 96.1822 47.0557C93.7893 44.8608 89.1854 43.916 86.2723 44.1001C80.9627 44.4357 75.9285 46.1 71.2788 48.5494C68.4898 50.0185 65.755 51.6004 63.1171 53.3261C49.8435 62.0096 29.2883 88.5342 49.1166 101.75C58.385 107.928 69.3393 105.394 78.8285 101.288C95.2239 94.1933 105.469 79.8806 107.168 62.0782C107.92 54.1917 107.007 45.3171 102.876 38.4102C102.346 37.5252 100.568 36.3248 99.6771 36.138C96.8384 35.5426 94.1673 37.5452 91.9997 38.8966C87.1111 41.9444 82.5574 47.4029 79.6993 52.3896C70.3058 68.7792 63.5291 88.7025 72.6247 106.727C73.9919 109.437 77.1048 113.246 79.9561 114.96C90.293 121.17 102.077 118.5 112.464 113.856C136.605 103.062 148.639 80.0792 162.204 58.8764C165.684 53.4381 169.135 47.9816 172.675 42.5825C176.962 36.0445 181.506 29.6341 186.13 23.3309C186.915 22.2607 187.839 21.2935 188.58 20.1925C189.214 19.2515 190.261 18.2175 190.02 17.1091C189.846 16.3111 188.347 17.2829 187.641 17.6927C184.158 19.7133 180.899 22.4311 177.686 24.8383C170.06 30.5513 162.506 36.405 155.088 42.3855C140.169 54.4126 125.742 67.096 111.899 80.341C107.694 84.3652 103.349 88.36 100.018 93.1823C99.8627 93.407 98.6355 96.0674 98.7534 96.9201C98.8763 97.8084 100.651 97.0808 101.429 96.6349C102.68 95.918 103.761 94.9377 104.886 94.0358C107.3 92.1006 109.66 90.0987 112.043 88.1256C119.676 81.8056 127.258 75.5342 135.18 69.5707C152.639 56.4283 169.84 42.9218 187.585 30.1706C192.943 26.3205 198.354 22.5841 203.738 18.7744C204.976 17.8986 206.064 16.5864 207.552 16.2957C207.86 16.2357 207.44 16.936 207.251 17.1857C206.829 17.744 206.247 18.1625 205.759 18.6645C204.118 20.3517 202.503 22.0635 200.864 23.7529C195.095 29.7009 191.358 33.4023 185.582 39.6094C174.077 51.9735 162.759 65.2559 153.971 79.6961C151.861 83.1644 146.366 92.6671 149.916 96.3749C151.34 97.8621 154.771 96.6634 155.918 96.2233C157.82 95.494 159.654 94.57 161.397 93.5144C163.657 92.1447 165.764 90.5335 167.894 88.9679C171.309 86.4574 174.706 83.92 178.029 81.2884C185.527 75.3501 192.614 68.8623 199.682 62.4298C210.512 52.5736 221.287 42.8293 230.895 31.7296C232.334 30.0668 233.708 28.3448 235.018 26.5785C236.989 23.921 241.265 18.8389 241.664 15.14C241.737 14.4664 240.522 15.89 240.054 16.3807C239.107 17.3755 238.184 18.3926 237.248 19.3986C235.378 21.4106 233.486 23.4031 231.636 25.4345C228.707 28.6514 225.833 31.9186 222.977 35.2002C212.627 47.0902 201.763 58.5825 191.565 70.5936C190.398 71.9683 189.207 73.3293 188.159 74.7973C187.432 75.8169 186.087 77.5551 186.714 79.069C187.143 80.1042 189.033 79.0923 190.044 78.6085C192.404 77.4786 194.641 76.1071 196.894 74.7766C202.734 71.3279 206.226 68.91 211.911 64.9797C224.556 56.2393 237.227 47.0489 248.639 36.7403C250.657 34.9175 252.652 33.0696 254.665 31.241C256.149 29.8929 258.487 28.1511 259.144 26.2103C259.216 25.9964 258.668 26.2478 258.489 26.3856C257.579 27.0875 256.764 27.9061 255.924 28.6916C254.635 29.8973 253.351 31.1088 252.105 32.3586C248.13 36.3459 246.316 38.142 243.09 42.004C236.595 49.7797 230.675 58.1924 223.792 65.6267C221.813 67.7645 221.074 68.4879 219.374 70.4794C219.245 70.6301 219.193 70.8654 219.015 70.9532C218.903 71.0087 219.095 70.7159 219.136 70.5972C219.356 69.9446 219.498 69.2595 219.798 68.6393C220.162 67.8871 220.635 67.1906 221.115 66.5061C222.171 64.9972 223.276 63.522 224.402 62.0642C228.71 56.4886 233.077 51.1768 237.014 45.3045C243.913 35.0157 250.232 24.0007 254.511 12.3449C256.106 8.00207 258.135 3.39631 256.949-1.31074C255.469-7.18612 248.559-5.2085 244.777-3.44449C242.689-2.47017 240.682-1.32358 238.702-0.143985C236.29 1.29288 233.955 2.85573 231.611 4.39982C230.041 5.43331 228.508 6.51988 226.962 7.58783C224.467 9.31132 221.908 10.9423 219.334 12.5452C218.462 13.0882 217.612 13.6669 216.771 14.257C216.657 14.3374 216.334 14.5719 216.473 14.5527C218.313 14.2982 221.643 12.2472 223.2 11.6711C229.781 9.23673 236.548 7.35503 243.136 4.92637C244.82 4.30547 246.733 3.9851 246.892 2.0315" fill="none" fill-rule="evenodd" opacity="1" stroke="#b3724d" stroke-linecap="round" stroke-linejoin="round" stroke-width="32.18"/>
<path d="M-0.558145 162.693C-4.54603 160.264-0.688536 165.18-0.0776 166.02C2.39371 169.416 6.17076 171.366 8.77561 174.446C13.0488 179.498 17.0905 180.438 22.9225 183.061C27.4885 185.114 32.1388 187.151 36.5426 189.508C44.491 193.763 51.8313 199.058 59.7568 203.382C68.3239 208.055 77.3982 211.762 85.9131 216.54C91.663 219.766 96.7387 223.991 102.637 226.989C108.545 229.991 114.852 231.797 121.204 233.546C123.8 234.261 127.913 235.769 130.682 235.096" fill="none" fill-rule="evenodd" opacity="1" stroke="#b3724d" stroke-linecap="round" stroke-linejoin="round" stroke-width="22.7363"/>
<path d="M124.042 226.007C123.817 226.007 123.142 226.007 123.367 226.007C125.726 226.007 128.133 224.594 130.25 223.712C134.548 221.921 138.652 219.745 142.936 217.909C156.264 212.197 169.86 206.379 181.805 198.07C185.443 195.539 188.848 192.67 192.467 190.107C193.745 189.201 195.029 188.084 196.381 187.273C196.745 187.054 197.101 186.823 197.461 186.598C197.581 186.523 197.929 186.336 197.865 186.463C197.667 186.86 196.322 187.789 196.111 187.948" fill="none" fill-rule="evenodd" opacity="1" stroke="#b3724d" stroke-linecap="round" stroke-linejoin="round" stroke-width="22.7363"/>
<path d="M134.839 235.724C136.111 233.179 142.95 229.819 145.366 228.301C154.9 222.308 164.642 216.512 173.977 210.216C183.448 203.829 192.873 197.276 201.779 190.107C219.178 176.103 235.127 160.39 251.175 144.895C256.563 139.693 262.193 134.596 268.045 129.914C269.022 129.133 270.032 128.394 271.014 127.62C272.567 126.397 275.903 124.861 276.818 123.031" fill="none" fill-rule="evenodd" opacity="1" stroke="#b3724d" stroke-linecap="round" stroke-linejoin="round" stroke-width="22.7363"/>
<path d="M-13.0336 127.703C-13.4549 130.265-8.10365 133.027-6.52538 134.355C0.200822 140.014 6.74408 145.745 13.7806 151.023C22.3641 157.461 31.4525 163.518 41.0503 168.355C50.7513 173.243 61.2034 176.893 70.6698 182.224C77.9691 186.334 84.5466 191.76 91.9368 195.682C98.6404 199.238 105.783 203.357 113.164 205.284C114.914 205.74 117.538 206.677 119.254 205.996" fill="none" fill-rule="evenodd" opacity="1" stroke="#ffffff" stroke-linecap="round" stroke-linejoin="round" stroke-width="36.0917"/>
<path d="M114.211 210.682C111.548 210.682 119.253 209.213 119.648 209.129C124.374 208.116 129.066 207.235 133.434 205.051C146.483 198.527 158.076 189.985 169.937 181.557C194.943 163.789 220.721 147.467 246.633 131.074C257.846 123.979 268.768 116.398 280.224 109.715" fill="none" fill-rule="evenodd" opacity="1" stroke="#ffffff" stroke-linecap="round" stroke-linejoin="round" stroke-width="36.0917"/>
<path d="M194.911 19.2754C194.533 18.6827 194.276 17.9941 193.779 17.4974C192.267 15.9849 191.034 13.6797 188.93 13.2948C181.825 11.9951 174.49 12.4303 167.27 12.6482C160.186 12.8621 153.144 13.8424 146.096 14.5879C112.688 18.1215 79.7002 28.0047 49.1128 41.7431C43.6393 44.2016 38.182 46.7798 33.1106 49.9867C30.9766 51.3361 28.4208 52.5775 27.2916 54.8358C26.8067 55.8057 29.117 56.2675 30.2011 56.2906C31.8745 56.3262 33.5586 56.2284 35.2119 55.9673C37.6652 55.5799 40.0747 54.9477 42.4856 54.3509C53.462 51.634 64.3744 48.5417 75.2982 45.6225C101.612 38.5903 128.08 32.2103 154.824 27.0341C166.02 24.8671 177.25 22.9005 188.445 20.7302C191.986 20.0437 195.57 19.3998 198.951 18.144C199.594 17.9052 201.02 16.9959 200.406 16.6892C195.904 14.4382 188.795 15.1552 184.081 15.3961C174.138 15.9041 164.226 16.967 154.339 18.144C122.944 21.8815 91.5757 28.7074 61.2357 37.5405C47.0068 41.6831 33.0259 46.4638 19.3713 52.2496C15.8881 53.7256 12.4728 55.3835 9.18813 57.2604C8.49268 57.6578 6.81187 58.7852 7.57174 59.0384C12.0895 60.5444 19.2428 57.4249 23.2507 56.2906C32.0672 53.7953 40.8927 51.3278 49.7593 49.0169C85.5804 39.6805 121.728 31.9826 158.38 26.7108C172.043 24.7456 185.703 23.2583 199.436 21.8616C205.139 21.2817 210.855 20.8465 216.57 20.4069C218.19 20.2823 219.8 20.0498 221.419 19.922C221.849 19.888 222.283 19.955 222.712 19.922C222.986 19.9009 223.787 19.827 223.521 19.7603C220.227 18.937 216.725 19.7085 213.337 19.922C209.184 20.1836 205.037 20.5287 200.891 20.8918C194.442 21.4567 186.906 22.3101 180.525 23.1547C149.042 27.3216 117.874 33.7827 87.2594 42.2281C71.014 46.7096 54.9152 51.7703 38.9296 57.0988C33.73 58.832 28.5084 60.9802 23.089 61.9479C22.1858 62.1092 21.2234 62.3616 20.3412 62.1096C19.0764 61.7482 21.7556 59.7138 21.7959 59.685C23.5953 58.3997 25.5955 57.3357 27.6149 56.4522C27.8666 56.3421 28.4231 56.2906 28.4231 56.2906C28.4231 56.2906 25.0752 57.125 23.4123 57.5837C20.8829 58.2815 21.771 58.2226 19.2097 58.7152C13.7581 59.7635 8.24357 60.2551 2.88423 61.7863C-0.797204 62.8381-4.29575 64.0577-8.10717 64.5341C-8.68664 64.6066-10.0679 65.0683-10.5317 64.3725C-11.7636 62.5247-6.38179 57.0528-5.52096 56.129C-4.04029 54.5399-2.48461 53.0222-0.995087 51.4414C0.155732 50.2202 1.24814 48.9447 2.39932 47.7238C12.4131 37.1031 23.5737 26.6889 31.6558 14.4263C33.1518 12.1566 36.7456 6.98718 35.2119 3.91978C34.9211 3.33829 33.7132 2.50871 32.949 2.46504C31.389 2.3759 29.8042 2.2171 28.2614 2.46504C24.8118 3.01944 21.5968 4.60779 18.4015 6.02108C9.07334 10.147-0.206193 17.0402-8.10717 23.478C-9.41208 24.5413-10.7457 25.5734-11.9865 26.7108C-13.029 27.6664-14.4275 28.563-14.7343 29.9435C-14.8996 30.6874-13.1443 29.9778-12.4714 29.6203C-11.2962 28.996-10.1817 28.2609-9.077 27.519C-4.6103 24.519-0.274119 21.3282 4.17734 18.3056C14.3727 11.3828 24.8212 4.94416 35.3735-1.41428C36.6161-2.16303 37.8741-2.88773 39.0912-3.67722C40.0867-4.32294 41.8391-4.75358 41.8391-5.94015C41.8391-6.37454 40.9704-6.19407 40.546-6.10179C39.5624-5.88797 38.5892-5.61839 37.6365-5.2936C36.2158-4.8093 34.8225-4.2469 33.4339-3.67722C30.6194-2.52255 27.8076-1.35906 25.0287-0.121176C17.1916 3.3699 9.51426 7.21776 1.75276 10.8702C-0.105714 11.7448-1.0725 12.2097-2.77311 12.8099C-3.33199 13.0071-4.73855 13.3721-4.55113 12.8099C-4.0172 11.2081-1.46286 9.40049-0.186895 8.28402C1.02278 7.22555 2.27803 6.22 3.53079 5.21289C8.77081 1.00032 14.1294-2.7232 19.8563-6.26343C21.4815-7.26816 23.9954-9.07221 25.9985-8.84964C26.1678-8.83083 25.9433-8.49777 25.8369-8.36473C25.5037-7.94823 25.0826-7.61042 24.7054-7.23326C23.6278-6.15567 22.6116-5.01295 21.4726-4.00049C17.0806-0.096433 12.4452 3.54696 8.2183 7.63746C7.63753 8.1995 6.40212 8.85425 6.76355 9.57712C7.25145 10.5529 8.91532 9.03302 9.83468 8.44565C11.2208 7.56008 12.6725 6.77757 14.0373 5.85944C18.578 2.80479 22.6187-0.620639 26.4834-4.48541C27.5961-5.59812 28.5682-6.86291 29.3929-8.20309C29.5715-8.4933 30.0535-9.12473 29.7162-9.17292C28.8767-9.29285 27.3563-8.02851 26.9683-7.71818C25.864-6.83469 24.7953-5.90685 23.7356-4.97032C21.5348-3.02545 19.5594-1.14182 17.4317 0.848654C15.6769 2.49023 13.9015 4.11036 12.0976 5.6978C11.6676 6.07618 10.4012 6.89675 10.9661 6.99091C13.3014 7.38011 17.8434 4.02565 19.533 3.11159C24.3338 0.514427 28.661-1.75807 33.4339-4.48541C35.8488-5.8654 38.2316-7.30677 40.546-8.84964C40.7362-8.97644 41.1925-9.17292 41.0309-9.33456C40.4025-9.9629 39.258-9.04588 38.4447-8.68801C37.6283-8.32882 36.8226-7.94563 36.0201-7.55654C31.9018-5.5598 27.8291-3.46104 23.7356-1.41428C22.8944-0.993694 18.6425 1.35126 18.0782 0.363739C17.5533-0.554893 19.4584-3.6209 19.6946-4.00049C20.7604-5.7134 21.9188-7.36796 23.089-9.01128C26.929-14.4036 31.2099-19.2246 35.5352-24.2053C36.5232-25.343 38.046-29.3291 39.7378-26.7915" fill="none" fill-rule="evenodd" opacity="1" stroke="#4da7b3" stroke-linecap="round" stroke-linejoin="round" stroke-width="10"/>
<path d="M68.9943 40.45C66.7472 38.496 64.6552 35.8173 61.2357 35.9242C51.6762 36.2229 40.8176 46.7005 36.3434 54.5126C34.402 57.9022 32.9294 61.5478 31.4942 65.1807C31.1946 65.939 31.0608 66.7974 31.1709 67.6053C31.5507 70.3905 32.113 73.165 32.949 75.8488C33.1541 76.5076 33.6751 77.072 34.2421 77.4652C37.0439 79.4084 39.9467 81.2235 42.9705 82.7993C46.7488 84.7682 51.3463 84.4085 55.5783 84.9006C67.2062 86.2526 79.8231 83.8886 91.1387 82.1527C107.588 79.6292 123.947 74.8839 139.307 68.5751C142.232 67.3736 145.241 66.3371 148.035 64.8574C152.584 62.4493 157.002 59.7833 161.29 56.9371C166.833 53.2577 172.459 47.3007 171.311 40.1268C170.728 36.4784 166.465 33.4248 163.553 31.8832C156.45 28.1232 148.487 27.2444 140.6 26.8724C129.214 26.3353 118.577 28.7446 107.464 31.2367C96.6468 33.6624 86.1702 37.8094 76.1064 42.3897C68.3366 45.9259 63.4387 48.4608 56.7098 53.0578C53.6842 55.1248 50.6843 57.2385 47.8197 59.5234C44.3061 62.3259 36.1956 69.4438 38.4447 74.879C39.4819 77.3856 42.547 79.0778 45.0718 79.5665C47.6981 80.0748 50.3271 80.6279 52.9921 80.8596C63.9819 81.8152 76.13 80.3383 86.9361 78.92C102.142 76.9242 117.32 73.9856 132.357 70.9997C150.218 67.4528 168.195 63.5477 185.536 57.907C188.403 56.974 191.257 55.9965 194.102 54.9975C199.016 53.2726 209.969 50.2644 210.751 44.0061C210.875 43.0138 209.654 40.3723 208.327 39.8035C206.118 38.8569 203.853 38.0206 201.538 37.3789C190.066 34.1999 173.928 34.3836 162.26 35.4392C122.69 39.0194 85.0978 49.1703 48.3046 63.8876C40.8636 66.864 33.4933 70.1764 26.4834 74.0708C25.3202 74.7171 24.1845 75.4166 23.089 76.1721C22.4857 76.5882 21.2777 77.4319 21.7959 77.9501C23.2731 79.4273 26.5444 78.541 28.2614 78.1118C31.6084 77.275 34.9481 76.4092 38.283 75.5255C44.6788 73.8309 51.015 71.9177 57.3563 70.0298C86.485 61.358 115.945 53.909 145.772 48.047C162.272 44.8044 178.826 41.8474 195.395 38.9953C203.19 37.6536 210.931 36.2664 218.671 34.6311C219.242 34.5106 220.638 33.9403 220.126 33.6612C218.087 32.5491 215.498 33.1422 213.176 33.1763C207.463 33.2603 201.752 33.4655 196.042 33.6612C186.227 33.9977 176.431 34.6256 166.624 35.116C122.882 37.3031 79.4913 41.8814 36.1817 48.3703C19.1641 50.92 2.20915 53.7751-14.7343 56.7755C-19.6886 57.6528-24.6229 58.66-29.6051 59.3617C-31.3256 59.6041-33.054 59.7873-34.7775 60.0083C-35.1554 60.0567-36.2899 60.1699-35.909 60.1699C-32.3324 60.1699-27.8678 58.4203-24.5943 57.5837C-21.7962 56.8686-18.9948 56.1667-16.1891 55.4824C-2.4685 52.1359 11.3322 48.9902 25.1903 46.269C63.093 38.8263 101.493 33.1487 139.954 29.6203C160.565 27.7293 181.198 26.3925 201.861 25.256C208.919 24.8679 215.988 24.6621 223.036 24.1246C226.163 23.886 229.29 23.633 232.411 23.3164C232.628 23.2943 236.725 22.9709 235.967 22.0233C235.816 21.8351 235.555 21.7517 235.32 21.7C233.338 21.265 231.354 20.8084 229.339 20.5685C226.82 20.2686 224.278 20.19 221.742 20.0836C210.383 19.607 199.002 19.4762 187.637 19.7603C158.826 20.4806 130.64 25.1017 102.453 30.9134C83.7292 34.774 64.9822 40.1818 47.0115 46.7539C34.4215 51.3583 22.8938 56.2039 10.6429 61.6247C7.80003 62.8825 4.9579 64.1608 2.23768 65.6656C1.59642 66.0204 0.637398 66.2478 0.459658 66.9587C0.276536 67.6912 2.4551 67.6446 2.72259 67.6053C4.23878 67.3823 5.75522 67.1417 7.24847 66.7971C14.412 65.144 21.3634 62.5439 28.5847 61.1397C29.2929 61.002 32.7064 59.9274 33.2722 60.4932C33.3574 60.5784 33.0528 60.5937 32.949 60.6548C32.1366 61.1327 31.3518 61.6582 30.5244 62.1096C28.98 62.9519 27.4103 63.7474 25.8369 64.5341C19.9288 67.4882 13.6365 69.8115 7.24847 71.4846C6.6958 71.6293 2.996 72.8155 3.36915 71.323" fill="none" fill-rule="evenodd" opacity="1" stroke="#4da7b3" stroke-linecap="round" stroke-linejoin="round" stroke-width="13.92"/>
<path d="M-8.43045 98.3165C-5.49301 96.8478-0.715676 101.463 1.26785 102.842C10.1646 109.031 16.7566 117.523 24.3821 125.149C27.4455 128.212 30.0414 131.177 33.5955 133.715C34.7026 134.506 35.6492 135.397 36.6666 136.302C37.0083 136.605 37.3389 136.924 37.6365 137.271C37.7629 137.419 38.1131 137.876 37.9597 137.756C33.2162 134.067 29.1188 129.672 24.3821 125.957C19.6167 122.219 14.2488 119.325 9.34976 115.773C6.18465 113.479 3.20881 110.951-0.186895 108.985C-1.16721 108.417-2.21241 107.966-3.25802 107.53C-3.59165 107.391-4.48343 106.789-4.22785 107.045C-1.37527 109.898 1.84174 113.04 4.98553 115.612C8.542 118.522 12.5216 120.946 15.9769 124.017C23.6791 130.863 31.675 138.455 40.8692 143.252C47.7234 146.828 55.4944 149.213 62.6904 151.98C67.5994 153.869 72.0731 156.789 76.9146 158.769C79.3811 159.778 81.8324 160.746 84.1883 162.002C96.8602 168.76 108.333 179.468 122.981 181.722C127.018 182.343 130.569 179.816 133.811 177.843C139.667 174.278 145.485 170.614 151.107 166.69C176.695 148.826 200.194 128.394 224.975 109.47C234.732 102.019 244.459 94.5511 254.717 87.8101C258.901 85.0606 262.982 82.5366 267.486 80.3747C267.913 80.1698 270.329 78.5391 269.911 80.2131C269.626 81.3523 266.487 83.4543 265.546 84.254C264.905 84.7991 264.26 85.3397 263.607 85.8704C257.697 90.6718 251.67 95.2864 245.503 99.7713C230.03 111.025 213.725 120.87 197.497 130.967C188.423 136.613 179.562 142.601 170.503 148.263C163.866 152.411 157.347 156.688 150.945 161.194C150.287 161.657 145.103 164.68 144.964 165.235C144.916 165.427 145.868 165.21 146.904 164.588C148.077 163.885 149.303 163.231 150.46 162.487C153.352 160.628 156.275 158.817 159.188 156.991C165.586 152.981 172.027 149.041 178.423 145.03C200.072 131.454 221.4 117.421 242.917 103.651C248.036 100.374 252.815 96.739 257.303 92.6592C258.831 91.2698 260.639 90.2156 261.99 88.6182C262.112 88.475 264.539 86.1446 264.253 87.0019C263.376 89.6344 258.175 92.4954 256.171 93.9523C249.502 98.8026 241.649 102.805 234.512 106.883C212.881 119.244 191.914 132.578 171.15 146.323C165.039 150.368 158.671 154.269 152.885 158.769C146.408 163.807 140.157 169.149 133.65 174.125C130.618 176.443 127.656 178.703 124.436 180.752C123.706 181.217 121.553 181.764 121.042 182.53C120.83 182.847 121.792 182.692 122.173 182.692C123.702 182.692 125.106 182.294 126.538 181.722C129.158 180.674 132.291 179.363 134.296 177.358C134.417 177.237 133.95 177.42 133.811 177.519C133.196 177.959 132.667 178.39 132.033 178.812C130.916 179.557 129.954 180.373 128.8 181.075C125.974 182.796 122.501 185.131 119.102 185.44C106.723 186.565 94.4296 170.741 87.7443 162.649C86.3821 161 84.9375 159.42 83.5417 157.799C80.6616 154.455 77.6086 151.22 74.49 148.101C68.4663 142.077 62.0271 136.543 55.9016 130.644C55.2531 130.02 50.6103 126.42 52.8305 125.31" fill="none" fill-rule="evenodd" opacity="1" stroke="#4da7b3" stroke-linecap="round" stroke-linejoin="round" stroke-width="13.92"/>
<path d="M76.5913 153.112C71.9864 150.042 67.4426 147.073 62.6904 144.222C60.4201 142.86 57.4135 140.68 54.7701 140.019C54.6223 139.982 55.002 140.221 55.0934 140.343C55.3715 140.713 55.5862 141.134 55.9016 141.474C56.3682 141.977 56.8714 142.444 57.3563 142.929C58.2561 143.828 58.2031 143.791 59.6193 145.03C63.0243 148.009 66.9693 150.331 70.934 152.465C80.9909 157.881 88.8487 165.987 97.7659 172.993C100.804 175.381 103.971 177.577 107.141 179.782C107.646 180.134 108.489 180.914 109.242 181.237C109.603 181.392 110.374 181.953 110.374 181.56C110.374 180.465 108.079 178.645 107.303 178.004C106.446 177.297 105.584 176.597 104.716 175.903C103.967 175.304 103.245 174.667 102.453 174.125C98.3325 171.305 93.8869 169.245 89.5224 166.851C83.9188 163.778 78.6776 160.114 73.5202 156.345C69.3447 153.293 65.1491 150.182 61.2357 146.808C60.0009 145.744 58.7503 144.793 57.518 143.737C57.1985 143.463 56.8767 143.192 56.5481 142.929C56.3378 142.76 55.7811 142.203 55.9016 142.444C56.3471 143.335 57.7362 143.981 58.4878 144.545C60.9767 146.412 63.2777 148.501 65.7615 150.364C70.1326 153.642 74.9625 156.229 79.5008 159.254C84.2769 162.438 88.8311 165.979 93.4017 169.437C99.3144 173.912 104.901 178.666 111.02 182.853C111.635 183.274 115.341 186.335 115.869 185.278" fill="none" fill-rule="evenodd" opacity="1" stroke="#4da7b3" stroke-linecap="round" stroke-linejoin="round" stroke-width="13.92"/>
<path d="M110.266 184.518C110.213 183.727 109.107 183.211 108.556 182.79C106.811 181.455 104.931 180.188 103.13 178.8C102.009 177.937 102.574 178.436 101.326 177.54C92.8464 171.454 84.1364 165.775 75.3707 160.111C72.6528 158.355 69.9901 156.561 67.3529 154.684C66.9916 154.427 66.239 154.239 66.3504 153.809C66.3826 153.685 66.6143 153.814 66.7315 153.867C67.1458 154.054 67.5316 154.298 67.9284 154.519C68.7369 154.97 69.5439 155.424 70.3473 155.884C72.2732 156.987 74.1704 158.154 76.0511 159.331C85.3867 165.172 94.5631 171.358 103.501 177.79C106 179.589 108.329 181.659 111.052 183.123C111.424 183.324 112.034 183.831 112.27 183.48C112.649 182.918 110.956 181.476 109.997 180.554C109.414 179.994 108.803 179.464 108.189 178.938C105.06 176.256 101.769 173.815 98.3969 171.453C88.7776 164.714 78.6709 158.638 68.3325 153.067C62.3051 149.818 56.108 146.193 49.4322 144.462" fill="none" fill-rule="evenodd" opacity="1" stroke="#4da7b3" stroke-linecap="round" stroke-linejoin="round" stroke-width="13.92"/>
<path d="M105.026-14.1096C100.239-17.2463 96.6392-13.6914 92.604-10.5789C83.2802-3.38718 73.9827 4.8813 66.774 14.2387C65.2315 16.241 63.9351 18.4237 62.6178 20.5809C60.9136 23.3716 59.2986 28.0035 62.7816 30.3168C65.4935 32.1181 69.3359 30.8896 72.5482 30.3607C77.9513 29.471 83.058 27.2096 88.1085 25.0938C94.8956 22.2504 102.363 18.0449 108.632 14.6387C116.894 10.1491 125.292 5.71986 133.325 0.809818C137.174-1.54287 141.034-3.88395 144.78-6.39732C145.88-7.13538 151.098-10.9042 150.244-12.5081C148.966-14.906 145.375-14.6454 143.17-14.4345C141.218-14.248 139.26-14.0939 137.325-13.7841C133.591-13.1865 129.877-12.4697 126.173-11.7139C109.681-8.34914 93.5291-2.32486 78.3377 4.89371C73.3221 7.277 67.6735 9.35186 63.414 13.0371C63.1495 13.266 62.9059 13.61 62.9137 13.9597C62.9408 15.1813 65.3116 15.0256 65.62 15.0455C66.8942 15.1279 68.1773 15.2224 69.4498 15.1169C72.5883 14.8564 75.7317 14.3824 78.7636 13.5301C88.3758 10.828 97.8866 7.76933 107.369 4.6406C124.725-1.08655 141.92-7.3266 159.295-12.9952C163.538-14.3795 167.796-15.7214 172.071-17.0025C174.773-17.8121 177.508-18.5048 180.224-19.2666C181.044-19.4965 182.147-19.3664 182.655-20.0497C182.821-20.2744 182.101-19.968 181.824-19.9271C180.647-19.7534 179.462-19.63 178.294-19.4061C172.918-18.3758 167.557-17.2264 162.281-15.7698C152.189-12.9838 142.178-9.90441 132.222-6.66573C112.104-0.120881 92.3151 7.47222 72.6565 15.2801C65.7325 18.0302 58.9043 21.0191 52.0956 24.0434C48.8984 25.4635 45.7278 26.9429 42.5572 28.4215C41.7585 28.794 39.2451 30.0671 39.6263 30.1272C43.4731 30.7336 47.7825 28.793 51.1323 27.5803C56.4487 25.6558 61.7349 23.6484 67.016 21.6292C81.9608 15.9151 96.9925 10.4208 112.121 5.21231C137.375-3.48238 163.216-11.0282 189.259-16.993C200.273-19.5157 212.836-23.1066 224.284-24.0718C224.572-24.096 223.768-23.7955 223.484-23.7415C222.11-23.4797 220.708-23.3789 219.331-23.1286C216.574-22.6273 213.833-22.0439 211.086-21.4874C202.634-19.7748 194.175-18.0718 185.79-16.0567C175.344-13.5463 164.833-11.3024 154.417-8.66831C133.305-3.329 112.522 3.9848 92.353 12.1611C85.0404 15.1254 76.9817 18.6914 69.9301 22.6843C69.0433 23.1865 66.3556 25.17 65.9677 26.0274C65.7853 26.4306 66.1292 27.1469 66.5669 27.2121C75.4355 28.5316 86.644 24.3191 94.6547 22.0059C102.469 19.7493 110.202 17.2153 118.014 14.9514C154.83 4.2828 191.907-5.66172 229.469-13.3794C242.766-16.1114 256.211-18.1748 269.632-20.1554C271.502-20.4314 273.385-20.6128 275.269-20.7752C275.693-20.8118 276.483-21.1725 276.545-20.7514C276.608-20.3304 275.739-20.4771 275.33-20.3599C274.721-20.1854 274.116-19.9831 273.492-19.8764C271.078-19.4639 268.647-19.1613 266.224-18.8038C260.271-17.9253 254.319-17.0467 248.366-16.1682C234.31-14.0939 220.299-11.6856 206.365-8.90876C177.974-3.25068 150.113 4.29456 122.698 13.6236C116.476 15.741 110.345 18.1207 104.176 20.3885C100.147 21.8696 93.7853 23.6191 90.3996 26.2409C89.7886 26.714 91.9499 26.2243 92.7144 26.1114C93.686 25.968 94.6554 25.7734 95.5909 25.4747C98.7806 24.4565 101.906 23.2459 105.075 22.1655C115.441 18.6315 125.779 15.0128 136.196 11.6316C145.758 8.52758 155.359 5.53469 165.008 2.71145C196.963-6.63804 229.643-14.1759 262.541-19.3211C273.188-20.9864 283.894-22.2803 294.611-23.4177C295.935-23.5581 297.263-23.9231 298.587-23.7923C299.632-23.6891 296.514-23.4658 295.473-23.3326C292.904-23.0038 290.331-22.7034 287.759-22.4063C283.725-21.9406 279.678-21.5814 275.654-21.0441C258.454-18.7482 241.23-16.4896 224.186-13.2362C199.356-8.49678 174.995-1.83687 150.741 5.24135C138.727 8.74772 126.158 12.2251 114.79 17.549C114.664 17.6083 115.067 17.5081 115.206 17.4877C116.451 17.3038 117.713 17.2052 118.943 16.9361C121.691 16.3349 124.424 15.657 127.127 14.8796C133.517 13.0416 139.844 10.9873 146.217 9.09167C160.001 4.99213 173.806 0.903174 187.813-2.35152C215.709-8.83365 243.896-14.2355 272.222-18.416C281.345-19.7623 291.984-22.3561 301.416-21.8758C301.773-21.8577 300.76-21.5792 300.409-21.515C298.757-21.2127 297.086-21.0246 295.425-20.7794C292.172-20.2993 288.915-19.841 285.665-19.3391C278.612-18.2497 271.547-17.2289 264.515-16.0055C233.715-10.6464 203.487-3.76048 173.781 6.08463C161.224 10.2462 148.659 14.5044 136.56 19.8527C133.464 21.2214 130.46 22.7933 127.468 24.3773C127.293 24.4698 126.916 24.8638 127.114 24.8539C136.965 24.3604 146.685 20.4347 155.964 17.6256C172.759 12.541 189.685 7.86116 206.75 3.76502C240.126-4.24626 273.784-11.3356 307.888-15.4047C308.166-15.4379 307.335-15.3176 307.057-15.2822C303.795-14.8658 300.524-14.5066 297.267-14.0494C290.754-13.1354 284.254-12.1289 277.748-11.1687C268.537-9.80942 259.362-8.1833 250.252-6.26211C214.724 1.23068 180.381 11.2415 146.225 23.5186C141.847 25.0922 137.511 26.7801 133.156 28.4178C131.011 29.2246 127.441 28.6744 126.726 30.852C126.041 32.9395 130.925 29.5574 133.01 28.8637C134.364 28.4132 135.703 27.9178 137.04 27.4202C143.265 25.1045 149.486 22.7729 155.77 20.6247C166.371 17.0007 176.983 13.3638 187.783 10.3835C221.473 1.08638 255.807-6.55861 290.544-10.7233C295.9-11.3655 301.284-11.7524 306.656-12.2524C308.42-12.4166 310.711-13.4347 311.97-12.188C312.272-11.8884 311.171-11.8839 310.754-11.7964C308.904-11.4078 307.036-11.1099 305.178-10.7613C301.737-10.1157 298.295-9.47485 294.857-8.8137C281.78-6.29913 268.705-3.74459 255.74-0.706708C226.433 6.16029 197.755 15.1879 169.748 26.2001C158.454 30.641 147.085 35.2084 136.241 40.6932C133.003 42.3311 129.706 43.8709 126.587 45.7249C126.032 46.0545 124.679 47.2796 125.317 47.1854C132.023 46.1957 138.203 42.9317 144.462 40.3286C152.61 36.9397 160.658 33.3122 168.815 29.9448C203.654 15.5629 240.299 5.48913 277.196-1.96374C284.742-3.48781 292.369-4.57747 299.977-5.75014C304.572-6.45844 309.183-7.41353 313.835-6.73452C314.208-6.68011 313.919-5.78416 313.573-5.63496C310.751-4.41781 307.843-3.40035 304.92-2.44828C301.091-1.2009 297.2-0.149593 293.329 0.959789C278.395 5.2393 263.363 9.20513 248.564 13.9316C216.137 24.2881 185.292 36.4519 154.185 50.139C147.596 53.0382 141.121 56.1972 134.485 58.9873C131.525 60.2319 128.495 61.322 125.417 62.2353C125.117 62.3243 124.441 62.244 124.525 61.9426C124.815 60.9004 127.41 59.1308 128.072 58.6608C130.622 56.8478 133.119 54.9518 135.765 53.2819C139.852 50.7023 144.015 48.2367 148.258 45.9215C156.455 41.4486 164.582 36.8073 173.074 32.9233C197.84 21.5956 224.046 12.5577 250.699 6.82697C267.8 3.14983 285.153 0.569909 302.551-1.24991C305.218-1.5289 307.934-1.70608 310.595-1.3762C311.431-1.27256 313.324-0.566354 312.709 0.00921851C310.849 1.74912 308.134 2.26869 305.748 3.15838C302.158 4.49643 298.475 5.56807 294.81 6.68217C287.17 9.00473 279.481 11.162 271.835 13.4677C248.348 20.5512 225.024 28.8613 202.248 37.9535C188.227 43.551 171.984 50.842 157.78 57.2468C152.195 59.765 146.777 62.9952 140.773 64.2125C140.141 64.3407 139.689 62.9164 140.082 62.4049C144.145 57.1183 150.556 54.1217 156.146 50.4862C158.325 49.0685 160.483 47.61 162.746 46.3294C170.8 41.7718 178.908 37.3078 187.086 32.9772C208.442 21.6678 232.049 14.7491 255.158 8.29058C262.321 6.28865 269.629 4.82835 276.924 3.38085C280.768 2.61829 284.659 2.10279 288.553 1.66465C288.75 1.64252 289.212 1.94316 289.03 2.01867C281.182 5.2583 272.8 7.01363 264.663 9.434C252.864 12.9432 240.932 16.0587 229.328 20.1655C197.697 31.3595 167.214 42.961 137.031 57.5507C124.94 63.3956 113.055 69.6596 101.108 75.7952C97.1489 77.8284 94.6705 79.492 90.8001 80.7113C90.063 80.9435 88.8793 81.9536 88.5466 81.256C88.0751 80.2675 89.0352 79.0894 89.5711 78.1343C89.9955 77.3781 93.4159 74.2831 93.8262 73.8994" fill="none" fill-rule="evenodd" opacity="1" stroke="#4da7b3" stroke-linecap="round" stroke-linejoin="round" stroke-width="13.92"/>
<path d="M262.218 7.24861C255.16 8.78533 247.886 9.54062 241.045 11.8588C229.698 15.7036 218.777 20.7296 207.861 25.6675C192.158 32.7711 176.254 42.2727 162.389 52.5352C157.422 56.2119 152.607 60.1047 147.986 64.2088C145.527 66.3932 143.255 68.8026 141.192 71.3647C140.817 71.8303 140.314 72.7902 140.814 73.1179C141.516 73.5781 142.516 73.0332 143.306 72.7501C145.224 72.0631 147.087 71.2067 148.875 70.2308C156.166 66.2525 163.07 61.6021 170.069 57.1306C194.757 41.3577 220.411 26.2222 247.71 15.3308C258.405 11.0637 270.493 6.59952 281.554 3.12194C285.66 1.83088 289.808 0.666715 293.976-0.408721C296.216-0.986633 298.488-1.43755 300.767-1.83536C301.118-1.89671 302.135-1.97613 301.836-1.78093C297.929 0.772766 293.158 1.659 288.798 3.32589C281.093 6.272 273.361 9.15188 265.715 12.2492C259.077 14.9382 252.494 17.765 245.954 20.6822C207.705 37.7417 171.361 59.1682 137.778 84.1748C129.029 90.6893 120.769 98.086 112.942 105.663C111.223 107.328 109.12 108.747 107.979 110.851C107.662 111.435 109.347 111.498 109.94 111.198C112.453 109.927 114.602 108.035 116.864 106.357C120.914 103.354 124.865 100.218 128.873 97.1587C140.839 88.0262 152.888 78.9615 165.501 70.7475C196.197 50.7586 229.386 34.6348 264.102 22.884C274.188 19.4699 284.341 15.8656 294.875 14.3109C295.339 14.2424 294.83 15.3931 294.436 15.6488C293.169 16.4719 291.626 16.757 290.228 17.3307C283.557 20.0697 276.837 22.6964 270.229 25.5866C256.948 31.396 243.862 37.6684 230.983 44.3215C208.865 55.7472 187.579 68.7247 167.071 82.8221C154.688 91.3344 142.831 100.595 130.95 109.795C129.043 111.272 127.297 112.981 125.242 114.244C124.921 114.442 125.259 113.431 125.504 113.145C127.16 111.21 129.055 109.494 130.852 107.688C134.167 104.354 137.448 100.984 140.839 97.7267C145.626 93.1282 150.39 88.4992 155.381 84.123C178.922 63.4806 203.676 47.944 231.766 33.8093C238.481 30.4301 245.503 27.6771 252.534 25.0155C258.376 22.8042 264.337 20.9017 270.348 19.2038C273.788 18.2321 277.31 17.5397 280.846 17.0179C281.77 16.8816 284.214 16.5076 283.638 17.2424C282.056 19.2624 279.513 20.3203 277.276 21.5762C273.687 23.5905 269.888 25.2059 266.199 27.0302C261.121 29.5409 256.008 31.9808 250.975 34.5813C223.784 48.633 196.54 63.9792 171.578 81.7326C156.452 92.4907 141.632 103.677 126.818 114.861C120.731 119.456 115.32 124.889 109.76 130.109C109.544 130.312 108.998 131.01 109.229 130.824C119.196 122.792 128.276 113.523 138.143 105.339C144.59 99.9913 150.655 94.104 157.662 89.5151C178.306 75.995 199.343 63.0254 220.951 51.1065C228.648 46.8608 237.06 44.0156 245.366 41.138C256.997 37.1084 268.836 33.6859 280.701 30.4065C282.59 29.8843 286.665 27.7994 286.546 29.7561C286.389 32.3202 282.675 33.1868 280.452 34.4746C276.909 36.5271 273.043 37.964 269.345 39.7209C264.187 42.1708 259.009 44.5793 253.883 47.095C221.667 62.9053 190.749 80.2356 160.679 99.891C146.402 109.223 132.835 119.612 119.288 129.975C117.172 131.594 115.202 133.406 113.018 134.932C112.731 135.133 111.809 135.391 111.98 135.085C114.361 130.82 118.571 127.866 122.083 124.471C126.13 120.558 130.049 116.493 134.378 112.896C146 103.24 157.686 93.6328 169.9 84.7386C184.917 73.8033 202.276 64.7284 219.049 56.9039C226.846 53.2663 234.691 49.6688 242.809 46.8197C254.891 42.5798 267.239 39.1256 279.567 35.6661C282.669 34.7956 285.863 34.2554 289.058 33.841C289.849 33.7384 291.549 33.3375 291.434 34.1269C291.276 35.2106 289.721 35.52 288.742 36.0095C281.673 39.541 274.459 42.7731 267.326 46.1719C261.772 48.8183 256.184 51.3958 250.68 54.1452C215.371 71.7829 181.792 92.1855 150.334 116.058C145.488 119.736 140.839 123.668 136.108 127.493C132.815 130.156 129.632 132.959 126.26 135.524C124.666 136.737 123.229 138.686 121.229 138.813C119.895 138.897 122.837 136.672 123.738 135.684C125.823 133.399 127.982 131.183 130.178 129.005C133.597 125.614 136.938 122.131 140.581 118.982C151.058 109.928 161.541 100.856 172.518 92.4149C185.322 82.5691 199.627 74.7333 214.021 67.406C232.945 57.773 253.087 50.4982 273.433 44.4219C277.19 43.3 281.115 42.813 285.001 42.2904C286.54 42.0833 288.185 41.7547 289.661 42.2391C290.193 42.4137 290.27 43.4753 289.906 43.9004C288.725 45.2786 287.078 46.2036 285.498 47.0971C282.493 48.7962 279.299 50.1353 276.198 51.6523C260.198 59.4795 244.049 67.028 228.367 75.4733C202.123 89.6061 177.185 105.579 153.068 123.081C148.53 126.374 144.15 129.879 139.727 133.324C136.982 135.463 134.369 137.774 131.564 139.834C130.024 140.965 128.578 142.48 126.71 142.884C125.743 143.093 127.824 141.242 128.48 140.501C130.131 138.635 131.817 136.794 133.62 135.074C138.578 130.347 143.54 125.613 148.755 121.171C155.798 115.171 162.988 109.336 170.374 103.765C192.919 86.7598 218.21 74.2061 244.192 63.3776C248.663 61.5141 253.302 60.0731 257.914 58.5942C261.071 57.582 264.245 56.5836 267.49 55.9079C268.935 55.607 270.888 54.6167 271.912 55.6796C272.726 56.5242 269.804 56.7089 268.743 57.2082C266.299 58.3579 263.815 59.4246 261.397 60.6263C255.512 63.5502 249.644 66.512 243.835 69.5835C220.161 82.0997 198.368 96.1493 177.183 112.52C167.27 120.18 157.816 128.417 148.262 136.521C147.209 137.413 146.137 138.284 145.038 139.118C144.862 139.252 144.328 139.605 144.446 139.418C144.895 138.705 145.463 138.065 146.069 137.481C150.668 133.05 155.325 128.679 160.05 124.384C164.056 120.742 168.05 117.075 172.26 113.671C189.27 99.9191 207.308 87.2611 226.413 76.6104C240.222 68.9121 254.598 62.0359 269.543 56.878C273.481 55.5189 277.524 54.4808 281.549 53.4086C282.293 53.2105 284.37 52.5197 283.833 53.0715C279.883 57.1342 273.926 58.5772 268.91 61.2149C254.312 68.8916 239.67 76.5229 225.531 85.0154C203.631 98.1701 183.334 113.698 163.1 129.238C157.236 133.742 151.872 138.957 145.59 142.856C144.615 143.461 147.139 141.159 147.983 140.381C149.88 138.631 151.891 137.008 153.807 135.278C161.211 128.592 168.561 121.825 176.366 115.611C196.937 99.2318 218.398 87.1657 242.171 75.5579C246.106 73.6365 250.272 72.2199 254.408 70.7813C257.343 69.7605 260.32 68.8229 263.361 68.1869C264.942 67.8563 267.16 66.66 268.199 67.8974C269.035 68.8943 266.523 69.9485 265.421 70.6413C259.437 74.4038 253.166 77.687 247.035 81.2052C240.06 85.2085 233.02 89.102 226.103 93.2058C207.997 103.949 190.448 115.742 173.575 128.329C166.096 133.908 158.802 139.737 151.241 145.205C150.175 145.975 149.163 146.866 147.956 147.387C147.668 147.511 148.043 146.731 148.249 146.495C149.332 145.249 150.53 144.102 151.765 143.005C155.598 139.603 159.448 136.216 163.444 133.007C169.379 128.241 175.423 123.61 181.547 119.09C196.59 107.986 213.15 99.0177 229.712 90.3394C234.615 87.77 239.686 85.5144 244.819 83.4419C251.843 80.606 258.977 78.0387 266.156 75.625C267.617 75.1339 269.159 74.6129 270.694 74.7431C271.187 74.7849 270.234 75.6814 269.809 75.9346C267.984 77.0217 265.969 77.7538 264.063 78.6922C258.584 81.3898 253.087 84.0515 247.655 86.8425C240.727 90.4025 233.848 94.0594 226.985 97.7436C206.769 108.596 188.02 120.631 169.058 133.664C162.325 138.291 155.875 143.318 149.355 148.241C146.806 150.166 144.573 152.594 141.723 154.035C140.212 154.8 143.995 151.52 145.209 150.338C147.336 148.267 149.554 146.29 151.741 144.282C158.265 138.292 165.118 131.954 172.023 126.436C193.499 109.274 216.21 92.614 241.575 81.5867C245.981 79.6714 250.51 78.0501 255.028 76.4186C255.489 76.2523 256.201 75.8027 256.482 76.2041C256.738 76.5712 255.95 76.9562 255.566 77.1879C251.907 79.399 248.108 81.3688 244.404 83.5032C237.548 87.4537 230.698 91.4141 223.887 95.4425C212.255 102.323 200.908 109.602 189.761 117.241C184.935 120.549 180.131 123.89 175.321 127.223C174.035 128.114 172.757 129.016 171.475 129.912C171.09 130.181 170.041 131.096 170.321 130.719C172.262 128.105 175.545 126.833 178.16 124.894C183.49 120.943 188.652 116.737 194.255 113.183C209.59 103.454 224.452 95.835 240.925 88.6845C241.58 88.4004 239.576 89.1514 238.91 89.4062C237.166 90.073 235.372 90.6292 233.695 91.449C228.109 94.1791 222.638 97.1398 217.141 100.045C204.277 106.844 192.494 114.747 180.407 122.865" fill="none" fill-rule="evenodd" opacity="1" stroke="#4da7b3" stroke-linecap="round" stroke-linejoin="round" stroke-width="13.92"/>
<path d="M33.1773 92.1384C29.7416 89.4157 26.2052 86.8153 22.8701 83.9702C19.15 80.7966 15.6609 77.3618 12.0242 74.093C10.77 72.9656 9.58613 71.7409 8.19847 70.7826C7.65963 70.4105 9.01183 71.8095 9.43776 72.3069C9.94604 72.9004 10.4715 73.4791 11.0004 74.0544C12.6346 75.8323 14.2067 77.6714 15.9268 79.3664C19.6078 82.9936 23.4017 86.505 27.1961 90.0134C36.8912 98.9779 46.9072 107.528 57.4478 115.488C68.0616 123.503 79.0139 131.111 90.1168 138.43C93.8134 140.867 97.5509 143.244 101.178 145.782C102.445 146.669 103.758 147.508 104.904 148.546C105.126 148.747 105.47 149.441 105.174 149.401C100.728 148.803 96.6414 146.574 92.5644 144.704C85.0301 141.249 78.1532 137.825 70.9028 133.756C51.5503 122.895 33.4115 110.053 16.4878 95.7016C7.84094 88.3689-0.62559 80.3649-7.96744 71.6515C-8.20613 71.3682-7.41341 72.144-7.1515 72.406C-4.73957 74.8182-2.38938 77.2924 0.0534244 79.6733C2.65323 82.2073 5.30292 84.6902 7.97425 87.1486C14.1108 92.7961 21.9588 99.719 28.2575 105.071C46.936 120.941 66.8731 134.96 87.3604 148.368C91.4398 151.038 95.6568 153.496 99.6998 156.221C100.115 156.5 100.979 156.718 100.839 157.199C100.767 157.446 99.3855 156.964 97.6522 156.144C94.0087 154.42 90.3416 152.742 86.7521 150.908C82.9035 148.943 79.1055 146.877 75.3439 144.749C49.1199 129.918 27.7308 112.496 6.24964 91.3054C0.180305 85.3181-5.49932 78.9071-10.7003 72.1517C-12.4602 69.8658-14.039 67.4445-15.6189 65.0307C-15.7203 64.8758-15.8758 64.3856-15.7189 64.4842C-13.2392 66.042-11.534 68.5829-9.49929 70.6892C-7.14012 73.1313-4.84663 75.6374-2.44834 78.0412C9.71517 90.2324 22.023 102.485 35.0466 113.77C47.4606 124.527 60.4052 134.593 73.6735 144.264C77.082 146.749 80.5128 149.203 83.9499 151.647C87.6064 154.248 92.4445 156.493 95.2116 160.093C95.4136 160.355 94.5564 159.958 94.2571 159.815C91.7475 158.624 89.239 157.423 86.7979 156.097C83.6118 154.365 80.4745 152.542 77.3836 150.646C71.3948 146.972 65.324 143.412 59.5633 139.391C37.2512 123.813 16.7479 105.222 0.0531838 83.684C-1.97184 81.0715-3.89954 78.3827-5.76604 75.6546C-6.62658 74.3969-7.43196 73.0952-8.12141 71.7362C-8.23991 71.5026-8.40055 71.0341-8.15215 70.951C-5.9612 70.2178-3.92086 72.9575-2.19409 74.4924C4.49133 80.4352 10.8552 86.7352 17.4733 92.7533C39.2287 112.536 61.7366 131.227 85.7053 148.276C92.9854 153.454 100.577 158.18 108.067 163.049C109.561 164.02 111.065 164.978 112.509 166.021C113.064 166.423 113.814 166.735 114.056 167.376C114.188 167.727 113.293 167.329 112.947 167.184C111.63 166.629 110.376 165.933 109.099 165.29C104.92 163.184 100.707 161.146 96.582 158.938C83.7786 152.087 71.5117 144.13 60.1794 135.041C54.4578 130.452 48.9881 125.489 44.0991 120.021C43.0721 118.873 42.1593 117.623 41.2819 116.357C41.1764 116.205 41.0071 115.872 41.1818 115.81C42.7459 115.261 44.1665 117.283 45.5234 118.235C47.2816 119.469 49.0182 120.734 50.7809 121.962C54.4349 124.506 58.13 126.992 61.7732 129.553C72.4612 137.063 82.9952 144.836 93.9497 151.963C101.569 156.921 109.547 161.368 117.235 166.229C118.52 167.041 119.768 167.908 121.03 168.754C122.286 169.596 122.85 170.023 122.578 170.109C120.99 170.61 119.475 168.899 117.943 168.246C115.528 167.217 113.081 166.264 110.669 165.228C105.401 162.965 100.234 160.322 95.1194 157.737C94.8315 157.592 92.8411 156.4 92.7716 156.02C92.6704 155.467 93.4619 155.868 95.1426 156.321C96.7028 156.741 98.279 157.102 99.8306 157.553C102.934 158.454 105.987 159.521 109.068 160.494C113.772 161.979 118.457 163.494 123.163 164.975C124.945 165.535 127.332 165.38 128.428 166.892C128.774 167.369 127.392 167.612 126.804 167.585C126.008 167.548 125.221 167.401 124.433 167.284C123.401 167.132 122.37 166.972 121.346 166.776C117.755 166.089 111.951 165.827 108.798 163.65C108.475 163.427 109.586 163.556 109.976 163.604C110.976 163.727 111.978 163.84 112.978 163.958C115.061 164.204 117.136 164.513 119.222 164.736C124.425 165.292 129.559 165.781 134.718 164.837C135.709 164.656 137.08 164.809 137.658 163.621C138.831 161.213 134.615 158.979 133.363 158.363C131.072 157.235 128.754 156.158 126.397 155.175C116.931 151.231 106.949 147.585 97.0524 144.843C96.5115 144.693 92.8734 143.809 91.8332 144.104C90.9297 144.359 92.5119 146.043 93.3418 146.482C97.3904 148.624 99.4796 149.6 103.595 151.271C111.683 154.555 119.701 157.168 128.067 159.671C130.329 160.348 132.595 161.028 134.903 161.527C136.039 161.773 137.165 162.075 138.313 162.258C138.496 162.288 138.974 162.304 138.859 162.158C137.873 160.907 136.023 160.689 134.533 160.126C130.184 158.481 125.761 157.025 121.447 155.291C107.608 149.726 94.2296 142.963 81.7185 134.827C78.9514 133.027 76.1657 131.252 73.4819 129.33C72.4118 128.564 71.4469 127.659 70.4722 126.774C69.8935 126.249 68.5487 125.72 68.9096 125.027C69.3321 124.215 70.7622 125.191 71.6039 125.55C76.7878 127.76 81.9355 130.054 87.1227 132.256C106.448 140.46 125.772 149.56 145.988 155.431C146.519 155.585 145.055 154.826 144.541 154.622C142.999 154.012 141.401 153.552 139.838 152.998C135.34 151.404 130.838 149.821 126.359 148.178C122.381 146.719 118.388 145.292 114.465 143.689C96.7794 136.461 79.9395 127.369 63.583 117.528C56.5351 113.288 49.7603 108.59 43.1456 103.701C41.2468 102.298 39.3977 100.829 37.5493 99.3594C37.2594 99.1289 36.3912 98.463 36.7334 98.605C39.8137 99.883 42.4907 101.973 45.3472 103.694C51.5766 107.447 57.7969 111.218 64.1066 114.834C80.6809 124.334 97.8166 132.514 115.42 139.956C121.734 142.625 128.2 144.923 134.657 147.224C136.375 147.836 138.106 148.414 139.838 148.987C140.231 149.117 140.633 149.218 141.031 149.334C141.19 149.38 141.655 149.549 141.508 149.472C136.899 147.072 131.825 145.694 126.975 143.829C120.801 141.455 114.63 139.069 108.523 136.53C88.3482 128.141 69.5128 117.074 51.5209 104.71C48.4086 102.572 45.4613 100.199 42.5224 97.8278C39.5094 95.3968 35.9744 93.2137 34.1089 89.8214C33.9569 89.545 34.4141 88.9792 34.7094 89.0901C37.1577 90.0099 39.3912 91.4252 41.6913 92.6701C48.2927 96.2431 54.8078 99.9769 61.4592 103.456C81.864 114.13 102.853 123.289 124.296 131.666C126.616 132.572 128.977 133.37 131.317 134.222C132.487 134.648 133.642 135.117 134.827 135.5C134.952 135.54 135.328 135.559 135.22 135.484C133.202 134.091 130.652 133.698 128.353 132.844C124.888 131.555 121.421 130.27 117.977 128.925C113.674 127.244 109.35 125.608 105.113 123.766C89.6561 117.046 77.0895 109.327 62.8912 99.8613C57.2469 96.0984 49.1606 90.0359 43.6162 85.5957C41.8077 84.1474 40.0495 82.6352 38.3279 81.0844C38.1974 80.9668 37.9198 80.538 38.0739 80.6225C40.9686 82.2087 43.4993 84.3895 46.3105 86.1194C51.0502 89.0358 55.8191 91.9067 60.6437 94.6804C74.6432 102.729 88.887 110.215 103.659 116.746C108.696 118.972 113.797 121.048 118.854 123.228C121.77 124.485 124.679 125.756 127.576 127.055C127.962 127.227 129.086 127.811 128.7 127.64C118.188 122.984 107.687 118.505 97.393 113.373C95.4303 112.395 93.3897 111.549 91.535 110.379C85.9078 106.828 80.3411 103.168 74.9772 99.2308C70.184 95.7129 63.4566 89.0809 59.8514 84.4882C59.5906 84.156 59.6035 83.4534 59.9593 83.2257C62.0247 81.9037 64.8632 83.8477 67.1722 84.6734C71.6774 86.2843 76.0933 88.1369 80.5126 89.9704C93.0185 95.1589 105.416 100.544 117.716 106.208C122.823 108.559 128.978 110.019 133.266 113.699C133.648 114.027 132.366 113.243 131.903 113.044C130.18 112.306 128.44 111.605 126.707 110.889C121.779 108.851 116.776 106.986 111.92 104.783C95.0001 97.1108 79.1644 85.7408 66.2184 72.3642C64.8311 70.9307 62.4407 68.5483 63.6476 66.96C63.7894 66.7735 64.0397 66.5521 64.2635 66.6213C66.3697 67.2732 68.3947 68.1693 70.414 69.0543C73.0645 70.2157 75.6508 71.5183 78.2658 72.7575C95.5199 80.9337 112.291 89.8645 128.925 99.2418C130.894 100.352 132.887 101.423 134.798 102.629C135.051 102.789 135.364 103.016 135.376 103.314C135.384 103.525 135.005 103.11 134.814 103.022C133.75 102.53 132.69 102.031 131.611 101.574C127.812 99.9672 123.956 98.4946 120.18 96.8317C115.045 94.57 109.936 92.2453 104.885 89.8025C97.6203 86.2897 91.0646 81.399 84.7011 76.4375C82.6262 74.8197 80.854 72.8412 79.0588 70.9177C77.7578 69.5236 76.4057 68.1346 75.4256 66.4988C74.7525 65.3754 73.2487 63.695 74.1788 62.7729C75.1498 61.8102 76.8879 63.273 78.1509 63.797C80.3716 64.7183 82.4288 65.9927 84.5708 67.0844C98.0236 73.9409 111.383 80.9357 124.93 87.6021C131.329 90.7507 137.801 93.7855 143.952 97.3951C144.992 98.0056 146.061 98.5824 147.015 99.3198C147.247 99.4989 147.72 100.171 147.439 100.09C143.591 98.9723 140.048 96.9893 136.4 95.3316C123.614 89.5213 111.595 82.9017 101.321 73.113C97.927 69.8787 94.7111 66.414 91.9458 62.6277C91.1328 61.5144 90.3517 59.9773 90.7683 58.6631C91.0564 57.7543 92.5446 57.6172 93.4857 57.7703C96.064 58.1898 98.4819 59.3201 100.899 60.3111C112.775 65.1808 124.684 71.3909 135.862 77.5799C139.47 79.5775 143.084 82.1824 146.139 84.9629C146.399 85.1995 146.99 85.8112 146.647 85.8867C144.232 86.4184 139.524 84.5436 137.763 83.954C133.713 82.5978 129.609 81.3818 125.647 79.7886C118.643 76.9726 111.001 73.7609 105.009 68.8793C102.882 67.1465 100.998 65.121 99.1973 63.0515C98.5032 62.254 97.4778 60.7127 98.0352 59.4796C98.5522 58.3356 102.048 60.4227 102.723 60.7115C106.719 62.4212 110.711 64.1422 114.647 65.9854C123.12 69.9533 132.669 74.5099 139.911 80.567C141.437 81.8429 143.027 83.2019 143.937 84.9705C144.191 85.4646 143.324 85.9949 142.805 86.1944C142.023 86.4955 141.131 86.4499 140.296 86.3713C137.38 86.0968 134.491 85.5852 131.597 85.1391C122.113 83.6775 112.903 81.2748 103.53 79.3177C102.271 79.0548 98.4362 78.4934 97.3334 79.7177C96.5293 80.6103 98.7993 84.6887 100.104 86.215C101.165 87.455 102.556 88.3722 103.845 89.3714C110.958 94.8813 119.022 98.8855 126.361 104.061C127.549 104.898 130.472 107.364 130.78 108.449C130.966 109.108 130.079 109.79 129.425 109.996C128.495 110.289 127.472 109.936 126.507 109.796C124.778 109.543 123.069 109.17 121.357 108.818C111.348 106.76 101.675 103.548 91.728 101.249C90.3835 100.938 85.0217 99.501 83.9606 101.71C83.2579 103.173 85.0621 104.667 85.908 105.251C87.1648 106.119 88.5413 106.809 89.9263 107.453C96.4069 110.467 103.079 113.164 109.964 115.083C110.721 115.294 112.58 115.732 112.319 114.991C111.817 113.561 109.951 112.032 108.871 111.273C107.07 110.007 105.159 108.903 103.305 107.716C99.2142 105.095 95.0386 102.365 90.812 99.9477C90.1204 99.5522 89.3417 99.3247 88.6489 98.9314C88.2887 98.7269 88.1691 98.255 87.9022 97.9383" fill="none" fill-rule="evenodd" opacity="1" stroke="#4da7b3" stroke-linecap="round" stroke-linejoin="round" stroke-width="13.92"/>
<path d="M121.834 233.36C120.13 233.407 118.559 232.383 117.022 231.783C114.344 230.738 111.687 229.643 109.015 228.584C99.8397 224.947 90.8545 220.923 81.9614 216.641C61.3548 206.721 41.9784 194.464 22.9636 181.822C8.67516 172.323-5.96592 163.346-20.1908 153.765" fill="none" fill-rule="evenodd" opacity="1" stroke="#4da7b3" stroke-linecap="round" stroke-linejoin="round" stroke-width="13.92"/>
<path d="M124.025 241.039C121.429 241.764 114.397 237.883 111.945 236.962C102.213 233.306 92.6113 229.448 83.0981 225.248C54.2258 212.503 27.1581 195.898 1.34767 177.828C-6.44505 172.372-14.1781 166.637-21.0966 160.089C-23.1751 158.122-25.3269 156.244-26.9369 153.861" fill="none" fill-rule="evenodd" opacity="1" stroke="#4da7b3" stroke-linecap="round" stroke-linejoin="round" stroke-width="13.92"/>
<path d="M124.232 245.262C124.565 246.177 119.311 244.356 118.622 244.157C117.51 243.835 116.387 243.555 115.268 243.259C111.375 242.23 107.466 241.097 103.655 239.8C91.8962 235.797 80.465 230.952 69.2512 225.63C48.0635 215.574 28.1084 202.828 9.29984 188.857C-1.87222 180.558-13.3632 171.634-22.6853 161.213" fill="none" fill-rule="evenodd" opacity="1" stroke="#4da7b3" stroke-linecap="round" stroke-linejoin="round" stroke-width="13.92"/>
<path d="M207.143 131.412C200.739 132.812 193.762 132.089 187.218 132.18C185.667 132.201 180.727 131.93 179.614 132.572C178.346 133.303 177.71 136.101 177.237 137.443" fill="none" fill-rule="evenodd" opacity="1" stroke="#4da7b3" stroke-linecap="round" stroke-linejoin="round" stroke-width="13.92"/>
<path d="M215.792 119.969C211.57 121.989 206.44 122.75 201.904 123.855C199.724 124.385 197.724 125.889 195.46 125.315" fill="none" fill-rule="evenodd" opacity="1" stroke="#4da7b3" stroke-linecap="round" stroke-linejoin="round" stroke-width="13.92"/>
<path d="M193.686 151.235C194.055 151.973 195.349 150.666 195.665 150.455C197.533 149.21 199.523 148.065 201.483 146.976C209.084 142.753 216.584 138.439 223.973 133.842C226.24 132.431 228.517 131.016 230.69 129.464C231.517 128.873 232.315 128.245 233.149 127.664C233.282 127.572 233.683 127.311 233.569 127.425" fill="none" fill-rule="evenodd" opacity="1" stroke="#ffffff" stroke-linecap="round" stroke-linejoin="round" stroke-width="13.92"/>
<path d="M226.312 132.522C224.057 134.402 221.084 135.474 218.575 136.961C212.067 140.818 205.705 144.917 199.084 148.596C197.383 149.541 195.731 150.561 194.046 151.534C192.86 152.219 191.244 152.776 190.267 153.754C190.185 153.836 190.465 153.63 190.567 153.574C190.943 153.365 191.332 153.188 191.707 152.974C192.725 152.392 193.754 151.829 194.765 151.235C197.805 149.447 200.768 147.493 203.702 145.537C208.869 142.092 213.966 138.528 218.935 134.801C221.531 132.855 223.974 130.688 226.612 128.804" fill="none" fill-rule="evenodd" opacity="1" stroke="#ffffff" stroke-linecap="round" stroke-linejoin="round" stroke-width="13.92"/>
<path d="M115.022 237.33C114.593 237.544 114.284 237.972 113.997 238.355C113.931 238.442 113.745 238.674 113.85 238.648C116.814 237.907 119.871 235.425 122.636 234.108C126.544 232.247 130.623 230.849 134.644 229.276C147.991 224.053 160.904 217.463 174.034 211.704C212.617 194.782 249.531 171.066 277.707 139.367" fill="none" fill-rule="evenodd" opacity="1" stroke="#4da7b3" stroke-linecap="round" stroke-linejoin="round" stroke-width="13.92"/>
<path d="M123.076 246.408C123.076 246.701 123.136 246.929 123.247 247.1M130.69 244.944C132.016 244.327 133.301 243.621 134.644 243.041C143.152 239.361 151.661 235.777 159.976 231.619C187.398 217.908 212.187 200.407 235.096 180.075C240.903 174.921 246.5 169.511 251.935 163.968C255.321 160.514 258.457 156.184 262.332 153.278" fill="none" fill-rule="evenodd" opacity="1" stroke="#4da7b3" stroke-linecap="round" stroke-linejoin="round" stroke-width="13.92"/>
<path d="M122.343 244.212C126.738 242.747 130.635 240.34 134.644 238.062C142.724 233.471 150.669 228.703 158.512 223.712C178.814 210.792 198.634 197.156 217.67 182.418C225.921 176.031 234.083 169.446 242.124 162.796C247.557 158.304 252.794 153.389 258.671 149.471" fill="none" fill-rule="evenodd" opacity="1" stroke="#4da7b3" stroke-linecap="round" stroke-linejoin="round" stroke-width="13.92"/>
<path d="M146.358 228.69C152.141 225.799 157.241 220.663 162.319 216.683C170.45 210.31 178.917 204.33 187.359 198.379C200.165 189.352 213.451 181.044 226.163 171.875C239.626 162.164 252.318 151.625 265.261 141.271" fill="none" fill-rule="evenodd" opacity="1" stroke="#4da7b3" stroke-linecap="round" stroke-linejoin="round" stroke-width="13.92"/>
<path d="M115.315 234.694C117.434 235.754 120.525 233.693 122.49 233.083C128.115 231.337 133.75 229.555 139.329 227.665C154.438 222.548 169.278 216.498 183.552 209.361C189.634 206.32 195.456 202.802 201.416 199.55" fill="none" fill-rule="evenodd" opacity="1" stroke="#4da7b3" stroke-linecap="round" stroke-linejoin="round" stroke-width="13.92"/>
<path d="M120.012 246.387C119.824 246.325 119.628 246.437 119.481 246.379C118.689 246.065 117.905 245.49 117.158 245.08C113.487 243.064 109.526 240.948 105.586 239.567" fill="none" fill-rule="evenodd" opacity="1" stroke="#4da7b3" stroke-linecap="round" stroke-linejoin="round" stroke-width="13.92"/>
<path d="M142.365 272.213C142.818 272.338 142.638 272.254 142.926 272.417" fill="none" fill-rule="evenodd" opacity="1" stroke="#4da7b3" stroke-linecap="round" stroke-linejoin="round" stroke-width="13.92"/>
<path d="M126.795 23.5709C121.35 35.8209 122.186 51.0757 121.436 64.1489C120.511 80.2579 119.605 96.4313 119.904 112.575C120.035 119.619 120.801 126.592 121.053 133.629" fill="none" fill-rule="evenodd" opacity="1" stroke="#ffffff" stroke-linecap="round" stroke-linejoin="round" stroke-width="13.92"/>
</g>
</svg>
