<?xml version="1.0" encoding="UTF-8" standalone="no"?>
<!DOCTYPE svg PUBLIC "-//W3C//DTD SVG 1.1//EN" "http://www.w3.org/Graphics/SVG/1.1/DTD/svg11.dtd">
<!-- Created with Vectornator (http://vectornator.io/) -->
<svg height="100%" stroke-miterlimit="10" style="fill-rule:nonzero;clip-rule:evenodd;stroke-linecap:round;stroke-linejoin:round;" version="1.1" viewBox="0 0 255 255" width="100%" xml:space="preserve" xmlns="http://www.w3.org/2000/svg" xmlns:vectornator="http://vectornator.io" xmlns:xlink="http://www.w3.org/1999/xlink">
<defs/>
<clipPath id="ArtboardFrame">
<rect height="255" width="255" x="0" y="0"/>
</clipPath>
<g clip-path="url(#ArtboardFrame)" id="레이어-1" vectornator:layerName="레이어 1">
<path d="M469.489 131.314C471 131.206 472.511 131.098 474.022 130.99" fill="none" fill-rule="evenodd" opacity="1" stroke="#000000" stroke-linecap="round" stroke-linejoin="round" stroke-width="10"/>
<path d="M422.873 153.004C422.873 150.909 423.128 148.672 424.167 146.853" fill="none" fill-rule="evenodd" opacity="1" stroke="#000000" stroke-linecap="round" stroke-linejoin="round" stroke-width="10"/>
<path d="M-0.379624 151.019C-1.51978 147.773 2.3297 151.66 3.10948 152.336C6.01767 154.855 8.63704 157.653 11.5085 160.221C18.8498 166.788 27.2509 172.568 35.4377 178.027C48.8839 186.993 63.786 193.681 77.9164 201.423C89.9015 207.99 102.65 215.885 116.385 218.056C132.172 220.551 147.802 210.94 160.762 203.256C173.57 195.663 186.088 187.225 197.654 177.829C210.94 167.035 222.859 154.792 235.244 143.016C242.853 135.781 250.609 128.681 257.685 120.909C261.428 116.797 265.416 112.721 267.294 107.425" fill="none" fill-rule="evenodd" opacity="1" stroke="#b3724d" stroke-linecap="round" stroke-linejoin="round" stroke-width="10"/>
<path d="M-6.76228 177.655C-3.73346 175.86 0.891209 180.09 3.25505 181.703C7.31501 184.475 11.563 187.073 15.2961 190.307C17.9316 192.59 20.2973 195.099 23.1011 197.19C30.7841 202.92 41.4924 206.272 49.9986 210.866C58.7467 215.59 67.6948 220.024 76.3951 224.838C80.3447 227.024 84.1562 229.667 88.2966 231.493C92.1269 233.183 96.2276 234.395 100.109 236C106.303 238.561 111.982 242.185 118.395 244.287C129.992 248.089 142.994 240.95 152.901 235.678C178.144 222.244 199.598 203.97 221.535 185.845C240.302 170.339 260.971 155.806 273.744 134.578" fill="none" fill-rule="evenodd" opacity="1" stroke="#b3724d" stroke-linecap="round" stroke-linejoin="round" stroke-width="10"/>
<path d="M20.663-18.2015C20.4794-19.3031 20.5025-21.9108 20.0615-23.0135C19.872-23.4871 18.6387-22.5306 17.455-21.61C16.7453-21.058 16.1521-20.3672 15.45-19.8055C12.2182-17.2201 8.98173-14.6776 5.82607-11.986C-3.89195-3.69713-14.0084 4.63838-22.4443 14.2793C-24.7777 16.9461-27.7188 20.6796-28.8602 24.1038C-29.045 24.658-29.4137 26.3921-28.4592 26.7103C-25.8678 27.5741-22.251 25.0212-20.2388 23.9033C-15.3819 21.205-10.5632 18.3385-5.80286 15.4823C14.3621 3.38332 34.8627-8.24898 54.7478-20.808C60.504-24.4435 66.3641-27.9028 72.1912-31.4344C73.0637-31.9632 73.9229-32.5135 74.7977-33.0384C75.1558-33.2533 78.2062-34.6977 78.2062-35.2439C78.2062-35.4688 78.1767-35.4297 76.2012-34.4419C75.2655-33.9741 74.3223-33.521 73.3942-33.0384C70.5277-31.5478 67.7488-29.8665 64.9733-28.2264C55.7145-22.7553 46.4298-17.3435 37.1039-11.986C21.1637-2.82889 5.14409 6.16215-10.8153 15.2818C-14.4096 17.3357-17.8976 19.5713-21.4418 21.6978C-21.7957 21.9101-24.4493 23.4977-24.4493 23.7028C-24.4493 23.9731-23.8273 23.9369-21.8428 23.1013C-19.1671 21.9747-16.5136 20.7859-13.8228 19.6928C-9.0992 17.7738-4.31628 15.987 0.412603 14.0788C17.336 7.25009 34.6323 1.58465 52.1413-3.56507C90.1371-14.7403 128.321-23.0647 167.629-28.0259C181.752-29.8084 196.083-31.6349 210.335-31.6349C210.469-31.6349 210.065-31.6611 209.934-31.6349C209.394-31.5268 208.873-31.3276 208.33-31.2339C206.933-30.993 205.519-30.8594 204.119-30.6324C199.452-29.8755 194.776-29.2858 190.085-28.6274C177.427-26.8509 164.77-24.8859 152.19-22.6125C107.216-14.4845 62.4439-3.74106 18.4575 8.66536C9.61733 11.1587 0.834246 13.5427-7.80785 16.6853C-9.13875 17.1693-10.4743 17.641-11.8178 18.0888C-12.0267 18.1584-13.6535 18.8284-13.6223 18.8908C-13.4275 19.2805-5.97503 19.3342-5.00087 19.2918C1.85602 18.9937 8.66836 17.0767 15.2495 15.2818C46.8088 6.67474 79.9821 2.47931 112.491-0.156591C147.671-3.00895 182.89-3.18176 218.154-3.56507C226.911-3.66025 235.666-3.78743 244.42-3.96607C245.758-3.99338 247.097-4.0454 248.43-4.16657C249.513-4.26507 251.151-3.79496 251.638-4.76807C251.791-5.07374 248.959-5.16906 248.63-5.16906C245.511-5.16906 242.229-3.65033 239.207-2.96358C231.585-1.23129 223.952-0.958586 216.149-0.958586C194.096-0.958586 172.045-0.370641 149.985-0.557588C103.174-0.954287 56.5337 1.41249 9.83605 4.65538C-0.322982 5.36087-10.4825 5.44944-20.6398 6.05888C-22.0471 6.14331-23.4507 6.29022-24.8503 6.45987C-25.4584 6.53358-31.2443 7.23997-31.6672 7.66287C-32.2382 8.23389-30.2679 8.61794-29.4617 8.66536C-26.0419 8.86653-22.444 8.79258-19.0358 8.46486C-10.7259 7.66583-2.48641 6.24904 5.82607 5.45738C28.9588 3.25426 52.1707 2.64533 75.3992 2.85089C121.28 3.25692 167.158 6.87581 212.941 9.46736C227.318 10.2811 241.694 11.3356 256.049 12.4748C261.525 12.9095 266.996 13.2768 272.49 13.2768C272.891 13.2768 273.312 13.4036 273.693 13.2768C273.893 13.21 273.286 13.1576 273.091 13.0763C272.484 12.8232 271.921 12.4505 271.287 12.2743C268.849 11.5972 266.338 11.2192 263.868 10.6704C256.075 8.93849 248.295 7.14401 240.41 5.85838C219.952 2.52285 199.35 1.77075 178.656 1.4474C132.259 0.722445 85.7938 5.56203 39.5099 8.06386C22.6123 8.97725 5.70135 9.77177-11.2163 10.2694C-15.7501 10.4027-20.3133 10.4699-24.8503 10.4699C-25.9196 10.4699-26.9972 10.6025-28.0582 10.4699C-28.2065 10.4513-28.4592 10.1199-28.4592 10.2694C-28.4592 11.3113-24.361 11.6522-24.2488 11.6728C-18.4994 12.7319-12.7991 13.8527-7.00586 14.6803C9.94086 17.1013 27.046 18.2506 44.1214 19.2918C105.477 23.033 166.765 27.4093 228.179 30.1187C240.406 30.6582 252.63 31.0614 264.871 30.9207C266.342 30.9038 267.82 30.8902 269.282 30.7202C270.701 30.5552 272.118 30.3107 273.492 29.9182C274.154 29.7291 275.634 28.8026 275.698 27.9133C275.809 26.36 274.348 25.7048 273.292 25.1063C271.913 24.3252 270.547 23.5016 269.081 22.9008C266.46 21.8267 263.752 20.9774 261.061 20.0938C243.187 14.2247 224.194 12.455 205.523 11.4723C166.957 9.44255 128.923 13.2082 90.8376 19.0913C69.486 22.3895 47.7697 26.0492 27.079 32.3242C16.5009 35.5323 6.97018 39.7669-3.19638 43.9532" fill="none" fill-rule="evenodd" opacity="1" stroke="#b3724d" stroke-linecap="round" stroke-linejoin="round" stroke-width="10"/>
<path d="M20.8635 55.9831C20.2416 55.9054 14.926 55.2586 14.648 54.9806C14.5135 54.846 16.0513 54.9806 16.0515 54.9806C17.0722 55.1507 17.9957 55.1811 19.059 55.1811C21.9793 55.1811 24.7824 54.7201 27.6805 54.3791C33.6771 53.6736 39.7083 53.076 45.7254 52.5746C49.2789 52.2785 52.3364 52.3091 55.7503 51.1711" fill="none" fill-rule="evenodd" opacity="1" stroke="#b3724d" stroke-linecap="round" stroke-linejoin="round" stroke-width="10"/>
<path d="M108.883 40.9457C112.854 40.2237 116.344 38.3644 120.11 36.9357C126.709 34.4329 133.451 32.1007 140.16 29.9182C149.294 26.9471 158.625 24.9932 167.829 22.2993C173.245 20.7142 178.516 18.6703 183.869 16.8858C188.85 15.2255 193.66 13.5488 198.506 11.4723C199.055 11.2369 199.888 11.2254 200.11 10.6704C200.26 10.2929 199.313 10.4883 198.907 10.4699C197.838 10.4213 196.765 10.3918 195.699 10.4699C194.02 10.5927 192.349 10.8155 190.686 11.0713C182.965 12.2592 173.929 13.7841 166.025 15.2818C140.258 20.164 115.284 27.1959 90.6371 36.1337C83.0088 38.9 75.5796 42.1222 67.9807 44.9557C66.2578 45.5981 64.504 46.1545 62.7678 46.7602C61.2905 47.2755 59.9213 48.3641 58.3568 48.3641C58.1158 48.3641 58.7517 48.0871 58.9583 47.9631C59.7544 47.4855 60.5483 47.0026 61.3643 46.5597C62.888 45.7325 64.4305 44.9399 65.9757 44.1537C68.2401 43.0016 70.499 41.8374 72.7927 40.7452C77.5171 38.4955 82.251 36.264 87.0281 34.1287C109.076 24.2741 131.815 16.681 155.398 11.4723C162.093 9.99366 168.92 9.17989 175.649 7.86337C175.919 7.81046 176.726 7.66287 176.451 7.66287C170.448 7.66287 163.382 9.06168 157.604 10.0689C148.913 11.5838 140.298 13.5431 131.739 15.6828C111.996 20.6186 93.0393 27.4437 73.9957 34.5297C62.2496 38.9004 50.5391 43.8155 38.5074 47.3617C36.4075 47.9806 34.2587 48.4555 32.0914 48.7651C31.8529 48.7992 31.3692 48.5727 31.4899 48.3641C33.0738 45.6284 34.1073 44.9493 36.5024 43.5522C42.1663 40.2482 47.7458 36.7883 53.5448 33.7277C75.6908 22.0395 100.41 15.4401 124.321 8.66536C127.457 7.77692 130.578 6.82917 133.744 6.05888C135.999 5.51054 138.241 4.65538 140.561 4.65538C140.984 4.65538 139.758 4.91811 139.358 5.05638C138.02 5.51962 136.699 6.03342 135.348 6.45987C132.888 7.23673 130.41 7.95664 127.93 8.66536C124.328 9.69436 120.7 10.6276 117.103 11.6728C108.029 14.3096 98.9709 17.0205 90.0356 20.0938C67.8108 27.738 46.2886 37.0757 24.4725 45.7577C20.8167 47.2125 17.1531 48.6524 13.445 49.9681C12.9997 50.1262 12.4046 50.4712 12.0415 50.1686C11.3058 49.5555 12.6792 48.3742 14.648 46.9607C16.4097 45.6958 18.2209 44.4987 20.0615 43.3517C22.8338 41.624 25.6575 39.9795 28.4825 38.3392C48.3625 26.7959 69.0555 17.0322 89.6346 6.86087C93.5749 4.91339 97.6691 3.17484 101.264 0.645405C101.845 0.236549 102.821-0.26506 102.667-0.958586C102.536-1.54937 101.463-1.23653 100.863-1.15909C99.3671-0.966127 97.9171-0.511157 96.4516-0.156591C93.7733 0.491391 91.1026 1.17069 88.4316 1.8484C80.9732 3.74084 73.6197 6.06735 66.3767 8.66536C47.5297 15.4257 29.6849 23.7292 12.0415 33.1262C9.34869 34.5605 6.66611 36.0157 4.02158 37.5372C1.78623 38.8233-0.401264 40.1911-2.59488 41.5472C-4.34612 42.6298-9.46801 46.0375-7.60735 45.1562C-6.58056 44.6698-5.61174 44.0689-4.59987 43.5522C-2.47035 42.4648-0.305769 41.4465 1.8161 40.3442C4.8408 38.7729 7.82302 37.121 10.8385 35.5322C14.0386 33.8462 17.2471 32.1762 20.4625 30.5197C28.0889 26.591 35.6851 22.6037 43.3194 18.6903C52.9731 13.7418 62.8101 9.14414 72.3917 4.05389C74.9324 2.70416 77.7759 1.6772 79.8102-0.35709C79.9438-0.490756 79.5982-0.758087 79.4092-0.758087C78.5301-0.758087 77.6659-0.523096 76.8027-0.35709C75.9271-0.188701 75.0508-0.0101418 74.1962 0.244407C71.9073 0.926207 69.6405 1.68149 67.3792 2.4499C62.7564 4.02077 58.1503 5.64074 53.5448 7.26187C35.6187 13.5719 18.4816 21.3978 1.4151 29.7177C-3.20596 31.9705-7.82114 34.2356-12.4193 36.5347C-13.5424 37.0963-14.7047 37.5771-15.8278 38.1387C-16.3097 38.3797-17.6624 39.264-17.2313 38.9407C-9.43937 33.0967 1.20503 28.5334 9.63555 24.1038C19.6969 18.8173 29.7067 13.4591 39.7104 8.06386C42.4474 6.58772 45.1825 5.10788 47.9308 3.65289C49.7273 2.70184 51.5675 1.83304 53.3443 0.845904C53.9631 0.502144 58.3568-2.15615 58.3568-2.36208C58.3568-2.84863 57.4064-2.13838 56.9533-1.96108C55.8664-1.53576 54.8129-1.02932 53.7453-0.557588C51.9391 0.240508 50.1469 1.07053 48.3318 1.8484C43.2421 4.02971 38.1199 6.14036 33.0939 8.46486C19.2589 14.8636 5.41674 22.337-7.20636 30.9207C-10.0913 32.8825-12.903 34.9568-15.6273 37.1362C-16.4525 37.7963-18.179 38.9955-17.4318 39.7427C-16.5228 40.6517-14.8529 39.5132-13.6223 39.1412C-11.6599 38.5479-9.73538 37.8346-7.80785 37.1362C1.82055 33.6477 11.3131 29.8005 20.8635 26.1088C45.8234 16.4604 70.8681 6.68313 96.6521-0.557588C101.85-2.01717 107.064-3.41635 112.291-4.76807C114.818-5.42154 117.362-6.00639 119.91-6.57256C121.573-6.94219 123.244-7.27894 124.922-7.57505C125.518-7.68022 126.16-7.98805 126.727-7.77555C126.985-7.67879 126.73-7.15976 126.526-6.97355C125.884-6.38473 125.109-5.94215 124.321-5.57006C122.694-4.80165 121.001-4.17677 119.308-3.56507C112.272-1.02187 105.16 1.30829 98.0556 3.65289C90.8101 6.04389 83.6012 8.54522 76.4017 11.0713C68.4222 13.8712 60.4546 16.7083 52.5423 19.6928C36.7592 25.6461 21.2084 32.22 5.42508 38.1387C5.08809 38.2651 6.08894 37.8596 6.42757 37.7377C7.76002 37.258 9.09647 36.7892 10.4375 36.3342C12.8392 35.5194 15.2524 34.7389 17.6555 33.9282C24.5342 31.6077 29.9525 29.6762 36.9034 27.5123C50.8729 23.1633 64.9491 19.5411 79.2087 16.2843C124.345 5.97533 170.738-1.08961 217.152-0.758087C222.5-0.719886 227.848-0.564634 233.192-0.35709C238.216-0.161982 243.87-0.115159 248.63 1.6479C249.169 1.84758 249.758 2.14568 250.034 2.65039C250.793 4.0417 247.93 4.97235 247.628 5.05638C244.799 5.84221 241.894 6.32783 239.006 6.86087C234.042 7.7774 228.982 8.06857 223.969 8.66536C207.889 10.5796 191.743 11.8443 175.649 13.6778C130.791 18.7882 85.2351 26.1454 41.9159 39.1412C32.3383 42.0145 22.6805 44.6544 13.2445 47.9631C9.67185 49.2159 6.1517 50.614 2.61809 51.9731C1.33213 52.4677 0.0409514 52.9609-1.19139 53.5771C-1.67333 53.8181-2.72556 53.8564-2.59488 54.3791C-2.46816 54.886 0.581228 53.9863 0.613102 53.9781C2.41852 53.5139 4.23269 53.0816 6.02657 52.5746C15.6456 49.8562 25.2383 47.1307 34.8984 44.5547C59.3876 38.0242 83.806 31.6208 108.883 27.7128C118.808 26.1659 129.486 24.8173 139.559 25.5073C141.158 25.6168 146.707 26.6229 144.17 28.3143" fill="none" fill-rule="evenodd" opacity="1" stroke="#b3724d" stroke-linecap="round" stroke-linejoin="round" stroke-width="10"/>
<g opacity="1">
<path d="M15.8438 44.1562C14.7103 44.2152 13.5649 44.4165 12.4375 44.6875C9.74061 45.3471 8.09045 48.0531 8.75 50.75C9.19648 52.5756 10.6237 53.8688 12.3125 54.3438C9.73864 54.9711 7.16332 55.6183 4.65625 56.4688C0.468428 57.8893-3.9622 59.5235-7.71875 61.9062C-12.5215 64.9526-16.8836 69.9175-16.7188 75.75C-16.6952 76.5832-16.5632 77.4154-16.3438 78.2812C-16.105 79.2234-15.7534 80.1515-15.2812 81C-14.6217 82.1854-13.7632 83.2524-12.7812 84.1875C-10.1849 86.66-6.99042 88.3827-3.6875 89.7188C2.05771 92.0427 8.12447 93.0405 14.2812 93.5C22.4891 94.1126 30.719 93.6713 38.9375 93.7812C46.5785 93.8834 54.22 94.4924 61.8438 94.9688C64.7706 95.15 67.2875 92.9268 67.4688 90C67.65 87.0731 65.4269 84.5563 62.5 84.375C53.5339 83.8247 44.5512 83.1444 35.5625 83.1875C28.7309 83.2203 21.8837 83.4712 15.0625 82.9688C10.863 82.6594 6.67402 82.1158 2.65625 80.8125C0.11922 79.9896-2.46964 78.9783-4.625 77.375C-5.61109 76.6415-6.42175 76.0205-6.15625 74.9688C-5.87826 73.8675-4.96437 72.9212-4.15625 72.1875C-2.21454 70.4247 0.20935 69.385 2.59375 68.375C6.93052 66.538 11.471 65.0641 16.0938 64C15.2473 65.7588 14.5071 67.5712 14.5938 69.5625C14.7788 73.8139 18.2215 76.8755 22.125 77.9062C23.6608 78.3118 25.2329 78.4714 26.8125 78.5938C31.6753 78.9703 36.618 78.3579 41.3125 77.0625C44.2573 76.2499 47.2127 75.1244 49.7188 73.3438C51.0565 72.3932 52.2724 71.2747 53.1875 69.9062C53.9447 68.774 54.5001 67.4989 54.75 66.1562C54.9157 65.2661 54.9609 64.3356 54.8438 63.4375C53.9993 56.9633 46.5661 54.3457 41.125 53.125C36.7943 52.1534 32.379 51.9963 27.9688 52.1562C26.4414 48.4223 23.2458 45.3592 19.25 44.4375C18.1105 44.1747 16.9772 44.0973 15.8438 44.1562ZM32.0312 62.25C35.2025 62.3252 38.407 62.8019 41.4375 63.75C42.373 64.0427 43.2879 64.3907 44.1562 64.8438C44.0593 64.9227 43.9773 65.022 43.875 65.0938C43.3094 65.4908 42.6904 65.8072 42.0625 66.0938C40.046 67.0142 37.86 67.5925 35.6875 68C32.7695 68.5473 29.8631 68.7563 26.9062 68.5C26.3434 68.4512 25.7439 68.2864 25.1562 68.1562C25.167 68.1339 25.1763 68.1167 25.1875 68.0938C25.6358 67.176 26.1689 66.289 26.625 65.375C27.0945 64.4341 27.4192 63.4238 27.7812 62.4375C29.1967 62.3685 30.614 62.2164 32.0312 62.25Z" fill="#b3724d" stroke="none"/>
</g>
<g opacity="1">
<path d="M128.719-0.96875C125.668-0.868822 122.624-0.623369 119.594-0.15625C103.625 2.3053 88.7915 9.54294 75.4375 18.4062C67.7401 23.5151 60.6527 29.4631 54.4688 36.25C47.4268 38.9384 41.0882 43.1849 35.3438 48.0312C21.881 59.3892 11.5802 75.4233 11.25 93.4688C11.182 97.183 11.5456 100.89 12.2812 104.531C14.3072 114.558 19.2331 123.698 26.125 131.219C29.8258 135.257 34.0248 138.829 38.4375 142.062C47.2617 148.528 56.9235 153.99 67.5625 156.781C76.97 159.25 86.8759 159.008 96.5 158.375C103.202 157.934 109.82 157.039 116.344 155.406C142.592 148.837 166.372 132.394 181.75 110.125C189.224 99.3021 194.89 86.9939 197.344 74.0312C198.097 70.0535 198.464 66.0393 198.688 62C198.961 57.0509 198.952 52.0437 198.281 47.125C195.642 27.7779 181.035 11.7027 163.312 4.375C155.301 1.06263 146.486-0.339471 137.875-0.84375C134.818-1.02278 131.77-1.06868 128.719-0.96875ZM127.812 0.75C130.484 0.674221 133.139 0.738993 135.812 0.90625C143.963 1.41614 152.562 2.71814 160.188 5.75C175.094 11.6764 188.389 24.6469 192.625 40.375C194.668 47.9619 194.415 56.0103 193.531 63.75C192.401 73.6475 189.574 82.8955 185.062 91.7812C172.049 117.41 147.591 137.042 120.125 145.188C112.231 147.529 104.149 148.75 95.9375 149.188C87.318 149.647 78.4103 149.934 70 147.656C61.0357 145.229 52.9428 140.689 45.4062 135.344C34.8505 127.857 25.6947 118.438 21.875 105.781C20.8204 102.287 20.1798 98.6793 20.0312 95.0312C19.3453 78.1863 29.1001 63.2019 41.5312 52.6562C42.0669 52.2018 42.6738 51.8494 43.2188 51.4062C42.2182 52.9415 41.1222 54.4104 40.2812 56.0312C38.3576 59.739 36.9902 63.8032 35.9688 67.8438C34.7216 72.7772 33.9747 77.9373 34.0938 83.0625C33.8848 82.5813 33.5961 82.2015 33.4062 81.6875C33.2519 81.2695 33.0959 80.8852 32.9375 80.4688C32.7571 79.9943 32.0662 78.4002 32.375 77.75C32.0695 78.4051 32.577 79.9146 32.7812 80.5C32.8574 80.7184 32.9543 80.9381 33.0312 81.1562C33.1626 81.5286 33.2853 81.9054 33.4062 82.2812C33.5984 82.8782 33.63 83.0058 33.875 83.5938C33.9447 83.7611 34.049 83.9266 34.125 84.0938C34.2004 85.7056 34.3567 87.3161 34.625 88.9062C35.9798 96.935 39.9326 103.967 44.9375 110.281C48.8346 115.198 53.2066 119.584 58.3125 123.25C70.3423 131.888 85.002 136.512 99.625 138.094C105.367 138.715 111.34 139.046 117.094 138.375C122.15 137.786 127.075 136.407 131.875 134.75C133.872 134.061 135.826 133.209 137.781 132.406C135.824 133.21 133.848 133.937 131.844 134.625C127.05 136.271 122.11 137.669 117.062 138.25C111.319 138.911 105.386 138.536 99.6562 137.906C86.0513 136.411 72.4631 132.276 60.9688 124.719C54.8827 120.718 49.7056 115.751 45.2188 110.031C40.7961 104.394 37.2002 98.2097 35.625 91.1562C35.1891 89.2046 34.9127 87.238 34.7812 85.25C35.6089 86.7328 36.6205 88.1505 38 89.0938C39.0219 89.7925 40.212 90.2911 41.3438 90.7812C45.3797 92.5291 49.6142 93.3541 53.8125 93.3125C56.182 94.687 58.7284 95.6998 61.4688 96C69.3486 96.8633 76.4952 92.8093 82.5 88.125C84.3664 86.6691 86.1838 85.1266 87.875 83.4688C97.2136 74.3149 104.92 59.5811 99.4688 46.5C98.6969 44.648 97.6753 42.8831 96.4688 41.2812C95.286 39.7111 93.9273 38.2446 92.375 37.0312C89.0925 34.4654 85.0225 33.1083 80.9375 32.5312C74.4739 31.6182 67.8002 32.4316 61.5 34C59.8015 34.4228 58.1277 34.9712 56.4688 35.5312C62.3178 29.3986 68.9006 23.977 76.0312 19.3125C89.2855 10.6423 103.984 3.58139 119.812 1.40625C122.468 1.04127 125.141 0.825779 127.812 0.75ZM137.781 132.406C138.805 131.986 139.875 131.662 140.875 131.188C144.511 129.462 147.946 127.366 151.156 124.938C151.6 124.602 151.942 124.16 152.375 123.812C149.622 126.024 146.685 128.022 143.531 129.719C141.662 130.724 139.739 131.603 137.781 132.406ZM152.375 123.812C154.3 122.266 156.123 120.607 157.844 118.844C156.129 120.607 154.306 122.264 152.375 123.812ZM157.844 118.844C158.674 117.99 159.47 117.118 160.25 116.219C159.472 117.11 158.67 117.997 157.844 118.844ZM160.25 116.219C160.992 115.368 161.646 114.451 162.344 113.562C161.651 114.451 160.988 115.368 160.25 116.219ZM162.344 113.562C163.975 111.47 165.53 109.335 166.906 107.062C165.522 109.331 163.98 111.478 162.344 113.562ZM166.906 107.062C167.608 105.913 168.209 104.721 168.844 103.531C168.213 104.72 167.603 105.912 166.906 107.062ZM168.844 103.531C169.961 101.424 170.996 99.3012 171.906 97.0938C170.998 99.2936 169.962 101.437 168.844 103.531ZM171.906 97.0938C172.127 96.5589 172.448 96.0714 172.656 95.5312C172.896 94.9086 172.996 94.2525 173.219 93.625C172.803 94.79 172.378 95.9502 171.906 97.0938ZM173.219 93.625C173.669 92.3634 174.271 91.1571 174.656 89.875C175.188 88.1036 175.563 86.2991 175.969 84.5C175.266 87.6012 174.285 90.6162 173.219 93.625ZM141.344 21.8125C146.139 22.1126 150.898 23.1719 155.312 24.9688C150.897 23.1721 146.14 22.1118 141.344 21.8125ZM167.25 32.5625C168.975 34.1964 170.532 36.0345 171.906 38.0312C172.773 39.2914 173.548 40.5963 174.219 41.9375C173.546 40.596 172.806 39.2619 171.938 38C170.563 36.0031 168.975 34.1964 167.25 32.5625ZM174.219 41.9375C174.772 43.0441 175.224 44.1918 175.656 45.3438C175.223 44.1901 174.774 43.0462 174.219 41.9375ZM80.125 38.8125C82.6947 39.1047 85.311 39.7525 87.5625 41.0625C88.9492 41.8693 90.1012 42.9537 91.1562 44.1562C92.1793 45.3224 93.073 46.619 93.7812 48C98.7624 57.7118 93.4042 69.4762 87.0938 77.1875C85.8653 78.6887 84.5647 80.1335 83.1562 81.4688C81.3275 83.2024 79.3956 84.838 77.375 86.3438C72.9596 89.634 67.7949 92.2271 62.1875 91.9062C65.2809 90.8912 68.262 89.3945 70.9375 87.2188C73.4655 85.1629 75.615 82.6762 77.375 79.9375C80.154 75.6131 82.3763 70.2587 80.7812 65.0938C80.4068 63.8812 79.8979 62.7112 79.1875 61.6562C75.6686 56.431 68.6973 55.1662 63.0625 57.375C61.025 58.1737 59.1182 59.2875 57.3438 60.5625C56.0196 61.514 54.7582 62.5778 53.5938 63.7188C47.9654 69.2334 43.1778 78.0443 46.6875 85.9375C47.2256 87.1478 47.9323 88.2969 48.7812 89.3125C49.817 90.5516 51.1076 91.5243 52.4375 92.4375C48.1397 92.3874 43.7967 91.4144 39.7188 89.5C37.2661 88.3486 35.8768 86.482 34.75 84.3438C34.4853 78.4195 35.4062 72.42 37.0312 66.75C38.0432 63.2192 39.3079 59.6888 41.0312 56.4375C42.2458 54.1461 43.7646 52.0296 45.2188 49.875C49.1454 46.8726 53.2371 44.1301 57.875 42.3438C59.9262 41.5537 62.0294 40.8954 64.1562 40.3438C69.3268 39.0027 74.7859 38.2053 80.125 38.8125ZM175.969 46.125C176.921 48.8489 177.54 51.6811 177.938 54.5625C177.539 51.6799 176.923 48.8492 175.969 46.125ZM178 54.9375C178.238 56.7638 178.248 58.6186 178.312 60.4688C178.248 58.6157 178.239 56.7648 178 54.9375ZM178.312 60.4688C178.357 61.7528 178.494 63.0273 178.469 64.3125C178.494 63.026 178.357 61.7555 178.312 60.4688ZM178.469 64.3125C178.421 66.8065 178.212 69.2795 177.969 71.7188C178.214 69.2676 178.42 66.8108 178.469 64.3125ZM69.4062 58.7812C73.949 58.9703 78.0521 61.8421 79.125 66.7812C80.1284 71.4003 77.9257 76.0813 75.4688 79.875C73.9611 82.2029 72.1352 84.3459 70.0312 86.1562C66.9437 88.8129 63.4489 90.5788 59.7812 91.5625C57.7807 91.1039 55.8573 90.3431 54.1562 89.1875C52.9932 88.3974 51.9242 87.4585 51.0625 86.3438C48.2042 82.6459 48.5732 77.7895 50.3125 73.6875C52.356 68.8679 56.1028 64.7017 60.4375 61.8125C61.8035 60.902 63.2651 60.0598 64.8125 59.5C66.3311 58.9506 67.892 58.7182 69.4062 58.7812ZM177.875 72.9688C177.456 76.7647 176.892 80.5383 176.062 84.25C176.774 81.0465 177.349 77.8262 177.75 74.5625C177.814 74.0423 177.817 73.4936 177.875 72.9688ZM32.4375 77.5C32.3943 77.536 32.4045 77.6368 32.375 77.6875C32.464 77.5378 32.7282 77.5565 32.9688 77.5625C32.7938 77.5521 32.5332 77.4203 32.4375 77.5ZM32.9688 77.5625C33.1122 77.571 33.1995 77.5096 33.4062 77.5938C33.3283 77.562 33.2676 77.5209 33.1875 77.5C33.0717 77.4698 33.0588 77.5647 32.9688 77.5625ZM33.4062 77.5938C33.4937 77.6293 33.5729 77.6475 33.6562 77.6875C33.6027 77.6601 33.5548 77.619 33.5 77.5938C33.4529 77.572 33.4503 77.6117 33.4062 77.5938Z" fill="#b3724d" stroke="none"/>
</g>
<g opacity="1">
<path d="M140.312 23.875C132.078 24.1711 123.898 25.0106 115.844 26.7812C107.217 28.6776 98.8047 31.5341 90.625 35.0312C83.1199 36.0849 75.7189 37.6821 68.375 39.5625C65.2704 38.8664 61.7683 39.1051 58.9062 39.5938C58.1988 39.7145 57.513 39.8442 56.8125 40C56.0405 40.1717 54.8599 40.5244 54.0938 40.75C52.8204 41.125 51.5622 41.5216 50.3125 41.9688C38.0472 46.3571 26.509 52.6321 15.5312 59.5938C7.59794 64.6247-0.152075 69.9834-7.59375 75.7188C-7.89904 75.954-8.19579 76.2009-8.5 76.4375C-13.2928 79.7293-18.0418 83.1199-22.5938 86.7188C-24.5381 88.2561-26.444 89.7996-28.0625 91.6875C-28.9471 92.7194-29.7197 93.8167-30.2188 95.0938C-30.6646 96.2347-30.8716 97.4979-30.75 98.7188C-30.6614 99.6088-30.4026 100.485-30 101.281C-27.526 106.175-21.4536 106.56-16.6875 106.969C-15.409 107.078-14.1267 107.133-12.8438 107.156C-11.5852 107.179-10.319 107.2-9.0625 107.125C-3.9531 106.821 1.02004 105.643 6.03125 104.688C9.82706 103.964 13.6761 103.463 17.5 102.844C17.3697 103.419 17.1821 103.984 17.0938 104.562C16.6069 107.751 16.8242 111.315 17.75 114.406C18.5997 117.243 20.3609 119.734 22.4375 121.812C30.6034 129.987 42.8206 130.512 53.5312 128.344C60.13 127.008 66.4402 124.612 72.625 122C75.6846 120.708 78.6903 119.273 81.6875 117.844C90.4738 122.296 101.827 121.251 111.25 119.031C118.224 117.388 124.893 114.907 131.375 111.875C136.633 109.415 141.841 106.8 146.875 103.906C150.837 101.629 154.589 99.0674 158.344 96.4688C160.789 94.7764 163.254 93.1084 165.625 91.3125C167.703 89.7388 169.747 88.1111 171.719 86.4062C175.517 83.1225 179.157 79.1843 182.375 74.9688C183.282 74.9866 184.195 74.8421 185.031 74.3438C187.221 73.0398 187.976 70.3429 187 68.0625C189.515 63.1464 190.982 57.834 190.531 52.1562C190.413 50.6656 190.184 49.1673 189.812 47.7188C189.204 45.3433 188.264 42.9972 187.031 40.875C184.132 35.8848 179.21 32.3118 174.125 29.7812C171.136 28.2939 168.059 27.007 164.844 26.0938C156.896 23.8359 148.519 23.5799 140.312 23.875ZM140.688 34C147.829 33.741 155.139 33.8814 162.062 35.8438C164.677 36.5847 167.195 37.6362 169.625 38.8438C172.781 40.412 176.055 42.5376 178.031 45.5312C178.795 46.6872 179.332 47.9973 179.75 49.3125C180.397 51.3487 180.473 53.386 180.312 55.4062C176.278 47.7701 171.675 40.4615 163.5 36.9375C161.798 36.2037 160.012 35.6684 158.188 35.3438C151.764 34.201 145.244 35.0074 138.906 36.5625C137.949 36.211 137.038 35.7234 136.062 35.4375C134.824 35.0747 133.545 34.8863 132.281 34.625C135.072 34.3699 137.878 34.1019 140.688 34ZM112.094 43.5938C114.365 43.5306 116.669 43.5808 118.969 43.625C104.464 50.006 90.8633 58.7658 80.75 71.0312C73.1289 80.2742 65.8487 93.6595 70.75 105.781C71.415 107.426 72.3945 108.944 73.4062 110.406C69.3308 112.257 65.2362 114.039 61.0312 115.562C53.1968 118.401 43.7002 120.698 35.5 118.094C32.9352 117.279 30.5499 115.755 28.8438 113.656C28.3153 113.006 27.8039 112.281 27.5625 111.469C26.5147 107.943 27.5305 104.37 28.875 101C31.4949 100.604 34.1053 100.12 36.7188 99.7188C39.6172 99.2732 41.6018 96.5859 41.1562 93.6875C40.729 90.9083 38.1986 89.0122 35.4375 89.25C39.6896 83.4887 44.8602 78.2833 50 73.5312C62.4751 61.9971 76.9287 52.2036 92.5625 45.2188C99.043 44.3383 105.577 43.7749 112.094 43.5938ZM153.938 45.0938C154.998 45.162 156.065 45.1414 157.094 45.375C162.656 46.6382 166.292 51.1689 169.125 55.8125C171.437 59.6022 173.391 63.5945 175.438 67.5312C173.672 70.052 171.73 72.4407 169.562 74.625C163.57 80.6628 156.549 85.4846 149.562 90.2812C146.518 92.3712 143.382 94.2976 140.156 96.0938C135.886 98.4712 131.52 100.677 127.094 102.75C121.802 105.228 116.412 107.315 110.75 108.781C108.94 109.25 107.089 109.666 105.25 110C102.343 110.528 99.0285 110.777 95.7188 110.719C96.4245 110.338 97.1402 109.978 97.8438 109.594C112.264 101.718 126.729 93.6207 139.625 83.375C147.78 76.8957 156.976 69.0393 158 57.9375C158.248 55.2528 158.195 52.1885 157.062 49.6875C156.298 47.9999 155.141 46.4912 153.938 45.0938ZM137.875 47.3125C138.697 47.6633 139.568 47.8761 140.375 48.25C141.896 48.9545 143.35 49.75 144.812 50.5625C144.831 50.5945 144.901 50.623 144.938 50.6562C145.041 50.7521 145.119 50.8378 145.219 50.9375C145.502 51.22 145.768 51.4777 146.031 51.7812C146.586 52.4219 147.067 53.1172 147.5 53.8438C147.674 55.4499 147.781 56.9457 147.406 58.5625C146.488 62.5235 143.722 65.7715 140.906 68.5625C137.37 72.0679 133.425 75.1837 129.438 78.1562C119.857 85.2991 109.519 91.2654 99.125 97.125C93.7122 100.177 88.1869 103.113 82.625 105.938C82.1162 105.375 81.5771 104.842 81.1562 104.156C80.5889 103.232 80.0901 102.25 79.75 101.219C78.6924 98.0117 79.3058 94.4398 80.3438 91.3125C82.2767 85.4883 85.9103 80.3146 89.9375 75.75C101.464 62.6854 117.4 54.1613 133.688 48.5312C135.056 48.0581 136.478 47.7295 137.875 47.3125ZM26.6875 83.9688C24.9922 86.3039 23.4587 88.7447 22.0938 91.2812C18.3408 91.8783 14.594 92.4776 10.8438 93.0938C7.48947 93.6448 4.14661 94.2433 0.8125 94.9062C-0.581442 95.1834-2.00553 95.3104-3.40625 95.5625C-2.9283 95.3201-2.44422 95.0918-1.96875 94.8438C1.46674 93.0516 4.85214 91.1629 8.21875 89.25C10.0082 89.3845 11.7798 89.3737 13.3125 89.0625C14.9287 88.7343 16.4507 88.144 18 87.5938C20.9702 86.5388 23.8182 85.2352 26.6875 83.9688Z" fill="#b3724d" stroke="none"/>
</g>
<g opacity="1">
<path d="M138.531 44.25C132.866 44.2348 127.075 45.5413 121.844 47.2812C114.648 49.6743 107.783 53.0413 101.219 56.8125C89.3836 63.6115 78.5298 72.1727 69.3125 82.25C65.6413 86.2637 62.2424 90.5579 59.0625 94.9688C51.7735 105.079 45.9093 119.393 52.7812 131.219C53.6374 132.692 54.6874 134.061 55.8438 135.312C57.6736 137.293 59.7782 139.038 62.0625 140.469C75.1355 148.654 91.5624 144.94 105.031 139.844C110.871 137.634 116.585 135.067 122.125 132.188C126.798 129.759 131.352 127.069 135.719 124.125C138.766 122.07 141.716 119.855 144.562 117.531C150.197 112.932 155.387 107.826 159.875 102.094C162.183 99.1455 164.374 96.0478 166.156 92.75C169.194 87.1298 171.042 80.8513 171.469 74.4688C170.987 80.819 169.022 87.0513 165.906 92.5938C163.829 96.2878 161.248 99.7195 158.5 102.938C153.811 108.429 148.405 113.285 142.594 117.562C139.669 119.715 136.623 121.712 133.5 123.562C129.484 125.943 125.34 128.092 121.094 130.031C115.978 132.367 110.697 134.375 105.344 136.094C92.8671 140.098 76.9272 143.61 65.25 135.594C63.9547 134.705 62.7316 133.709 61.625 132.594C60.3142 131.273 59.1601 129.801 58.2812 128.156C53.4512 119.116 58.6054 108.006 63.9375 100.469C64.8394 99.1938 65.7964 97.9553 66.75 96.7188C72.097 89.7848 78.0572 83.2932 84.6875 77.5625C90.9464 72.1528 97.7846 67.3497 104.906 63.1562C111.025 59.5535 117.397 56.265 124.094 53.875C132.38 50.9179 143.129 48.6285 150.969 53.9688C152.501 55.0122 153.789 56.2966 154.969 57.7188C160.04 63.8324 156.809 73.0261 153.25 79.0312C152.51 80.2804 151.713 81.5023 150.875 82.6875C146.017 89.5579 139.994 95.7657 133.188 100.719C129.18 103.635 124.81 106.147 120.094 107.719C113.556 109.898 105.805 110.171 99.8125 106.281C92.4298 101.489 93.409 91.9467 95.5 84.5312C95.8804 83.1824 96.3183 81.8539 96.7812 80.5312C97.3262 78.9744 97.9264 77.4407 98.5312 75.9062C99.1767 74.2689 99.8949 72.6716 100.531 71.0312C101.101 69.5625 101.495 68.0022 102.281 66.625C102.784 65.7433 103.57 64.5994 104.625 64.3438C106.001 64.0103 107.519 64.8277 108.875 65C108.978 65.0112 109.051 64.9155 109.062 64.8125C109.074 64.7095 109.009 64.6362 108.906 64.625C107.51 64.5005 105.962 63.7594 104.562 64.1562C103.262 64.5249 102.413 66.0463 101.906 67.1875C101.355 68.4303 100.998 69.7367 100.5 71C99.8548 72.6368 99.1243 74.2418 98.4688 75.875C97.8538 77.407 97.2183 78.9477 96.6562 80.5C93.9098 88.0862 91.0282 99.007 97.7188 105.438C98.4383 106.129 99.2443 106.727 100.094 107.25C107.029 111.522 115.713 110.893 123.094 108.25C130.701 105.527 137.588 100.83 143.656 95.5625C148.522 91.339 153.074 86.5805 156.719 81.25C161.29 74.5641 164.519 65.9024 161.469 57.9375C160.792 56.1701 159.722 54.5531 158.531 53.0938C157.327 51.6178 155.963 50.2668 154.438 49.125C149.722 45.5953 144.197 44.2652 138.531 44.25ZM167.844 55.7812C168.622 57.3144 169.266 58.8872 169.812 60.5C169.259 58.8918 168.624 57.3067 167.844 55.7812ZM169.938 60.9375C170.349 62.2102 170.65 63.5187 170.906 64.8438C170.85 64.5545 170.876 64.2566 170.812 63.9688C170.583 62.9337 170.265 61.935 169.938 60.9375ZM170.906 64.8438C171.237 66.5425 171.48 68.2403 171.562 69.9688C171.498 68.5261 171.362 67.08 171.125 65.6562C171.079 65.3769 170.96 65.1207 170.906 64.8438ZM171.562 70.0312C171.618 71.3172 171.577 72.5909 171.5 73.875C171.553 72.8568 171.682 71.8337 171.656 70.8125C171.65 70.549 171.575 70.2945 171.562 70.0312Z" fill="#b3724d" stroke="none"/>
</g>
<g opacity="1">
<path d="M75.0312 62.0938C73.4483 62.3569 71.8251 63.0804 70.5312 63.6562C70.1097 63.8439 69.6953 64.0464 69.2812 64.25C68.4612 64.6532 67.7762 65.0554 66.9688 65.5C66.1306 65.9615 65.2721 66.4072 64.4375 66.875C63.1772 67.5814 61.9333 68.2994 60.6875 69.0312C56.3798 71.5618 52.2211 74.3437 48.0938 77.1562C35.9177 85.4537 24.4891 94.6914 13.7812 104.812C12.3625 106.154 10.9498 107.501 9.5625 108.875C8.64644 109.782 7.722 110.68 6.8125 111.594C5.89843 112.512 4.97092 113.451 4.0625 114.375C3.60508 114.84 3.17123 115.311 2.71875 115.781C2.41173 116.1 2.04647 116.327 1.71875 116.625C0.788993 117.47 0.158622 118.572 0.46875 119.844C0.516933 120.041 0.581905 120.451 0.75 120.594C1.22374 120.997 1.67756 121.456 2.1875 121.812C2.39865 121.96 3.13862 122.023 3.34375 122.031C4.22809 122.066 5.16213 121.819 5.96875 121.469C9.16767 120.08 11.9311 117.438 14.5625 115.219C14.7208 115.085 14.8734 114.947 15.0312 114.812C15.05 114.851 15.0404 114.9 15.0625 114.938C15.0705 114.951 15.086 114.949 15.0938 114.969C15.0677 114.988 15.4095 115.293 15.4375 115.312C15.7198 115.506 16.0401 115.577 16.375 115.562C17.5154 115.515 18.049 114.62 18.75 113.875C19.0571 113.549 19.4578 113.305 19.8125 113.031C22.6984 110.803 25.5117 108.49 28.3125 106.156C39.4594 96.8673 50.9307 88.0244 62.875 79.7812C66.0418 77.5958 69.1982 75.3798 72.3438 73.1562C75.0345 71.5232 77.7252 69.9092 80.4375 68.3125C83.2906 66.6329 86.1735 65.0149 89.125 63.5625C85.8475 65.1498 82.6459 66.8981 79.4688 68.7188C78.0371 69.5392 76.6181 70.3653 75.1875 71.1875C75.4632 70.9822 75.7575 70.8016 76.0312 70.5938C77.3085 69.6243 79.1184 68.7612 79.8125 67.25C80.2064 66.3925 80.2987 65.4321 80 64.5312C79.9745 64.4544 79.625 63.6948 79.5312 63.625C79.5492 63.6124 79.5181 63.5502 79.5 63.5625C79.4948 63.4904 79.3787 63.3862 79.3125 63.3125C78.1458 62.0154 76.6142 61.8306 75.0312 62.0938ZM63.75 69.5625C63.5911 69.6529 63.4315 69.7372 63.2812 69.8438C63.4368 69.7453 63.5858 69.6433 63.75 69.5625Z" fill="#b3724d" stroke="none"/>
</g>
<path d="M101.665 82.2485C99.7609 79.393 98.848 74.5333 95.4491 73.226C92.455 72.0744 89.0924 77.4384 87.8301 79.0405C86.854 80.2794 85.8907 81.5326 85.0231 82.85C79.7551 90.8496 71.5821 106.892 75.8002 116.734C78.5815 123.224 87.7182 124.401 93.8451 123.952C107.54 122.95 123.53 110.701 130.336 99.0904C134.047 92.7603 134.271 84.5332 128.331 79.4415C126.757 78.0922 119.108 75.2119 119.108 74.2285" fill="none" fill-rule="evenodd" opacity="1" stroke="#b3724d" stroke-linecap="round" stroke-linejoin="round" stroke-width="12.2246"/>
<path d="M-0.360153 97.3117C-1.44889 100.53 2.12995 105.898 3.8092 108.442C9.041 116.365 15.4864 121.807 22.6182 127.896C29.1345 133.46 38.3876 135.809 45.558 140.417C52.6481 144.973 59.4031 150.038 66.5895 154.474C70.8422 157.099 75.488 159.149 79.8078 161.722C83.6592 164.017 87.2402 166.661 91.0054 169.08C95.6294 172.052 101.097 173.52 106.37 174.675C112.501 176.017 117.469 180.699 123.994 180.041C126.633 179.775 129.255 178.308 131.554 177.045C145.914 169.15 156.51 154.697 167.654 143.039C174.684 135.683 181.739 128.25 188.964 121.089C203.166 107.012 219.066 94.5524 234.534 81.9554C243.834 74.3822 253.045 66.9992 263.328 60.7516C263.619 60.5749 270.148 56.6037 270.471 57.8124C270.68 58.592 265.056 64.7148 264.556 65.3324C258.839 72.3887 252.531 77.4485 245.049 82.5368C240.136 85.8779 235.815 90.0045 231.45 94.0038C225.169 99.7596 218.124 104.772 211.651 110.316C206.41 114.803 201.693 119.843 196.555 124.45C188.4 131.762 179.916 138.626 170.973 144.955C162.302 151.09 153.352 156.134 145.637 163.559C143.021 166.077 140.395 168.632 137.878 171.25C137.175 171.98 136.398 172.752 135.729 173.498C135.645 173.591 135.49 173.814 135.608 173.854C136.416 174.127 141.361 169.099 141.692 168.771C145.709 164.789 149.877 161.006 154.398 157.597C175.401 141.756 197.458 127.328 220.249 114.216C236.756 104.719 251.82 93.857 265.675 80.7865C268.664 77.9668 271.298 74.8583 274.211 71.9709C274.921 71.2671 276.629 70.2845 275.293 69.3612C273.743 68.2907 266.679 70.6442 264.767 71.1565C255.06 73.7577 245.599 76.8188 236.322 80.7749C233.834 81.8359 231.353 82.9139 228.88 84.0099C217.438 89.0816 206.323 94.7406 194.705 99.426C184.179 103.671 173.444 107.367 162.862 111.466C145.739 118.098 128.515 125.202 110.67 129.713C100.328 132.328 89.6924 134.434 79.0916 135.693C77.7367 135.854 73.3098 136.721 72.1394 135.722C71.5658 135.232 73.4084 134.89 74.1052 134.601C76.0322 133.803 77.9482 132.978 79.8796 132.191C84.1643 130.444 88.506 128.838 92.855 127.257C104.938 122.866 118.045 119.728 130.977 119.524C133.57 119.483 138.259 119.542 140.895 120.697C153.352 126.155 139.34 139.828 133.542 144.194C132.25 145.167 130.937 146.109 129.607 147.029C128.005 148.138 125.698 149.703 123.828 150.628C121.657 151.701 118.587 153.204 116.035 152.554C113.552 151.922 111.809 150.303 109.693 149.02C107.137 147.471 104.609 146.419 101.746 145.539C97.9848 144.382 94.1613 143.788 90.3494 142.874C81.9966 140.869 73.3024 137.188 66.0929 132.486C58.7961 127.728 52.6483 120.333 46.7447 114.04C41.5106 108.46 35.6268 103.167 32.6237 95.9727C31.8565 94.135 31.7295 91.7945 31.5219 89.8476C31.4774 89.4298 31.3492 88.5991 31.3492 88.5991C31.3492 88.5991 31.0125 91.5282 30.8543 92.9939C30.5492 95.8207 30.6001 96.0622 31.0635 99.4122C32.6264 110.711 43.7328 106.191 50.5379 102.826C53.2798 101.47 55.9569 99.9801 58.5792 98.4054C73.8112 89.2587 88.1618 79.0784 97.1789 63.4599C100.371 57.9301 101.196 51.6541 96.1822 47.0557C93.7893 44.8608 89.1854 43.916 86.2723 44.1001C80.9627 44.4357 75.9285 46.1 71.2788 48.5494C68.4898 50.0185 65.755 51.6004 63.1171 53.3261C49.8435 62.0096 29.2883 88.5342 49.1166 101.75C58.385 107.928 69.3393 105.394 78.8285 101.288C95.2239 94.1933 105.469 79.8806 107.168 62.0782C107.92 54.1917 107.007 45.3171 102.876 38.4102C102.346 37.5252 100.568 36.3248 99.6771 36.138C96.8384 35.5426 94.1673 37.5452 91.9997 38.8966C87.1111 41.9444 82.5574 47.4029 79.6993 52.3896C70.3058 68.7792 63.5291 88.7025 72.6247 106.727C73.9919 109.437 77.1048 113.246 79.9561 114.96C90.293 121.17 102.077 118.5 112.464 113.856C136.605 103.062 148.639 80.0792 162.204 58.8764C165.684 53.4381 169.135 47.9816 172.675 42.5825C176.962 36.0445 181.506 29.6341 186.13 23.3309C186.915 22.2607 187.839 21.2935 188.58 20.1925C189.214 19.2515 190.261 18.2175 190.02 17.1091C189.846 16.3111 188.347 17.2829 187.641 17.6927C184.158 19.7133 180.899 22.4311 177.686 24.8383C170.06 30.5513 162.506 36.405 155.088 42.3855C140.169 54.4126 125.742 67.096 111.899 80.341C107.694 84.3652 103.349 88.36 100.018 93.1823C99.8627 93.407 98.6355 96.0674 98.7534 96.9201C98.8763 97.8084 100.651 97.0808 101.429 96.6349C102.68 95.918 103.761 94.9377 104.886 94.0358C107.3 92.1006 109.66 90.0987 112.043 88.1256C119.676 81.8056 127.258 75.5342 135.18 69.5707C152.639 56.4283 169.84 42.9218 187.585 30.1706C192.943 26.3205 198.354 22.5841 203.738 18.7744C204.976 17.8986 206.064 16.5864 207.552 16.2957C207.86 16.2357 207.44 16.936 207.251 17.1857C206.829 17.744 206.247 18.1625 205.759 18.6645C204.118 20.3517 202.503 22.0635 200.864 23.7529C195.095 29.7009 191.358 33.4023 185.582 39.6094C174.077 51.9735 162.759 65.2559 153.971 79.6961C151.861 83.1644 146.366 92.6671 149.916 96.3749C151.34 97.8621 154.771 96.6634 155.918 96.2233C157.82 95.494 159.654 94.57 161.397 93.5144C163.657 92.1447 165.764 90.5335 167.894 88.9679C171.309 86.4574 174.706 83.92 178.029 81.2884C185.527 75.3501 192.614 68.8623 199.682 62.4298C210.512 52.5736 221.287 42.8293 230.895 31.7296C232.334 30.0668 233.708 28.3448 235.018 26.5785C236.989 23.921 241.265 18.8389 241.664 15.14C241.737 14.4664 240.522 15.89 240.054 16.3807C239.107 17.3755 238.184 18.3926 237.248 19.3986C235.378 21.4106 233.486 23.4031 231.636 25.4345C228.707 28.6514 225.833 31.9186 222.977 35.2002C212.627 47.0902 201.763 58.5825 191.565 70.5936C190.398 71.9683 189.207 73.3293 188.159 74.7973C187.432 75.8169 186.087 77.5551 186.714 79.069C187.143 80.1042 189.033 79.0923 190.044 78.6085C192.404 77.4786 194.641 76.1071 196.894 74.7766C202.734 71.3279 206.226 68.91 211.911 64.9797C224.556 56.2393 237.227 47.0489 248.639 36.7403C250.657 34.9175 252.652 33.0696 254.665 31.241C256.149 29.8929 258.487 28.1511 259.144 26.2103C259.216 25.9964 258.668 26.2478 258.489 26.3856C257.579 27.0875 256.764 27.9061 255.924 28.6916C254.635 29.8973 253.351 31.1088 252.105 32.3586C248.13 36.3459 246.316 38.142 243.09 42.004C236.595 49.7797 230.675 58.1924 223.792 65.6267C221.813 67.7645 221.074 68.4879 219.374 70.4794C219.245 70.6301 219.193 70.8654 219.015 70.9532C218.903 71.0087 219.095 70.7159 219.136 70.5972C219.356 69.9446 219.498 69.2595 219.798 68.6393C220.162 67.8871 220.635 67.1906 221.115 66.5061C222.171 64.9972 223.276 63.522 224.402 62.0642C228.71 56.4886 233.077 51.1768 237.014 45.3045C243.913 35.0157 250.232 24.0007 254.511 12.3449C256.106 8.00207 258.135 3.39631 256.949-1.31074C255.469-7.18612 248.559-5.2085 244.777-3.44449C242.689-2.47017 240.682-1.32358 238.702-0.143985C236.29 1.29288 233.955 2.85573 231.611 4.39982C230.041 5.43331 228.508 6.51988 226.962 7.58783C224.467 9.31132 221.908 10.9423 219.334 12.5452C218.462 13.0882 217.612 13.6669 216.771 14.257C216.657 14.3374 216.334 14.5719 216.473 14.5527C218.313 14.2982 221.643 12.2472 223.2 11.6711C229.781 9.23673 236.548 7.35503 243.136 4.92637C244.82 4.30547 246.733 3.9851 246.892 2.0315" fill="none" fill-rule="evenodd" opacity="1" stroke="#b3724d" stroke-linecap="round" stroke-linejoin="round" stroke-width="32.18"/>
<path d="M-0.558145 162.693C-4.54603 160.264-0.688536 165.18-0.0776 166.02C2.39371 169.416 6.17076 171.366 8.77561 174.446C13.0488 179.498 17.0905 180.438 22.9225 183.061C27.4885 185.114 32.1388 187.151 36.5426 189.508C44.491 193.763 51.8313 199.058 59.7568 203.382C68.3239 208.055 77.3982 211.762 85.9131 216.54C91.663 219.766 96.7387 223.991 102.637 226.989C108.545 229.991 114.852 231.797 121.204 233.546C123.8 234.261 127.913 235.769 130.682 235.096" fill="none" fill-rule="evenodd" opacity="1" stroke="#b3724d" stroke-linecap="round" stroke-linejoin="round" stroke-width="22.7363"/>
<path d="M124.042 226.007C123.817 226.007 123.142 226.007 123.367 226.007C125.726 226.007 128.133 224.594 130.25 223.712C134.548 221.921 138.652 219.745 142.936 217.909C156.264 212.197 169.86 206.379 181.805 198.07C185.443 195.539 188.848 192.67 192.467 190.107C193.745 189.201 195.029 188.084 196.381 187.273C196.745 187.054 197.101 186.823 197.461 186.598C197.581 186.523 197.929 186.336 197.865 186.463C197.667 186.86 196.322 187.789 196.111 187.948" fill="none" fill-rule="evenodd" opacity="1" stroke="#b3724d" stroke-linecap="round" stroke-linejoin="round" stroke-width="22.7363"/>
<path d="M134.839 235.724C136.111 233.179 142.95 229.819 145.366 228.301C154.9 222.308 164.642 216.512 173.977 210.216C183.448 203.829 192.873 197.276 201.779 190.107C219.178 176.103 235.127 160.39 251.175 144.895C256.563 139.693 262.193 134.596 268.045 129.914C269.022 129.133 270.032 128.394 271.014 127.62C272.567 126.397 275.903 124.861 276.818 123.031" fill="none" fill-rule="evenodd" opacity="1" stroke="#b3724d" stroke-linecap="round" stroke-linejoin="round" stroke-width="22.7363"/>
<path d="M-13.0336 127.703C-13.4549 130.265-8.10365 133.027-6.52538 134.355C0.200822 140.014 6.74408 145.745 13.7806 151.023C22.3641 157.461 31.4525 163.518 41.0503 168.355C50.7513 173.243 61.2034 176.893 70.6698 182.224C77.9691 186.334 84.5466 191.76 91.9368 195.682C98.6404 199.238 105.783 203.357 113.164 205.284C114.914 205.74 117.538 206.677 119.254 205.996" fill="none" fill-rule="evenodd" opacity="1" stroke="#ffffff" stroke-linecap="round" stroke-linejoin="round" stroke-width="36.0917"/>
<path d="M114.211 210.682C111.548 210.682 119.253 209.213 119.648 209.129C124.374 208.116 129.066 207.235 133.434 205.051C146.483 198.527 158.076 189.985 169.937 181.557C194.943 163.789 220.721 147.467 246.633 131.074C257.846 123.979 268.768 116.398 280.224 109.715" fill="none" fill-rule="evenodd" opacity="1" stroke="#ffffff" stroke-linecap="round" stroke-linejoin="round" stroke-width="36.0917"/>
<path d="M304.269 66.3073L304.032 64.8854L304.032 64.1744L304.98 64.4114L304.98 64.4114" fill="none" fill-rule="evenodd" opacity="1" stroke="#fa3278" stroke-linecap="round" stroke-linejoin="round" stroke-width="5.00642"/>
<path d="M168.711-16.6393C167.878-17.9344 166.138-21.017 164.682-22.0901C161.465-24.4603 155.838-23.1674 152.358-22.8011C145.925-22.1239 139.558-20.924 133.162-19.9572C99.6853-14.8968 66.6642-8.53306 33.8631-0.0500037C13.5024 5.21568-6.43753 11.463-26.0955 18.9092C-30.6781 20.6451-35.3446 22.1746-39.841 24.123C-40.7257 24.5064-42.569 24.8866-42.2109 25.782C-41.7378 26.9646-39.69 26.3407-38.419 26.2559C-36.9131 26.1555-35.4116 25.9859-33.9162 25.782C-31.9345 25.5117-29.9603 25.1856-27.9914 24.834C-14.8058 22.4794-1.632 20.1451 11.586 17.9613C63.3376 9.411 115.33 4.83838 167.763 3.97883C188.561 3.63788 209.31 4.10441 230.091 4.68981C236.413 4.86788 242.733 5.09997 249.05 5.40078C250.394 5.46477 251.736 5.57059 253.079 5.63777C253.316 5.6496 254.027 5.63777 253.79 5.63777C240.215 5.63777 226.625 4.99593 213.028 5.16379C161.267 5.8028 109.593 8.4475 58.0361 12.9845C33.4142 15.1512 8.90746 18.4277-15.6679 21.0421C-20.9517 21.6043-24.2049 21.8799-29.4134 22.2271C-30.8344 22.3218-32.2559 22.4166-33.6792 22.4641C-34.6266 22.4957-36.5231 22.4641-36.5231 22.4641C-36.5231 22.4641-34.6253 22.5232-33.6792 22.4641C-32.0945 22.365-30.5144 22.1912-28.9394 21.9901C-26.8006 21.7171-24.673 21.362-22.5407 21.0421C-16.872 20.1919-11.1716 19.5663-5.47734 18.9092C13.1997 16.7542 31.6694 14.5875 50.4524 13.2215C105.561 9.21353 161.154 9.17173 216.346 11.3255C237.313 12.1438 258.219 12.9462 279.148 14.4064C284.606 14.7872 290.056 15.2839 295.501 15.8284C298.768 16.1551 300.144 16.1883 303.084 16.7763C303.329 16.8253 304.045 17.0014 303.795 17.0133C293.483 17.5044 283.023 16.6237 272.749 16.0653C257.613 15.2427 242.404 14.2825 227.247 14.1694C182.054 13.8322 137.041 14.7577 91.9257 17.2503C68.431 18.5484 44.9144 20.685 21.5396 23.4121C14.8145 24.1967 8.08738 24.9894 1.39539 26.0189C-0.581398 26.3231-2.55486 26.6484-4.52938 26.9669C-5.00376 27.0434-6.2911 26.8641-5.95132 27.2039C-4.43899 28.7162-1.6868 27.8171 0.447423 27.6779C2.66728 27.5331 4.86837 27.1754 7.08316 26.9669C25.5429 25.2295 44.0382 23.6733 62.5389 22.4641C114.558 19.0641 167.16 19.8297 219.19 22.4641C243.009 23.6702 266.843 25.2162 290.524 28.1519C298.429 29.1319 306.327 30.1799 314.223 31.2327C316.772 31.5727 319.293 32.1083 321.807 32.6547C321.979 32.6922 322.456 32.8698 322.28 32.8917C314.221 33.8991 304.122 31.9493 296.449 31.4697C278.687 30.3597 260.92 29.2414 243.126 28.8628C200.801 27.9623 158.819 29.4426 116.573 32.1807C94.9285 33.5836 73.3026 35.618 51.6374 36.6835C44.0591 37.0562 36.4737 37.3945 28.8863 37.3945C27.7013 37.3945 26.5115 37.5018 25.3314 37.3945C24.5566 37.3241 22.6484 36.9967 23.1985 36.4465C23.8629 35.7822 28.0135 36.4465 29.1233 36.4465C34.514 36.4465 39.85 36.9205 45.2386 36.9205" fill="none" fill-rule="evenodd" opacity="1" stroke="#fa3278" stroke-linecap="round" stroke-linejoin="round" stroke-width="23.7817"/>
<path d="M-17.945 92.4298C-17.1677 91.6805-16.5805 90.695-15.6547 90.1396C-14.1285 89.2238-7.42155 96.2007-6.2391 97.2649C1.02271 103.801 9.12229 110.052 17.1727 115.587C24.1903 120.412 30.8903 125.622 37.7852 130.601C47.7398 137.791 58.2674 144.289 68.5768 150.959C70.8768 152.448 73.8015 153.167 76.2111 154.522C81.1662 157.309 86.0654 160.328 90.7162 163.429C92.4349 164.574 94.6388 164.729 96.5691 165.464C100.906 167.116 105.169 170.165 109.293 172.335C111.839 173.675 114.736 175.857 117.691 176.152C121.923 176.576 126.75 171.595 129.905 169.282C140.657 161.397 150.999 153.198 161.969 145.615C187.967 127.646 213.617 109.113 239.076 90.394C254.799 78.8329 271.577 68.0717 285.39 54.2585C285.606 54.0422 285.065 54.7772 284.881 55.0219C284.301 55.7956 283.704 56.5569 283.1 57.3122C282.462 58.1098 281.737 58.8337 281.064 59.6025C278.347 62.7077 275.664 65.9239 272.666 68.7636C263.771 77.1912 253.04 84.1378 242.893 90.903C210.251 112.664 177.308 134.149 146.192 158.085C138.972 163.639 132.228 170.04 124.307 174.626C123.453 175.12 119.479 177.52 118.454 176.152C117.067 174.303 125.454 168.803 126.597 168.009C128.549 166.654 130.473 165.256 132.45 163.938C139.53 159.218 147.335 155.078 154.59 150.705C193.422 127.299 233.161 105.11 270.885 79.9605C271.043 79.8553 270.537 80.1145 270.376 80.215C269.857 80.5392 269.339 80.8659 268.849 81.2329C267.302 82.3935 265.785 83.5949 264.269 84.7956C262.273 86.3751 260.223 87.8846 258.161 89.3761C249.252 95.8211 240.113 101.621 230.932 107.698C208.337 122.656 185.703 137.608 163.751 153.504C157.741 157.856 151.221 161.594 145.428 166.228C143.191 168.018 140.915 169.668 138.558 171.317C137.806 171.844 137.031 172.335 136.267 172.844C136.068 172.977 135.758 173.593 135.758 173.353C135.758 172.222 139.264 169.805 139.576 169.536C142.88 166.682 146.253 164.002 149.755 161.393C152.72 159.183 155.67 156.952 158.661 154.776C181.033 138.506 204.592 124.541 228.388 110.498C234.805 106.71 241.317 103.107 247.728 99.3007C251.034 97.3374 253.546 95.5067 256.634 93.4477C256.885 93.2809 258.418 92.6869 258.161 92.4298C257.747 92.0152 251.346 97.6687 250.527 98.2828C242.538 104.275 234.284 109.876 226.097 115.587C202.734 131.887 178.488 146.903 155.099 163.174C148.332 167.881 141.198 172.506 134.995 177.934C132.635 179.999 129.56 184.116 126.088 184.55C117.735 185.594 110.617 183.299 102.931 180.224C93.611 176.496 85.0204 171.499 76.9745 165.464C69.5765 159.916 63.249 153.008 56.1075 147.142C48.4036 140.814 40.5781 134.818 32.4412 129.074C19.1095 119.664 5.35796 110.814-8.27491 101.845C-9.70981 100.901-11.1562 99.975-12.601 99.0462C-13.9864 98.1556-15.3865 97.2758-16.6726 96.247C-17.5209 95.5684-18.8739 95.2417-19.2174 94.2112C-19.4481 93.5189-18.4703 92.9363-17.945 92.4298Z" fill="none" fill-rule="evenodd" opacity="1" stroke="#fa3278" stroke-linecap="round" stroke-linejoin="round" stroke-width="23.7817"/>
<path d="M3.43098 107.953C3.22558 107.747-1.22461 102.888 0.377268 102.354C0.683495 102.252 2.39817 103.519 2.66755 103.627C5.44937 104.739 8.02823 106.03 10.8108 107.189C20.5979 111.267 30.666 114.503 40.33 118.895C48.995 122.834 57.299 127.622 66.032 131.365C79.6153 137.186 93.4886 141.665 107.257 146.888C113.634 149.306 120.335 153.902 127.106 155.031C131.068 155.691 132.147 151.586 134.74 149.178C140.343 143.975 147.772 139.896 154.081 135.691C179.473 118.763 206.086 103.505 231.95 87.3403C245.265 79.0186 258.646 70.6888 271.648 61.8927C276.146 58.85 281.03 56.0694 285.136 52.4771C286.171 51.5711 288.16 50.0802 288.444 48.66C288.477 48.4936 288.596 48.2269 288.444 48.151C287.119 47.4885 285.505 48.6488 284.118 49.1689C282.48 49.783 280.881 50.4945 279.283 51.2048C269.579 55.5176 260.233 60.6325 250.527 64.9464C214.227 81.08 179.037 99.3916 144.156 118.386C135.057 123.341 126.079 128.544 116.927 133.4C114.648 134.61 112.296 135.683 110.056 136.963C109.331 137.378 107.766 137.146 107.766 137.981C107.766 138.708 111.431 136.658 111.838 136.454C113.025 135.86 114.213 135.267 115.4 134.673C117.775 133.485 120.141 132.279 122.526 131.11C128.459 128.202 134.381 125.311 140.339 122.458C157.793 114.1 175.375 106.16 193.27 98.7917C203.121 94.7353 212.91 90.5634 222.789 86.5769C225.712 85.3973 228.582 84.0872 231.441 82.7598C232.543 82.2483 233.678 81.8044 234.749 81.2329C234.961 81.12 235.45 80.8679 235.258 80.7239C233.602 79.4815 228.039 81.4553 226.861 81.7418C225.162 82.1552 223.469 82.5971 221.771 83.0142C205.523 87.0051 189.427 91.3669 173.421 96.247C149.685 103.484 126.273 111.749 102.931 120.168C94.6873 123.141 86.2426 125.676 77.7379 127.802C75.4303 128.379 71.8948 129.074 69.5947 129.074C61.2303 129.074 53.9644 123.913 46.6919 120.422C29.5074 112.174 12.1357 103.917-3.69434 93.1933C-13.8125 86.339-23.5726 78.8759-32.9591 71.0539C-34.4859 69.7815-36.0306 68.5302-37.5396 67.2367C-38.6091 66.3201-40.3481 65.1454-40.5933 63.6741C-40.7474 62.7499-38.695 63.6711-37.7941 63.9285C-35.8848 64.4741-34.0182 65.1762-32.1956 65.9643C-25.7938 68.7327-19.4585 71.7308-13.11 74.6165C-1.25906 80.0033 10.7519 84.887 22.7711 89.8851C50.27 101.32 77.673 113.733 105.73 123.73C113.484 126.493 121.273 128.993 128.888 132.128C131.102 133.04 133.811 133.234 135.504 134.927C135.638 135.061 135.143 134.791 134.995 134.673C134.291 134.11 133.652 133.469 132.959 132.891C131.138 131.374 128.907 130.47 126.852 129.329C119.804 125.414 112.665 122.021 105.221 118.895C83.1739 109.635 61.0653 100.915 39.5665 90.394C33.3637 87.3586 27.2654 84.1272 21.2443 80.7239C18.4197 79.1274 17.5574 78.846 15.3913 77.1613C15.3142 77.1013 14.1893 76.004 14.3734 75.8889C16.6797 74.4475 19.797 75.38 22.5167 75.38C28.4544 75.38 34.3922 75.38 40.33 75.38C61.3389 75.38 82.1746 75.0119 103.185 74.3621C137.52 73.3002 171.9 72.3103 206.248 72.0718C223.455 71.9523 240.696 72.0718 257.907 72.0718C266.652 72.0718 275.649 72.6949 284.372 72.0718C285.391 71.999 282.339 71.8502 281.319 71.8173C277.079 71.6805 272.837 71.5933 268.595 71.5628C261.046 71.5085 253.496 71.5628 245.946 71.5628C233.591 71.5628 221.69 71.909 209.302 72.8352C175.935 75.33 142.953 80.9731 110.056 86.8314C99.6532 88.684 88.6233 89.3932 78.5013 92.4298C78.0871 92.5541 79.3415 92.667 79.7737 92.6843C81.6403 92.759 83.5059 93.0199 85.3722 92.9388C89.9867 92.7382 94.5307 91.7304 99.1139 91.1575C108.72 89.9567 118.3 88.5521 127.87 87.0858C162.935 81.713 198.011 76.074 232.968 70.036C237.05 69.3309 241.125 68.5769 245.183 67.7457C248.167 67.1346 251.176 66.5966 254.09 65.7099C255.373 65.3194 257.564 64.7504 257.398 63.4196C257.106 61.0834 252.992 61.1633 251.29 61.1293C247.813 61.0598 244.334 61.0366 240.857 61.1293C230.955 61.3933 220.87 62.2133 211.083 63.6741C172.499 69.433 134.846 81.2031 98.3505 94.7201C93.2534 96.6079 88.3246 98.9229 83.3364 101.082C81.2812 101.972 78.34 101.937 77.229 103.881C76.3706 105.383 80.6371 103.271 82.3185 102.863C83.4398 102.592 84.5377 102.227 85.6267 101.845C89.6282 100.445 93.5931 98.9414 97.587 97.5194C113.106 91.9937 128.57 86.3125 144.156 80.9784C171.368 71.6653 199.066 63.8625 226.352 54.7674C231.95 52.9013 237.617 51.2281 243.147 49.1689C245.601 48.2552 247.947 47.0638 250.273 45.8608C250.441 45.7736 250.527 45.5415 250.527 45.3518C250.527 45.1621 250.461 44.8653 250.273 44.8429C246.81 44.4306 243.324 44.1996 239.839 44.0794C233.014 43.8441 226.242 45.4098 219.481 46.3697C211.072 47.5636 202.653 48.7129 194.288 50.1868C154.59 57.1821 115.95 67.9091 76.72 76.9068C63.9705 79.831 50.0533 83.2774 37.0218 85.3045C32.9977 85.9305 28.6422 86.9287 24.8069 85.559C23.6194 85.1349 26.2188 83.3136 27.3517 82.7598C30.1538 81.3899 33.0801 80.2831 36.0039 79.1971C40.4298 77.5532 44.9752 76.2487 49.4911 74.871C64.1387 70.4023 78.6582 66.9586 93.7699 64.183C127.671 57.9563 162.195 56.3183 196.578 55.2764C204.38 55.0399 212.185 54.8582 219.99 54.7674C225.503 54.7033 231.045 55.316 236.531 54.7674C237.463 54.6742 234.665 54.593 233.732 54.5129C231.696 54.3385 229.665 54.1043 227.624 54.004C224.488 53.8498 221.347 53.8418 218.209 53.7495C212.695 53.5873 207.181 53.429 201.668 53.2406C189.778 52.8341 177.939 52.3723 166.041 52.2227C114.235 51.571 62.5503 54.0447 10.8108 56.2943C-2.764 56.8845-16.5569 57.2428-30.1598 58.0756C-35.7318 58.4167-38.3803 58.6691-43.647 58.839C-45.3448 58.8938-47.0429 58.9632-48.7366 59.0935C-48.9057 59.1065-49.4148 59.0829-49.2455 59.0935C-34.3972 60.0215-18.5297 56.7323-3.69434 55.7853C29.5356 53.6643 62.8266 52.9263 96.0602 50.9503C112.783 49.9559 129.496 48.7626 146.192 47.3876C153.838 46.7579 161.482 46.049 169.095 45.0973C171.429 44.8055 173.148 44.945 175.457 44.0794C175.743 43.972 176.23 43.4692 175.966 43.316C169.553 39.6034 160.325 39.9661 153.317 39.4989C145.688 38.9903 138.054 38.5297 130.414 38.2265C93.7549 36.7717 57.5046 39.5596 20.9898 42.5526C2.56527 44.0628-15.8512 46.1337-34.2314 48.151C-40.0714 48.792-45.9179 49.4999-51.7903 49.6779C-52.4686 49.6985-54.5047 49.6779-53.8261 49.6779C-42.8316 49.6779-31.9189 47.6448-20.9987 46.6242C-7.32773 45.3465 6.30385 43.8543 19.9719 42.5526C30.4913 41.5507 41.0112 40.5298 51.5269 39.4989C53.6526 39.2905 55.782 39.0866 57.8888 38.7354C58.1534 38.6913 58.8583 38.6527 58.6522 38.481C56.2779 36.5023 51.7358 36.6008 48.9821 36.1907C41.3744 35.0576 33.1377 34.0477 25.8248 31.6101" fill="none" fill-rule="evenodd" opacity="1" stroke="#fa3278" stroke-linecap="round" stroke-linejoin="round" stroke-width="23.7817"/>
<path d="M266.188 147.034C264.82 147.034 264.112 149.292 263.309 150.296C261.625 152.401 259.113 154.723 256.783 156.055C243.432 163.684 232.366 174.471 219.739 183.31C201.792 195.872 182.507 206.604 163.886 218.242C150.106 226.854 136.082 236.448 118.973 235.132C110.276 234.463 101.113 230.247 93.2532 226.879C78.8885 220.723 65.2117 213.008 51.7949 204.998C39.3095 197.544 28.1393 188.323 16.0948 180.239C10.5407 176.51 4.88959 172.733-0.987572 169.49C-6.45566 166.473-12.2048 164.035-17.686 161.045" fill="none" fill-rule="evenodd" opacity="1" stroke="#fa3278" stroke-linecap="round" stroke-linejoin="round" stroke-width="23.7817"/>
<path d="M261.339 155.975C261.131 155.882 260.808 155.69 260.553 155.764C259.976 155.933 259.489 157.45 259.133 157.913C258.029 159.35 256.719 160.625 255.268 161.708C248.698 166.611 241.259 170.552 234.004 174.306C223.582 179.7 215.097 187.53 205.808 194.572C199.292 199.512 192.377 203.879 185.868 208.779C172.463 218.868 157.971 228.608 142.195 234.672C133.007 238.203 118.611 241.766 108.72 240.032C101.197 238.714 94.8834 234.342 88.3772 230.661C77.837 224.696 67.9731 217.575 57.7196 211.142C36.2046 197.642 13.9087 184.834-6.13528 169.167" fill="none" fill-rule="evenodd" opacity="1" stroke="#fa3278" stroke-linecap="round" stroke-linejoin="round" stroke-width="23.7817"/>
<path d="M123.025 27.6822C121.312 26.826 121.771 29.3097 121.88 30.5444C121.998 31.8884 122.285 33.2126 122.452 34.5514C122.666 36.266 122.927 37.9782 123.025 39.7034C123.484 47.8524 123.195 55.9888 122.834 64.1272C122.477 72.1532 122.452 80.1465 122.261 88.1694C121.937 101.788 121.062 115.333 123.406 128.812" fill="none" fill-rule="evenodd" opacity="1" stroke="#ffffff" stroke-linecap="round" stroke-linejoin="round" stroke-width="12.2827"/>
</g>
</svg>
